<svg width="20" height="16" viewBox="0 0 20 16" fill="none" xmlns="http://www.w3.org/2000/svg">
<path d="M0.00299032 7.71548C0.040328 5.87326 0.0589968 4.95215 0.67093 4.16363C0.782622 4.0197 0.946497 3.8487 1.08385 3.73274C1.83639 3.09741 2.82995 3.09741 4.81706 3.09741C5.527 3.09741 5.88198 3.09741 6.22035 3.00452C6.29067 2.98522 6.36024 2.96296 6.4289 2.93781C6.75936 2.81674 7.05574 2.60837 7.64851 2.19161C9.98718 0.547381 11.1565 -0.274735 12.138 0.0824053C12.3261 0.150879 12.5083 0.249718 12.671 0.371623C13.5194 1.00744 13.5839 2.48675 13.7128 5.44537C13.7606 6.54087 13.7931 7.47848 13.7931 8C13.7931 8.52152 13.7606 9.45913 13.7128 10.5546C13.5839 13.5132 13.5194 14.9926 12.671 15.6284C12.5083 15.7503 12.3261 15.8491 12.138 15.9176C11.1565 16.2747 9.98718 15.4526 7.64851 13.8084C7.05574 13.3916 6.75936 13.1833 6.4289 13.0622C6.36024 13.037 6.29067 13.0148 6.22035 12.9955C5.88198 12.9026 5.527 12.9026 4.81706 12.9026C2.82995 12.9026 1.83639 12.9026 1.08385 12.2673C0.946497 12.1513 0.782622 11.9803 0.67093 11.8364C0.0589969 11.0478 0.0403281 10.1267 0.00299033 8.28452C0.00102924 8.18776 0 8.09278 0 8C0 7.90722 0.00102924 7.81224 0.00299032 7.71548Z" fill="#071437"/>
<path fill-rule="evenodd" clip-rule="evenodd" d="M17.4895 1.55219C17.7821 1.29218 18.217 1.33434 18.4608 1.64635L17.931 2.11713C18.4608 1.64635 18.4606 1.64602 18.4608 1.64635L18.4619 1.6477L18.4631 1.64921L18.4658 1.65275L18.4727 1.66184C18.4779 1.6688 18.4844 1.67756 18.4921 1.68814C18.5075 1.70929 18.5275 1.73772 18.5515 1.77358C18.5995 1.84529 18.6635 1.94667 18.7379 2.07889C18.8868 2.34345 19.077 2.73092 19.2644 3.25038C19.6397 4.29107 20 5.85136 20 8.00023C20 10.1491 19.6397 11.7094 19.2644 12.7501C19.077 13.2695 18.8868 13.657 18.7379 13.9216C18.6635 14.0538 18.5995 14.1552 18.5515 14.2269C18.5275 14.2627 18.5075 14.2912 18.4921 14.3123C18.4844 14.3229 18.4779 14.3317 18.4727 14.3386L18.4658 14.3477L18.4631 14.3513L18.4619 14.3528C18.4616 14.3531 18.4608 14.3541 17.931 13.8833L18.4608 14.3541C18.217 14.6661 17.7821 14.7083 17.4895 14.4483C17.1983 14.1895 17.1578 13.729 17.3977 13.417C17.3983 13.4163 17.3994 13.4148 17.4009 13.4127C17.4058 13.406 17.4154 13.3925 17.4291 13.372C17.4565 13.3311 17.5003 13.2625 17.5552 13.1649C17.6649 12.9698 17.8195 12.6587 17.977 12.2221C18.2913 11.3508 18.6207 9.96954 18.6207 8.00023C18.6207 6.03093 18.2913 4.64968 17.977 3.77836C17.8195 3.34181 17.6649 3.03066 17.5552 2.8356C17.5003 2.73802 17.4565 2.66934 17.4291 2.62845C17.4154 2.608 17.4058 2.59449 17.4009 2.58778C17.3994 2.58561 17.3983 2.58416 17.3977 2.5834C17.3977 2.5834 17.3977 2.58341 17.3977 2.5834" fill="#071437"/>
<path fill-rule="evenodd" clip-rule="evenodd" d="M15.7571 4.41595C16.0901 4.21871 16.51 4.34663 16.6949 4.70166L16.0921 5.0588C16.6949 4.70166 16.6948 4.70134 16.6949 4.70166L16.6956 4.70295L16.6963 4.70432L16.6978 4.7073L16.7014 4.71428L16.7102 4.73227C16.7169 4.74607 16.7251 4.76348 16.7345 4.78457C16.7533 4.82676 16.7772 4.88363 16.8042 4.95574C16.8584 5.10004 16.9251 5.3049 16.99 5.57476C17.1199 6.11497 17.2415 6.91186 17.2415 8.00035C17.2415 9.08884 17.1199 9.88573 16.99 10.4259C16.9251 10.6958 16.8584 10.9007 16.8042 11.045C16.7772 11.1171 16.7533 11.1739 16.7345 11.2161C16.7251 11.2372 16.7169 11.2546 16.7102 11.2684L16.7014 11.2864L16.6978 11.2934L16.6963 11.2964L16.6956 11.2978C16.6954 11.2981 16.6949 11.299 16.0921 10.9419L16.6949 11.299C16.51 11.6541 16.0901 11.782 15.7571 11.5847C15.427 11.3892 15.3063 10.9474 15.4846 10.5938L15.4892 10.5838C15.4955 10.5697 15.5075 10.5415 15.5236 10.4987C15.5557 10.4132 15.6039 10.2688 15.6539 10.0606C15.7539 9.64483 15.8622 8.97095 15.8622 8.00035C15.8622 7.02975 15.7539 6.35587 15.6539 5.94007C15.6039 5.73193 15.5557 5.58748 15.5236 5.50197C15.5075 5.45918 15.4955 5.43102 15.4892 5.41691L15.4846 5.40687C15.3063 5.05332 15.427 4.61152 15.7571 4.41595Z" fill="#071437"/>
</svg>
