<svg width="31" height="31" viewBox="0 0 31 31" fill="none" xmlns="http://www.w3.org/2000/svg">
<path fill-rule="evenodd" clip-rule="evenodd" d="M19.6129 13.5871C19.2467 13.221 18.6532 13.221 18.287 13.5871L16.1375 15.7367V5.5C16.1375 4.98223 15.7177 4.5625 15.2 4.5625C14.6822 4.5625 14.2625 4.98223 14.2625 5.5L14.2625 15.7367L12.1129 13.5871C11.7467 13.221 11.1532 13.221 10.787 13.5871C10.4209 13.9532 10.4209 14.5468 10.787 14.9129L14.537 18.6629C14.9032 19.029 15.4967 19.029 15.8629 18.6629L19.6129 14.9129C19.979 14.5468 19.979 13.9532 19.6129 13.5871Z" fill="white"/>
<path d="M22.3844 15.5C21.8244 15.5 21.3346 15.8428 20.9387 16.2387L17.1887 19.9887C16.0903 21.0871 14.3096 21.0871 13.2112 19.9887L9.46121 16.2387C9.06527 15.8428 8.57546 15.5 8.01551 15.5H5.19995C5.19995 21.0228 9.6771 25.5 15.2 25.5C20.7228 25.5 25.2 21.0228 25.2 15.5H22.3844Z" fill="white"/>
</svg>
