<svg width="16" height="16" viewBox="0 0 16 16" fill="none" xmlns="http://www.w3.org/2000/svg">
<path fill-rule="evenodd" clip-rule="evenodd" d="M1.26595 5.40043C1.04465 5.17914 1.04465 4.82034 1.26595 4.59904L4.26595 1.59905C4.48725 1.37775 4.84604 1.37775 5.06734 1.59905L8.06734 4.59904C8.28863 4.82034 8.28863 5.17914 8.06734 5.40043C7.84604 5.62173 7.48725 5.62173 7.26595 5.40043L5.23331 3.36779L5.23331 13.9997C5.23331 14.3127 4.9796 14.5664 4.66664 14.5664C4.35368 14.5664 4.09998 14.3127 4.09998 13.9997L4.09998 3.36779L2.06734 5.40043C1.84604 5.62173 1.48725 5.62173 1.26595 5.40043Z" fill="#4B5675"/>
<path opacity="0.3" fill-rule="evenodd" clip-rule="evenodd" d="M7.93262 10.599C7.71132 10.8203 7.71132 11.1791 7.93262 11.4004L10.9326 14.4004C11.1539 14.6217 11.5127 14.6217 11.734 14.4004L14.734 11.4004C14.9553 11.1791 14.9553 10.8203 14.734 10.599C14.5127 10.3777 14.1539 10.3777 13.9326 10.599L11.9 12.6317L11.9 1.99974C11.9 1.68678 11.6463 1.43307 11.3333 1.43307C11.0204 1.43307 10.7666 1.68678 10.7666 1.99974L10.7666 12.6317L8.73401 10.599C8.51271 10.3777 8.15392 10.3777 7.93262 10.599Z" fill="#4B5675"/>
</svg>
