<svg width="21" height="16" viewBox="0 0 21 16" fill="none" xmlns="http://www.w3.org/2000/svg">
<path d="M19.5417 7.00003C20.0249 7.00003 20.4167 7.39178 20.4167 7.87503C20.4167 8.35827 20.0249 8.75003 19.5417 8.75003H8.75V14.875C8.75 15.2289 8.53681 15.548 8.20985 15.6834C7.88288 15.8189 7.50653 15.744 7.25628 15.4937L0.256281 8.49374C0.0921873 8.32965 1.01438e-08 8.10709 0 7.87503C-1.01439e-08 7.64296 0.0921872 7.4204 0.256281 7.25631L7.25628 0.256307C7.50653 0.006059 7.88288 -0.0688025 8.20985 0.0666311C8.53681 0.202064 8.75 0.521121 8.75 0.875025L8.75 7.00003H19.5417Z" fill="#071437"/>
</svg>
