<svg width="16" height="16" viewBox="0 0 16 16" fill="none" xmlns="http://www.w3.org/2000/svg">
<path opacity="0.1" d="M11.6385 0.900056H4.37337C4.00593 0.898317 3.64176 0.969078 3.30172 1.10829C2.96167 1.24749 2.65242 1.45241 2.39168 1.71131C2.13094 1.97021 1.92384 2.278 1.78222 2.61705C1.64061 2.95611 1.56727 3.31977 1.56641 3.68721V12.3128C1.56727 12.6803 1.64061 13.0439 1.78222 13.383C1.92384 13.7221 2.13094 14.0298 2.39168 14.2887C2.65242 14.5476 2.96167 14.7526 3.30172 14.8918C3.64176 15.031 4.00593 15.1017 4.37337 15.1H11.6385C12.3771 15.0982 13.085 14.804 13.6073 14.2817C14.1297 13.7594 14.4239 13.0515 14.4256 12.3128V3.68721C14.4239 2.94854 14.1297 2.24063 13.6073 1.71832C13.085 1.19601 12.3771 0.9018 11.6385 0.900056Z" fill="#4B5675"/>
<path d="M11.6725 0.833406H4.33919C3.9683 0.831651 3.60071 0.903077 3.25747 1.04359C2.91423 1.18411 2.60207 1.39095 2.33889 1.65228C2.0757 1.91361 1.86665 2.22429 1.7237 2.56653C1.58076 2.90877 1.50673 3.27585 1.50586 3.64674V12.3534C1.50673 12.7243 1.58076 13.0914 1.7237 13.4336C1.86665 13.7759 2.0757 14.0865 2.33889 14.3479C2.60207 14.6092 2.91423 14.816 3.25747 14.9566C3.60071 15.0971 3.9683 15.1685 4.33919 15.1667H11.6725C12.4181 15.165 13.1327 14.868 13.6599 14.3408C14.1871 13.8136 14.4841 13.099 14.4859 12.3534V3.64674C14.4841 2.90114 14.1871 2.18658 13.6599 1.65936C13.1327 1.13214 12.4181 0.835166 11.6725 0.833406ZM13.4859 12.3534C13.4859 12.8343 13.2948 13.2956 12.9547 13.6356C12.6147 13.9757 12.1535 14.1667 11.6725 14.1667H4.33919C3.85827 14.1667 3.39704 13.9757 3.05697 13.6356C2.71691 13.2956 2.52586 12.8343 2.52586 12.3534V11.9534C2.52761 11.5685 2.68129 11.1999 2.95347 10.9277C3.22564 10.6555 3.59429 10.5018 3.97919 10.5001H13.5059L13.4859 12.3534ZM3.95919 9.50007C3.43354 9.50583 2.92379 9.6812 2.50586 10.0001V3.64674C2.50584 3.40692 2.5534 3.16947 2.64578 2.94816C2.73816 2.72684 2.87352 2.52604 3.04402 2.3574C3.21453 2.18875 3.4168 2.0556 3.63912 1.96565C3.86143 1.87571 4.09938 1.83076 4.33919 1.83341H11.6725C12.1535 1.83341 12.6147 2.02445 12.9547 2.36452C13.2948 2.70458 13.4859 3.16581 13.4859 3.64674V9.50007H3.95919ZM11.3925 4.66674C11.3908 4.79881 11.3376 4.92499 11.2442 5.01838C11.1508 5.11178 11.0246 5.16501 10.8925 5.16674H5.10586C4.97325 5.16674 4.84607 5.11406 4.75231 5.02029C4.65854 4.92652 4.60586 4.79935 4.60586 4.66674C4.60586 4.53413 4.65854 4.40695 4.75231 4.31319C4.84607 4.21942 4.97325 4.16674 5.10586 4.16674H10.8925C11.0246 4.16847 11.1508 4.2217 11.2442 4.31509C11.3376 4.40849 11.3908 4.53467 11.3925 4.66674ZM9.46586 7.04674C9.46586 7.17935 9.41318 7.30652 9.31941 7.40029C9.22565 7.49406 9.09847 7.54674 8.96586 7.54674H5.10586C4.97325 7.54674 4.84607 7.49406 4.75231 7.40029C4.65854 7.30652 4.60586 7.17935 4.60586 7.04674C4.60586 6.91413 4.65854 6.78695 4.75231 6.69319C4.84607 6.59942 4.97325 6.54674 5.10586 6.54674H8.96586C9.09793 6.54847 9.22411 6.6017 9.3175 6.6951C9.4109 6.78849 9.46413 6.91467 9.46586 7.04674Z" fill="#4B5675"/>
</svg>
