<svg width="16" height="16" viewBox="0 0 16 16" fill="none" xmlns="http://www.w3.org/2000/svg">
<path opacity="0.1" d="M10.6384 1.94694H10.8606L11.826 2.09916C12.718 2.35548 13.5023 2.89346 14.061 3.63215C14.6196 4.37084 14.9223 5.27028 14.9236 6.19514V11.2044C14.9199 12.3324 14.4689 13.4134 13.6689 14.2117C12.8689 15.01 11.7846 15.461 10.6523 15.4664H5.33227C4.19513 15.4683 3.10373 15.0205 2.29769 14.2214C1.49166 13.4223 1.03688 12.3372 1.0332 11.2044V6.19514C1.03445 5.27028 1.33716 4.37084 1.89579 3.63215C2.45442 2.89346 3.23874 2.35548 4.13075 2.09916L5.09613 1.93311H5.31838H7.62417L8.5965 1.94694H10.6384Z" fill="#78829D"/>
<path d="M11.878 2.0272V0.988145C11.8637 0.869619 11.8063 0.760421 11.7167 0.681204C11.627 0.601986 11.5113 0.55824 11.3915 0.55824C11.2717 0.55824 11.156 0.601986 11.0663 0.681204C10.9767 0.760421 10.9193 0.869619 10.905 0.988145V1.87378H10.681H8.623V0.988145C8.623 0.858681 8.57137 0.734519 8.47948 0.642974C8.38759 0.551429 8.26296 0.5 8.133 0.5C8.00304 0.5 7.87841 0.551429 7.78652 0.642974C7.69462 0.734519 7.643 0.858681 7.643 0.988145V1.85983H5.319H5.095V0.988145C5.0807 0.869619 5.0233 0.760421 4.93366 0.681204C4.84401 0.601986 4.72833 0.55824 4.6085 0.55824C4.48867 0.55824 4.37299 0.601986 4.28334 0.681204C4.1937 0.760421 4.1363 0.869619 4.122 0.988145V2.0272C3.22295 2.28554 2.43243 2.82777 1.8694 3.57229C1.30636 4.31681 1.00126 5.22335 1 6.15551V11.2043C1.00371 12.3461 1.46208 13.4397 2.27447 14.2451C3.08687 15.0505 4.18688 15.5018 5.333 15.5H10.695C11.8363 15.4945 12.9291 15.0399 13.7354 14.2353C14.5418 13.4307 14.9963 12.3413 15 11.2043V6.15551C14.9987 5.22335 14.6936 4.31681 14.1306 3.57229C13.5676 2.82777 12.7771 2.28554 11.878 2.0272ZM4.122 3.0523V3.61715C4.1363 3.73568 4.1937 3.84488 4.28334 3.9241C4.37299 4.00331 4.48867 4.04706 4.6085 4.04706C4.72833 4.04706 4.84401 4.00331 4.93366 3.9241C5.0233 3.84488 5.0807 3.73568 5.095 3.61715V2.85007C5.172 2.85007 5.242 2.85007 5.319 2.85007H7.643V3.61715C7.643 3.74662 7.69462 3.87078 7.78652 3.96232C7.87841 4.05387 8.00304 4.1053 8.133 4.1053C8.26296 4.1053 8.38759 4.05387 8.47948 3.96232C8.57137 3.87078 8.623 3.74662 8.623 3.61715V2.82915H10.681C10.758 2.82915 10.828 2.82915 10.905 2.82915V3.59623C10.9193 3.71476 10.9767 3.82396 11.0663 3.90317C11.156 3.98239 11.2717 4.02614 11.3915 4.02614C11.5113 4.02614 11.627 3.98239 11.7167 3.90317C11.8063 3.82396 11.8637 3.71476 11.878 3.59623V3.0523C12.4281 3.26547 12.912 3.61954 13.2807 4.07872C13.6495 4.53789 13.89 5.0859 13.978 5.66736H2.008C2.09728 5.08436 2.3399 4.5353 2.71121 4.07599C3.08251 3.61667 3.56927 3.26348 4.122 3.0523ZM10.681 14.5307H5.319C4.43094 14.5325 3.57841 14.1833 2.94849 13.5597C2.31856 12.9361 1.96271 12.089 1.959 11.2043V6.60878H14.041V11.1764C14.0428 11.6168 13.9573 12.0533 13.7891 12.4606C13.621 12.8679 13.3737 13.2381 13.0614 13.5499C12.7491 13.8616 12.3781 14.1088 11.9695 14.2771C11.561 14.4454 11.1231 14.5316 10.681 14.5307ZM6.313 9.28661C6.31718 9.4074 6.28505 9.52669 6.22073 9.62918C6.15641 9.73166 6.06282 9.81267 5.95197 9.86181C5.84113 9.91095 5.71807 9.92599 5.59859 9.905C5.4791 9.88401 5.36864 9.82794 5.28135 9.74398C5.19407 9.66003 5.13395 9.55202 5.1087 9.43379C5.08345 9.31557 5.09422 9.19253 5.13963 9.08045C5.18504 8.96837 5.26302 8.87235 5.36358 8.80471C5.46413 8.73708 5.58267 8.70091 5.704 8.70083C5.86194 8.70074 6.01375 8.76178 6.12737 8.87107C6.24099 8.98036 6.30755 9.12936 6.313 9.28661ZM8.595 9.28661C8.60056 9.40989 8.56868 9.53199 8.50352 9.63695C8.43836 9.74191 8.34295 9.82486 8.22974 9.87497C8.11653 9.92508 7.99079 9.94002 7.86893 9.91784C7.74706 9.89567 7.63474 9.8374 7.54663 9.75065C7.45852 9.66391 7.3987 9.55271 7.375 9.43158C7.3513 9.31045 7.36481 9.18501 7.41377 9.07164C7.46272 8.95828 7.54485 8.86225 7.64944 8.7961C7.75402 8.72995 7.87619 8.69675 8 8.70083C8.15551 8.7043 8.30379 8.76692 8.41443 8.87585C8.52507 8.98477 8.58968 9.13174 8.595 9.28661ZM10.891 9.28661C10.8938 9.40883 10.8599 9.5291 10.7936 9.63198C10.7273 9.73487 10.6317 9.81569 10.519 9.86407C10.4063 9.91246 10.2816 9.92621 10.161 9.90356C10.0404 9.88091 9.92938 9.82289 9.84211 9.73695C9.75483 9.651 9.69531 9.54104 9.67118 9.42118C9.64705 9.30131 9.65941 9.17699 9.70668 9.06417C9.75394 8.95134 9.83396 8.85515 9.93646 8.78794C10.039 8.72072 10.1593 8.68553 10.282 8.68689C10.4423 8.68688 10.5962 8.74984 10.7102 8.86211C10.8242 8.97438 10.8892 9.12691 10.891 9.28661ZM6.306 11.539C6.30509 11.6178 6.28861 11.6956 6.25751 11.768C6.22641 11.8404 6.18129 11.906 6.12474 11.9611C6.06819 12.0161 6.00131 12.0595 5.92791 12.0888C5.85452 12.1181 5.77606 12.1327 5.697 12.1318C5.57795 12.1304 5.46198 12.0939 5.36376 12.0268C5.26555 11.9598 5.18949 11.8652 5.14522 11.7551C5.10094 11.645 5.09043 11.5243 5.11502 11.4083C5.1396 11.2922 5.19818 11.186 5.28334 11.1031C5.3685 11.0203 5.47642 10.9644 5.59346 10.9426C5.71049 10.9208 5.83139 10.9341 5.94085 10.9807C6.05031 11.0274 6.14343 11.1053 6.20842 11.2047C6.27342 11.3041 6.30738 11.4204 6.306 11.539ZM8.588 11.539C8.59078 11.661 8.55703 11.781 8.49106 11.8837C8.42509 11.9864 8.32988 12.0673 8.2176 12.1158C8.10531 12.1644 7.98104 12.1786 7.86064 12.1565C7.74024 12.1344 7.62917 12.0771 7.54162 11.9919C7.45406 11.9066 7.39399 11.7973 7.36906 11.6779C7.34414 11.5585 7.35549 11.4344 7.40167 11.3215C7.44786 11.2085 7.52678 11.1119 7.62836 11.0438C7.72994 10.9757 7.84958 10.9394 7.972 10.9393C8.05223 10.9375 8.13202 10.9516 8.20668 10.9809C8.28134 11.0102 8.34937 11.0541 8.40676 11.11C8.46415 11.1658 8.50975 11.2326 8.54087 11.3063C8.572 11.38 8.58802 11.4591 8.588 11.539ZM10.884 11.539C10.8868 11.661 10.853 11.781 10.7871 11.8837C10.7211 11.9864 10.6259 12.0673 10.5136 12.1158C10.4013 12.1644 10.277 12.1786 10.1566 12.1565C10.0362 12.1344 9.92517 12.0771 9.83762 11.9919C9.75006 11.9066 9.68999 11.7973 9.66506 11.6779C9.64014 11.5585 9.65149 11.4344 9.69767 11.3215C9.74386 11.2085 9.82278 11.1119 9.92436 11.0438C10.0259 10.9757 10.1456 10.9394 10.268 10.9393C10.3482 10.9375 10.428 10.9516 10.5027 10.9809C10.5773 11.0102 10.6454 11.0541 10.7028 11.11C10.7601 11.1658 10.8057 11.2326 10.8369 11.3063C10.868 11.38 10.884 11.4591 10.884 11.539Z" fill="#78829D"/>
</svg>
