<svg width="30" height="30" viewBox="0 0 30 30" fill="none" xmlns="http://www.w3.org/2000/svg">
<path d="M17.4237 12.5746C17.163 12.3124 16.874 12.08 16.562 11.8816C15.7357 11.3525 14.775 11.0713 13.7938 11.0713C13.1195 11.07 12.4516 11.2022 11.8286 11.4602C11.2056 11.7182 10.6398 12.097 10.1639 12.5746L5.5 17.2421C4.54027 18.2037 4.00087 19.5065 4 20.8651C3.9982 23.7001 6.2949 25.9997 9.1299 26.0015C9.80315 26.0039 10.4702 25.8729 11.0926 25.6161C11.715 25.3594 12.2804 24.9819 12.7561 24.5056L16.606 20.6557C16.6577 20.6044 16.693 20.5389 16.7073 20.4675C16.7216 20.3961 16.7143 20.322 16.6864 20.2548C16.6585 20.1875 16.6112 20.1301 16.5505 20.0898C16.4898 20.0496 16.4185 20.0283 16.3457 20.0287H16.199C15.3947 20.0315 14.5976 19.8771 13.8525 19.5741C13.7853 19.5464 13.7115 19.5394 13.6404 19.5537C13.5693 19.5681 13.504 19.6032 13.4528 19.6547L10.6845 22.4266C9.82494 23.2862 8.43124 23.2862 7.57163 22.4266C6.71203 21.567 6.71203 20.1733 7.57163 19.3137L12.2539 14.6352C13.1128 13.7774 14.5042 13.7774 15.3631 14.6352C15.942 15.18 16.8449 15.18 17.4237 14.6352C17.6728 14.3859 17.8237 14.0553 17.849 13.7039C17.8623 13.4962 17.8312 13.2882 17.7579 13.0935C17.6845 12.8988 17.5706 12.7219 17.4237 12.5746Z" fill="white"/>
<path d="M24.4965 5.50184C22.4917 3.49711 19.2414 3.49711 17.2367 5.50184L13.3904 9.34439C13.3388 9.39626 13.3039 9.46239 13.2902 9.53427C13.2764 9.60615 13.2846 9.68049 13.3134 9.74772C13.342 9.81516 13.3901 9.8725 13.4515 9.91236C13.5129 9.95222 13.5849 9.97278 13.6581 9.97137H13.7937C14.5971 9.96989 15.393 10.1256 16.1367 10.4297C16.2038 10.4573 16.2776 10.4644 16.3487 10.45C16.4199 10.4357 16.4851 10.4005 16.5363 10.3491L19.2972 7.59178C20.1568 6.73218 21.5505 6.73218 22.4101 7.59178C23.2697 8.45139 23.2697 9.84509 22.4101 10.7047L18.9709 14.1403L18.9415 14.1733L17.7389 15.3686C16.88 16.2264 15.4886 16.2264 14.6297 15.3686C14.0508 14.8238 13.1479 14.8238 12.5691 15.3686C12.3184 15.6197 12.1673 15.9532 12.1437 16.3072C12.1305 16.5148 12.1615 16.7229 12.2349 16.9176C12.3082 17.1123 12.4221 17.2892 12.5691 17.4365C12.9934 17.8627 13.49 18.2103 14.0357 18.4631C14.1127 18.4998 14.1897 18.5291 14.2667 18.5621C14.3437 18.5951 14.4243 18.6208 14.5013 18.6501C14.5784 18.6791 14.6567 18.7048 14.736 18.7271L14.9523 18.7858C15.0989 18.8224 15.2456 18.8518 15.3959 18.8774C15.577 18.9043 15.7594 18.9215 15.9423 18.9288H16.2209L16.4409 18.9031C16.5216 18.8995 16.6059 18.8811 16.7013 18.8811H16.8259L17.0789 18.8445L17.1962 18.8225L17.4089 18.7785H17.4492C18.3499 18.5522 19.1723 18.0859 19.8288 17.4292L24.4963 12.7616C26.5012 10.7569 26.5012 7.50658 24.4965 5.50184Z" fill="white"/>
</svg>
