<svg width="20" height="20" viewBox="0 0 20 20" fill="none" xmlns="http://www.w3.org/2000/svg">
<path fill-rule="evenodd" clip-rule="evenodd" d="M9.48316 3.72054C6.88466 3.72054 4.74963 5.70849 4.51715 8.24603C4.48372 8.61106 4.17733 8.88892 3.81244 8.88854C2.49879 8.88743 1.39535 9.98073 1.39535 11.2916C1.39535 12.6188 2.47126 13.6947 3.79845 13.6947H4.4186C4.80392 13.6947 5.11628 14.0071 5.11628 14.3924C5.11628 14.7777 4.80392 15.09 4.4186 15.09H3.79845C1.70062 15.09 0 13.3895 0 11.2916C0 9.40836 1.40993 7.8344 3.20709 7.54194C3.75518 4.57337 6.3563 2.3252 9.48316 2.3252C11.8112 2.3252 13.8469 3.57161 14.9613 5.43092C17.6301 5.32571 20 7.50873 20 10.258C20 12.764 18.0928 14.8237 15.6503 15.0662C15.2669 15.1043 14.9252 14.8244 14.8872 14.4409C14.849 14.0575 15.129 13.7158 15.5125 13.6777C17.2484 13.5054 18.6047 12.0396 18.6047 10.258C18.6047 8.19961 16.7007 6.56624 14.6754 6.85627C14.3774 6.89896 14.081 6.74789 13.9433 6.4736C13.123 4.83953 11.4331 3.72054 9.48316 3.72054Z" fill="#78829D"/>
<path fill-rule="evenodd" clip-rule="evenodd" d="M10.0002 16.1826L8.168 14.3504C7.89553 14.078 7.45377 14.078 7.1813 14.3504C6.90884 14.6229 6.90884 15.0646 7.1813 15.337L9.17795 17.3338C9.63209 17.7878 10.3683 17.7878 10.8224 17.3338L12.8191 15.337C13.0916 15.0646 13.0916 14.6229 12.8191 14.3504C12.5466 14.078 12.1049 14.078 11.8325 14.3504L10.0002 16.1826Z" fill="#78829D"/>
<path fill-rule="evenodd" clip-rule="evenodd" d="M10.0001 9.95978C9.61478 9.95978 9.30241 10.2722 9.30241 10.6575L9.30241 16.2388C9.30241 16.6242 9.61478 16.9365 10.0001 16.9365C10.3854 16.9365 10.6978 16.6242 10.6978 16.2388L10.6978 10.6575C10.6978 10.2722 10.3854 9.95978 10.0001 9.95978Z" fill="#78829D"/>
</svg>
