<svg width="24" height="24" viewBox="0 0 24 24" fill="none" xmlns="http://www.w3.org/2000/svg">
<path fill-rule="evenodd" clip-rule="evenodd" d="M11.3798 4.46507C8.26159 4.46507 5.69955 6.8506 5.42058 9.89565C5.38047 10.3337 5.0128 10.6671 4.57492 10.6667C2.99855 10.6653 1.67442 11.9773 1.67442 13.5504C1.67442 15.1429 2.96551 16.434 4.55814 16.434H5.30233C5.7647 16.434 6.13953 16.8089 6.13953 17.2712C6.13953 17.7336 5.7647 18.1085 5.30233 18.1085H4.55814C2.04075 18.1085 0 16.0678 0 13.5504C0 11.2904 1.69191 9.4017 3.84851 9.05074C4.50622 5.48846 7.62756 2.79065 11.3798 2.79065C14.1734 2.79065 16.6163 4.28635 17.9536 6.51751C21.1562 6.39126 24 9.01089 24 12.3101C24 15.3172 21.7114 17.7889 18.7804 18.0799C18.3203 18.1255 17.9103 17.7896 17.8646 17.3295C17.8188 16.8694 18.1548 16.4594 18.615 16.4136C20.698 16.2069 22.3256 14.448 22.3256 12.3101C22.3256 9.83995 20.0408 7.8799 17.6105 8.22793C17.2529 8.27917 16.8972 8.09789 16.7319 7.76873C15.7476 5.80785 13.7197 4.46507 11.3798 4.46507Z" fill="#78829D"/>
<path fill-rule="evenodd" clip-rule="evenodd" d="M12 13.7421L14.1986 15.9407C14.5256 16.2676 15.0557 16.2676 15.3826 15.9407C15.7096 15.6137 15.7096 15.0837 15.3826 14.7568L12.9867 12.3607C12.4417 11.8158 11.5583 11.8158 11.0133 12.3607L8.61728 14.7568C8.29033 15.0837 8.29033 15.6137 8.61728 15.9407C8.94423 16.2676 9.47433 16.2676 9.80124 15.9407L12 13.7421Z" fill="#78829D"/>
<path fill-rule="evenodd" clip-rule="evenodd" d="M11.9998 21.2093C12.4622 21.2093 12.837 20.8344 12.837 20.372V13.6744C12.837 13.212 12.4622 12.8372 11.9998 12.8372C11.5374 12.8372 11.1626 13.212 11.1626 13.6744V20.372C11.1626 20.8344 11.5374 21.2093 11.9998 21.2093Z" fill="#78829D"/>
</svg>
