<svg width="16" height="14" viewBox="0 0 16 14" fill="none" xmlns="http://www.w3.org/2000/svg">
<path d="M11.8268 13.1666H4.17342C3.28937 13.1666 2.44152 12.8154 1.8164 12.1903C1.19128 11.5652 0.840088 10.7174 0.840088 9.8333V4.1733C0.840088 3.28924 1.19128 2.4414 1.8164 1.81628C2.44152 1.19116 3.28937 0.839966 4.17342 0.839966H11.8268C12.7108 0.839966 13.5587 1.19116 14.1838 1.81628C14.8089 2.4414 15.1601 3.28924 15.1601 4.1733V9.82663C15.161 10.2649 15.0754 10.6991 14.9083 11.1043C14.7411 11.5095 14.4958 11.8777 14.1861 12.188C13.8765 12.4982 13.5088 12.7443 13.1039 12.9123C12.6991 13.0802 12.2651 13.1666 11.8268 13.1666ZM4.17342 1.8333C3.55281 1.8333 2.95763 2.07983 2.51879 2.51867C2.07996 2.9575 1.83342 3.55269 1.83342 4.1733V9.82663C1.83342 10.4472 2.07996 11.0424 2.51879 11.4813C2.95763 11.9201 3.55281 12.1666 4.17342 12.1666H11.8268C12.4474 12.1666 13.0425 11.9201 13.4814 11.4813C13.9202 11.0424 14.1668 10.4472 14.1668 9.82663V4.1733C14.1668 3.55269 13.9202 2.9575 13.4814 2.51867C13.0425 2.07983 12.4474 1.8333 11.8268 1.8333H4.17342ZM9.46009 7.12663L11.6534 5.26663C11.7524 5.17919 11.8139 5.05694 11.8251 4.92533C11.8363 4.79371 11.7963 4.66285 11.7134 4.55997C11.626 4.46047 11.503 4.39916 11.371 4.3892C11.2389 4.37923 11.1081 4.42138 11.0068 4.50663L8.81342 6.36663C8.58387 6.55985 8.29347 6.66581 7.99342 6.66581C7.69338 6.66581 7.40297 6.55985 7.17342 6.36663L4.92009 4.49997C4.81842 4.41156 4.6858 4.36716 4.5514 4.37654C4.417 4.38592 4.29183 4.4483 4.20342 4.54997C4.11502 4.65163 4.07062 4.78425 4.07999 4.91865C4.08937 5.05305 4.15175 5.17823 4.25342 5.26663L6.53342 7.13997C6.94139 7.48836 7.46027 7.67977 7.99675 7.67977C8.53324 7.67977 9.05212 7.48836 9.46009 7.13997V7.12663Z" fill="#99A1B7"/>
</svg>
