<svg width="18" height="18" viewBox="0 0 18 18" fill="none" xmlns="http://www.w3.org/2000/svg">
<path d="M13.4238 3.42578C13.7414 3.10825 14.2567 3.10825 14.5742 3.42578C14.8915 3.74329 14.8916 4.25772 14.5742 4.5752L10.1494 8.99902L14.5742 13.4238C14.8917 13.7414 14.8917 14.2567 14.5742 14.5742C14.2567 14.8917 13.7414 14.8917 13.4238 14.5742L8.99902 10.1494L4.5752 14.5742C4.25772 14.8916 3.74329 14.8915 3.42578 14.5742C3.10825 14.2567 3.10825 13.7414 3.42578 13.4238L7.84961 8.99902L3.42578 4.5752C3.10825 4.25767 3.10825 3.74331 3.42578 3.42578C3.74331 3.10825 4.25767 3.10825 4.5752 3.42578L8.99902 7.84961L13.4238 3.42578Z" fill="#99A1B7"/>
</svg>
