<svg width="30" height="30" viewBox="0 0 30 30" fill="none" xmlns="http://www.w3.org/2000/svg">
<path d="M15 4C8.93436 4 4 8.93436 4 15C4 21.0656 8.93436 26 15 26C21.0656 26 26 21.0656 26 15C26 8.93436 21.0656 4 15 4Z" fill="white"/>
<path d="M19.0508 17.7545C19.4092 18.1131 19.4092 18.6923 19.0508 19.0508C18.9658 19.1361 18.8647 19.2037 18.7535 19.2498C18.6423 19.2959 18.523 19.3195 18.4026 19.3194C18.168 19.3194 17.9333 19.2296 17.7545 19.0508L15 16.2961L12.2455 19.0509C12.1605 19.1361 12.0595 19.2037 11.9483 19.2498C11.837 19.2959 11.7178 19.3195 11.5974 19.3194C11.477 19.3195 11.3578 19.2959 11.2465 19.2498C11.1353 19.2037 11.0343 19.1361 10.9492 19.0509C10.5909 18.6923 10.5909 18.1131 10.9492 17.7545L13.7039 15L10.9492 12.2455C10.5908 11.887 10.5908 11.3077 10.9492 10.9492C11.3077 10.5909 11.887 10.5909 12.2455 10.9492L15 13.7039L17.7545 10.9492C18.1131 10.5908 18.6923 10.5908 19.0508 10.9492C19.4092 11.3077 19.4092 11.887 19.0508 12.2455L16.2961 15L19.0508 17.7545Z" fill="#0195D8"/>
</svg>
