<svg width="30" height="30" viewBox="0 0 30 30" fill="none" xmlns="http://www.w3.org/2000/svg">
<path d="M12.6745 3.53111C13.3859 3.10008 14.2018 2.87219 15.0336 2.87219C15.8654 2.87219 16.6813 3.10008 17.3927 3.53111L23.4606 7.20756C23.9531 7.50576 24.3845 7.89474 24.7319 8.35384C24.8177 8.46735 24.7818 8.62825 24.6602 8.70184L15.6802 14.1423C15.4853 14.2604 15.2618 14.3228 15.0339 14.3228C14.8061 14.3228 14.5825 14.2604 14.3877 14.1423L5.40732 8.70216C5.37838 8.68525 5.35333 8.66244 5.33379 8.63522C5.31425 8.60799 5.30065 8.57696 5.29389 8.54414C5.28712 8.51132 5.28734 8.47744 5.29453 8.44471C5.30171 8.41198 5.31571 8.38113 5.3356 8.35416C5.68289 7.89497 6.1142 7.50589 6.60661 7.20756L12.6745 3.53111ZM4.82607 10.2457C4.68107 10.1575 4.49241 10.2373 4.46653 10.4047C4.43096 10.6351 4.41313 10.8679 4.41321 11.101V18.7714C4.41319 19.5542 4.61503 20.3239 4.99925 21.006C5.38347 21.688 5.93708 22.2595 6.60661 22.6652L12.6748 26.3416C13.0708 26.5818 13.4949 26.7564 13.9315 26.8652C14.0824 26.9026 14.2233 26.7848 14.2233 26.6292V16.6413C14.2233 16.4269 14.1679 16.2161 14.0627 16.0293C13.9574 15.8425 13.8058 15.686 13.6224 15.5748L4.82607 10.2457ZM15.8448 26.6292C15.8448 26.7844 15.9858 26.9026 16.1367 26.8649C16.5792 26.7545 17.0027 26.5781 17.3927 26.3416L23.4606 22.6652C24.1301 22.2596 24.6838 21.6882 25.0681 21.0061C25.4523 20.3241 25.6543 19.5545 25.6543 18.7717V11.101C25.6543 10.8659 25.6359 10.6333 25.6007 10.405C25.5748 10.2373 25.3865 10.1578 25.2411 10.2457L16.4457 15.5745C16.2623 15.6857 16.1107 15.8422 16.0055 16.029C15.9002 16.2158 15.8449 16.4266 15.8448 16.641V26.6292Z" fill="white"/>
</svg>
