<svg width="20" height="20" viewBox="0 0 20 20" fill="none" xmlns="http://www.w3.org/2000/svg">
<path fill-rule="evenodd" clip-rule="evenodd" d="M5.3735 1.45837C4.62478 1.45835 4.00041 1.45833 3.50477 1.52497C2.9816 1.59531 2.50927 1.75003 2.12971 2.12959C1.75015 2.50915 1.59543 2.98148 1.52509 3.50464C1.45845 4.00029 1.45847 4.62463 1.4585 5.37335V5.46004C1.45847 6.20877 1.45845 6.83313 1.52509 7.32878C1.59543 7.85194 1.75015 8.32427 2.12971 8.70383C2.50927 9.08339 2.9816 9.23811 3.50477 9.30845C4.00041 9.37509 4.62475 9.37507 5.37348 9.37504H5.46016C6.20888 9.37507 6.83325 9.37509 7.3289 9.30845C7.85206 9.23811 8.32439 9.08339 8.70395 8.70383C9.08351 8.32427 9.23823 7.85194 9.30857 7.32878C9.37521 6.83313 9.37519 6.20879 9.37517 5.46006V5.37338C9.37519 4.62466 9.37521 4.00029 9.30857 3.50464C9.23823 2.98148 9.08351 2.50915 8.70395 2.12959C8.32439 1.75003 7.85206 1.59531 7.3289 1.52497C6.83325 1.45833 6.20891 1.45835 5.46019 1.45837H5.3735ZM3.0136 3.01347C3.12219 2.90488 3.28677 2.81552 3.67133 2.76382C4.07386 2.7097 4.61349 2.70838 5.41683 2.70838C6.22017 2.70838 6.75981 2.7097 7.16234 2.76382C7.54689 2.81552 7.71147 2.90488 7.82007 3.01347C7.92867 3.12207 8.01802 3.28665 8.06972 3.6712C8.12384 4.07373 8.12516 4.61337 8.12516 5.41671C8.12516 6.22005 8.12384 6.75969 8.06972 7.16222C8.01802 7.54677 7.92867 7.71135 7.82007 7.81995C7.71147 7.92854 7.54689 8.0179 7.16234 8.0696C6.75981 8.12372 6.22017 8.12504 5.41683 8.12504C4.61349 8.12504 4.07386 8.12372 3.67133 8.0696C3.28677 8.0179 3.12219 7.92854 3.0136 7.81995C2.905 7.71135 2.81565 7.54677 2.76394 7.16222C2.70983 6.75969 2.7085 6.22005 2.7085 5.41671C2.7085 4.61337 2.70983 4.07373 2.76394 3.6712C2.81565 3.28665 2.905 3.12207 3.0136 3.01347Z" fill="#646E88"/>
<path fill-rule="evenodd" clip-rule="evenodd" d="M14.5402 10.625C13.7914 10.625 13.1671 10.625 12.6714 10.6916C12.1483 10.762 11.6759 10.9167 11.2964 11.2963C10.9168 11.6758 10.7621 12.1481 10.6918 12.6713C10.6251 13.167 10.6251 13.7913 10.6252 14.54V14.6267C10.6251 15.3754 10.6251 15.9998 10.6918 16.4954C10.7621 17.0186 10.9168 17.4909 11.2964 17.8705C11.6759 18.2501 12.1483 18.4048 12.6714 18.4751C13.1671 18.5418 13.7914 18.5417 14.5401 18.5417H14.6268C15.3755 18.5417 15.9999 18.5418 16.4956 18.4751C17.0187 18.4048 17.4911 18.2501 17.8706 17.8705C18.2502 17.4909 18.4049 17.0186 18.4752 16.4954C18.5419 15.9998 18.5419 15.3755 18.5418 14.6268V14.54C18.5419 13.7913 18.5419 13.1669 18.4752 12.6713C18.4049 12.1481 18.2502 11.6758 17.8706 11.2963C17.4911 10.9167 17.0187 10.762 16.4956 10.6916C15.9999 10.625 15.3756 10.625 14.6268 10.625H14.5402ZM12.1803 12.1801C12.2889 12.0715 12.4534 11.9822 12.838 11.9305C13.2405 11.8764 13.7802 11.875 14.5835 11.875C15.3868 11.875 15.9265 11.8764 16.329 11.9305C16.7136 11.9822 16.8781 12.0715 16.9867 12.1801C17.0953 12.2887 17.1847 12.4533 17.2364 12.8379C17.2905 13.2404 17.2918 13.78 17.2918 14.5834C17.2918 15.3867 17.2905 15.9264 17.2364 16.3289C17.1847 16.7134 17.0953 16.878 16.9867 16.9866C16.8781 17.0952 16.7136 17.1846 16.329 17.2363C15.9265 17.2904 15.3868 17.2917 14.5835 17.2917C13.7802 17.2917 13.2405 17.2904 12.838 17.2363C12.4534 17.1846 12.2889 17.0952 12.1803 16.9866C12.0717 16.878 11.9823 16.7134 11.9306 16.3289C11.8765 15.9264 11.8752 15.3867 11.8752 14.5834C11.8752 13.78 11.8765 13.2404 11.9306 12.8379C11.9823 12.4533 12.0717 12.2887 12.1803 12.1801Z" fill="#646E88"/>
<path fill-rule="evenodd" clip-rule="evenodd" d="M5.3735 10.625H5.46017C6.2089 10.625 6.83325 10.625 7.3289 10.6916C7.85206 10.762 8.32439 10.9167 8.70395 11.2963C9.08351 11.6758 9.23823 12.1481 9.30857 12.6713C9.37521 13.167 9.37519 13.7913 9.37517 14.54V14.6267C9.37519 15.3754 9.37521 15.9998 9.30857 16.4954C9.23823 17.0186 9.08351 17.4909 8.70395 17.8705C8.32439 18.2501 7.85206 18.4048 7.3289 18.4751C6.83326 18.5418 6.20892 18.5417 5.46021 18.5417H5.3735C4.62479 18.5417 4.00041 18.5418 3.50477 18.4751C2.9816 18.4048 2.50927 18.2501 2.12971 17.8705C1.75015 17.4909 1.59543 17.0186 1.52509 16.4954C1.45845 15.9998 1.45847 15.3755 1.4585 14.6267V14.54C1.45847 13.7913 1.45845 13.167 1.52509 12.6713C1.59543 12.1481 1.75015 11.6758 2.12971 11.2963C2.50927 10.9167 2.9816 10.762 3.50477 10.6916C4.00042 10.625 4.62477 10.625 5.3735 10.625ZM3.67133 11.9305C3.28677 11.9822 3.12219 12.0715 3.0136 12.1801C2.905 12.2887 2.81565 12.4533 2.76394 12.8379C2.70983 13.2404 2.7085 13.78 2.7085 14.5834C2.7085 15.3867 2.70983 15.9264 2.76394 16.3289C2.81565 16.7134 2.905 16.878 3.0136 16.9866C3.12219 17.0952 3.28677 17.1846 3.67133 17.2363C4.07386 17.2904 4.61349 17.2917 5.41683 17.2917C6.22017 17.2917 6.75981 17.2904 7.16234 17.2363C7.54689 17.1846 7.71147 17.0952 7.82007 16.9866C7.92867 16.878 8.01802 16.7134 8.06972 16.3289C8.12384 15.9264 8.12516 15.3867 8.12516 14.5834C8.12516 13.78 8.12384 13.2404 8.06972 12.8379C8.01802 12.4533 7.92867 12.2887 7.82007 12.1801C7.71147 12.0715 7.54689 11.9822 7.16234 11.9305C6.75981 11.8764 6.22017 11.875 5.41683 11.875C4.61349 11.875 4.07386 11.8764 3.67133 11.9305Z" fill="#646E88"/>
<path fill-rule="evenodd" clip-rule="evenodd" d="M14.5402 1.45837C13.7914 1.45835 13.1671 1.45833 12.6714 1.52497C12.1483 1.59531 11.6759 1.75003 11.2964 2.12959C10.9168 2.50915 10.7621 2.98148 10.6918 3.50464C10.6251 4.00029 10.6251 4.62464 10.6252 5.37338V5.46004C10.6251 6.20878 10.6251 6.83312 10.6918 7.32878C10.7621 7.85194 10.9168 8.32427 11.2964 8.70383C11.6759 9.08339 12.1483 9.23811 12.6714 9.30845C13.1671 9.37509 13.7914 9.37507 14.5401 9.37504H14.6268C15.3756 9.37507 15.9999 9.37509 16.4956 9.30845C17.0187 9.23811 17.4911 9.08339 17.8706 8.70383C18.2502 8.32427 18.4049 7.85194 18.4752 7.32878C18.5419 6.83313 18.5419 6.20879 18.5418 5.46006V5.37338C18.5419 4.62466 18.5419 4.00029 18.4752 3.50464C18.4049 2.98148 18.2502 2.50915 17.8706 2.12959C17.4911 1.75003 17.0187 1.59531 16.4956 1.52497C15.9999 1.45833 15.3756 1.45835 14.6269 1.45837H14.5402ZM12.1803 3.01347C12.2889 2.90488 12.4534 2.81552 12.838 2.76382C13.2405 2.7097 13.7802 2.70838 14.5835 2.70838C15.3868 2.70838 15.9265 2.7097 16.329 2.76382C16.7136 2.81552 16.8781 2.90488 16.9867 3.01347C17.0953 3.12207 17.1847 3.28665 17.2364 3.6712C17.2905 4.07373 17.2918 4.61337 17.2918 5.41671C17.2918 6.22005 17.2905 6.75969 17.2364 7.16222C17.1847 7.54677 17.0953 7.71135 16.9867 7.81995C16.8781 7.92854 16.7136 8.0179 16.329 8.0696C15.9265 8.12372 15.3868 8.12504 14.5835 8.12504C13.7802 8.12504 13.2405 8.12372 12.838 8.0696C12.4534 8.0179 12.2889 7.92854 12.1803 7.81995C12.0717 7.71135 11.9823 7.54677 11.9306 7.16222C11.8765 6.75969 11.8752 6.22005 11.8752 5.41671C11.8752 4.61337 11.8765 4.07373 11.9306 3.6712C11.9823 3.28665 12.0717 3.12207 12.1803 3.01347Z" fill="#646E88"/>
</svg>
