<svg width="240" height="234" viewBox="0 0 240 234" fill="none" xmlns="http://www.w3.org/2000/svg">
<path d="M166.042 139.205C175.158 149.714 193.505 131.193 204.943 123.238C216.381 115.284 226.774 102.162 223.464 88.6341C219.4 72.0288 196.873 63.61 196.176 46.5401C195.886 38.818 200.356 31.8507 202.737 24.5351C205.117 17.2194 204.362 7.29108 197.337 4.1558C195.247 3.22683 192.866 3.05264 190.544 2.87846C179.745 2.18173 168.945 1.42693 158.146 0.730205C143.921 -0.198767 129.232 -1.06969 115.82 3.69129C96.7761 10.4844 83.4221 27.4381 66.5845 38.76C64.2621 40.3276 61.7655 41.8372 58.9786 41.9533C50.6179 42.3017 46.96 31.2121 39.6444 27.0898C32.5029 23.0255 22.6906 26.9737 18.5102 34.0571C14.3299 41.1405 14.7363 50.1399 17.4071 57.92C20.0779 65.7001 24.7228 72.6093 28.7871 79.7508C32.8513 86.8923 36.393 94.6724 36.5672 102.859C36.7413 111.742 32.8512 120.219 28.6708 128.057C24.4905 135.895 143.399 113.078 166.042 139.205Z" fill="#F4F6F9"/>
<path d="M227.761 216.309C224.742 208.471 230.664 199.007 226.949 191.517C223.871 185.305 215.859 183.679 210.517 179.267C206.918 176.247 204.595 172.067 201.866 168.235C199.137 164.403 195.538 160.803 190.893 159.99L190.951 159.642C187.467 153.836 182.416 148.436 179.861 143.733C177.887 140.192 193.796 132.121 193.796 132.121C182.01 120.451 154.895 99.0848 139.277 93.4529C138.696 85.3244 137.942 65.3515 137.942 65.3515C144.154 63.7839 156.695 60.4745 156.695 60.4745C149.379 51.417 141.425 40.966 133.18 30.6893C130.452 27.2637 126.794 24.2446 122.613 23.0834L109.318 20.3545L103.57 44.74C100.318 43.2304 96.0798 43.8691 93.5252 46.4238C90.506 49.3849 90.1576 54.6684 92.7122 58.0359C94.3379 60.1841 96.9507 61.3453 99.6215 61.4615L99.5634 61.6937C95.0927 72.2608 91.0285 81.0279 86.4998 90.2015L86.4416 89.9693C71.6362 96.5301 57.7597 102.22 44.2315 111.278C30.7615 120.277 18.6268 131.889 11.3112 146.404C11.3112 146.404 20.5428 143.617 29.1358 147.101C28.4971 147.798 27.9745 148.553 27.51 149.365C25.4779 152.907 25.1296 157.145 23.9684 161.036C19.73 175.086 5.09869 184.086 0.744141 198.136C0.744141 198.136 7.59525 213.464 55.2631 221.128C56.8307 221.361 56.8307 218.4 57.1791 216.948C57.4694 215.497 57.2371 213.929 56.134 212.826C55.6695 212.361 55.0889 212.071 54.3922 211.839C55.4953 210.794 56.5405 209.69 57.3533 208.471C59.2693 205.858 60.2564 202.723 59.2693 199.878C58.6307 198.078 57.2952 196.569 56.134 195.001C49.6892 186.234 62.1143 183.679 68.3848 178.396C70.1267 176.886 71.6362 174.97 72.6813 172.996C75.4682 176.364 79.0099 179.15 82.958 181.066C86.3836 183.737 89.9834 185.073 92.8864 185.595C93.3509 185.769 93.8735 185.944 94.3961 186.06L94.1637 185.769C94.3379 185.769 94.5702 185.827 94.7443 185.827L98.4603 164.055C98.4603 164.055 119.188 164.926 120.697 142.746C120.93 139.147 120.581 136.186 119.827 133.631C126.271 132.818 131.903 133.05 136.954 133.573C138.232 134.56 139.567 135.895 140.67 137.579C140.728 138.044 140.961 138.508 141.309 138.914C141.425 139.031 141.483 139.089 141.599 139.205C143.515 143.037 144.444 148.436 142.644 156.1C141.077 162.835 138.232 167.829 135.039 171.603C134.922 171.545 134.864 171.428 134.748 171.37L134.864 171.835C127.723 180.138 119.014 182.054 119.014 182.054L115.762 205.22L167.204 193.608L160.411 166.726C162.153 166.493 163.895 166.029 165.637 165.506C165.462 166.609 165.462 167.771 165.578 168.932C165.927 171.603 167.088 174.157 168.888 176.131H169.352C169.643 190.008 171.21 203.884 174.113 217.412C175.275 222.87 176.9 228.734 181.429 231.986C181.429 231.986 190.022 215.322 209.763 223.451C229.503 231.579 239.025 223.451 239.025 223.451C234.148 223.857 229.445 220.78 227.761 216.309ZM154.257 142.746L152.863 137.231C153.095 137.173 153.386 137.057 153.618 136.998C156.347 136.36 159.656 136.766 161.224 139.089C161.282 139.205 161.34 139.321 161.398 139.437C158.901 140.308 156.521 141.411 154.257 142.746ZM158.205 158.423C161.456 157.087 164.882 155.984 168.191 155.055C165.462 156.042 161.688 157.9 158.553 159.874L158.205 158.423Z" fill="white"/>
<path d="M105.021 120.568L106.879 102.047C106.879 102.047 92.364 104.427 81.5647 115.517C82.3195 115.691 83.1324 115.923 83.8872 116.156C86.0354 116.794 88.4159 117.433 90.2738 118.826C91.8415 120.046 92.8866 122.078 92.3641 124.11C91.7835 126.142 89.6933 127.013 87.7192 126.897C85.3968 126.781 83.1905 125.678 81.0422 124.865C79.2424 124.168 77.3843 123.587 75.4102 123.762C75.0038 124.516 74.5974 125.213 74.249 126.026C74.8877 126.316 75.5264 126.607 76.1651 126.897C79.2423 128.464 82.1453 130.439 84.7581 132.819C86.8483 134.735 91.1448 138.451 88.0095 141.296C87.3128 141.876 86.5579 142.225 85.7451 142.341C86.7902 143.56 87.7192 145.07 87.3708 146.754C87.0224 148.495 85.3387 149.482 83.655 149.424C81.6809 149.366 79.8229 148.147 78.0811 147.276C77.0941 146.812 76.107 146.347 75.1199 145.941C75.2941 146.057 75.5264 146.173 75.7005 146.347C76.7456 147.044 77.7327 147.799 78.6617 148.67C79.3004 149.308 79.9971 150.005 80.2293 150.876C81.0422 153.605 77.1521 153.953 75.4684 154.011C73.7265 154.069 72.0427 153.895 70.359 153.547C70.5332 155.521 69.8364 157.843 71.0557 159.179C72.0427 160.282 73.9008 160.978 74.3653 162.604C74.8878 164.462 73.4362 168.004 74.1329 169.571C79.5326 181.822 89.1707 185.828 94.9187 186.119L98.6345 164.346C98.6345 164.346 119.362 165.217 120.872 143.038C122.207 122.891 105.021 120.568 105.021 120.568Z" fill="#FFE945"/>
<path d="M68.5009 153.546C68.5009 153.372 68.5008 153.198 68.4427 152.966H68.3848C68.4428 153.14 68.4428 153.314 68.5009 153.546Z" fill="black"/>
<path d="M74.0166 114.007C79.8807 107.388 87.5447 102.453 96.0216 99.8403C96.1957 99.7823 96.3119 99.7242 96.37 99.6081C99.1569 99.9564 101.944 100.595 104.615 101.466C95.6732 104.485 87.3706 109.13 80.113 115.11C80.8097 115.284 81.5645 115.459 82.2612 115.633C89.5769 109.769 97.9957 105.298 106.995 102.569C107.227 102.511 107.344 102.395 107.46 102.279C108.098 102.047 108.272 100.885 107.402 100.595C103.744 99.3178 100.028 98.3308 96.1378 97.9243C95.8475 97.8663 95.6151 98.0404 95.441 98.2727C86.4996 101.06 78.4293 106.343 72.3329 113.427C72.2168 113.543 72.1586 113.717 72.1006 113.833C72.6812 113.833 73.3779 113.891 74.0166 114.007Z" fill="black"/>
<path d="M97.7634 167.307C95.3829 166.32 93.8153 164.114 92.4218 162.082C91.667 161.037 90.9704 159.933 90.1575 158.946C89.4027 157.959 88.4738 156.856 87.4287 156.217C86.2675 155.521 84.6417 155.405 83.8288 156.74C83.074 157.959 83.5966 159.585 83.8288 160.862C84.4675 163.881 85.3965 166.843 86.6739 169.688C88.1254 172.997 90.0414 176.016 92.3057 178.861C93.0024 179.732 94.2218 178.513 93.5251 177.642C89.9253 173.171 87.3706 167.946 85.9772 162.43C85.6288 161.153 85.2223 159.701 85.2223 158.366C85.1643 156.682 86.7319 157.727 87.3706 158.366C89.0543 159.991 90.2735 162.082 91.667 163.94C93.1766 166.03 94.9184 167.946 97.357 168.933C97.8215 169.107 98.286 168.759 98.4021 168.352C98.5182 167.888 98.1698 167.481 97.7634 167.307Z" fill="black"/>
<path d="M107.75 136.012C106.647 134.56 105.66 133.051 104.673 131.483C100.376 124.458 97.5311 116.62 96.2538 108.491C96.0796 107.388 94.3957 107.852 94.5699 108.956C95.615 115.865 97.8795 122.542 101.073 128.696C102.699 131.773 104.556 134.735 106.647 137.521C107.517 138.625 108.853 140.25 108.098 141.76C107.866 142.224 107.401 142.689 106.821 142.573C106.124 142.457 105.718 141.586 105.427 141.005C104.44 139.263 103.511 137.521 102.582 135.838C101.769 134.328 101.015 132.644 99.9116 131.309C99.0407 130.206 97.7053 129.335 96.2538 129.683C94.8022 130.032 93.9314 131.425 93.8152 132.819C93.6411 134.502 94.512 136.07 95.2668 137.521C96.1377 139.205 96.9505 140.889 97.7053 142.631C99.2149 146.114 100.434 149.714 101.363 153.372C101.537 154.069 101.77 154.765 101.653 155.52C101.537 156.449 100.84 156.101 100.26 155.636C98.8084 154.359 97.531 152.85 96.3117 151.34C93.8151 148.263 91.783 144.837 90.2154 141.237C89.7509 140.192 88.2414 141.121 88.7059 142.108C90.2154 145.418 92.0733 148.611 94.2796 151.514C95.3828 152.966 96.6021 154.417 97.8795 155.753C98.9246 156.856 100.434 158.597 102.176 157.669C103.453 156.972 103.511 155.404 103.279 154.127C102.989 152.269 102.35 150.411 101.77 148.669C100.55 144.895 99.0406 141.179 97.2408 137.638C96.544 136.186 95.1506 134.386 95.5571 132.702C95.6732 132.122 96.0795 131.541 96.6602 131.425C97.4149 131.309 98.0537 131.948 98.4601 132.47C98.9246 133.051 99.2729 133.689 99.6213 134.328C100.144 135.315 100.724 136.302 101.247 137.289C102.176 139.031 103.105 140.831 104.15 142.515C104.905 143.792 106.24 144.837 107.808 144.257C109.143 143.734 110.072 142.224 109.956 140.773C110.014 138.857 108.795 137.405 107.75 136.012Z" fill="black"/>
<path d="M71.8685 158.075C71.6943 156.623 71.6362 155.114 71.6943 153.662C71.1137 153.604 70.5331 153.488 69.9525 153.372C69.8944 154.766 69.9524 156.159 70.0686 157.552" fill="black"/>
<path d="M73.7266 171.719C83.0163 184.493 91.1448 185.538 94.222 186.467C95.3252 186.757 95.7897 185.073 94.6865 184.783C85.6871 182.17 78.2553 175.609 74.4814 167.19" fill="black"/>
<path d="M139.915 136.475C140.031 135.604 140.379 134.733 140.902 134.037C142.411 132.063 145.024 131.25 147.288 130.553C148.566 130.147 149.843 129.798 151.12 129.508L145.547 107.503L136.257 109.825L131.147 130.669C131.147 130.669 136.199 131.772 139.915 136.475Z" fill="#9ED5F0"/>
<path d="M144.618 149.772C145.779 148.436 147.056 147.159 148.392 145.998C150.192 144.488 152.108 143.095 154.198 141.934L153.211 138.102C151.353 138.624 149.553 139.553 147.753 140.134C146.069 140.714 143.979 141.179 142.237 140.54C143.34 143.327 143.921 146.927 143.457 151.456C143.805 150.933 144.211 150.294 144.618 149.772Z" fill="#9ED5F0"/>
<path d="M155.069 167.77C154.082 167.654 152.921 167.363 152.34 166.492C151.875 165.796 152.05 164.925 152.398 164.228C153.385 162.428 155.417 161.093 157.159 159.99C155.824 160.57 154.488 161.151 153.211 161.848C151.527 162.718 149.727 163.705 147.753 163.299C145.953 162.951 144.792 161.383 144.966 159.583C145.082 158.364 145.779 157.319 146.592 156.332C145.431 156.158 144.444 155.635 143.689 154.474C143.457 154.125 143.341 153.777 143.283 153.429C143.166 154.3 142.992 155.229 142.76 156.158C137.651 177.93 119.129 182.111 119.129 182.111L115.878 205.277L167.32 193.665L160.759 167.654C158.843 168.002 156.985 168.06 155.069 167.77Z" fill="#9ED5F0"/>
<path d="M114.253 177.989C113.962 177.583 114.195 177.06 114.543 176.77C114.949 176.479 115.472 176.712 115.762 177.06C116.865 178.744 118.027 180.369 119.13 182.053C119.42 182.46 119.188 182.982 118.839 183.273C118.433 183.563 117.91 183.331 117.62 182.982C116.517 181.298 115.414 179.673 114.253 177.989ZM142.993 179.324C144.386 181.24 147.579 185.014 144.967 187.221C143.805 188.208 142.122 187.743 141.135 186.698C140.032 185.537 139.335 183.969 138.348 182.692C137.419 181.473 136.316 180.137 135.038 179.266C134.574 178.918 133.645 178.453 133.064 179.034C132.6 179.557 133.122 180.428 133.413 180.892C134.284 182.402 135.329 183.853 136.316 185.363C137.361 186.93 138.406 188.556 139.451 190.124C140.09 191.053 138.58 191.924 137.941 190.995C136.78 189.253 135.677 187.511 134.516 185.769C133.935 184.898 133.355 184.027 132.774 183.156C132.251 182.402 131.729 181.647 131.381 180.776C130.916 179.441 131.206 177.931 132.6 177.35C133.993 176.712 135.387 177.35 136.49 178.221C137.767 179.266 138.87 180.544 139.857 181.821C140.38 182.518 140.844 183.156 141.309 183.911C141.715 184.55 142.064 185.363 142.644 185.827C143.167 186.234 143.864 186.292 144.096 185.595C144.328 184.956 144.038 184.318 143.689 183.737C142.935 182.344 141.948 181.008 140.961 179.673C139.045 177.06 136.896 174.68 134.516 172.473C130.8 177.06 126.039 180.776 120.639 183.156C119.478 190.704 118.317 198.252 117.156 205.8C116.981 206.845 115.53 206.497 115.472 205.51C115.356 205.452 115.24 205.336 115.182 205.219C113.788 203.071 112.22 201.097 110.421 199.239C110.13 198.949 110.13 198.601 110.246 198.368C111.466 191.111 112.743 183.853 113.962 176.537C114.078 176.015 114.485 175.841 114.833 175.957C119.943 175.086 124.762 173.112 129 170.093C134.051 166.493 138.232 161.326 140.554 155.461C140.67 154.939 140.728 154.416 140.786 153.894C140.844 153.662 141.019 153.429 141.251 153.313C141.657 152.094 141.948 150.875 142.122 149.597C142.76 145.649 142.238 141.527 140.148 138.101C138.115 134.85 134.632 132.644 130.858 132.063C130.626 132.121 130.335 132.121 130.103 132.005C129.871 132.005 129.639 131.947 129.465 131.947C128.652 131.947 128.419 131.018 128.768 130.553C127.607 129.334 126.445 128.115 125.226 126.896C124.645 126.954 124.065 126.547 124.239 125.851C126.561 118.477 128.071 110.871 128.768 103.149C128.536 102.626 128.826 101.93 129.523 101.93C129.639 101.871 129.813 101.871 129.929 101.93C132.193 101.871 134.4 101.465 136.548 100.71C136.722 100.536 137.012 100.42 137.245 100.478C137.593 100.42 137.999 100.71 138.115 101.001C140.38 102.917 142.702 104.833 144.967 106.69C144.967 106.69 144.967 106.749 145.025 106.749C145.141 106.749 145.257 106.749 145.373 106.749C145.838 106.807 146.244 107.097 146.244 107.619C146.244 108.026 145.838 108.548 145.373 108.49C142.702 108.2 140.032 108.665 137.651 109.942C137.245 110.174 136.896 110.058 136.664 109.768C136.606 109.826 136.548 109.884 136.432 109.942C135.038 116.851 133.413 123.702 131.555 130.495C135.967 131.308 139.857 134.095 142.006 138.101C144.967 143.617 144.328 150.062 142.064 155.752C141.657 158.132 140.961 160.455 140.032 162.719C138.812 165.68 137.245 168.467 135.329 171.022C138.348 173.518 140.786 176.305 142.993 179.324ZM142.644 106.749C140.844 105.239 139.103 103.787 137.303 102.278C135.329 102.975 133.297 103.381 131.264 103.497C133.122 105.181 135.038 106.807 136.896 108.49C136.954 108.432 137.012 108.432 137.071 108.374C138.754 107.445 140.67 106.923 142.644 106.749ZM126.561 125.56C127.781 126.838 129.058 128.115 130.277 129.392C132.077 122.715 133.645 116.038 135.038 109.245C135.038 109.187 135.038 109.187 135.096 109.129C133.587 107.794 132.077 106.458 130.568 105.123C129.813 111.974 128.419 118.767 126.445 125.386C126.445 125.444 126.503 125.502 126.561 125.56ZM138.058 163.416C132.716 170.789 124.529 175.899 115.588 177.466C114.427 184.376 113.208 191.343 112.046 198.252C113.44 199.704 114.717 201.271 115.878 202.955C116.865 196.568 117.852 190.182 118.839 183.795C117.794 184.202 117.33 182.518 118.375 182.111C118.665 181.995 118.956 181.879 119.188 181.763C119.362 181.415 119.71 181.357 120.001 181.415C121.975 180.544 123.891 179.441 125.691 178.221C131.09 174.505 135.387 169.338 138.058 163.416ZM134.516 191.459C134.284 191.053 133.703 190.878 133.297 191.169C132.89 191.401 132.716 191.924 133.006 192.388C133.993 193.956 134.98 195.581 136.025 197.149C136.258 197.555 136.838 197.73 137.245 197.439C137.651 197.207 137.825 196.685 137.535 196.22C136.548 194.652 135.561 193.027 134.516 191.459ZM147.986 122.947C146.767 120.973 145.373 119.174 143.805 117.49C142.993 116.619 142.122 115.806 141.251 114.993C140.438 114.296 139.567 113.426 138.58 113.135C137.593 112.903 136.548 113.367 136.258 114.413C135.967 115.4 136.374 116.561 136.664 117.548C137.303 119.87 138.116 122.135 139.161 124.341C140.322 126.78 141.657 129.16 143.225 131.366C143.864 132.295 145.373 131.424 144.735 130.495C141.715 126.315 139.509 121.612 138.232 116.619C138.116 116.27 137.767 115.4 137.941 114.993C138.174 114.587 138.87 115.225 139.103 115.458C140.09 116.212 140.961 117.083 141.831 117.954C143.631 119.754 145.141 121.728 146.476 123.876C147.057 124.805 148.566 123.935 147.986 122.947Z" fill="black"/>
<path d="M171.965 162.603C173.01 162.255 173.474 163.939 172.429 164.287C166.914 166.145 160.991 168.641 155.069 167.771C154.082 167.654 152.921 167.364 152.34 166.493C151.876 165.796 152.05 164.926 152.398 164.229C153.443 162.255 155.708 160.861 157.566 159.7C160.004 158.132 162.617 156.739 165.288 155.52C167.146 154.707 169.236 153.604 171.326 153.488C172.429 153.43 172.429 155.171 171.326 155.229C171.268 155.229 171.036 155.287 171.152 155.229C171.268 155.229 170.978 155.229 170.978 155.288C170.804 155.346 170.571 155.346 170.397 155.404C169.933 155.52 169.41 155.694 168.946 155.868C167.726 156.275 166.565 156.797 165.462 157.378C162.965 158.539 160.585 159.874 158.263 161.326C157.334 161.964 156.405 162.603 155.534 163.358C154.837 163.939 154.314 164.461 153.908 165.158C153.792 165.332 153.85 165.274 153.85 165.216C153.85 165.274 153.792 165.332 153.792 165.39C153.676 165.68 153.792 165.448 153.792 165.39C153.792 165.448 153.792 165.506 153.792 165.564C153.792 165.506 153.792 165.564 153.792 165.564C153.676 165.448 153.966 165.68 153.792 165.622C153.85 165.68 153.908 165.738 154.024 165.738C154.14 165.797 154.082 165.796 154.082 165.796C154.256 165.855 154.43 165.913 154.663 165.971C155.65 166.203 156.637 166.261 157.624 166.203C162.617 166.145 167.378 164.171 171.965 162.603ZM120 38.9339C120.581 40.2693 121.22 41.6047 121.8 42.9401C121.975 43.3465 122.613 43.4626 123.02 43.2304C123.426 42.9401 123.542 42.4756 123.31 42.0111C122.729 40.6757 122.091 39.3403 121.51 38.0049C121.336 37.5985 120.697 37.4824 120.291 37.7146C119.884 38.0049 119.826 38.4694 120 38.9339ZM124.297 37.7727C124.065 37.3662 124.239 36.8437 124.587 36.5534C124.994 36.3212 125.574 36.4954 125.807 36.8437C126.736 38.4114 127.374 40.2112 127.664 42.0111C127.723 42.4756 127.548 42.9401 127.084 43.0562C126.677 43.1723 126.097 42.882 126.039 42.4756C125.923 41.6047 125.69 40.7918 125.4 39.979C125.342 39.7467 125.226 39.5726 125.168 39.3403C125.226 39.4564 125.11 39.2242 125.11 39.2242C125.052 39.1081 124.994 38.992 124.936 38.8758C124.761 38.5275 124.529 38.121 124.297 37.7727ZM115.994 35.5083C115.762 35.9148 115.24 36.0309 114.775 35.7986C114.369 35.5664 114.252 34.9858 114.485 34.5793C115.181 33.3601 116.168 32.373 117.388 31.6183C117.794 31.386 118.317 31.5602 118.607 31.9086C118.839 32.315 118.665 32.8375 118.317 33.1278C118.085 33.2439 117.91 33.4181 117.678 33.5923C117.736 33.5342 117.794 33.4762 117.852 33.4762C117.33 33.8826 116.865 34.3471 116.459 34.8696C116.517 34.8116 116.575 34.7535 116.575 34.6955C116.343 34.9858 116.169 35.2761 115.994 35.5083ZM123.6 30.2829C123.716 30.7474 123.484 31.2118 123.02 31.328C122.613 31.4441 122.033 31.1538 121.975 30.7473C121.8 29.9926 122.381 29.47 123.078 29.47C123.426 29.47 123.833 29.5281 124.239 29.5861C125.052 29.7023 125.923 29.8184 126.736 29.9926C127.2 30.1087 127.432 30.6312 127.316 31.0376C127.2 31.5021 126.677 31.7344 126.271 31.6183C125.69 31.5021 125.11 31.386 124.471 31.2699C124.413 31.2699 124.413 31.2699 124.529 31.2699C124.471 31.2699 124.413 31.2699 124.413 31.2699C124.355 31.2699 124.297 31.2699 124.181 31.2699C124.065 31.2699 123.891 31.2118 123.774 31.2118C123.6 31.2118 123.484 31.2118 123.31 31.1538C123.252 31.1538 123.194 31.1538 123.136 31.1538C123.078 31.1538 123.136 31.1538 123.252 31.1538C123.484 31.0957 123.6 30.9215 123.716 30.6893C123.6 30.5151 123.6 30.399 123.6 30.2829C123.6 30.2248 123.6 30.2248 123.6 30.2829ZM239.141 224.554C235.948 224.67 232.87 223.451 230.432 221.361C227.993 219.212 226.6 216.251 226.252 213.058C225.613 207.194 228.11 201.446 227.413 195.64C227.064 192.911 225.845 190.588 223.813 188.73C221.897 186.931 219.517 185.711 217.252 184.434C214.872 183.157 212.491 181.879 210.343 180.196C207.846 178.221 205.93 175.609 204.131 172.938C200.937 168.235 197.512 162.603 191.705 161.094C190.893 162.777 189.906 164.403 188.744 165.913C184.274 171.777 177.655 175.783 170.397 177.002C170.513 181.299 170.746 185.653 171.094 189.95C171.733 198.02 172.894 206.033 174.403 213.987C175.565 220.025 176.668 227.457 182.009 231.405C182.88 232.044 182.009 233.553 181.138 232.915C178.177 230.766 176.377 227.573 175.158 224.206C173.939 220.838 173.3 217.296 172.662 213.813C171.849 209.69 171.21 205.568 170.629 201.446C169.526 193.433 168.888 185.363 168.714 177.292C168.423 177.234 168.307 177.002 168.249 176.712C167.494 175.841 166.855 174.97 166.333 173.925C165.056 171.428 164.533 168.641 164.881 165.913C165.462 165.738 166.101 165.564 166.681 165.39C166.043 168.932 167.088 172.706 169.468 175.493C169.468 175.493 169.468 175.493 169.526 175.493C171.442 175.202 173.358 174.738 175.158 174.099C181.719 171.661 187.235 166.667 190.254 160.339C190.254 160.223 190.254 160.165 190.254 160.049C189.848 159.352 189.383 158.655 188.919 157.958C186.538 154.417 183.983 150.991 181.545 147.507C180.442 145.94 179.339 144.372 178.294 142.746C177.306 141.179 176.436 139.495 175.332 137.985C172.836 134.502 169.236 131.25 165.114 129.973C163.14 129.334 160.875 129.625 158.843 129.857C156.579 130.147 154.373 130.612 152.166 131.134C149.67 131.715 147.057 132.354 144.676 133.457C143.689 133.921 142.702 134.56 142.122 135.489C141.657 136.302 141.425 137.521 142.064 138.334C143.399 140.192 146.65 138.914 148.276 138.276C150.54 137.405 152.689 136.36 155.069 136.069C157.043 135.837 159.25 136.127 160.875 137.347C161.34 137.695 161.746 138.102 162.037 138.566C163.894 137.985 165.752 137.521 167.668 137.231C168.772 137.056 169.236 138.74 168.133 138.914C164.591 139.437 161.107 140.54 157.856 142.05C155.011 143.443 152.282 145.127 149.902 147.217C148.682 148.262 147.521 149.365 146.476 150.527C145.489 151.572 144.328 153.139 145.954 154.242C146.708 154.765 147.579 154.765 148.45 154.591C153.85 149.365 160.817 145.708 168.249 144.372C169.352 144.14 169.817 145.824 168.714 146.056C164.882 146.753 161.224 148.03 157.798 149.888C154.779 151.514 151.992 153.546 149.495 155.984C148.392 157.029 146.592 158.539 146.824 160.281C147.115 162.197 149.612 161.732 150.831 161.152C152.515 160.397 154.14 159.526 155.824 158.771C157.566 158.016 159.249 157.32 161.049 156.681C164.649 155.346 168.307 154.3 172.081 153.488C173.184 153.255 173.649 154.939 172.545 155.171C167.959 156.158 163.43 157.552 159.075 159.294C157.159 160.048 155.243 160.919 153.385 161.848C151.702 162.719 149.902 163.706 147.928 163.3C146.128 162.952 144.967 161.384 145.141 159.584C145.257 158.365 145.954 157.32 146.767 156.333C145.605 156.158 144.618 155.636 143.863 154.475C142.818 152.849 143.689 151.107 144.85 149.772C146.012 148.436 147.289 147.159 148.624 145.998C152.108 143.037 156.114 140.656 160.411 139.089C159.133 137.753 156.985 137.521 155.185 137.753C152.689 138.043 150.366 139.379 147.986 140.192C145.896 140.888 143.225 141.469 141.309 139.959C139.509 138.508 139.741 135.779 141.077 134.037C142.586 132.063 145.199 131.25 147.463 130.554C150.018 129.741 152.631 129.16 155.243 128.638C157.508 128.231 159.772 127.825 162.094 127.767C164.301 127.709 166.275 128.231 168.249 129.218C172.429 131.308 175.797 134.85 178.235 138.856C180.268 142.282 182.474 145.475 184.796 148.669C187.235 152.094 189.79 155.462 191.938 159.061C192.054 159.12 192.17 159.236 192.286 159.41C198.963 161.036 202.737 167.538 206.395 172.822C208.137 175.377 210.111 177.757 212.607 179.557C214.814 181.125 217.252 182.286 219.633 183.621C221.897 184.898 224.219 186.234 226.019 188.15C227.935 190.182 229.039 192.679 229.387 195.407C230.142 201.214 227.761 206.845 228.226 212.593C228.458 215.438 229.619 218.051 231.767 219.967C233.858 221.825 236.586 222.87 239.373 222.754C240.244 222.812 240.244 224.554 239.141 224.554ZM169.062 112.206C171.675 114.471 174.171 116.851 176.61 119.29C177.423 120.103 178.642 118.825 177.829 118.071C169.352 109.652 160.12 102.104 149.379 96.8204C146.418 95.3689 143.341 94.0915 140.264 92.9303C139.683 84.6276 139.393 76.325 139.044 68.0804C139.044 67.4417 138.986 66.803 138.986 66.1644C144.444 64.7709 149.96 63.3194 155.418 61.9259C155.94 61.8098 156.521 61.6356 157.043 61.5195C157.74 61.3453 157.798 60.5325 157.45 60.068C153.153 54.7264 148.973 49.3848 144.734 43.9852C142.47 41.1402 140.264 38.2952 137.999 35.4502C135.909 32.8375 133.935 29.9926 131.497 27.6701C129.929 26.1606 128.245 24.8832 126.329 23.8381C127.607 23.5478 129 23.0833 130.393 22.2705C134.109 20.0642 137.941 10.8906 133.238 4.50391C124.936 16.1741 117.446 7.63919 105.485 13.3291C96.2537 17.6837 96.6021 34.8696 100.608 43.2884C97.8214 43.1143 94.9763 44.0432 93.0023 46.0173C89.6928 49.3268 89.2864 55.0167 92.1313 58.7326C93.6409 60.7647 96.0214 61.984 98.518 62.3904C94.686 71.5059 90.5056 80.5054 86.1511 89.3886C86.1511 89.3886 86.1512 89.3886 86.0931 89.3886C74.0165 94.7302 61.8236 99.8395 50.4437 106.575C39.9348 112.787 30.0644 120.335 21.994 129.567C17.5814 134.618 13.7494 140.134 10.7303 146.114C10.2077 147.101 11.7174 147.972 12.2399 146.985C17.5815 136.36 25.5358 127.36 34.5933 119.754C44.3475 111.626 55.379 105.355 66.817 99.8976C73.2617 96.8204 79.8225 94.0335 86.3834 91.1305C86.3834 91.1305 86.3833 91.1305 86.4414 91.1305C86.3253 91.4788 86.4415 91.8272 86.8479 92.0014C99.6793 97.5171 113.962 99.3751 127.781 97.343C131.671 96.7624 135.503 95.8914 139.219 94.7302C139.335 94.6722 139.451 94.6141 139.509 94.556C144.967 96.5881 150.308 99.0267 155.301 102.046C160.179 104.949 164.765 108.433 169.062 112.206ZM98.6341 94.1496C94.9182 93.2206 91.2605 92.0014 87.7188 90.4918C87.6608 90.4918 87.6027 90.4337 87.5446 90.4337C92.0733 81.2021 96.3698 71.9124 100.318 62.4485C101.828 62.3904 103.279 62.042 104.614 61.2873C105.021 61.055 105.195 60.5325 104.963 60.126C104.731 59.7196 104.208 59.5454 103.802 59.7777C100.55 61.6356 95.8473 60.6486 93.5249 57.6875C91.2605 54.6683 91.5508 49.9073 94.2216 47.2366C96.8924 44.5658 101.653 44.2755 104.673 46.5399C105.079 46.8302 105.601 46.7721 105.892 46.3656C106.182 45.9592 106.124 45.4367 105.718 45.1464C105.485 44.9722 105.253 44.8561 105.079 44.6819L106.53 44.74C112.569 41.0241 111.582 35.1019 113.149 30.6893C115.414 24.3606 118.781 24.4768 122.846 24.1865C128.884 26.0444 132.658 31.386 136.374 36.0889C140.728 41.5466 144.967 47.0624 149.321 52.5781C151.295 55.0748 153.269 57.5714 155.243 60.068C151.063 61.1711 146.825 62.2743 142.644 63.3775C141.018 63.7839 139.393 64.1903 137.767 64.5967C137.419 64.7128 137.128 65.0612 137.128 65.4096C137.419 72.493 137.709 79.5764 138.057 86.6598C138.174 88.75 138.29 90.8982 138.406 92.9884C125.632 97.0527 111.698 97.4591 98.6341 94.1496ZM106.182 52.8685C106.472 53.2168 106.53 53.7394 106.182 54.0877C105.892 54.3781 105.253 54.4361 104.963 54.0877C103.163 51.8234 100.376 50.488 97.4729 50.546C96.3698 50.546 96.3698 48.8042 97.4729 48.8042C100.782 48.7461 104.034 50.2557 106.182 52.8685ZM115.53 77.312C114.949 78.1829 114.02 78.7635 112.975 78.9377C111.001 79.228 109.027 78.299 107.924 76.6153C106.646 74.6993 106.53 72.2027 106.472 69.9383C106.472 68.8352 108.214 68.8352 108.214 69.9383C108.272 72.1446 108.272 74.8154 109.956 76.383C110.479 76.9056 111.466 77.1959 112.162 77.2539C112.278 77.2539 112.336 77.2539 112.453 77.2539C112.511 77.2539 112.569 77.2539 112.627 77.2539C112.743 77.2539 112.859 77.1959 112.975 77.1959L113.207 77.1378C113.614 76.9636 113.788 76.7895 113.962 76.4992C114.194 76.0927 114.717 75.9185 115.181 76.2089C115.588 76.383 115.762 76.9056 115.53 77.312ZM90.2734 118.767C88.4736 117.374 86.035 116.735 83.8868 116.097C81.6224 115.4 79.3 114.935 76.9776 114.529C74.9455 114.122 72.8552 113.774 70.765 113.716C68.7909 113.658 66.9911 113.948 65.1912 114.761C63.3333 115.574 61.6495 116.677 60.0819 118.013C58.4562 119.406 57.0047 121.032 55.7273 122.774C54.508 124.457 53.579 126.315 52.4759 128.057C49.9793 131.947 47.2505 135.721 44.6958 139.553C44.1732 140.366 43.6506 141.179 43.1862 141.992C41.6766 141.527 39.9348 141.527 38.4252 141.701C34.9996 142.108 31.6901 143.617 29.2516 146.056C26.3486 148.901 25.2455 152.791 24.3745 156.681C23.5617 160.397 22.4585 163.881 20.6006 167.19C18.8588 170.267 16.7687 173.112 14.5623 175.899C10.1497 181.473 5.21452 186.756 2.02118 193.201C1.26639 194.769 0.569722 196.395 0.0471762 198.02C-0.301188 199.065 1.38252 199.53 1.73088 198.485C5.96931 185.015 18.975 176.712 24.1424 163.706C25.5939 160.048 26.0002 156.1 27.2776 152.384C28.4969 149.017 30.7612 146.346 33.9546 144.72C35.4641 143.966 37.0899 143.501 38.7736 143.327C39.8187 143.211 41.1541 143.211 42.1992 143.443C40.9799 145.707 40.4573 148.262 41.4443 150.759C42.4314 153.197 44.4055 155.055 46.6118 156.333C48.8762 157.668 51.3728 158.481 53.9855 158.945C56.7724 159.468 59.6174 159.758 62.4624 159.352C64.6687 159.061 67.0491 158.307 68.1523 156.391C68.5006 156.565 68.791 156.797 69.0813 157.029C71.8101 159.352 73.7261 162.777 73.7261 166.435C73.6681 169.977 71.9262 173.519 69.6038 176.131C67.6297 178.396 65.0171 179.905 62.4624 181.415C58.7465 183.563 52.7663 186.408 53.5791 191.633C54.1597 195.117 57.5271 197.149 58.5722 200.459C59.8496 204.465 56.8885 208.297 54.2177 210.968C52.6501 210.619 50.7921 210.852 49.5728 212.071C48.4116 213.232 48.1214 215.206 49.5149 216.309C49.9213 216.658 50.3276 216.658 50.734 216.309C52.0114 215.264 53.4049 214.161 54.6822 213C54.7403 213.058 54.8565 213.058 54.9145 213.116C57.9917 214.858 55.9016 218.632 54.6242 220.838C54.0436 221.825 55.5531 222.696 56.1337 221.709C57.2369 219.851 58.4561 217.819 58.2819 215.555C58.1658 213.929 57.295 212.593 56.0176 211.723C57.4111 210.329 58.6304 208.761 59.5013 207.02C60.3722 205.22 60.8947 203.188 60.6044 201.155C60.3141 199.065 59.0948 197.44 57.8755 195.814C56.424 193.898 54.5661 191.459 55.7273 189.021C56.7724 186.873 59.1529 185.537 61.0689 184.318C63.5074 182.866 66.0041 181.589 68.2685 179.847C71.2296 177.583 73.4939 174.506 74.7131 171.022C75.9324 167.538 75.7583 163.822 74.0746 160.513C73.2037 158.771 71.9262 157.262 70.4747 155.984C70.0683 155.636 69.6619 155.229 69.1394 154.997C68.9072 154.881 68.7329 154.765 68.5007 154.707C68.5587 154.126 68.5007 153.546 68.3846 153.023C70.707 153.604 73.0294 154.01 75.4098 153.894C77.0936 153.836 81.0418 153.488 80.1709 150.759C79.8806 149.888 79.2419 149.133 78.6032 148.552C77.6742 147.682 76.6873 146.927 75.6422 146.23C75.468 146.114 75.2357 145.998 75.0616 145.824C76.0486 146.23 77.0355 146.695 78.0226 147.159C79.7644 147.972 81.5643 149.249 83.5965 149.307C85.2802 149.365 86.9639 148.378 87.3123 146.636C87.6607 144.953 86.7899 143.443 85.6867 142.224C86.4995 142.108 87.3123 141.817 87.951 141.179C91.0863 138.334 86.7897 134.618 84.6996 132.702C82.1449 130.379 79.242 128.347 76.1067 126.78C74.7713 126.141 73.4358 125.56 72.1004 125.038C72.7971 124.283 73.7843 123.877 74.9455 123.702C77.0357 123.412 79.0677 124.051 80.9837 124.806C83.132 125.619 85.2802 126.722 87.6607 126.838C89.6348 126.954 91.725 126.141 92.3056 124.051C92.9442 122.019 91.8411 119.987 90.2734 118.767ZM50.4437 214.393C50.3857 213.871 50.7921 213.29 51.3147 213C51.663 212.768 52.1276 212.651 52.534 212.593C51.8373 213.232 51.1405 213.813 50.4437 214.393ZM86.3253 124.806C84.119 124.225 82.0289 123.18 79.8806 122.483C76.7454 121.496 72.4488 121.554 70.3586 124.399C68.5587 123.819 66.6428 123.354 64.7849 123.064C63.6817 122.89 63.2172 124.573 64.3203 124.748C70.6489 125.735 76.6872 128.347 81.6804 132.295C82.8997 133.283 84.119 134.328 85.2222 135.489C86.0931 136.36 88.009 137.985 87.1962 139.379C86.5575 140.54 85.2221 140.598 84.0029 140.424C81.6804 138.16 79.0096 136.186 76.1647 134.56C72.4488 132.47 68.3846 130.96 64.2042 130.205C63.1011 129.973 62.6366 131.657 63.7397 131.889C70.5328 133.166 76.9194 136.302 81.9707 140.947C82.6094 141.527 83.1901 142.108 83.7707 142.688C84.4093 143.385 85.1641 144.082 85.4544 145.011C86.093 146.753 84.5834 147.798 82.9577 147.507C82.0288 147.333 81.216 146.869 80.4031 146.462C79.5903 146.056 78.7193 145.649 77.9065 145.243C76.1647 144.43 74.4229 143.675 72.623 143.037C69.8361 141.934 66.9331 141.005 64.03 140.25C63.972 140.25 63.9138 140.192 63.7977 140.192C62.8687 139.843 61.9398 139.553 60.9528 139.437C60.8947 139.437 60.7787 139.437 60.7206 139.437C60.6045 139.437 60.4883 139.379 60.3722 139.321C59.269 139.089 58.8045 140.772 59.9077 141.005C61.1269 141.237 62.2881 141.527 63.5074 141.875C64.3203 142.166 65.1912 142.514 66.004 142.921C68.4426 144.024 70.8812 145.301 73.1455 146.753C74.1906 147.391 75.1776 148.088 76.1647 148.843C76.5711 149.133 76.9775 149.481 77.3259 149.83C77.5581 150.062 78.0226 150.527 78.0807 150.643C78.1968 150.759 78.2549 150.933 78.371 151.049C78.371 151.049 78.4291 151.107 78.4291 151.165C78.4291 151.223 78.4871 151.281 78.4871 151.339C78.4871 151.339 78.4871 151.339 78.4871 151.397C78.4871 151.397 78.4871 151.456 78.4871 151.514L78.4291 151.572C78.3711 151.63 78.1968 151.688 78.1968 151.688C77.6162 151.92 76.9775 151.978 76.3389 152.036C70.8231 152.559 65.4235 150.236 60.3722 148.494C59.3271 148.146 58.8626 149.83 59.9077 150.178C62.0559 150.933 64.2622 151.688 66.4686 152.384C66.5266 152.501 66.5266 152.617 66.5846 152.733C66.8169 153.604 66.933 154.533 66.5846 155.404C66.5266 155.578 66.5267 155.694 66.5267 155.81C65.6558 156.971 63.8558 157.436 62.5204 157.61C60.0818 157.958 57.5853 157.784 55.1467 157.378C50.8502 156.681 45.857 154.997 43.5346 150.991C42.025 148.378 42.7217 145.591 44.3474 143.269C46.7279 139.379 49.3987 135.663 51.9534 131.889C53.0565 130.263 54.1597 128.58 55.1467 126.838C56.1918 125.038 57.295 123.296 58.6304 121.728C59.9658 120.219 61.4172 118.883 63.101 117.78C64.6686 116.793 66.4105 115.748 68.2685 115.458C70.1845 115.168 72.2166 115.4 74.0746 115.69C76.1067 115.98 78.0807 116.387 80.1128 116.851C82.4352 117.374 84.7577 118.013 86.964 118.883C88.7058 119.58 90.7379 120.799 90.6798 122.948C90.7379 125.328 87.951 125.27 86.3253 124.806Z" fill="black"/>
<path d="M35.6381 60.8816C34.7672 60.243 35.6381 58.7334 36.509 59.3721C42.6634 63.9589 48.8179 68.6037 55.0304 73.1905C55.9014 73.8292 55.0304 75.3388 54.1595 74.7001C48.0051 70.0553 41.7925 65.4684 35.6381 60.8816ZM54.624 61.5203C57.9335 64.5976 61.2429 67.6747 64.6105 70.752C65.4233 71.5068 66.6425 70.2875 65.8296 69.5327C62.5202 66.4555 59.2108 63.3783 55.8432 60.301C55.0304 59.5463 53.8112 60.7655 54.624 61.5203ZM185.551 83.9317C191.125 79.8094 196.757 75.6871 202.33 71.5648C203.201 70.9262 202.33 69.4166 201.459 70.0553C195.886 74.1776 190.254 78.2999 184.68 82.4222C183.751 83.1189 184.622 84.6285 185.551 83.9317ZM191.531 89.9701C194.202 88.7508 196.873 87.5896 199.543 86.3703C199.95 86.1961 200.066 85.5575 199.834 85.151C199.601 84.6866 199.079 84.6285 198.615 84.8607C195.944 86.08 193.273 87.2412 190.602 88.4605C190.196 88.6347 190.08 89.2733 190.312 89.6798C190.602 90.0862 191.125 90.1443 191.531 89.9701ZM42.4893 79.1708C43.8247 79.8094 45.1602 80.5062 46.4955 81.1448C46.902 81.3771 47.4825 81.261 47.7147 80.8545C47.947 80.4481 47.8309 79.8675 47.4244 79.6353C46.089 78.9966 44.7537 78.2999 43.4183 77.6612C43.0119 77.429 42.4312 77.5451 42.199 77.9515C41.9667 78.3579 42.0248 78.9385 42.4893 79.1708Z" fill="black"/>
</svg>
