<svg width="20" height="20" viewBox="0 0 20 20" fill="none" xmlns="http://www.w3.org/2000/svg">
<path d="M2.5 8.33329C2.5 5.1906 2.5 3.61925 3.47631 2.64294C4.45262 1.66663 6.02397 1.66663 9.16667 1.66663H10.8333C13.976 1.66663 15.5474 1.66663 16.5237 2.64294C17.5 3.61925 17.5 5.1906 17.5 8.33329V11.6666C17.5 14.8093 17.5 16.3807 16.5237 17.357C15.5474 18.3333 13.976 18.3333 10.8333 18.3333H9.16667C6.02397 18.3333 4.45262 18.3333 3.47631 17.357C2.5 16.3807 2.5 14.8093 2.5 11.6666V8.33329Z" stroke="#646E88" stroke-width="1.5"/>
<path d="M6.66666 10H13.3333" stroke="#646E88" stroke-width="1.5" stroke-linecap="round"/>
<path d="M6.66666 6.66663H13.3333" stroke="#646E88" stroke-width="1.5" stroke-linecap="round"/>
<path d="M6.66666 13.3334H10.8333" stroke="#646E88" stroke-width="1.5" stroke-linecap="round"/>
</svg>
