<svg width="16" height="16" viewBox="0 0 16 16" fill="none" xmlns="http://www.w3.org/2000/svg">
<path d="M10.7375 15.1667H5.26259C4.099 15.1756 2.97935 14.723 2.14909 13.9081C1.31883 13.0932 0.845682 11.9825 0.833374 10.8195V5.71997C0.83686 5.14239 0.95424 4.57117 1.1788 4.03899C1.40336 3.5068 1.73069 3.02409 2.14208 2.61847C2.55346 2.21285 3.04081 1.89228 3.57626 1.67509C4.11171 1.45791 4.68475 1.34838 5.26259 1.35277H7.62039C7.68599 1.35277 7.75095 1.36568 7.81156 1.39077C7.87216 1.41587 7.92723 1.45264 7.97362 1.49901C8.02 1.54537 8.0568 1.60041 8.0819 1.66099C8.10701 1.72157 8.11993 1.7865 8.11993 1.85207C8.11993 1.91763 8.10701 1.98256 8.0819 2.04314C8.0568 2.10372 8.02 2.15876 7.97362 2.20512C7.92723 2.25149 7.87216 2.28827 7.81156 2.31336C7.75095 2.33845 7.68599 2.35136 7.62039 2.35136H5.26259C4.37029 2.34597 3.51185 2.69241 2.87345 3.31555C2.23505 3.93869 1.86819 4.78827 1.85243 5.68002V10.7795C1.86819 11.6713 2.23505 12.5209 2.87345 13.144C3.51185 13.7671 4.37029 14.1136 5.26259 14.1082H10.7375C11.6298 14.1136 12.4882 13.7671 13.1266 13.144C13.765 12.5209 14.1319 11.6713 14.1477 10.7795V7.43756C14.162 7.31252 14.2218 7.19712 14.3158 7.11334C14.4098 7.02956 14.5313 6.98326 14.6572 6.98326C14.7831 6.98326 14.9046 7.02956 14.9986 7.11334C15.0925 7.19712 15.1524 7.31252 15.1667 7.43756V10.8195C15.1544 11.9825 14.6813 13.0932 13.851 13.9081C13.0207 14.723 11.9011 15.1756 10.7375 15.1667ZM11.7832 1.85207C11.6863 1.85021 11.5904 1.87161 11.5034 1.91447C11.4165 1.95733 11.3411 2.0204 11.2837 2.09839L10.8907 2.60434C11.0231 3.14238 11.3446 3.61493 11.7965 3.93581C12.2147 4.25228 12.724 4.42509 13.2485 4.42845H13.3284L13.7214 3.92249C13.7704 3.85876 13.8063 3.78591 13.8269 3.70819C13.8474 3.63047 13.8523 3.54943 13.8413 3.46979C13.8315 3.39014 13.8052 3.31341 13.7639 3.2446C13.7226 3.17578 13.6672 3.11642 13.6015 3.07035L12.1562 1.97855C12.0494 1.89606 11.9181 1.85155 11.7832 1.85207ZM11.7832 0.853468C12.1383 0.853463 12.484 0.967854 12.7689 1.17968L14.2276 2.25816C14.3991 2.38361 14.5438 2.54212 14.653 2.72435C14.7623 2.90658 14.8339 3.10883 14.8637 3.31917C14.8935 3.52952 14.8809 3.74369 14.8265 3.94908C14.7722 4.15446 14.6772 4.34688 14.5473 4.51499L14.1077 5.08752C14.0431 5.17289 13.9621 5.24453 13.8695 5.29825C13.7768 5.35198 13.6744 5.38671 13.5682 5.40042H13.2485C12.5048 5.40387 11.7794 5.17071 11.1771 4.73468C10.4886 4.23929 10.0127 3.50214 9.84499 2.67092C9.82917 2.56543 9.8352 2.45782 9.86269 2.35475C9.89019 2.25169 9.93857 2.15536 10.0048 2.07176L10.4444 1.49923C10.5995 1.29252 10.8007 1.12475 11.0319 1.0092C11.2631 0.893653 11.518 0.833496 11.7765 0.833496L11.7832 0.853468ZM8.74601 5.38044L7.25407 7.34435C7.18869 7.42585 7.15132 7.52623 7.1475 7.63062V9.73433C7.14429 9.76021 7.14747 9.78648 7.15676 9.81085C7.16605 9.83522 7.18116 9.85695 7.20078 9.87413C7.24149 9.91503 7.29629 9.93884 7.35397 9.94071H7.41392L9.45202 9.34155C9.55256 9.30844 9.64076 9.2458 9.70512 9.1618L11.1971 7.23118C10.7231 7.0404 10.2754 6.78983 9.86497 6.48556C9.45265 6.17865 9.08307 5.8182 8.76599 5.41373M8.7993 3.97575C8.8749 3.97397 8.94945 3.99367 9.0143 4.03256C9.07914 4.07145 9.13161 4.12793 9.16562 4.19544C9.49986 4.78058 9.95376 5.28871 10.4977 5.68668C11.039 6.09076 11.6617 6.37243 12.3227 6.51219C12.3943 6.52323 12.4616 6.55319 12.5177 6.59898C12.5738 6.64477 12.6166 6.70472 12.6418 6.77262C12.6669 6.84051 12.6734 6.91389 12.6607 6.98515C12.6479 7.05642 12.6163 7.12297 12.5691 7.17792L10.571 9.78759C10.3754 10.043 10.1018 10.2276 9.79171 10.3135L7.73362 10.9127C7.62124 10.9466 7.50465 10.9645 7.38728 10.9659C7.22616 10.9686 7.06614 10.939 6.91668 10.8788C6.76722 10.8186 6.63135 10.7291 6.5171 10.6155C6.40285 10.5019 6.31253 10.3666 6.2515 10.2175C6.19047 10.0685 6.15995 9.9087 6.16175 9.74764V7.64393C6.167 7.32465 6.27698 7.01592 6.47479 6.76517L8.47293 4.1555C8.51322 4.10596 8.56396 4.06595 8.62154 4.03833C8.67912 4.0107 8.74209 3.99615 8.80596 3.99572L8.7993 3.97575Z" fill="#4B5675"/>
</svg>
