<svg width="18" height="18" viewBox="0 0 18 18" fill="none" xmlns="http://www.w3.org/2000/svg">
<path opacity="0.1" d="M12.1454 4.42362V13.5016C12.1144 14.4448 11.7107 15.3373 11.0228 15.9834C10.3349 16.6295 9.41893 16.9766 8.47561 16.9485H5.17724C4.23319 16.9766 3.31642 16.6297 2.62735 15.9838C1.93828 15.3379 1.53296 14.4455 1.5 13.5016V4.42362C1.53296 3.47973 1.93828 2.58728 2.62735 1.94136C3.31642 1.29545 4.23319 0.948612 5.17724 0.976677H8.47561C9.41893 0.948641 10.3349 1.29571 11.0228 1.94182C11.7107 2.58793 12.1144 3.48039 12.1454 4.42362Z" fill="#78829D"/>
<path d="M8.40749 17.0624H5.07749C4.12439 17.0907 3.19883 16.7406 2.50315 16.0884C1.80748 15.4363 1.39827 14.5353 1.36499 13.5824V4.41739C1.39827 3.46444 1.80748 2.56343 2.50315 1.91132C3.19883 1.25921 4.12439 0.909052 5.07749 0.937386H8.40749C9.35986 0.909081 10.2846 1.25947 10.9791 1.91178C11.6736 2.56409 12.0812 3.46511 12.1125 4.41739C12.1125 4.56856 12.0524 4.71354 11.9455 4.82044C11.8386 4.92733 11.6937 4.98739 11.5425 4.98739C11.3913 4.98739 11.2463 4.92733 11.1394 4.82044C11.0325 4.71354 10.9725 4.56856 10.9725 4.41739C10.9394 3.7681 10.6515 3.15809 10.1712 2.71993C9.69089 2.28176 9.05708 2.05086 8.40749 2.07739H5.07749C4.42739 2.04887 3.79247 2.27909 3.31173 2.71766C2.83099 3.15622 2.54361 3.7674 2.51249 4.41739V13.5824C2.54361 14.2324 2.83099 14.8435 3.31173 15.2821C3.79247 15.7207 4.42739 15.9509 5.07749 15.9224H8.40749C9.05708 15.9489 9.69089 15.718 10.1712 15.2798C10.6515 14.8417 10.9394 14.2317 10.9725 13.5824C10.9725 13.4312 11.0325 13.2862 11.1394 13.1793C11.2463 13.0724 11.3913 13.0124 11.5425 13.0124C11.6937 13.0124 11.8386 13.0724 11.9455 13.1793C12.0524 13.2862 12.1125 13.4312 12.1125 13.5824C12.0812 14.5347 11.6736 15.4357 10.9791 16.088C10.2846 16.7403 9.35986 17.0907 8.40749 17.0624ZM6.56999 8.99989C6.56999 9.07474 6.58473 9.14886 6.61338 9.21801C6.64202 9.28717 6.68401 9.35001 6.73694 9.40294C6.78987 9.45587 6.8527 9.49785 6.92186 9.5265C6.99102 9.55514 7.06514 9.56989 7.13999 9.56989H14.6925L13.41 10.8224C13.3565 10.8754 13.314 10.9385 13.285 11.008C13.256 11.0775 13.2411 11.1521 13.2411 11.2274C13.2411 11.3027 13.256 11.3773 13.285 11.4468C13.314 11.5163 13.3565 11.5794 13.41 11.6324C13.4631 11.6855 13.5262 11.7275 13.5958 11.7559C13.6654 11.7842 13.7399 11.7983 13.815 11.7974C13.889 11.7982 13.9623 11.7839 14.0306 11.7556C14.099 11.7272 14.1608 11.6853 14.2125 11.6324L16.4625 9.38239C16.516 9.32939 16.5585 9.26631 16.5875 9.19679C16.6165 9.12728 16.6314 9.0527 16.6314 8.97739C16.6314 8.90207 16.6165 8.8275 16.5875 8.75798C16.5585 8.68847 16.516 8.62539 16.4625 8.57239L14.2125 6.32239C14.1601 6.2691 14.0977 6.22677 14.0288 6.19787C13.9599 6.16898 13.8859 6.1541 13.8112 6.1541C13.7365 6.1541 13.6626 6.16898 13.5937 6.19787C13.5248 6.22677 13.4623 6.2691 13.41 6.32239C13.3565 6.37539 13.314 6.43847 13.285 6.50798C13.256 6.5775 13.2411 6.65207 13.2411 6.72739C13.2411 6.8027 13.256 6.87728 13.285 6.94679C13.314 7.01631 13.3565 7.07939 13.41 7.13239L14.6625 8.38489H7.13999C7.06119 8.38464 6.9832 8.40073 6.91094 8.43215C6.83868 8.46357 6.77372 8.50963 6.72016 8.56742C6.66659 8.62521 6.62559 8.69348 6.59975 8.76791C6.5739 8.84235 6.56377 8.92134 6.56999 8.99989Z" fill="#78829D"/>
</svg>
