<svg width="20" height="20" viewBox="0 0 20 20" fill="none" xmlns="http://www.w3.org/2000/svg">
<path d="M8.12484 10C8.12484 8.96448 8.9643 8.12501 9.99984 8.12501C11.0354 8.12501 11.8748 8.96448 11.8748 10C11.8748 11.0355 11.0354 11.875 9.99984 11.875C8.9643 11.875 8.12484 11.0355 8.12484 10Z" fill="#565E76"/>
<path fill-rule="evenodd" clip-rule="evenodd" d="M1.6665 10C1.6665 11.3662 2.02064 11.8262 2.72891 12.7464C4.14314 14.5837 6.51493 16.6667 9.99984 16.6667C13.4847 16.6667 15.8565 14.5837 17.2708 12.7464C17.979 11.8262 18.3332 11.3662 18.3332 10C18.3332 8.63386 17.979 8.17378 17.2708 7.25362C15.8565 5.41631 13.4847 3.33334 9.99984 3.33334C6.51493 3.33334 4.14314 5.41631 2.72891 7.25362C2.02064 8.17378 1.6665 8.63386 1.6665 10ZM9.99984 6.87501C8.27395 6.87501 6.87484 8.27412 6.87484 10C6.87484 11.7259 8.27395 13.125 9.99984 13.125C11.7257 13.125 13.1248 11.7259 13.1248 10C13.1248 8.27412 11.7257 6.87501 9.99984 6.87501Z" fill="#565E76"/>
</svg>
