<svg width="14" height="14" viewBox="0 0 14 14" fill="none" xmlns="http://www.w3.org/2000/svg">
<path d="M9.2413 1.5632C9.66723 1.56701 10.0882 1.65468 10.4803 1.82121C10.8723 1.98773 11.2277 2.22985 11.5262 2.53373C11.8246 2.83762 12.0603 3.19731 12.2198 3.59229C12.3792 3.98726 12.4593 4.40977 12.4555 4.8357V9.1757C12.4569 9.71859 12.3247 10.2535 12.0705 10.7332C11.7982 11.2483 11.3912 11.6798 10.893 11.9818C10.3948 12.2838 9.82392 12.445 9.2413 12.4482H4.7613C4.17869 12.445 3.60785 12.2838 3.10962 11.9818C2.61139 11.6798 2.20444 11.2483 1.93214 10.7332C1.67792 10.2535 1.5457 9.71859 1.54714 9.1757V4.8357C1.54329 4.40977 1.62337 3.98726 1.78282 3.59229C1.94227 3.19731 2.17796 2.83762 2.47642 2.53373C2.77489 2.22985 3.13029 1.98773 3.52233 1.82121C3.91437 1.65468 4.33538 1.56701 4.7613 1.5632H9.2413ZM9.2413 0.734863H4.7613C3.68746 0.748671 2.66228 1.18497 1.90783 1.94925C1.15337 2.71353 0.73038 3.74426 0.730469 4.8182V9.1582C0.730808 9.83923 0.896984 10.5099 1.21464 11.1124C1.55544 11.7583 2.06556 12.2993 2.69034 12.6774C3.31511 13.0556 4.031 13.2566 4.7613 13.259H9.2413C9.9716 13.2566 10.6875 13.0556 11.3123 12.6774C11.937 12.2993 12.4472 11.7583 12.788 11.1124C13.1056 10.5099 13.2718 9.83923 13.2721 9.1582V4.8357C13.2722 3.76176 12.8492 2.73103 12.0948 1.96675C11.3403 1.20247 10.3151 0.766171 9.2413 0.752363V0.734863ZM5.09964 9.92236C5.29693 9.91524 5.48727 9.84761 5.64484 9.72865C5.8024 9.6097 5.91957 9.44516 5.98047 9.25736L7.09464 6.15403C7.10473 6.12016 7.12554 6.09048 7.15394 6.06945C7.18234 6.04841 7.2168 6.03715 7.25214 6.03736C7.28766 6.0356 7.32288 6.0447 7.35311 6.06346C7.38333 6.08222 7.40712 6.10974 7.4213 6.14236L7.89964 7.23903C8.06353 7.61464 8.33234 7.93497 8.6738 8.16158C9.01526 8.38818 9.41486 8.51143 9.82464 8.51653H11.668C11.7778 8.51653 11.8832 8.47289 11.9608 8.39522C12.0385 8.31755 12.0821 8.21221 12.0821 8.10236C12.0821 7.99252 12.0385 7.88717 11.9608 7.8095C11.8832 7.73183 11.7778 7.6882 11.668 7.6882H9.83047C9.58147 7.68057 9.33972 7.60255 9.13324 7.46318C8.92676 7.3238 8.764 7.12878 8.6638 6.9007L8.16797 5.7982C8.09072 5.61342 7.95903 5.45655 7.79042 5.34848C7.62181 5.2404 7.42428 5.18624 7.22413 5.19321C7.02397 5.20018 6.83069 5.26794 6.67 5.38748C6.50932 5.50702 6.38885 5.67266 6.32464 5.86236L5.2163 8.9657C5.20621 8.99956 5.1854 9.02924 5.157 9.05028C5.1286 9.07132 5.09414 9.08257 5.0588 9.08236C5.02355 9.08739 4.98763 9.08033 4.9569 9.06232C4.92618 9.04431 4.90247 9.01642 4.88964 8.9832L4.71464 8.62153C4.54339 8.26172 4.27409 7.95753 3.93769 7.74392C3.60129 7.53032 3.21145 7.41597 2.81297 7.41403H2.3638C2.25396 7.41403 2.14861 7.45766 2.07094 7.53534C1.99327 7.61301 1.94964 7.71835 1.94964 7.8282C1.94964 7.93804 1.99327 8.04339 2.07094 8.12106C2.14861 8.19873 2.25396 8.24236 2.3638 8.24236H2.81297C3.05739 8.24377 3.29648 8.31401 3.50282 8.44503C3.70916 8.57606 3.87441 8.76257 3.97964 8.9832L4.15464 9.34486C4.23122 9.51787 4.35624 9.66502 4.51461 9.76853C4.67299 9.87204 4.85794 9.92749 5.04714 9.9282L5.09964 9.92236Z" fill="#78829D"/>
</svg>
