<svg width="20" height="20" viewBox="0 0 20 20" fill="none" xmlns="http://www.w3.org/2000/svg">
<g clip-path="url(#clip0_15_9713)">
<path d="M8.33334 7.49992C8.33334 7.01077 8.51578 6.69795 8.7553 6.49472C9.01293 6.27612 9.38614 6.14575 9.79167 6.14575C10.1972 6.14575 10.5704 6.27612 10.828 6.49472C11.0676 6.69795 11.25 7.01077 11.25 7.49992C11.25 7.86422 11.1642 8.06648 11.0644 8.21605C10.9481 8.39056 10.795 8.52818 10.5361 8.7609L10.4842 8.80759C10.2179 9.04729 9.86748 9.37133 9.60031 9.84333C9.32498 10.3297 9.16667 10.9175 9.16667 11.6666C9.16667 12.1268 9.53977 12.4999 10 12.4999C10.4602 12.4999 10.8333 12.1268 10.8333 11.6666C10.8333 11.1657 10.9354 10.868 11.0507 10.6643C11.1742 10.4462 11.3446 10.2755 11.5991 10.0464C11.6221 10.0258 11.6462 10.0043 11.6714 9.98182C11.8991 9.77883 12.211 9.50079 12.4512 9.14056C12.7421 8.70419 12.9167 8.17728 12.9167 7.49992C12.9167 6.53073 12.5262 5.74981 11.9063 5.22387C11.3046 4.7133 10.532 4.47909 9.79167 4.47909C9.05137 4.47909 8.27874 4.7133 7.677 5.22387C7.05714 5.74981 6.66667 6.53073 6.66667 7.49992C6.66667 7.96016 7.03977 8.33325 7.5 8.33325C7.96024 8.33325 8.33334 7.96016 8.33334 7.49992Z" fill="#646E88"/>
<path d="M10.6249 15.5597C10.9345 15.2191 10.9095 14.6921 10.5689 14.3825C10.2284 14.0729 9.70133 14.098 9.39173 14.4385L9.3834 14.4477C9.0738 14.7882 9.09889 15.3153 9.43943 15.6249C9.77997 15.9345 10.307 15.9094 10.6166 15.5688L10.6249 15.5597Z" fill="#646E88"/>
<path fill-rule="evenodd" clip-rule="evenodd" d="M10 0.833252C4.93727 0.833252 0.833336 4.93718 0.833336 9.99992C0.833336 15.0627 4.93727 19.1666 10 19.1666C15.0627 19.1666 19.1667 15.0627 19.1667 9.99992C19.1667 4.93718 15.0627 0.833252 10 0.833252ZM2.5 9.99992C2.5 5.85766 5.85774 2.49992 10 2.49992C14.1423 2.49992 17.5 5.85766 17.5 9.99992C17.5 14.1422 14.1423 17.4999 10 17.4999C5.85774 17.4999 2.5 14.1422 2.5 9.99992Z" fill="#646E88"/>
</g>
<defs>
<clipPath id="clip0_15_9713">
<rect width="20" height="20" fill="white"/>
</clipPath>
</defs>
</svg>
