<svg width="16" height="16" viewBox="0 0 16 16" fill="none" xmlns="http://www.w3.org/2000/svg">
<path opacity="0.3" d="M12.8979 3.10195C13.0427 3.24451 13.1576 3.41443 13.2361 3.60183C13.3146 3.78923 13.355 3.99037 13.355 4.19354C13.355 4.39671 13.3146 4.59784 13.2361 4.78525C13.1576 4.97265 13.0427 5.14257 12.8979 5.28513L10.1709 8.00453C9.88238 8.29302 9.4911 8.45509 9.08311 8.45509C8.67512 8.45509 8.28385 8.29302 7.99535 8.00453C7.70686 7.71603 7.54479 7.32476 7.54479 6.91677C7.54479 6.50878 7.70686 6.1175 7.99535 5.82901L10.7148 3.10195C10.8573 2.95719 11.0272 2.84224 11.2146 2.76377C11.402 2.6853 11.6032 2.6449 11.8063 2.6449C12.0095 2.6449 12.2106 2.6853 12.398 2.76377C12.5854 2.84224 12.7554 2.95719 12.8979 3.10195ZM14.5296 1.47031C14.1734 1.11016 13.7493 0.824243 13.2818 0.629108C12.8144 0.433972 12.3129 0.333496 11.8063 0.333496C11.2998 0.333496 10.7983 0.433972 10.3308 0.629108C9.8634 0.824243 9.43931 1.11016 9.08311 1.47031L6.36372 4.17439C5.64249 4.89562 5.2373 5.87381 5.2373 6.89379C5.2373 7.39882 5.33678 7.89892 5.53005 8.36551C5.72332 8.83211 6.0066 9.25607 6.36372 9.61318C6.72083 9.9703 7.14479 10.2536 7.61139 10.4468C8.07798 10.6401 8.57807 10.7396 9.08311 10.7396C10.1031 10.7396 11.0813 10.3344 11.8025 9.61318L14.5296 6.89379C14.8897 6.53759 15.1756 6.1135 15.3708 5.64605C15.5659 5.17861 15.6664 4.6771 15.6664 4.17056C15.6664 3.66402 15.5659 3.16251 15.3708 2.69507C15.1756 2.22762 14.8897 1.80353 14.5296 1.44733V1.47031Z" fill="#4B5675"/>
<path d="M9.62686 6.37309C9.25498 5.99507 8.80542 5.70234 8.30929 5.51514L7.99522 5.82921C7.85162 5.97163 7.73765 6.14108 7.65987 6.32777C7.58209 6.51447 7.54204 6.71472 7.54204 6.91697C7.54204 7.11922 7.58209 7.31946 7.65987 7.50616C7.73765 7.69285 7.85162 7.8623 7.99522 8.00473C8.13882 8.14715 8.25279 8.3166 8.33057 8.50329C8.40835 8.68999 8.4484 8.89024 8.4484 9.09248C8.4484 9.29473 8.40835 9.49498 8.33057 9.68168C8.25279 9.86837 8.13882 10.0378 7.99522 10.1802L5.27582 12.9073C4.98632 13.1968 4.59366 13.3595 4.18423 13.3595C3.77481 13.3595 3.38215 13.1968 3.09264 12.9073C2.80314 12.6178 2.64049 12.2251 2.64049 11.8157C2.64049 11.4063 2.80314 11.0136 3.09264 10.7241L5.50563 8.3188C5.15129 7.41783 5.15129 6.4161 5.50563 5.51514C5.00128 5.69937 4.54362 5.99227 4.16508 6.37309L1.46101 9.09248C0.738761 9.81473 0.333008 10.7943 0.333008 11.8157C0.333008 12.8371 0.738761 13.8167 1.46101 14.5389C2.18325 15.2612 3.16282 15.6669 4.18423 15.6669C5.20564 15.6669 6.18522 15.2612 6.90746 14.5389L9.62686 11.8349C9.98933 11.4784 10.2772 11.0534 10.4737 10.5845C10.6702 10.1156 10.7714 9.61235 10.7714 9.10398C10.7714 8.5956 10.6702 8.09231 10.4737 7.62345C10.2772 7.15459 9.98933 6.72954 9.62686 6.37309Z" fill="#4B5675"/>
</svg>
