<svg width="20" height="20" viewBox="0 0 20 20" fill="none" xmlns="http://www.w3.org/2000/svg">
<path d="M5.83334 1.66675C5.17029 1.66675 4.53441 1.93014 4.06557 2.39898C3.59673 2.86782 3.33334 3.50371 3.33334 4.16675V15.8334C3.33334 16.4965 3.59673 17.1323 4.06557 17.6012C4.53441 18.07 5.17029 18.3334 5.83334 18.3334H14.1667C14.8297 18.3334 15.4656 18.07 15.9344 17.6012C16.4033 17.1323 16.6667 16.4965 16.6667 15.8334V15.0001C16.6667 14.5398 16.2936 14.1667 15.8333 14.1667C15.3731 14.1667 15 14.5398 15 15.0001V15.8334C15 16.0544 14.9122 16.2664 14.7559 16.4227C14.5996 16.579 14.3877 16.6667 14.1667 16.6667H5.83334C5.61232 16.6667 5.40036 16.579 5.24408 16.4227C5.0878 16.2664 5 16.0544 5 15.8334V4.16675C5 3.94573 5.0878 3.73377 5.24408 3.57749C5.40036 3.42121 5.61232 3.33341 5.83334 3.33341H14.1667C14.3877 3.33341 14.5996 3.42121 14.7559 3.57749C14.9122 3.73377 15 3.94573 15 4.16675V5.00008C15 5.46032 15.3731 5.83341 15.8333 5.83341C16.2936 5.83341 16.6667 5.46032 16.6667 5.00008V4.16675C16.6667 3.50371 16.4033 2.86782 15.9344 2.39898C15.4656 1.93014 14.8297 1.66675 14.1667 1.66675H5.83334Z" fill="#FF383C"/>
<path d="M13.9226 6.91083C13.5972 6.58539 13.0695 6.58539 12.7441 6.91083C12.4186 7.23626 12.4186 7.7639 12.7441 8.08934L13.8215 9.16675H10C9.53977 9.16675 9.16667 9.53984 9.16667 10.0001C9.16667 10.4603 9.53977 10.8334 10 10.8334H13.8215L12.7441 11.9108C12.4186 12.2363 12.4186 12.7639 12.7441 13.0893C13.0695 13.4148 13.5972 13.4148 13.9226 13.0893L16.4226 10.5893C16.748 10.2639 16.748 9.73626 16.4226 9.41083L13.9226 6.91083Z" fill="#FF383C"/>
</svg>
