<svg width="18" height="18" viewBox="0 0 18 18" fill="none" xmlns="http://www.w3.org/2000/svg">
<g clip-path="url(#clip0_1151_1435)">
<path opacity="0.1" d="M13.2617 0.959961C13.6612 0.959959 14.0505 1.08885 14.3711 1.32715L16.0117 2.54004C16.2046 2.68112 16.3673 2.85953 16.4902 3.06445C16.6131 3.26933 16.694 3.49692 16.7275 3.7334C16.7611 3.96998 16.7467 4.21138 16.6855 4.44238C16.6667 4.51344 16.6415 4.58246 16.6143 4.65039C16.9015 5.29943 17.0625 6.01701 17.0625 6.77246V12.1729C17.0486 13.4812 16.516 14.7307 15.582 15.6475C14.6481 16.564 13.3889 17.0733 12.0801 17.0635H5.91992C4.61113 17.0733 3.35189 16.564 2.41797 15.6475C1.48396 14.7307 0.951384 13.4812 0.9375 12.1729V6.43555C0.941449 5.78592 1.07362 5.14351 1.32617 4.54492C1.5788 3.94621 1.94735 3.40261 2.41016 2.94629C2.87289 2.49012 3.4212 2.13001 4.02344 1.88574C4.62568 1.64147 5.27 1.51759 5.91992 1.52246H11.8125C11.8389 1.52246 11.8653 1.52403 11.8916 1.52441C12.0418 1.3653 12.2193 1.23312 12.416 1.13477C12.676 1.00482 12.9632 0.937547 13.2539 0.9375L13.2617 0.959961Z" fill="#78829D"/>
<path d="M12.0796 17.0624H5.92036C4.61132 17.0723 3.35173 16.5631 2.41768 15.6464C1.48363 14.7296 0.951346 13.4801 0.9375 12.1717V6.43478C0.941421 5.78501 1.07347 5.14239 1.3261 4.54368C1.57874 3.94497 1.94699 3.40192 2.40979 2.94559C2.87259 2.48927 3.42087 2.12863 4.02325 1.8843C4.62563 1.63997 5.27029 1.51675 5.92036 1.52168H8.5729C8.6467 1.52168 8.71977 1.53621 8.78796 1.56444C8.85614 1.59267 8.91809 1.63404 8.97027 1.6862C9.02246 1.73836 9.06385 1.80028 9.0921 1.86843C9.12034 1.93658 9.13487 2.00963 9.13487 2.08339C9.13487 2.15716 9.12034 2.2302 9.0921 2.29835C9.06385 2.3665 9.02246 2.42842 8.97027 2.48058C8.91809 2.53274 8.85614 2.57412 8.78796 2.60234C8.71977 2.63057 8.6467 2.6451 8.5729 2.6451H5.92036C4.91653 2.63903 3.95078 3.02878 3.23259 3.72981C2.51439 4.43084 2.10166 5.38662 2.08393 6.38984V12.1268C2.10166 13.13 2.51439 14.0858 3.23259 14.7868C3.95078 15.4878 4.91653 15.8776 5.92036 15.8715H12.0796C13.0835 15.8776 14.0492 15.4878 14.7674 14.7868C15.4856 14.0858 15.8983 13.13 15.9161 12.1268V8.36707C15.9322 8.2264 15.9995 8.09657 16.1052 8.00233C16.2109 7.90808 16.3476 7.85599 16.4893 7.85599C16.6309 7.85599 16.7676 7.90808 16.8733 8.00233C16.9791 8.09657 17.0464 8.2264 17.0625 8.36707V12.1717C17.0487 13.4801 16.5164 14.7296 15.5823 15.6464C14.6483 16.5631 13.3887 17.0723 12.0796 17.0624ZM13.256 2.08339C13.147 2.08131 13.0391 2.10538 12.9413 2.1536C12.8435 2.20181 12.7587 2.27277 12.6941 2.3605L12.252 2.9297C12.4009 3.535 12.7626 4.06661 13.271 4.4276C13.7414 4.78363 14.3145 4.97804 14.9045 4.98182H14.9944L15.4365 4.41262C15.4917 4.34092 15.532 4.25897 15.5552 4.17153C15.5783 4.08409 15.5838 3.99292 15.5714 3.90333C15.5604 3.81372 15.5308 3.7274 15.4843 3.64999C15.4378 3.57257 15.3756 3.50579 15.3016 3.45397L13.6756 2.22569C13.5555 2.13289 13.4079 2.08281 13.256 2.08339ZM13.256 0.959968C13.6556 0.959963 14.0444 1.08865 14.365 1.32695L16.006 2.54025C16.199 2.68138 16.3617 2.8597 16.4846 3.06471C16.6075 3.26971 16.6881 3.49725 16.7216 3.73388C16.7552 3.97052 16.7409 4.21147 16.6798 4.44253C16.6186 4.67358 16.5118 4.89005 16.3656 5.07918L15.8711 5.72328C15.7984 5.81932 15.7073 5.89991 15.6031 5.96035C15.4989 6.02079 15.3837 6.05986 15.2642 6.07528H14.9045C14.0679 6.07917 13.2517 5.81687 12.5742 5.32634C11.7996 4.76902 11.2643 3.93972 11.0756 3.0046C11.0578 2.88592 11.0645 2.76486 11.0955 2.64891C11.1264 2.53296 11.1808 2.4246 11.2554 2.33054L11.7499 1.68645C11.9244 1.45391 12.1507 1.26517 12.4108 1.13517C12.6709 1.00518 12.9577 0.9375 13.2485 0.9375L13.256 0.959968ZM9.83922 6.05282L8.16078 8.26221C8.08723 8.35389 8.04519 8.46682 8.04089 8.58426V10.9509C8.03728 10.9801 8.04086 11.0096 8.05131 11.037C8.06176 11.0644 8.07876 11.0889 8.10084 11.1082C8.14664 11.1542 8.20828 11.181 8.27318 11.1831H8.34061L10.6335 10.5091C10.7466 10.4718 10.8458 10.4013 10.9182 10.3068L12.5967 8.13489C12.0634 7.92027 11.5598 7.63838 11.098 7.29607C10.6342 6.9508 10.2184 6.5453 9.8617 6.09026M9.89916 4.47254C9.98421 4.47054 10.0681 4.4927 10.141 4.53645C10.214 4.5802 10.273 4.64374 10.3113 4.71969C10.6873 5.37797 11.1979 5.94961 11.8099 6.39733C12.4188 6.85192 13.1194 7.1688 13.863 7.32603C13.9435 7.33845 14.0193 7.37216 14.0824 7.42367C14.1455 7.47518 14.1937 7.54262 14.222 7.61901C14.2502 7.69539 14.2576 7.77795 14.2432 7.85812C14.2288 7.93828 14.1933 8.01316 14.1402 8.07498L11.8923 11.0109C11.6723 11.2982 11.3645 11.5059 11.0156 11.6025L8.70028 12.2766C8.57385 12.3147 8.44269 12.3349 8.31064 12.3365C8.12939 12.3395 7.94937 12.3062 7.78122 12.2385C7.61308 12.1707 7.46022 12.07 7.33169 11.9422C7.20316 11.8145 7.10155 11.6622 7.03289 11.4945C6.96423 11.3268 6.9299 11.1471 6.93192 10.9659V8.59924C6.93783 8.24005 7.06156 7.89272 7.2841 7.61063L9.53201 4.67475C9.57732 4.61902 9.63441 4.57401 9.69919 4.54293C9.76396 4.51186 9.83481 4.49549 9.90666 4.495L9.89916 4.47254Z" fill="#78829D"/>
</g>
<defs>
<clipPath id="clip0_1151_1435">
<rect width="18" height="18" fill="white"/>
</clipPath>
</defs>
</svg>
