<svg width="18" height="19" viewBox="0 0 18 19" fill="none" xmlns="http://www.w3.org/2000/svg">
<path opacity="0.1" d="M13.2617 1.45996C13.6612 1.45996 14.0505 1.58885 14.3711 1.82715L16.0117 3.04004C16.2046 3.18112 16.3673 3.35953 16.4902 3.56445C16.6131 3.76933 16.694 3.99692 16.7275 4.2334C16.7611 4.46998 16.7467 4.71138 16.6855 4.94238C16.6667 5.01344 16.6415 5.08246 16.6143 5.15039C16.9015 5.79943 17.0625 6.51701 17.0625 7.27246V12.6729C17.0486 13.9812 16.516 15.2307 15.582 16.1475C14.6481 17.064 13.3889 17.5733 12.0801 17.5635H5.91992C4.61113 17.5733 3.35189 17.064 2.41797 16.1475C1.48396 15.2307 0.951384 13.9812 0.9375 12.6729V6.93555C0.941449 6.28592 1.07362 5.64351 1.32617 5.04492C1.5788 4.44621 1.94735 3.90261 2.41016 3.44629C2.87289 2.99012 3.4212 2.63001 4.02344 2.38574C4.62568 2.14147 5.27 2.01759 5.91992 2.02246H11.8125C11.8389 2.02246 11.8653 2.02403 11.8916 2.02441C12.0418 1.8653 12.2193 1.73312 12.416 1.63477C12.676 1.50482 12.9632 1.43755 13.2539 1.4375L13.2617 1.45996Z" fill="#78829D"/>
<path d="M12.0796 17.5624H5.92036C4.61132 17.5723 3.35173 17.0631 2.41768 16.1464C1.48363 15.2296 0.951346 13.9801 0.9375 12.6717V6.93478C0.941421 6.28501 1.07347 5.64239 1.3261 5.04368C1.57874 4.44497 1.94699 3.90192 2.40979 3.44559C2.87259 2.98927 3.42087 2.62863 4.02325 2.3843C4.62563 2.13997 5.27029 2.01675 5.92036 2.02168H8.5729C8.6467 2.02168 8.71977 2.03621 8.78796 2.06444C8.85614 2.09267 8.91809 2.13404 8.97027 2.1862C9.02246 2.23836 9.06385 2.30028 9.0921 2.36843C9.12034 2.43658 9.13487 2.50963 9.13487 2.58339C9.13487 2.65716 9.12034 2.7302 9.0921 2.79835C9.06385 2.8665 9.02246 2.92842 8.97027 2.98058C8.91809 3.03274 8.85614 3.07412 8.78796 3.10234C8.71977 3.13057 8.6467 3.1451 8.5729 3.1451H5.92036C4.91653 3.13903 3.95078 3.52878 3.23259 4.22981C2.51439 4.93084 2.10166 5.88662 2.08393 6.88984V12.6268C2.10166 13.63 2.51439 14.5858 3.23259 15.2868C3.95078 15.9878 4.91653 16.3776 5.92036 16.3715H12.0796C13.0835 16.3776 14.0492 15.9878 14.7674 15.2868C15.4856 14.5858 15.8983 13.63 15.9161 12.6268V8.86707C15.9322 8.7264 15.9995 8.59657 16.1052 8.50233C16.2109 8.40808 16.3476 8.35599 16.4893 8.35599C16.6309 8.35599 16.7676 8.40808 16.8733 8.50233C16.9791 8.59657 17.0464 8.7264 17.0625 8.86707V12.6717C17.0487 13.9801 16.5164 15.2296 15.5823 16.1464C14.6483 17.0631 13.3887 17.5723 12.0796 17.5624ZM13.256 2.58339C13.147 2.58131 13.0391 2.60538 12.9413 2.6536C12.8435 2.70181 12.7587 2.77277 12.6941 2.8605L12.252 3.4297C12.4009 4.035 12.7626 4.56661 13.271 4.9276C13.7414 5.28363 14.3145 5.47804 14.9045 5.48182H14.9944L15.4365 4.91262C15.4917 4.84092 15.532 4.75897 15.5552 4.67153C15.5783 4.58409 15.5838 4.49292 15.5714 4.40333C15.5604 4.31372 15.5308 4.2274 15.4843 4.14999C15.4378 4.07257 15.3756 4.00579 15.3016 3.95397L13.6756 2.72569C13.5555 2.63289 13.4079 2.58281 13.256 2.58339ZM13.256 1.45997C13.6556 1.45996 14.0444 1.58865 14.365 1.82695L16.006 3.04025C16.199 3.18138 16.3617 3.3597 16.4846 3.56471C16.6075 3.76971 16.6881 3.99725 16.7216 4.23388C16.7552 4.47052 16.7409 4.71147 16.6798 4.94253C16.6186 5.17358 16.5118 5.39005 16.3656 5.57918L15.8711 6.22328C15.7984 6.31932 15.7073 6.39991 15.6031 6.46035C15.4989 6.52079 15.3837 6.55986 15.2642 6.57528H14.9045C14.0679 6.57917 13.2517 6.31687 12.5742 5.82634C11.7996 5.26902 11.2643 4.43972 11.0756 3.5046C11.0578 3.38592 11.0645 3.26486 11.0955 3.14891C11.1264 3.03296 11.1808 2.9246 11.2554 2.83054L11.7499 2.18645C11.9244 1.95391 12.1507 1.76517 12.4108 1.63517C12.6709 1.50518 12.9577 1.4375 13.2485 1.4375L13.256 1.45997ZM9.83922 6.55282L8.16078 8.76221C8.08723 8.85389 8.04519 8.96682 8.04089 9.08426V11.4509C8.03728 11.4801 8.04086 11.5096 8.05131 11.537C8.06176 11.5644 8.07876 11.5889 8.10084 11.6082C8.14664 11.6542 8.20828 11.681 8.27318 11.6831H8.34061L10.6335 11.0091C10.7466 10.9718 10.8458 10.9013 10.9182 10.8068L12.5967 8.63489C12.0634 8.42027 11.5598 8.13838 11.098 7.79607C10.6342 7.4508 10.2184 7.0453 9.8617 6.59026M9.89916 4.97254C9.98421 4.97054 10.0681 4.9927 10.141 5.03645C10.214 5.0802 10.273 5.14374 10.3113 5.21969C10.6873 5.87797 11.1979 6.44961 11.8099 6.89733C12.4188 7.35192 13.1194 7.6688 13.863 7.82603C13.9435 7.83845 14.0193 7.87216 14.0824 7.92367C14.1455 7.97518 14.1937 8.04262 14.222 8.11901C14.2502 8.19539 14.2576 8.27795 14.2432 8.35812C14.2288 8.43828 14.1933 8.51316 14.1402 8.57498L11.8923 11.5109C11.6723 11.7982 11.3645 12.0059 11.0156 12.1025L8.70028 12.7766C8.57385 12.8147 8.44269 12.8349 8.31064 12.8365C8.12939 12.8395 7.94937 12.8062 7.78122 12.7385C7.61308 12.6707 7.46022 12.57 7.33169 12.4422C7.20316 12.3145 7.10155 12.1622 7.03289 11.9945C6.96423 11.8268 6.9299 11.6471 6.93192 11.4659V9.09924C6.93783 8.74005 7.06156 8.39272 7.2841 8.11063L9.53201 5.17475C9.57732 5.11902 9.63441 5.07401 9.69919 5.04293C9.76396 5.01186 9.83481 4.99549 9.90666 4.995L9.89916 4.97254Z" fill="#78829D"/>
</svg>
