<svg width="20" height="20" viewBox="0 0 20 20" fill="none" xmlns="http://www.w3.org/2000/svg">
<path d="M1.66666 9.16667C1.66666 6.02397 1.66666 4.45262 2.64297 3.47631C3.61929 2.5 5.19063 2.5 8.33333 2.5H11.6667C14.8094 2.5 16.3807 2.5 17.357 3.47631C18.3333 4.45262 18.3333 6.02397 18.3333 9.16667V10.8333C18.3333 13.976 18.3333 15.5474 17.357 16.5237C16.3807 17.5 14.8094 17.5 11.6667 17.5H8.33333C5.19063 17.5 3.61929 17.5 2.64297 16.5237C1.66666 15.5474 1.66666 13.976 1.66666 10.8333V9.16667Z" stroke="#646E88" stroke-width="1.5"/>
<path d="M4.58334 8.33337H9.58334" stroke="#646E88" stroke-width="1.5" stroke-linecap="round"/>
<path d="M5.41666 11.6666H8.75" stroke="#646E88" stroke-width="1.5" stroke-linecap="round"/>
<path d="M12.5 17.5L12.5 2.5" stroke="#646E88" stroke-width="1.5" stroke-linecap="round"/>
</svg>
