<svg width="18" height="16" viewBox="0 0 18 16" fill="none" xmlns="http://www.w3.org/2000/svg">
<path d="M17.3337 7.16667V8.83333C17.3337 11.976 17.3337 13.5474 16.3573 14.5237C15.5454 15.3356 14.3219 15.4723 12.1253 15.4953V0.504659C14.3219 0.527673 15.5454 0.664369 16.3573 1.47631C17.3337 2.45262 17.3337 4.02397 17.3337 7.16667Z" fill="#071437"/>
<path fill-rule="evenodd" clip-rule="evenodd" d="M7.33366 0.5H10.667H10.8753L10.8753 15.5H10.667H7.33366C4.19096 15.5 2.61961 15.5 1.6433 14.5237C0.666992 13.5474 0.666992 11.976 0.666992 8.83333V7.16667C0.666992 4.02397 0.666992 2.45262 1.6433 1.47631C2.61961 0.5 4.19096 0.5 7.33366 0.5ZM2.95866 6.33333C2.95866 5.98816 3.23848 5.70833 3.58366 5.70833H8.58366C8.92884 5.70833 9.20866 5.98816 9.20866 6.33333C9.20866 6.67851 8.92884 6.95833 8.58366 6.95833H3.58366C3.23848 6.95833 2.95866 6.67851 2.95866 6.33333ZM3.79199 9.66667C3.79199 9.32149 4.07181 9.04167 4.41699 9.04167H7.75033C8.0955 9.04167 8.37533 9.32149 8.37533 9.66667C8.37533 10.0118 8.0955 10.2917 7.75033 10.2917H4.41699C4.07181 10.2917 3.79199 10.0118 3.79199 9.66667Z" fill="#071437"/>
</svg>
