<svg width="15" height="14" viewBox="0 0 15 14" fill="none" xmlns="http://www.w3.org/2000/svg">
<path d="M7.16663 12.2498C6.99163 12.2498 6.87496 12.1915 6.75829 12.0748L3.84163 9.15817C3.60829 8.92484 3.60829 8.57484 3.84163 8.3415C4.07496 8.10817 4.42496 8.10817 4.65829 8.3415L7.16663 10.8498L9.67496 8.3415C9.90829 8.10817 10.2583 8.10817 10.4916 8.3415C10.725 8.57484 10.725 8.92484 10.4916 9.15817L7.57496 12.0748C7.45829 12.1915 7.34163 12.2498 7.16663 12.2498Z" fill="#78829D"/>
<path d="M4.24996 5.83333C4.07496 5.83333 3.95829 5.775 3.84163 5.65833C3.60829 5.425 3.60829 5.075 3.84163 4.84167L6.75829 1.925C6.99163 1.69167 7.34163 1.69167 7.57496 1.925L10.4916 4.84167C10.725 5.075 10.725 5.425 10.4916 5.65833C10.2583 5.89167 9.90829 5.89167 9.67496 5.65833L7.16663 3.15L4.65829 5.65833C4.54163 5.775 4.42496 5.83333 4.24996 5.83333Z" fill="#78829D"/>
</svg>
