<svg width="24" height="24" viewBox="0 0 24 24" fill="none" xmlns="http://www.w3.org/2000/svg">
<path opacity="0.3" d="M19.5072 23.4998H4.537C4.17921 23.5043 3.82409 23.4378 3.49222 23.3041C3.16035 23.1703 2.85835 22.972 2.60374 22.7206C2.34912 22.4692 2.14697 22.1697 2.00901 21.8395C1.87105 21.5094 1.80002 21.1551 1.80005 20.7973V3.20267C1.80002 2.84486 1.87105 2.4906 2.00901 2.16046C2.14697 1.83031 2.34912 1.53085 2.60374 1.27945C2.85835 1.02805 3.16035 0.829709 3.49222 0.695945C3.82409 0.562181 4.17921 0.495652 4.537 0.50022H14.5048C14.7023 0.499552 14.8979 0.538953 15.0797 0.616041C15.2616 0.693128 15.4259 0.8063 15.5628 0.948712L21.7727 7.23909C22.0501 7.51699 22.2071 7.89289 22.2096 8.28557V20.7973C22.2096 21.5141 21.9249 22.2014 21.4181 22.7083C20.9113 23.2151 20.2239 23.4998 19.5072 23.4998Z" fill="#78829D"/>
<path d="M8.94238 8.87207C9.88427 8.46768 10.9344 8.38999 11.9258 8.65039C12.9172 8.91084 13.7935 9.49446 14.415 10.3096C15.0367 11.1247 15.3677 12.1243 15.3564 13.1494C15.3511 14.0744 15.0583 14.975 14.5176 15.7256L16.9092 18.0254C17.0685 18.1815 17.1615 18.3933 17.168 18.6162C17.1744 18.8392 17.0934 19.0566 16.9434 19.2217C16.8658 19.3094 16.7701 19.3792 16.6631 19.4268C16.5561 19.4743 16.4403 19.4983 16.3232 19.4971C16.1002 19.4969 15.8852 19.4107 15.7246 19.2559L13.2637 16.9561C12.4042 17.5146 11.3826 17.7698 10.3613 17.6816C9.34001 17.5934 8.37702 17.1665 7.62598 16.4688C6.87523 15.7712 6.37893 14.8428 6.21582 13.8311C6.05277 12.819 6.23266 11.7811 6.72656 10.8828C7.22049 9.98451 8.00042 9.27657 8.94238 8.87207ZM11.3564 10.3945C10.8136 10.29 10.2521 10.348 9.74219 10.5615C9.23214 10.7752 8.79657 11.1353 8.49023 11.5957C8.1839 12.0561 8.01961 12.5964 8.01953 13.1494C8.02102 13.5214 8.09679 13.8897 8.24121 14.2324C8.38562 14.575 8.5963 14.8857 8.86133 15.1465C9.12646 15.4073 9.44107 15.6131 9.78613 15.752C10.1311 15.8907 10.5003 15.9596 10.8721 15.9551C11.4249 15.946 11.9627 15.7737 12.418 15.46C12.8733 15.1462 13.2263 14.7048 13.4316 14.1914C13.6368 13.6781 13.6856 13.1153 13.5723 12.5742C13.4588 12.033 13.1881 11.5372 12.7939 11.1494C12.3998 10.7616 11.8994 10.4991 11.3564 10.3945ZM14.7803 0.5C15.0817 0.563297 15.3557 0.720035 15.5625 0.948242L21.7725 7.23926C21.9755 7.43985 22.1155 7.69544 22.1748 7.97461H18.3564C17.8875 7.97609 17.4229 7.88538 16.9893 7.70703C16.5554 7.52855 16.1604 7.26576 15.8281 6.93457C15.496 6.60344 15.2326 6.20951 15.0527 5.77637C14.873 5.34328 14.7803 4.87906 14.7803 4.41016V0.5Z" fill="#78829D"/>
</svg>
