<svg width="18" height="18" viewBox="0 0 18 18" fill="none" xmlns="http://www.w3.org/2000/svg">
<path opacity="0.1" d="M9.03272 16.1996C6.92611 16.1031 4.92265 15.2598 3.3811 13.8208C1.68639 12.336 0.675781 10.5169 0.675781 8.96211C0.675781 5.5105 5.05249 1.72461 9.03272 1.72461C13.013 1.72461 17.3897 5.61156 17.3897 8.96211C17.3897 12.4759 13.0907 16.1996 9.03272 16.1996Z" fill="#78829D"/>
<path d="M9 11.8203C8.44115 11.8203 7.89486 11.6546 7.43019 11.3442C6.96553 11.0337 6.60337 10.5924 6.3895 10.0761C6.17564 9.55976 6.11969 8.99163 6.22871 8.44352C6.33774 7.89542 6.60685 7.39194 7.00201 6.99678C7.39718 6.60161 7.90065 6.3325 8.44876 6.22348C8.99687 6.11445 9.565 6.17041 10.0813 6.38427C10.5976 6.59813 11.0389 6.96029 11.3494 7.42496C11.6599 7.88962 11.8256 8.43592 11.8256 8.99477C11.8235 9.74352 11.5252 10.461 10.9957 10.9905C10.4662 11.5199 9.74875 11.8183 9 11.8203ZM9 7.34651C8.67401 7.34651 8.35533 7.44318 8.08428 7.62429C7.81322 7.80541 7.60196 8.06283 7.47721 8.36401C7.35246 8.66519 7.31982 8.9966 7.38341 9.31633C7.44701 9.63606 7.60399 9.92975 7.83451 10.1603C8.06502 10.3908 8.35871 10.5478 8.67844 10.6114C8.99817 10.675 9.32958 10.6423 9.63076 10.5176C9.93194 10.3928 10.1894 10.1815 10.3705 9.91049C10.5516 9.63944 10.6483 9.32076 10.6483 8.99477C10.6483 8.55762 10.4746 8.13838 10.1655 7.82927C9.85639 7.52017 9.43715 7.34651 9 7.34651ZM9 16.302C6.87308 16.2046 4.85031 15.3532 3.2939 13.9003C1.58285 12.4012 0.5625 10.5645 0.5625 8.99477C0.5625 5.50988 4.9814 1.6875 9 1.6875C13.0186 1.6875 17.4375 5.61192 17.4375 8.99477C17.4375 12.5424 13.0971 16.302 9 16.302ZM9 2.86483C5.67994 2.86483 1.73983 6.18488 1.73983 8.99477C1.73983 10.2192 2.63459 11.7576 4.09448 13.0134C5.43442 14.2661 7.16907 15.0127 9 15.1247C12.736 15.1247 16.2602 11.6712 16.2602 8.99477C16.2602 6.45959 12.5084 2.86483 9 2.86483Z" fill="#78829D"/>
</svg>
