<svg width="18" height="19" viewBox="0 0 18 19" fill="none" xmlns="http://www.w3.org/2000/svg">
<path opacity="0.1" d="M13.875 6.72559C13.9987 6.72323 14.122 6.74449 14.2363 6.78906C14.3508 6.83378 14.4543 6.90111 14.54 6.98535C14.6257 7.06959 14.6919 7.16976 14.7344 7.2793C14.7767 7.38865 14.7949 7.50494 14.7871 7.62109L14.2773 15.5264C14.2485 16.0224 14.0203 16.4899 13.6396 16.834C13.2589 17.1781 12.7534 17.3738 12.2256 17.3809L6.08008 17.4492C5.54495 17.4603 5.02539 17.2779 4.62988 16.9385C4.23436 16.599 3.99356 16.1285 3.95605 15.626L3.21387 7.62891C3.20481 7.51198 3.22175 7.39459 3.26367 7.28418C3.30561 7.17371 3.37122 7.07239 3.45703 6.9873C3.54281 6.90226 3.64674 6.83522 3.76172 6.79004C3.87664 6.74491 4.0005 6.72319 4.125 6.72559H13.875ZM10.377 2.5625C10.5784 2.56286 10.7741 2.63345 10.9287 2.7627C11.0833 2.892 11.1876 3.0722 11.2236 3.27051L11.4238 4.3623H6.60059L6.80762 3.2627C6.8468 3.06528 6.95378 2.88742 7.10938 2.75977C7.26511 2.63209 7.46073 2.56221 7.66211 2.5625H10.377Z" fill="#FF383C"/>
<path d="M6.2094 17.5625C5.58424 17.5566 4.98417 17.3158 4.52841 16.8878C4.07266 16.4598 3.79457 15.8761 3.7494 15.2525L3.2019 7.42252C3.19698 7.34865 3.20665 7.27454 3.23037 7.20441C3.25409 7.13428 3.29139 7.06951 3.34014 7.01379C3.38889 6.95808 3.44814 6.91251 3.5145 6.87969C3.58086 6.84687 3.65303 6.82745 3.7269 6.82252C3.80077 6.8176 3.87489 6.82727 3.94502 6.85099C4.01515 6.87471 4.07992 6.91201 4.13563 6.96076C4.19135 7.00951 4.23692 7.06876 4.26973 7.13512C4.30255 7.20148 4.32198 7.27365 4.3269 7.34752L4.8594 15.1775C4.88599 15.5223 5.04248 15.8442 5.29725 16.0781C5.55202 16.312 5.88607 16.4404 6.2319 16.4375L11.8944 16.37C12.2385 16.3666 12.5682 16.232 12.8163 15.9936C13.0645 15.7553 13.2122 15.4312 13.2294 15.0875L13.6719 7.34752C13.6834 7.19832 13.7524 7.05942 13.8644 6.96009C13.9763 6.86076 14.1224 6.80875 14.2719 6.81502C14.4198 6.82468 14.558 6.89233 14.6563 7.00329C14.7546 7.11424 14.8051 7.25951 14.7969 7.40752L14.3544 15.155C14.3167 15.7814 14.0439 16.3704 13.5906 16.8043C13.1372 17.2381 12.5368 17.4848 11.9094 17.495L6.2469 17.5625H6.2094ZM11.2344 10.1375C11.2325 9.98894 11.1726 9.84699 11.0675 9.74192C10.9624 9.63685 10.8205 9.57697 10.6719 9.57502H7.3269C7.17772 9.57502 7.03464 9.63428 6.92916 9.73977C6.82367 9.84526 6.7644 9.98834 6.7644 10.1375C6.7644 10.2867 6.82367 10.4298 6.92916 10.5353C7.03464 10.6408 7.17772 10.7 7.3269 10.7H10.6719C10.747 10.702 10.8218 10.689 10.8918 10.6616C10.9618 10.6342 11.0256 10.5931 11.0794 10.5407C11.1332 10.4882 11.176 10.4255 11.2052 10.3563C11.2344 10.2871 11.2494 10.2127 11.2494 10.1375H11.2344ZM10.6494 12.9125C10.6494 12.7633 10.5901 12.6203 10.4847 12.5148C10.3792 12.4093 10.2361 12.35 10.0869 12.35H7.9119C7.76272 12.35 7.61964 12.4093 7.51416 12.5148C7.40867 12.6203 7.3494 12.7633 7.3494 12.9125C7.3494 13.0617 7.40867 13.2048 7.51416 13.3103C7.61964 13.4158 7.76272 13.475 7.9119 13.475H10.0869C10.2355 13.4731 10.3774 13.4132 10.4825 13.3081C10.5876 13.2031 10.6475 13.0611 10.6494 12.9125ZM15.7494 5.39002C15.7312 5.52387 15.6647 5.64646 15.5625 5.73483C15.4604 5.82319 15.3295 5.87126 15.1944 5.87002H15.1119C11.0634 5.31364 6.95788 5.31364 2.9094 5.87002C2.83498 5.88288 2.75875 5.88081 2.68513 5.86396C2.61152 5.8471 2.54199 5.81577 2.48058 5.77181C2.41917 5.72785 2.36711 5.67212 2.32743 5.60787C2.28774 5.54361 2.26122 5.47211 2.2494 5.39752C2.2256 5.25034 2.26121 5.09972 2.3484 4.97878C2.4356 4.85783 2.56724 4.77645 2.7144 4.75252C2.8119 4.75252 3.8469 4.57252 5.4744 4.44502L5.7444 3.03502C5.83009 2.58492 6.07038 2.17891 6.42372 1.8872C6.77705 1.59549 7.22121 1.43643 7.6794 1.43752H10.3269C10.7885 1.43532 11.2362 1.59571 11.5914 1.89056C11.9466 2.1854 12.1866 2.59589 12.2694 3.05002L12.5244 4.44502C13.4169 4.52002 14.3319 4.61002 15.2694 4.75252C15.3429 4.76264 15.4136 4.78719 15.4776 4.82476C15.5415 4.86232 15.5974 4.91217 15.642 4.97142C15.6866 5.03067 15.7191 5.09816 15.7375 5.17C15.7559 5.24184 15.76 5.31661 15.7494 5.39002ZM8.6694 4.31752H11.3544L11.1594 3.25252C11.1243 3.05917 11.0225 2.88425 10.8718 2.75818C10.7211 2.63211 10.5309 2.56287 10.3344 2.56252H7.6869C7.49056 2.56224 7.30021 2.63014 7.14837 2.75462C6.99654 2.8791 6.89263 3.05244 6.8544 3.24502L6.6519 4.31752H8.6694Z" fill="#FF383C"/>
</svg>
