<svg width="14" height="18" viewBox="0 0 14 18" fill="none" xmlns="http://www.w3.org/2000/svg">
<path d="M4.16495 17.1905C3.52986 17.1846 2.92027 16.9399 2.45728 16.5051C1.99429 16.0704 1.71179 15.4773 1.66591 14.8439L1.10971 6.88959C1.10471 6.81455 1.11454 6.73926 1.13863 6.66802C1.16273 6.59677 1.20062 6.53097 1.25015 6.47437C1.29967 6.41777 1.35986 6.37148 1.42727 6.33815C1.49469 6.30481 1.56801 6.28507 1.64305 6.28007C1.71809 6.27507 1.79338 6.28489 1.86462 6.30899C1.93587 6.33308 2.00167 6.37098 2.05827 6.4205C2.11487 6.47002 2.16116 6.53021 2.1945 6.59763C2.22784 6.66504 2.24757 6.73836 2.25257 6.8134L2.79352 14.7677C2.82054 15.118 2.97951 15.445 3.23832 15.6826C3.49713 15.9202 3.83649 16.0507 4.18781 16.0477L9.94019 15.9791C10.2897 15.9757 10.6247 15.8389 10.8768 15.5968C11.1288 15.3546 11.2789 15.0254 11.2964 14.6763L11.7459 6.8134C11.7576 6.66183 11.8277 6.52073 11.9414 6.41982C12.0551 6.31891 12.2035 6.26608 12.3554 6.27245C12.5057 6.28226 12.646 6.35099 12.7459 6.4637C12.8458 6.57641 12.8971 6.72399 12.8888 6.87436L12.4392 14.7448C12.4009 15.3811 12.1238 15.9795 11.6633 16.4202C11.2027 16.861 10.5928 17.1116 9.95543 17.122L4.20305 17.1905H4.16495ZM9.26971 9.64769C9.26774 9.49675 9.2069 9.35255 9.10017 9.24581C8.99343 9.13907 8.84922 9.07823 8.69829 9.07626H5.30019C5.14864 9.07626 5.00329 9.13646 4.89613 9.24363C4.78897 9.35079 4.72876 9.49614 4.72876 9.64769C4.72876 9.79924 4.78897 9.94459 4.89613 10.0517C5.00329 10.1589 5.14864 10.2191 5.30019 10.2191H8.69829C8.7746 10.2212 8.85055 10.2079 8.92164 10.1801C8.99274 10.1523 9.05755 10.1105 9.11223 10.0572C9.16692 10.004 9.21038 9.94028 9.24004 9.86994C9.26971 9.7996 9.28498 9.72403 9.28495 9.64769H9.26971ZM8.67543 12.4667C8.67543 12.3152 8.61523 12.1698 8.50806 12.0627C8.4009 11.9555 8.25555 11.8953 8.104 11.8953H5.89448C5.74292 11.8953 5.59758 11.9555 5.49042 12.0627C5.38325 12.1698 5.32305 12.3152 5.32305 12.4667C5.32305 12.6183 5.38325 12.7636 5.49042 12.8708C5.59758 12.978 5.74292 13.0382 5.89448 13.0382H8.104C8.25494 13.0362 8.39914 12.9754 8.50588 12.8686C8.61262 12.7619 8.67346 12.6177 8.67543 12.4667ZM13.8564 4.82483C13.8378 4.9608 13.7704 5.08534 13.6666 5.17511C13.5628 5.26488 13.4298 5.31371 13.2926 5.31245H13.2088C9.09603 4.74724 4.92531 4.74724 0.812572 5.31245C0.736971 5.32551 0.659528 5.32341 0.584744 5.30629C0.509959 5.28916 0.439324 5.25734 0.376941 5.21268C0.314559 5.16802 0.261674 5.11141 0.221358 5.04614C0.181042 4.98086 0.154099 4.90823 0.142096 4.83245C0.117917 4.68293 0.154091 4.52992 0.242667 4.40706C0.331244 4.2842 0.464976 4.20152 0.614477 4.17721C0.713524 4.17721 1.76495 3.99436 3.41829 3.86483L3.69257 2.43245C3.77962 1.9752 4.02373 1.56275 4.38267 1.26641C4.74161 0.970073 5.19283 0.808487 5.65829 0.809593H8.34781C8.81675 0.807356 9.27152 0.970289 9.63234 1.26982C9.99317 1.56935 10.237 1.98635 10.3211 2.44769L10.5802 3.86483C11.4869 3.94102 12.4164 4.03245 13.3688 4.17721C13.4434 4.18749 13.5153 4.21243 13.5802 4.25059C13.6452 4.28876 13.702 4.33939 13.7473 4.39958C13.7926 4.45977 13.8256 4.52833 13.8443 4.60131C13.863 4.67429 13.8671 4.75026 13.8564 4.82483ZM6.664 3.73531H9.39162L9.19352 2.6534C9.15788 2.45698 9.0545 2.27928 8.90137 2.15121C8.74824 2.02314 8.55505 1.95281 8.35543 1.95245H5.66591C5.46645 1.95216 5.27308 2.02114 5.11883 2.1476C4.96458 2.27405 4.85902 2.45014 4.82019 2.64578L4.61448 3.73531H6.664Z" fill="#78829D"/>
</svg>
