<svg width="22" height="16" viewBox="0 0 22 16" fill="none" xmlns="http://www.w3.org/2000/svg">
<path d="M20.3334 7.12503C20.8167 7.12503 21.2084 7.51678 21.2084 8.00003C21.2084 8.48327 20.8167 8.87503 20.3334 8.87503H9.54175L9.54175 15C9.54175 15.3539 9.32856 15.673 9.0016 15.8084C8.67463 15.9439 8.29828 15.869 8.04803 15.6187L1.04803 8.61874C0.883935 8.45465 0.791748 8.23209 0.791748 8.00003C0.791748 7.76796 0.883935 7.5454 1.04803 7.38131L8.04803 0.381307C8.29828 0.131059 8.67463 0.0561975 9.0016 0.191631C9.32856 0.327064 9.54175 0.646121 9.54175 1.00003L9.54175 7.12503H20.3334Z" fill="#071437"/>
</svg>
