<svg width="20" height="20" viewBox="0 0 20 20" fill="none" xmlns="http://www.w3.org/2000/svg">
<circle cx="10" cy="4.99996" r="2.58333" stroke="#646E88" stroke-width="1.5"/>
<path d="M15 7.50004C16.3807 7.50004 17.5 6.5673 17.5 5.41671C17.5 4.26611 16.3807 3.33337 15 3.33337" stroke="#646E88" stroke-width="1.5" stroke-linecap="round"/>
<path d="M5 7.50004C3.61929 7.50004 2.5 6.5673 2.5 5.41671C2.5 4.26611 3.61929 3.33337 5 3.33337" stroke="#646E88" stroke-width="1.5" stroke-linecap="round"/>
<path d="M10 11.5834C11.2532 11.5834 12.3537 11.9237 13.1191 12.434C13.8897 12.9477 14.2499 13.5748 14.25 14.1664C14.25 14.7581 13.8899 15.386 13.1191 15.8998C12.3537 16.41 11.2531 16.7504 10 16.7504C8.74687 16.7504 7.64634 16.41 6.88086 15.8998C6.11013 15.386 5.75 14.7581 5.75 14.1664C5.75013 13.5748 6.11027 12.9477 6.88086 12.434C7.64635 11.9237 8.74678 11.5834 10 11.5834Z" stroke="#646E88" stroke-width="1.5"/>
<path d="M16.6667 15.8333C18.1285 15.5127 19.1667 14.7008 19.1667 13.75C19.1667 12.7991 18.1285 11.9872 16.6667 11.6666" stroke="#646E88" stroke-width="1.5" stroke-linecap="round"/>
<path d="M3.33334 15.8333C1.87146 15.5127 0.833336 14.7008 0.833336 13.75C0.833336 12.7991 1.87146 11.9872 3.33334 11.6666" stroke="#646E88" stroke-width="1.5" stroke-linecap="round"/>
</svg>
