<svg width="30" height="31" viewBox="0 0 30 31" fill="none" xmlns="http://www.w3.org/2000/svg">
<circle cx="15" cy="8" r="5" fill="white"/>
<path fill-rule="evenodd" clip-rule="evenodd" d="M20.625 28C18.5626 28 17.5314 28 16.8907 27.3593C16.25 26.7186 16.25 25.6874 16.25 23.625C16.25 21.5626 16.25 20.5314 16.8907 19.8907C17.5314 19.25 18.5626 19.25 20.625 19.25C22.6874 19.25 23.7186 19.25 24.3593 19.8907C25 20.5314 25 21.5626 25 23.625C25 25.6874 25 26.7186 24.3593 27.3593C23.7186 28 22.6874 28 20.625 28ZM23.085 22.6823C23.3698 22.3975 23.3698 21.9358 23.085 21.6511C22.8003 21.3663 22.3386 21.3663 22.0538 21.6511L19.6528 24.0521L19.1962 23.5955C18.9114 23.3108 18.4497 23.3108 18.165 23.5955C17.8802 23.8803 17.8802 24.342 18.165 24.6267L19.1372 25.5989C19.4219 25.8837 19.8836 25.8837 20.1684 25.5989L23.085 22.6823Z" fill="white"/>
<path d="M19.2684 17.3842C18.0058 16.9803 16.55 16.75 15 16.75C10.1675 16.75 6.25 18.9886 6.25 21.75C6.25 24.4257 9.92805 26.6105 14.5527 26.7436C14.5187 26.5857 14.4925 26.429 14.4718 26.2751C14.3747 25.553 14.3749 24.6706 14.375 23.7324V23.5175C14.3749 22.5793 14.3747 21.697 14.4718 20.9749C14.5799 20.1713 14.8381 19.2917 15.5649 18.5649C16.2917 17.8381 17.1713 17.5798 17.9749 17.4718C18.3648 17.4194 18.8015 17.3953 19.2684 17.3842Z" fill="white"/>
</svg>
