<svg width="24" height="24" viewBox="0 0 24 24" fill="none" xmlns="http://www.w3.org/2000/svg">
<circle cx="9" cy="6" r="4" fill="#1C274C"/>
<ellipse cx="9" cy="17.001" rx="7" ry="4" fill="#1C274C"/>
<path d="M20.9991 17.0005C20.9991 18.6573 18.9636 20.0004 16.4783 20.0004C17.2105 19.2001 17.714 18.1955 17.714 17.0018C17.714 15.8068 17.2093 14.8013 16.4758 14.0005C18.961 14.0005 20.9991 15.3436 20.9991 17.0005Z" fill="#1C274C"/>
<path d="M17.9991 6.00073C17.9991 7.65759 16.656 9.00073 14.9991 9.00073C14.6379 9.00073 14.2915 8.93687 13.9707 8.81981C14.4438 7.98772 14.714 7.02522 14.714 5.99962C14.714 4.97477 14.4442 4.01294 13.9718 3.18127C14.2922 3.06446 14.6382 3.00073 14.9991 3.00073C16.656 3.00073 17.9991 4.34388 17.9991 6.00073Z" fill="#1C274C"/>
</svg>
