<svg width="880" height="153" viewBox="0 0 880 153" fill="none" xmlns="http://www.w3.org/2000/svg">
<mask id="mask0_164_16755" style="mask-type:luminance" maskUnits="userSpaceOnUse" x="-176" y="-61" width="1231" height="308">
<path d="M-175.328 -61H1054.32V246.413H-175.328V-61Z" fill="url(#paint0_radial_164_16755)"/>
</mask>
<g mask="url(#mask0_164_16755)">
<path d="M764.085 -61L781.92 -50.7033V-30.1083L764.085 -19.8117L746.25 -30.1083V-50.7033L764.085 -61ZM907.418 -61L925.253 -50.7033V-30.1083L907.418 -19.8117L889.583 -30.1083V-50.7033L907.418 -61ZM943.252 -61L961.087 -50.7033V-30.1083L943.252 -19.8117L925.417 -30.1083V-50.7033L943.252 -61ZM-6.3315 -30.1092L11.5035 -19.8125V0.78167L-6.3315 11.0783L-24.1665 0.78167V-19.8125L-6.3315 -30.1092ZM65.3352 -30.1092L83.1702 -19.8125V0.78167L65.3352 11.0783L47.5002 0.78167V-19.8125L65.3352 -30.1092ZM101.168 -30.1092L119.003 -19.8125V0.78167L101.168 11.0783L83.3335 0.78167V-19.8125L101.168 -30.1092ZM244.502 -30.1092L262.337 -19.8125V0.78167L244.502 11.0783L226.667 0.78167V-19.8125L244.502 -30.1092ZM280.335 -30.1092L298.17 -19.8125V0.78167L280.335 11.0783L262.5 0.78167V-19.8125L280.335 -30.1092Z" stroke="#DDDDDD" stroke-width="0.296556"/>
<path d="M316.169 -30.1091L334.003 -19.8125V0.7817L316.169 11.0784L298.333 0.7817V-19.8125L316.169 -30.1091Z" fill="#DDDDDD" stroke="#DDDDDD" stroke-width="0.296556"/>
<path d="M352.002 -30.1091L369.837 -19.8125V0.7817L352.002 11.0784L334.167 0.7817V-19.8125L352.002 -30.1091Z" fill="#DDDDDD" fill-opacity="0.211765" stroke="#DDDDDD" stroke-width="0.296556"/>
<path d="M387.835 -30.1091L405.67 -19.8125V0.7817L387.835 11.0784L370 0.7817V-19.8125L387.835 -30.1091Z" fill="#DDDDDD" fill-opacity="0.576471" stroke="#DDDDDD" stroke-width="0.296556"/>
<path d="M567.001 -30.1091L584.837 -19.8125V0.7817L567.001 11.0784L549.167 0.7817V-19.8125L567.001 -30.1091ZM602.835 -30.1091L620.67 -19.8125V0.7817L602.835 11.0784L585 0.7817V-19.8125L602.835 -30.1091ZM638.668 -30.1091L656.503 -19.8125V0.7817L638.668 11.0784L620.833 0.7817V-19.8125L638.668 -30.1091ZM674.501 -30.1091L692.337 -19.8125V0.7817L674.501 11.0784L656.667 0.7817V-19.8125L674.501 -30.1091ZM710.335 -30.1091L728.17 -19.8125V0.7817L710.335 11.0784L692.5 0.7817V-19.8125L710.335 -30.1091Z" stroke="#DDDDDD" stroke-width="0.296556"/>
<path d="M782.001 -30.1091L799.836 -19.8125V0.7817L782.001 11.0784L764.167 0.7817V-19.8125L782.001 -30.1091Z" fill="#DDDDDD" fill-opacity="0.905882" stroke="#DDDDDD" stroke-width="0.296556"/>
<path d="M889.502 -30.1091L907.337 -19.8125V0.781704L889.502 11.0784L871.667 0.781704V-19.8125L889.502 -30.1091ZM11.585 0.781704L29.42 11.0784V31.6725L11.585 41.9692L-6.25 31.6725V11.0784L11.585 0.781704ZM47.4183 0.781704L65.2533 11.0784V31.6725L47.4183 41.9692L29.5833 31.6725V11.0784L47.4183 0.781704ZM83.2517 0.781704L101.087 11.0784V31.6725L83.2517 41.9692L65.4167 31.6725V11.0784L83.2517 0.781704Z" stroke="#DDDDDD" stroke-width="0.296556"/>
<path d="M119.085 0.781738L136.92 11.0784V31.6726L119.085 41.9692L101.25 31.6726V11.0784L119.085 0.781738Z" fill="#DDDDDD" fill-opacity="0.0470588" stroke="#DDDDDD" stroke-width="0.296556"/>
<path d="M154.919 0.781738L172.753 11.0784V31.6726L154.919 41.9692L137.083 31.6726V11.0784L154.919 0.781738Z" fill="#DDDDDD" fill-opacity="0.811765" stroke="#DDDDDD" stroke-width="0.296556"/>
<path d="M190.752 0.781738L208.587 11.0784V31.6726L190.752 41.9692L172.917 31.6726V11.0784L190.752 0.781738ZM226.585 0.781738L244.42 11.0784V31.6726L226.585 41.9692L208.75 31.6726V11.0784L226.585 0.781738Z" stroke="#DDDDDD" stroke-width="0.296556"/>
<path d="M298.252 0.781738L316.086 11.0784V31.6726L298.252 41.9692L280.417 31.6726V11.0784L298.252 0.781738Z" fill="#DDDDDD" fill-opacity="0.737255" stroke="#DDDDDD" stroke-width="0.296556"/>
<path d="M405.751 0.781738L423.587 11.0784V31.6726L405.751 41.9692L387.917 31.6726V11.0784L405.751 0.781738ZM477.418 0.781738L495.253 11.0784V31.6726L477.418 41.9692L459.583 31.6726V11.0784L477.418 0.781738Z" stroke="#DDDDDD" stroke-width="0.296556"/>
<path d="M513.251 0.781738L531.087 11.0784V31.6726L513.251 41.9692L495.417 31.6726V11.0784L513.251 0.781738Z" fill="#DDDDDD" fill-opacity="0.839216" stroke="#DDDDDD" stroke-width="0.296556"/>
<path d="M549.085 0.781738L566.92 11.0784V31.6726L549.085 41.9692L531.25 31.6726V11.0784L549.085 0.781738ZM584.918 0.781738L602.753 11.0784V31.6726L584.918 41.9692L567.083 31.6726V11.0784L584.918 0.781738Z" stroke="#DDDDDD" stroke-width="0.296556"/>
<path d="M656.585 0.781738L674.42 11.0784V31.6726L656.585 41.9692L638.75 31.6726V11.0784L656.585 0.781738Z" fill="#DDDDDD" fill-opacity="0.760784" stroke="#DDDDDD" stroke-width="0.296556"/>
<path d="M692.418 0.781738L710.254 11.0784V31.6726L692.418 41.9692L674.583 31.6726V11.0784L692.418 0.781738ZM764.085 0.781738L781.92 11.0784V31.6726L764.085 41.9692L746.25 31.6726V11.0784L764.085 0.781738Z" stroke="#DDDDDD" stroke-width="0.296556"/>
<path d="M835.751 0.781738L853.586 11.0784V31.6726L835.751 41.9692L817.917 31.6726V11.0784L835.751 0.781738Z" fill="#DDDDDD" fill-opacity="0.968627" stroke="#DDDDDD" stroke-width="0.296556"/>
<path d="M871.585 0.781738L889.42 11.0784V31.6726L871.585 41.9692L853.75 31.6726V11.0784L871.585 0.781738Z" stroke="#DDDDDD" stroke-width="0.296556"/>
<path d="M29.5017 31.6725L47.3368 41.9692V62.5633L29.5017 72.86L11.6667 62.5633V41.9692L29.5017 31.6725Z" fill="#DDDDDD" fill-opacity="0.898039" stroke="#DDDDDD" stroke-width="0.296556"/>
<path d="M101.168 31.6725L119.003 41.9692V62.5633L101.168 72.86L83.3335 62.5633V41.9692L101.168 31.6725ZM172.835 31.6725L190.67 41.9692V62.5633L172.835 72.86L155 62.5633V41.9692L172.835 31.6725ZM280.335 31.6725L298.17 41.9692V62.5633L280.335 72.86L262.5 62.5633V41.9692L280.335 31.6725Z" stroke="#DDDDDD" stroke-width="0.296556"/>
<path d="M316.169 31.6725L334.003 41.9692V62.5633L316.169 72.86L298.333 62.5633V41.9692L316.169 31.6725Z" fill="#DDDDDD" fill-opacity="0.886275" stroke="#DDDDDD" stroke-width="0.296556"/>
<path d="M387.835 31.6725L405.67 41.9692V62.5633L387.835 72.86L370 62.5633V41.9692L387.835 31.6725Z" fill="#DDDDDD" fill-opacity="0.309804" stroke="#DDDDDD" stroke-width="0.296556"/>
<path d="M423.668 31.6725L441.503 41.9692V62.5633L423.668 72.86L405.833 62.5633V41.9692L423.668 31.6725ZM459.502 31.6725L477.337 41.9692V62.5633L459.502 72.86L441.667 62.5633V41.9692L459.502 31.6725ZM602.835 31.6725L620.67 41.9692V62.5633L602.835 72.86L585 62.5633V41.9692L602.835 31.6725ZM638.668 31.6725L656.503 41.9692V62.5633L638.668 72.86L620.833 62.5633V41.9692L638.668 31.6725ZM674.502 31.6725L692.337 41.9692V62.5633L674.502 72.86L656.667 62.5633V41.9692L674.502 31.6725ZM710.335 31.6725L728.17 41.9692V62.5633L710.335 72.86L692.5 62.5633V41.9692L710.335 31.6725ZM746.168 31.6725L764.003 41.9692V62.5633L746.168 72.86L728.333 62.5633V41.9692L746.168 31.6725ZM782.002 31.6725L799.837 41.9692V62.5633L782.002 72.86L764.167 62.5633V41.9692L782.002 31.6725ZM889.502 31.6725L907.337 41.9692V62.5633L889.502 72.86L871.667 62.5633V41.9692L889.502 31.6725ZM925.335 31.6725L943.17 41.9692V62.5633L925.335 72.86L907.5 62.5633V41.9692L925.335 31.6725ZM-24.2483 62.5633L-6.41325 72.86V93.4542L-24.2483 103.75L-42.0833 93.4542V72.86L-24.2483 62.5633ZM47.4184 62.5633L65.2534 72.86V93.4542L47.4184 103.75L29.5834 93.4542V72.86L47.4184 62.5633ZM83.2517 62.5633L101.087 72.86V93.4542L83.2517 103.75L65.4167 93.4542V72.86L83.2517 62.5633Z" stroke="#DDDDDD" stroke-width="0.296556"/>
<path d="M119.085 62.5634L136.92 72.86V93.4542L119.085 103.75L101.25 93.4542V72.86L119.085 62.5634Z" fill="#DDDDDD" fill-opacity="0.184314" stroke="#DDDDDD" stroke-width="0.296556"/>
<path d="M226.585 62.5634L244.42 72.86V93.4542L226.585 103.75L208.75 93.4542V72.86L226.585 62.5634Z" fill="#DDDDDD" fill-opacity="0.0470588" stroke="#DDDDDD" stroke-width="0.296556"/>
<path d="M262.419 62.5634L280.253 72.86V93.4542L262.419 103.75L244.583 93.4542V72.86L262.419 62.5634ZM334.085 62.5634L351.92 72.86V93.4542L334.085 103.75L316.25 93.4542V72.86L334.085 62.5634ZM369.918 62.5634L387.754 72.86V93.4542L369.918 103.75L352.083 93.4542V72.86L369.918 62.5634Z" stroke="#DDDDDD" stroke-width="0.296556"/>
<path d="M441.585 62.5634L459.42 72.86V93.4542L441.585 103.75L423.75 93.4542V72.86L441.585 62.5634Z" fill="#DDDDDD" fill-opacity="0.403922" stroke="#DDDDDD" stroke-width="0.296556"/>
<path d="M477.418 62.5634L495.254 72.86V93.4542L477.418 103.75L459.583 93.4542V72.86L477.418 62.5634ZM513.252 62.5634L531.087 72.86V93.4542L513.252 103.75L495.417 93.4542V72.86L513.252 62.5634Z" stroke="#DDDDDD" stroke-width="0.296556"/>
<path d="M549.085 62.5634L566.92 72.86V93.4542L549.085 103.75L531.25 93.4542V72.86L549.085 62.5634Z" fill="#DDDDDD" fill-opacity="0.427451" stroke="#DDDDDD" stroke-width="0.296556"/>
<path d="M620.751 62.5634L638.587 72.86V93.4542L620.751 103.75L602.917 93.4542V72.86L620.751 62.5634Z" fill="#DDDDDD" fill-opacity="0.403922" stroke="#DDDDDD" stroke-width="0.296556"/>
<path d="M656.585 62.5634L674.42 72.86V93.4542L656.585 103.75L638.75 93.4542V72.86L656.585 62.5634ZM764.085 62.5634L781.92 72.86V93.4542L764.085 103.75L746.25 93.4542V72.86L764.085 62.5634ZM871.585 62.5634L889.42 72.86V93.4542L871.585 103.751L853.75 93.4542V72.86L871.585 62.5634ZM907.418 62.5634L925.253 72.86V93.4542L907.418 103.751L889.583 93.4542V72.86L907.418 62.5634Z" stroke="#DDDDDD" stroke-width="0.296556"/>
<path d="M-6.3315 93.4542L11.5035 103.75V124.344L-6.3315 134.642L-24.1665 124.345V103.75L-6.3315 93.4542ZM29.5018 93.4542L47.3368 103.751V124.345L29.5018 134.642L11.6668 124.345V103.75L29.5018 93.4542ZM101.168 93.4542L119.004 103.751V124.345L101.168 134.642L83.3335 124.345V103.75L101.168 93.4542ZM244.502 93.4542L262.337 103.751V124.345L244.502 134.642L226.667 124.345V103.75L244.502 93.4542Z" stroke="#DDDDDD" stroke-width="0.296556"/>
<path d="M280.335 93.4542L298.17 103.751V124.345L280.335 134.642L262.5 124.345V103.75L280.335 93.4542Z" fill="#DDDDDD" fill-opacity="0.623529" stroke="#DDDDDD" stroke-width="0.296556"/>
<path d="M352.002 93.4542L369.837 103.751V124.345L352.002 134.642L334.167 124.345V103.75L352.002 93.4542ZM423.668 93.4542L441.503 103.751V124.345L423.668 134.642L405.833 124.345V103.75L423.668 93.4542ZM495.335 93.4542L513.17 103.751V124.345L495.335 134.642L477.5 124.345V103.75L495.335 93.4542ZM531.168 93.4542L549.003 103.751V124.345L531.168 134.642L513.333 124.345V103.75L531.168 93.4542Z" stroke="#DDDDDD" stroke-width="0.296556"/>
<path d="M602.835 93.4542L620.67 103.751V124.345L602.835 134.642L585 124.345V103.75L602.835 93.4542Z" fill="#DDDDDD" fill-opacity="0.270588" stroke="#DDDDDD" stroke-width="0.296556"/>
<path d="M638.668 93.4542L656.504 103.751V124.345L638.668 134.642L620.833 124.345V103.75L638.668 93.4542Z" fill="#DDDDDD" fill-opacity="0.596078" stroke="#DDDDDD" stroke-width="0.296556"/>
<path d="M674.501 93.4542L692.337 103.751V124.345L674.501 134.642L656.667 124.345V103.75L674.501 93.4542Z" fill="#DDDDDD" fill-opacity="0.772549" stroke="#DDDDDD" stroke-width="0.296556"/>
<path d="M746.168 93.4542L764.004 103.751V124.345L746.168 134.642L728.333 124.345V103.75L746.168 93.4542Z" fill="#DDDDDD" fill-opacity="0.141176" stroke="#DDDDDD" stroke-width="0.296556"/>
<path d="M782.002 93.4542L799.837 103.751V124.345L782.002 134.642L764.167 124.345V103.75L782.002 93.4542ZM817.835 93.4542L835.67 103.751V124.345L817.835 134.642L800 124.345V103.75L817.835 93.4542ZM853.668 93.4542L871.503 103.751V124.345L853.668 134.642L835.833 124.345V103.75L853.668 93.4542ZM889.502 93.4542L907.337 103.751V124.345L889.502 134.642L871.667 124.345V103.75L889.502 93.4542ZM11.585 124.345L29.42 134.642V155.236L11.585 165.533L-6.25 155.236V134.642L11.585 124.345ZM47.4183 124.345L65.2533 134.642V155.236L47.4183 165.533L29.5833 155.236V134.642L47.4183 124.345ZM119.085 124.345L136.92 134.642V155.236L119.085 165.533L101.25 155.236V134.642L119.085 124.345ZM154.918 124.345L172.753 134.642V155.236L154.918 165.533L137.083 155.236V134.642L154.918 124.345ZM190.752 124.345L208.587 134.642V155.236L190.752 165.533L172.917 155.236V134.642L190.752 124.345ZM226.585 124.345L244.42 134.642V155.236L226.585 165.533L208.75 155.236V134.642L226.585 124.345ZM262.418 124.345L280.253 134.642V155.236L262.418 165.533L244.583 155.236V134.642L262.418 124.345ZM298.252 124.345L316.087 134.642V155.236L298.252 165.533L280.417 155.236V134.642L298.252 124.345ZM334.085 124.345L351.92 134.642V155.236L334.085 165.533L316.25 155.236V134.642L334.085 124.345ZM477.418 124.345L495.253 134.642V155.236L477.418 165.533L459.583 155.236V134.642L477.418 124.345ZM513.252 124.345L531.087 134.642V155.236L513.252 165.533L495.417 155.236V134.642L513.252 124.345ZM549.085 124.345L566.92 134.642V155.236L549.085 165.533L531.25 155.236V134.642L549.085 124.345Z" stroke="#DDDDDD" stroke-width="0.296556"/>
<path d="M656.585 124.345L674.42 134.642V155.236L656.585 165.532L638.75 155.236V134.642L656.585 124.345Z" fill="#DDDDDD" fill-opacity="0.607843" stroke="#DDDDDD" stroke-width="0.296556"/>
<path d="M692.418 124.345L710.254 134.642V155.236L692.418 165.532L674.583 155.236V134.642L692.418 124.345Z" fill="#DDDDDD" fill-opacity="0.478431" stroke="#DDDDDD" stroke-width="0.296556"/>
<path d="M728.251 124.345L746.087 134.642V155.236L728.251 165.532L710.417 155.236V134.642L728.251 124.345Z" stroke="#DDDDDD" stroke-width="0.296556"/>
<path d="M835.751 124.345L853.586 134.642V155.236L835.751 165.532L817.917 155.236V134.642L835.751 124.345Z" fill="#DDDDDD" fill-opacity="0.419608" stroke="#DDDDDD" stroke-width="0.296556"/>
</g>
<defs>
<radialGradient id="paint0_radial_164_16755" cx="0" cy="0" r="1" gradientUnits="userSpaceOnUse" gradientTransform="translate(439.498 92.7065) scale(614.826 153.706)">
<stop stop-color="white"/>
<stop offset="1" stop-color="white" stop-opacity="0"/>
</radialGradient>
</defs>
</svg>
