<svg width="16" height="16" viewBox="0 0 16 16" fill="none" xmlns="http://www.w3.org/2000/svg">
<path d="M5.91005 11.1922V8.56546H14.0973C14.2483 8.56546 14.3932 8.50548 14.4999 8.3987C14.6067 8.29192 14.6667 8.14709 14.6667 7.99608C14.6667 7.84507 14.6067 7.70025 14.4999 7.59347C14.3932 7.48669 14.2483 7.4267 14.0973 7.4267H5.91005V4.80755C5.91089 4.73591 5.89015 4.66568 5.85053 4.606C5.81091 4.54631 5.75423 4.49993 5.68789 4.4729C5.62154 4.44587 5.54859 4.43944 5.47854 4.45444C5.40849 4.46945 5.34457 4.50519 5.29512 4.55702L1.43992 7.74555C1.40617 7.77876 1.37938 7.81835 1.36109 7.86201C1.34279 7.90567 1.33337 7.95254 1.33337 7.99988C1.33337 8.04722 1.34279 8.09408 1.36109 8.13775C1.37938 8.18141 1.40617 8.221 1.43992 8.2542L5.29512 11.4427C5.34457 11.4946 5.40849 11.5303 5.47854 11.5453C5.54859 11.5603 5.62154 11.5539 5.68789 11.5269C5.75423 11.4998 5.81091 11.4534 5.85053 11.3938C5.89015 11.3341 5.91089 11.2638 5.91005 11.1922Z" fill="#121212"/>
</svg>
