<svg width="16" height="16" viewBox="0 0 16 16" fill="none" xmlns="http://www.w3.org/2000/svg">
<path d="M10.09 4.80779V7.43454H1.90276C1.75175 7.43454 1.60692 7.49452 1.50014 7.6013C1.39336 7.70808 1.33337 7.85291 1.33337 8.00392C1.33337 8.15493 1.39336 8.29975 1.50014 8.40653C1.60692 8.51331 1.75175 8.5733 1.90276 8.5733H10.09V11.1925C10.0892 11.2641 10.1099 11.3343 10.1496 11.394C10.1892 11.4537 10.2458 11.5001 10.3122 11.5271C10.3785 11.5541 10.4515 11.5606 10.5215 11.5456C10.5916 11.5306 10.6555 11.4948 10.705 11.443L14.5602 8.25444C14.5939 8.22124 14.6207 8.18165 14.639 8.13799C14.6573 8.09433 14.6667 8.04746 14.6667 8.00012C14.6667 7.95278 14.6573 7.90591 14.639 7.86225C14.6207 7.81859 14.5939 7.779 14.5602 7.7458L10.705 4.55726C10.6555 4.50543 10.5916 4.46969 10.5215 4.45469C10.4515 4.43969 10.3785 4.44612 10.3122 4.47315C10.2458 4.50018 10.1892 4.54655 10.1496 4.60624C10.1099 4.66592 10.0892 4.73615 10.09 4.80779Z" fill="#121212"/>
</svg>
