<svg width="180" height="124" viewBox="0 0 180 124" fill="none" xmlns="http://www.w3.org/2000/svg">
<path d="M61.8499 99.5668C55.8687 102.879 49.0514 105.645 42.3627 104.326C35.674 103.008 29.7247 96.0938 31.7828 89.598C33.0691 85.5462 37.0567 82.3305 36.8638 78.0857C36.6708 73.9374 32.6833 71.2362 29.5962 68.4707C22.3608 61.9427 18.7591 51.6202 20.367 42.0373C21.5889 34.5768 27.4738 26.7948 35.0307 27.5665C37.8927 27.856 40.4653 29.3352 43.2309 30.0426C57.3801 33.58 69.8571 16.5687 84.3601 18.0801C88.1868 18.466 91.8528 20.1703 95.6795 19.9774C102.786 19.6237 107.996 13.1279 114.781 11.0055C119.797 9.39765 125.586 10.4588 129.734 13.7067C133.882 16.9546 136.262 22.3249 135.908 27.5987C135.555 33.0333 132.532 37.8569 130.667 42.9377C128.802 48.0508 128.384 54.4822 132.339 58.2125C134.365 60.1098 137.163 60.978 139.285 62.7788C143.305 66.2197 143.819 72.4903 141.922 77.4104C140.024 82.3626 136.23 86.2858 132.532 90.0482" fill="#F4F6F9"/>
<path d="M170.028 86.8328C168.838 80.7229 169.385 73.8734 165.526 69.0176C161.506 63.9689 153.049 63.358 148.354 67.7635L147.518 67.6992L146.682 63.0364C146.264 60.5603 145.846 57.9877 145.428 55.2543V55.2222C145.621 55.2543 145.846 55.2865 146.039 55.3186C146.071 55.3186 146.103 55.3186 146.135 55.3186C146.328 55.3508 146.489 55.3508 146.682 55.3508C146.714 55.3508 146.746 55.3508 146.778 55.3508C146.971 55.3508 147.164 55.3508 147.389 55.3186C147.389 55.3186 147.389 55.3186 147.421 55.3186C147.646 55.2865 147.839 55.2543 148.064 55.2222H148.097C148.29 55.19 148.45 55.1257 148.643 55.0614C148.708 55.0292 148.74 55.0292 148.804 54.9971C148.933 54.9649 149.061 54.9006 149.19 54.8363C149.254 54.8041 149.319 54.772 149.383 54.7398C149.512 54.6755 149.64 54.6112 149.769 54.5468C149.833 54.5147 149.865 54.4825 149.93 54.4504C150.09 54.3539 150.251 54.2253 150.412 54.0967C152.406 52.5209 153.113 49.5625 152.181 47.1828C152.084 46.9256 151.956 46.6683 151.827 46.411C151.73 46.2824 151.666 46.1216 151.57 45.993C151.537 45.9608 151.505 45.8965 151.473 45.8644C151.409 45.7679 151.344 45.7036 151.248 45.6071C151.216 45.575 151.152 45.5106 151.119 45.4785C151.055 45.4142 150.991 45.3177 150.894 45.2534C150.862 45.2212 150.798 45.1569 150.766 45.1247C150.701 45.0604 150.605 44.9961 150.508 44.9318C150.476 44.8997 150.412 44.8675 150.38 44.8353C150.251 44.7389 150.123 44.6424 149.994 44.5781C149.93 44.5459 149.897 44.5138 149.833 44.4816C149.737 44.4173 149.672 44.3851 149.576 44.3208C149.512 44.2887 149.447 44.2565 149.351 44.2243C149.286 44.1922 149.222 44.16 149.126 44.1279C149.029 44.0957 148.965 44.0635 148.868 44.0314C148.804 43.9992 148.74 43.9671 148.675 43.9671C148.579 43.9349 148.483 43.9028 148.418 43.8706C148.354 43.8706 148.322 43.8385 148.257 43.8385C147.904 43.742 147.55 43.6777 147.164 43.6455C147.132 43.6455 147.1 43.6455 147.068 43.6455C146.939 43.6455 146.843 43.6455 146.714 43.6133C146.682 43.6133 146.617 43.6133 146.585 43.6133C146.457 43.6133 146.36 43.6133 146.232 43.6133C146.199 43.6133 146.167 43.6133 146.135 43.6133C146.006 43.6133 145.878 43.6455 145.781 43.6455L146.199 29.3998L137.131 26.1519C134.205 26.1841 131.343 27.5668 128.995 29.3033C121.921 34.6093 115.007 40.076 108.768 44.7389C108.768 44.7389 108.768 44.7389 108.8 44.771C108.672 44.8675 108.543 44.964 108.382 45.0604C108.382 45.0604 116.004 49.3052 119.734 51.3311C119.734 51.3311 117.226 58.3093 114.942 64.7407C111.791 61.8787 107.482 60.1101 103.109 60.2708C98.7352 60.4316 94.3939 62.6183 92.1751 66.1878C90.7923 68.4067 90.2135 70.9793 89.1201 73.3267C88.0268 75.6742 86.1295 77.9895 83.4604 78.4397L82.4957 77.7966C82.3671 77.668 82.2384 77.5394 82.1419 77.4107C82.1098 77.3786 82.0777 77.3464 82.0455 77.2821C81.949 77.1856 81.8846 77.0891 81.7882 76.9927C81.756 76.9283 81.6917 76.8962 81.6596 76.8319C81.5953 76.7354 81.4989 76.6711 81.4346 76.5746C81.4024 76.5103 81.338 76.446 81.3058 76.4138C81.2415 76.3174 81.1773 76.2531 81.113 76.1566C81.0808 76.0923 81.0164 76.028 80.9842 75.9636C80.9199 75.8672 80.8557 75.7707 80.7914 75.6742C80.7593 75.6099 80.727 75.5456 80.6948 75.4813C80.6305 75.3848 80.5662 75.2562 80.5341 75.1597C80.5019 75.0954 80.4698 75.0632 80.4377 74.9989C80.3412 74.8381 80.2768 74.6774 80.2125 74.5166C79.8909 73.7769 79.7302 73.0052 79.6659 72.2012C79.6338 72.0083 79.6337 71.8153 79.6337 71.5902C79.6337 71.3973 79.6337 71.2044 79.6015 70.9793C79.6015 69.1784 79.8909 67.3133 79.9231 65.4803C79.9231 65.2874 79.9231 65.0623 79.9231 64.8694C79.8588 62.136 78.894 59.4669 77.3183 57.2159C74.9387 53.8072 71.1442 51.3311 66.9638 50.9131C66.7387 50.8809 66.4813 50.8809 66.224 50.8809C65.6452 50.8809 65.0664 50.9452 64.5198 51.0739C63.3943 51.3633 62.3974 51.9421 61.9794 53.0033C61.8829 53.2284 61.8507 53.4535 61.8186 53.6786C61.0146 53.0676 60.0498 52.5853 59.1172 52.1994C55.3227 50.5593 51.5925 48.6942 47.798 46.9899C45.9328 46.1538 44.0355 45.2855 42.0739 44.6424C41.2378 44.353 40.4338 44.2243 39.6621 44.2243C34.0988 41.8769 29.4683 36.9246 27.5388 36.2815C25.6094 35.6383 24.3231 36.9246 25.6094 40.4619C26.6063 43.2275 29.9828 44.6102 31.3977 45.0926C30.7546 45.2534 30.1114 45.4463 29.5005 45.7036C26.4134 46.8934 23.6799 48.855 21.0108 50.7844C20.2712 51.3311 19.4994 51.8778 18.9528 52.6174C18.4061 53.357 18.1168 54.3539 18.4062 55.2222C18.6313 55.8653 19.2421 56.412 19.8853 56.5085C19.628 56.9587 19.4352 57.441 19.3709 57.9555C19.2744 58.7916 19.6603 59.7563 20.4642 60.0458C21.0752 60.2709 21.7504 60.0779 22.3293 59.8207C24.6446 58.8559 26.2525 57.441 27.5388 55.3508C27.7961 54.9327 28.1176 54.579 28.4392 54.2574C27.185 56.219 26.3169 58.3414 25.9632 60.4638C25.8345 61.2356 25.8023 62.2003 26.4133 62.7148C27.0886 63.2936 28.1819 63.0042 28.9537 62.5219C32.1373 60.5603 31.9444 56.7657 34.7742 54.5468C35.4174 54.0645 36.1891 53.6143 36.9931 53.7429C38.1507 53.9359 40.6591 55.0614 40.7555 56.2512C40.8842 57.859 39.7586 59.5312 38.4723 60.3673C36.4464 61.6858 34.2597 60.4638 32.2016 61.6536C31.2048 62.2325 30.433 63.4544 30.7868 64.5478C31.2048 65.9306 32.8448 66.4129 34.2597 66.6058C38.408 67.1525 42.6849 66.8953 46.7689 65.8662C49.3414 65.2231 51.3996 64.7729 53.94 65.7054C54.1973 65.8019 54.4223 65.8984 54.6152 65.9949C54.5831 66.027 54.551 66.027 54.5188 66.0592C54.4223 66.1235 54.3259 66.1878 54.2294 66.2843C54.1651 66.3164 54.1008 66.3808 54.0686 66.4129C53.9722 66.4772 53.8757 66.5737 53.7793 66.6702C53.7149 66.7345 53.6828 66.7666 53.6185 66.831C53.522 66.9274 53.4576 67.0239 53.3611 67.1204C53.329 67.1847 53.2647 67.249 53.2325 67.2812C53.1682 67.3776 53.0717 67.4741 53.0074 67.5706C52.9752 67.6349 52.9109 67.6992 52.8787 67.7635C52.8144 67.86 52.7501 67.9886 52.6858 68.0851C52.6536 68.1494 52.6215 68.2137 52.5894 68.278C52.5251 68.3745 52.4607 68.5031 52.4286 68.5996C52.3964 68.6639 52.3643 68.7282 52.3322 68.8247C52.2679 68.9533 52.2356 69.0498 52.2034 69.1784C52.1713 69.2427 52.1392 69.3392 52.1392 69.4035C52.107 69.5322 52.0749 69.6286 52.0106 69.7573C51.9784 69.8216 51.9784 69.9181 51.9462 69.9824C51.9141 70.111 51.882 70.2075 51.8498 70.3361C51.8177 70.4326 51.8176 70.4969 51.7854 70.5934C51.7533 70.722 51.7532 70.8185 51.7211 70.9471C51.7211 71.0436 51.689 71.14 51.689 71.2365C51.689 71.3651 51.6568 71.4616 51.6568 71.5902C51.6568 71.6867 51.6568 71.7832 51.6246 71.8797C51.6246 71.9761 51.5925 72.1048 51.5925 72.2012C51.5925 72.2977 51.5925 72.4263 51.5925 72.5228C51.5925 72.6193 51.5925 72.7479 51.5925 72.8444C51.5925 72.973 51.5925 73.0695 51.5925 73.1981C51.5925 73.2946 51.5925 73.3911 51.5925 73.4875C51.5925 73.6162 51.6246 73.7448 51.6246 73.8734C51.6246 73.9699 51.6247 74.0342 51.6568 74.1307C51.689 74.2915 51.6889 74.4844 51.7211 74.6452C51.7211 74.6773 51.7211 74.7095 51.7211 74.7416C51.8175 75.3848 51.9462 75.9958 52.107 76.6068C52.1713 76.7997 52.2035 77.0248 52.2678 77.2178C52.718 78.8578 53.2647 80.4978 53.6185 82.1378C53.6506 82.3308 53.7149 82.5559 53.7471 82.7488C53.8757 83.3598 53.9399 84.003 54.0043 84.6461C54.4223 90.6596 50.8851 96.1263 49.1164 101.915C49.0521 102.14 48.9878 102.365 48.9235 102.622C48.5376 104.005 48.2803 105.42 48.2159 106.867C48.1195 109.343 48.6662 111.787 49.7596 114.006C50.2098 114.906 50.7242 115.742 51.3031 116.546C52.9753 118.829 55.2263 120.694 57.7989 121.852C58.0562 121.981 58.3134 122.077 58.6029 122.174C58.7636 122.238 58.9243 122.302 59.1172 122.367C59.4388 122.463 59.7604 122.592 60.1142 122.656C60.6608 122.785 61.2075 122.913 61.7542 122.978C62.0115 123.01 62.2365 123.042 62.4938 123.074L65.6453 119.794C70.0187 115.742 78.4117 109.761 87.4801 112.623C100.665 116.803 131.214 113.266 145.363 102.654C159.513 92.0423 179.418 103.201 179.418 103.201C174.626 98.9883 171.282 93.1357 170.028 86.8328Z" fill="white"/>
<path d="M142.469 49.1764C142.34 48.9192 142.436 48.6619 142.629 48.5011C144.398 47.1827 146.746 46.7646 148.9 47.3435C149.511 47.5042 149.254 48.4368 148.643 48.276C146.746 47.7615 144.72 48.1795 143.144 49.3372C142.919 49.5301 142.597 49.4015 142.469 49.1764ZM139.028 35.0272C139.028 35.0593 139.06 35.0593 139.06 35.0915C139.092 35.1237 139.092 35.188 139.124 35.2201C139.156 35.3166 139.189 35.4131 139.221 35.5417C139.285 35.799 139.575 35.9598 139.8 35.8633C140.057 35.799 140.218 35.5417 140.121 35.2845C139.864 34.4162 139.382 33.5801 138.771 32.937C138.61 32.744 138.256 32.744 138.095 32.937C137.902 33.1299 137.902 33.4193 138.095 33.6123C138.16 33.6766 138.224 33.7731 138.288 33.8374C138.32 33.8695 138.352 33.9017 138.385 33.9338L138.417 33.966C138.417 33.966 138.417 33.966 138.417 33.9982C138.545 34.1589 138.642 34.3197 138.738 34.5127C138.835 34.6735 138.931 34.8342 139.028 35.0272ZM134.462 31.3291H134.558C134.654 31.3291 134.719 31.3613 134.815 31.3613C134.912 31.3613 135.008 31.3934 135.105 31.3934C135.137 31.3934 135.137 31.3934 135.169 31.3934C135.201 31.4577 135.265 31.4899 135.33 31.522C135.555 31.6507 135.876 31.5864 136.005 31.3613C136.101 31.1683 136.101 30.9754 136.005 30.7824C135.909 30.6216 135.748 30.5252 135.555 30.493C135.298 30.4287 135.04 30.3965 134.783 30.3644C134.236 30.3001 133.722 30.2357 133.175 30.2357C132.918 30.2357 132.693 30.4608 132.693 30.7181C132.693 30.9754 132.918 31.2005 133.175 31.2005C133.561 31.2005 133.979 31.2326 134.365 31.2648C134.365 31.3291 134.397 31.3291 134.462 31.3291ZM127.901 35.8311C127.966 35.8311 127.998 35.8311 128.062 35.8311C128.159 35.8311 128.255 35.8311 128.352 35.8311C128.352 35.8311 128.416 35.8311 128.448 35.8311C128.48 35.8311 128.512 35.8311 128.577 35.8633C128.673 35.8954 128.77 35.8954 128.866 35.9276C129.059 35.9919 129.123 36.0241 129.316 36.1205C129.413 36.1527 129.477 36.217 129.574 36.2813C129.606 36.2813 129.606 36.3135 129.606 36.3135C129.606 36.3135 129.606 36.3135 129.638 36.3456C129.67 36.3778 129.702 36.41 129.734 36.4421C130.024 36.6994 130.185 36.9566 130.281 37.3104C130.442 37.9214 131.374 37.6641 131.214 37.0531C130.635 35.0272 127.901 34.2232 126.294 35.5739C126.101 35.7346 126.133 36.0884 126.294 36.2492C126.487 36.4421 126.776 36.41 126.969 36.2492C127.001 36.217 127.001 36.217 127.001 36.217C127.001 36.217 127.001 36.217 127.033 36.217C127.065 36.1848 127.097 36.1527 127.162 36.1527C127.194 36.1205 127.258 36.1205 127.29 36.0884C127.322 36.0884 127.419 36.0241 127.419 36.0241C127.516 35.9919 127.805 35.8954 127.869 35.8954C127.741 35.8633 127.869 35.8311 127.901 35.8311ZM134.558 39.0468C135.072 38.5323 135.876 38.3394 136.552 38.5645C137.195 38.7574 137.709 39.3363 137.902 39.9794C138.063 40.5904 138.996 40.3332 138.835 39.7222C138.578 38.7253 137.806 37.9214 136.809 37.6319C135.78 37.3104 134.622 37.6319 133.883 38.3716C133.432 38.7896 134.108 39.497 134.558 39.0468ZM125.65 57.6016C125.007 58.2769 124.139 58.6628 123.206 58.5664C122.949 58.5342 122.724 58.7915 122.724 59.0487C122.724 59.3381 122.949 59.4989 123.206 59.5311C124.396 59.6597 125.586 59.113 126.39 58.2448C127.226 57.3444 127.644 56.1546 127.451 54.9004C127.419 54.6432 127.097 54.5145 126.872 54.5789C126.583 54.6432 126.486 54.9004 126.551 55.1577C126.615 55.5757 126.551 56.0259 126.39 56.4761C126.229 56.8942 125.94 57.3122 125.65 57.6016ZM124.171 88.119C123.046 88.0546 121.952 88.3441 120.827 88.3441C119.766 88.3441 118.737 88.1833 117.708 87.8617C116.775 87.5723 115.714 87.0899 115.264 86.1573C114.878 85.3856 115.006 84.3244 115.907 84.035C116.711 83.7777 117.611 84.1636 118.158 84.7746C118.865 85.5785 119.122 86.6397 119.412 87.6366C119.573 88.2476 120.505 87.9903 120.344 87.3793C119.862 85.6429 119.187 83.6169 117.225 83.1024C116.453 82.9095 115.553 82.9738 114.91 83.4883C114.202 84.0671 113.977 84.9997 114.138 85.868C114.556 87.926 116.936 88.7943 118.737 89.1158C119.83 89.3088 120.923 89.3409 122.017 89.2123C123.046 89.0837 124.268 88.8264 125.232 89.3409C126.004 89.759 126.486 90.5629 125.94 91.399C125.361 92.2994 124.203 92.4602 123.206 92.5245C121.727 92.6532 119.605 92.6853 119.058 90.9809C118.769 90.1449 118.511 89.3409 117.611 89.0194C116.871 88.7621 116.003 88.9229 115.392 89.3409C114.62 89.8555 114.267 90.788 114.202 91.6884C114.138 92.7496 114.588 93.6179 114.846 94.6147C115.135 95.7081 114.46 96.3834 113.591 96.8979C112.723 97.4124 111.823 97.8305 111.051 98.4736C109.443 99.8564 108.607 102.333 110.118 104.101C110.536 104.584 111.212 103.876 110.794 103.426C109.507 101.914 110.729 99.8885 112.048 98.9238C113.302 98.0234 115.199 97.541 115.778 95.9653C116.132 95.0006 115.682 94.1002 115.392 93.1677C115.135 92.3637 115.071 91.4312 115.489 90.6594C115.842 90.0484 116.646 89.6625 117.322 89.9198C118.093 90.2092 118.093 91.2704 118.415 91.9135C119.187 93.2963 120.988 93.5857 122.435 93.5535C124.139 93.5214 126.358 93.232 127.033 91.3668C127.741 89.5017 125.811 88.2154 124.171 88.119ZM116.968 91.8492C118.897 95.0971 118.865 99.3097 116.871 102.525C116.55 103.04 117.386 103.522 117.708 103.008C119.894 99.5348 119.926 94.9042 117.804 91.3668C117.482 90.8202 116.646 91.3025 116.968 91.8492ZM179.064 103.587C175.719 100.596 173.05 96.8336 171.314 92.6853C170.542 90.8523 169.963 88.9229 169.577 86.9935C169.191 85.064 168.998 83.1024 168.773 81.173C168.355 77.3784 167.873 73.3587 165.686 70.0787C162.02 64.6441 153.499 63.6472 148.675 68.1171C148.353 68.4065 147.967 68.1814 147.871 67.892C148.386 70.561 148.9 73.2301 149.479 75.8992C149.608 76.5102 148.675 76.7674 148.546 76.1564C148.225 74.6772 147.935 73.2301 147.646 71.7509C146.585 66.3806 145.652 61.0103 144.848 55.5757C143.884 55.2863 142.983 54.804 142.243 54.0965C142.051 53.9036 142.051 53.6141 142.243 53.4212C142.436 53.2282 142.726 53.2282 142.919 53.4212C144.784 55.222 148.032 55.3828 150.058 53.7749C152.084 52.1671 152.663 48.9513 151.344 46.7325C150.026 44.5136 146.906 43.4846 144.559 44.5136C144.302 44.6101 144.044 44.5136 143.916 44.2563C143.819 43.9991 143.916 43.7418 144.173 43.6132C144.398 43.5167 144.623 43.4524 144.848 43.3881L143.691 43.1308C140.411 39.7222 142.019 36.0241 141.729 32.937C141.311 28.3063 138.964 27.9526 136.23 27.02C134.076 27.1808 132.05 28.0169 130.249 29.1424C128.319 30.3644 126.519 31.8436 124.718 33.2264C122.885 34.6413 121.02 36.0562 119.187 37.4711C115.907 40.0116 112.594 42.552 109.282 45.0281C109.411 45.0924 109.507 45.1567 109.636 45.2211C113.077 47.1505 116.55 49.0478 120.023 50.9451C120.184 51.0415 120.312 51.2988 120.248 51.4917C119.991 52.1992 119.733 52.8745 119.508 53.582C118.319 56.9263 117.096 60.2707 115.907 63.5829C115.778 63.9688 115.649 64.3225 115.489 64.7084C115.489 64.8371 115.457 64.9657 115.36 65.0621C114.363 67.8598 113.334 70.6897 112.337 73.4874C112.337 73.5195 112.305 73.5195 112.305 73.5517C112.466 73.5517 112.627 73.616 112.723 73.7768C114.106 76.4458 116.132 78.7933 118.544 80.5941C122.885 83.842 128.416 85.3213 133.786 84.4209C139.189 83.4883 144.173 80.4012 147.26 75.867C147.614 75.3525 148.45 75.8348 148.096 76.3494C146.295 79.0184 143.851 81.2373 141.022 82.8451C136.037 85.675 130.024 86.4468 124.525 84.7424C119.155 83.0703 114.492 79.2757 111.887 74.2913C111.791 74.1305 111.823 73.9697 111.887 73.8411C111.598 73.8411 111.276 73.616 111.405 73.2623C111.983 71.5901 112.594 69.9179 113.173 68.2457C113.559 67.1202 113.977 65.9947 114.363 64.9014C112.08 62.9076 109.282 61.5248 106.292 60.9782C101.243 60.0778 95.4546 61.9107 92.5926 66.3806C91.0169 68.8245 90.5346 71.7509 89.1518 74.2913C88.0585 76.2851 86.3541 78.118 84.1353 78.7612C84.6819 79.3078 85.2286 79.8867 85.7431 80.4977C86.5471 81.4624 87.158 82.5236 87.6082 83.7134C89.4733 88.5692 87.9297 94.1002 86.4505 98.8595C86.2576 99.4383 85.325 99.2132 85.518 98.6022C85.8717 97.4124 86.2255 96.2226 86.5471 95.0006C87.1581 92.5567 87.6082 90.0484 87.4474 87.5401C87.2866 85.0962 86.4505 82.7808 84.8426 80.9157C83.3312 79.1471 81.4018 77.7 80.212 75.6419C78.8293 73.2301 79.0544 70.4646 79.2795 67.7955C79.376 66.5092 79.4725 65.1908 79.3439 63.9045C79.2152 62.8111 78.9578 61.7178 78.572 60.6888C77.8002 58.6628 76.5461 56.7977 74.9704 55.2863C73.3947 53.7749 71.4973 52.6172 69.4071 51.9741C67.542 51.3953 65.0659 50.9772 63.3294 52.1349C62.7506 52.5208 62.4611 53.0031 62.3325 53.582C62.236 53.9679 62.2361 54.4181 62.2361 54.8361C62.2361 54.9326 62.2361 55.0612 62.2683 55.1577C62.3648 56.3797 62.429 57.5052 62.2039 58.7271C61.7537 60.9138 60.5318 62.9398 58.8596 64.3868C58.0235 65.1265 57.0588 65.7053 55.9976 66.0912C55.9011 66.1233 55.7725 66.1555 55.676 66.2198C55.3866 66.3163 55.0972 66.4449 54.8399 66.5735C54.7756 66.6057 54.7112 66.67 54.6469 66.7022C54.6148 66.7343 54.5826 66.7665 54.5183 66.7986C54.1324 67.0881 53.7786 67.4739 53.4892 67.8598C52.2673 69.5642 51.9457 71.8152 52.1065 73.8733C52.2995 76.5745 53.3928 79.1471 54.036 81.7518C54.647 84.2922 54.7112 86.8327 54.1646 89.4053C53.1355 94.261 50.5308 98.6023 49.3088 103.394C48.7299 105.645 48.537 107.992 49.0194 110.308C49.4696 112.43 50.37 114.456 51.6242 116.224C54.1324 119.762 58.1521 122.334 62.5255 122.72C63.1365 122.785 63.1365 123.749 62.5255 123.685C61.4 123.589 60.3067 123.363 59.2455 123.042C54.9364 121.659 51.3026 118.347 49.341 114.295C48.3762 112.269 47.7974 110.018 47.7653 107.767C47.7331 105.259 48.3763 102.783 49.2124 100.435C50.8846 95.7081 53.5536 91.0453 53.5858 85.9323C53.5858 83.0381 52.589 80.3047 51.8493 77.5714C51.2062 75.1917 50.8523 72.7799 51.399 70.3681C51.7206 68.9532 52.4603 67.3453 53.618 66.3163C52.8141 66.0269 51.9779 65.8661 51.1096 65.8661C49.3731 65.8339 47.701 66.3806 45.9966 66.7343C42.4593 67.5061 38.7934 67.7312 35.1917 67.3775C33.8733 67.2488 32.394 67.0881 31.3007 66.252C30.2073 65.3837 29.9501 63.9688 30.6575 62.7468C31.4615 61.3319 33.0372 60.8174 34.5808 60.7852C35.3847 60.7531 36.1886 60.8174 36.9604 60.6566C37.7322 60.4958 38.4075 60.1099 38.9542 59.5632C39.4687 59.0487 39.9188 58.4377 40.1439 57.7303C40.3047 57.2158 40.4977 56.5404 40.1439 56.0581C39.8224 55.6079 39.2758 55.3185 38.7934 55.0612C38.2789 54.804 37.7322 54.5788 37.1856 54.4502C35.8349 54.1286 34.5807 55.3828 33.8733 56.4118C33.1336 57.4408 32.6834 58.6307 32.1046 59.7562C31.5258 60.9138 30.7862 61.975 29.7572 62.7468C28.7281 63.5186 26.9917 64.2904 25.9627 63.0684C25.0623 62.0072 25.5445 60.3029 25.8661 59.113C25.9626 58.7593 26.0591 58.4056 26.1877 58.084C25.1265 59.113 23.8724 59.917 22.4896 60.4636C21.6857 60.7852 20.7531 61.0103 19.9492 60.4958C19.306 60.1099 18.9845 59.3703 18.8881 58.6628C18.8237 58.084 18.9524 57.5052 19.2096 56.9585C18.8237 56.7655 18.5022 56.5083 18.2449 56.1546C17.6661 55.3185 17.7303 54.2251 18.1162 53.3247C18.502 52.4243 19.2096 51.749 19.9492 51.138C20.7531 50.527 21.5893 49.916 22.4254 49.3372C24.0975 48.1474 25.834 46.9897 27.6991 46.1215C28.3744 45.7999 29.0819 45.4783 29.8216 45.2532H29.7894C28.3744 44.5136 27.1203 43.3881 26.1235 42.134C25.0623 40.8155 23.5187 38.5002 24.8372 36.8602C25.6733 35.8311 27.1525 35.6382 28.3423 36.1527C29.7251 36.7637 30.6575 38.05 31.783 39.0147C35.0952 41.8124 39.34 43.163 43.3919 44.7709C43.8421 44.9317 44.2923 45.1246 44.7103 45.2854C48.5371 46.8932 52.2994 48.7262 56.0618 50.4627C57.734 51.2345 59.5027 51.8776 61.1106 52.778C61.2714 52.8745 61.4322 52.971 61.5929 53.0675C62.2682 51.331 64.2299 50.5913 66.1272 50.5592C68.346 50.527 70.6292 51.2666 72.5586 52.36C74.5524 53.4855 76.2888 55.0612 77.6394 56.8942C78.9579 58.7271 79.9227 60.8495 80.2764 63.0684C80.7266 65.7696 80.1156 68.4708 80.1478 71.172C80.18 72.5548 80.405 73.9054 81.0803 75.1274C81.6592 76.1886 82.4631 77.089 83.3313 77.9251C83.3635 77.9572 83.4278 78.0216 83.4599 78.0537C86.4827 77.507 88.2514 74.7094 89.3126 72.0403C90.3738 69.3391 91.1778 66.5092 93.1715 64.3225C94.9402 62.4252 97.2875 61.0746 99.7958 60.3993C105.037 58.9522 110.729 60.5601 114.846 64.001C115.649 61.7178 116.486 59.4668 117.29 57.1836C117.965 55.3506 118.608 53.4855 119.283 51.6525C118.415 51.1702 117.547 50.72 116.711 50.2376C113.881 48.6941 111.083 47.1184 108.285 45.5748C107.932 45.3819 107.996 44.9316 108.285 44.7387C110.279 43.2595 112.241 41.7802 114.202 40.2688C117.933 37.4068 121.631 34.5448 125.393 31.6828C127.162 30.3322 128.93 28.853 130.892 27.7918C132.082 27.1486 133.336 26.6663 134.622 26.3447C133.786 25.9267 132.918 25.38 132.114 24.576C130.056 22.5501 129.091 15.9257 133.239 12.5814C136.68 21.5533 142.951 17.2442 149.8 22.936C155.106 27.3416 151.923 38.5323 147.903 43.2916C149.736 43.6132 151.408 44.6744 152.373 46.2822C153.949 48.9513 153.274 52.6494 150.83 54.5789C149.704 55.4793 148.289 55.8973 146.874 55.8973C146.585 55.8973 146.295 55.8651 146.006 55.833C146.231 57.2801 146.456 58.7271 146.681 60.1421C147.099 62.7147 147.549 65.2551 148.032 67.7955C148.032 67.6669 148.064 67.5704 148.193 67.4739C150.99 64.9014 154.946 63.9688 158.644 64.5798C161.988 65.1265 164.979 66.9916 166.844 69.8536C169.031 73.2301 169.481 77.3141 169.931 81.2051C170.156 83.1989 170.349 85.1926 170.767 87.1542C171.185 89.1802 171.828 91.1739 172.697 93.0712C174.401 96.8336 176.845 100.21 179.932 102.976C180.221 103.329 179.514 104.005 179.064 103.587ZM30.5611 44.4171C30.7862 44.5136 31.0113 44.5779 31.2364 44.6422C32.2333 44.8673 33.2944 44.7387 34.3556 44.7709C35.6098 44.3207 36.9282 43.9669 38.2467 43.8061C35.8992 42.745 33.6161 41.5551 31.5902 39.9794C31.0435 39.5614 30.5289 39.1112 30.0466 38.661C29.532 38.1786 29.0497 37.6319 28.4709 37.246C27.5705 36.6351 26.1234 36.3778 25.4159 37.439C24.9979 38.1143 25.3195 39.0147 25.6411 39.6578C26.0913 40.5261 26.7022 41.33 27.3454 42.0696C28.2779 43.0022 29.3391 43.8383 30.5611 44.4171ZM19.5954 55.9616C20.0456 55.2542 20.5923 54.611 21.0747 54.0322C22.168 52.6816 23.3579 51.4596 24.6764 50.3341C27.1847 48.1795 30.0466 46.4431 33.1337 45.2532C32.4906 45.3497 31.8796 45.4783 31.2686 45.6391C28.4388 46.4109 25.8339 47.9544 23.4221 49.6266C22.6825 50.1411 21.9429 50.6878 21.2033 51.2345C20.528 51.749 19.7884 52.2635 19.2739 52.971C18.8558 53.582 18.5343 54.4181 18.8237 55.1577C18.9523 55.4793 19.2417 55.8008 19.5954 55.9616ZM61.2714 53.9035C60.2423 53.1639 58.9881 52.6816 57.8305 52.1671C55.9653 51.331 54.1647 50.4949 52.3317 49.6266C50.563 48.7905 48.7944 47.9866 46.9935 47.1827C46.8971 47.1827 46.8006 47.1827 46.7042 47.1184C44.839 46.1536 42.7488 45.5105 40.7229 44.803C39.0185 44.5136 37.3141 44.8995 35.6741 45.3818C34.0662 45.8642 32.5227 46.4752 31.0113 47.2148C28.085 48.6941 25.4159 50.6878 23.1649 53.0675C22.5861 53.6784 22.0072 54.3216 21.4927 54.9969C21.2354 55.3185 20.9782 55.6722 20.7209 56.0259C20.4958 56.3475 20.3029 56.6691 20.11 57.0228C20.11 57.055 20.0778 57.055 20.0778 57.0871C19.7562 57.7624 19.5954 58.5985 20.0456 59.2417C20.5923 60.0135 21.5571 59.6597 22.2324 59.3381C23.6473 58.7271 24.9015 57.8589 25.9305 56.7012C26.445 56.1224 26.8308 55.4471 27.281 54.8039C27.5061 54.5145 27.7313 54.2573 27.9885 54C30.6576 49.7874 35.1597 46.4109 40.2727 46.443C40.8837 46.443 40.8837 47.4078 40.2727 47.4078C39.6295 47.4078 38.9863 47.4399 38.3753 47.5685C36.3815 47.9223 34.5486 48.7905 32.9407 49.9803C31.2364 51.2345 29.7894 52.8745 28.6639 54.6753C28.0207 55.7044 27.5062 56.7977 27.0882 57.9232C26.8631 58.5342 26.6701 59.1773 26.5414 59.7883C26.4128 60.3993 26.2198 61.1068 26.3485 61.7178C26.67 63.4221 28.7925 62.0715 29.5 61.4284C31.333 59.724 31.7831 57.1193 33.3267 55.1898C34.1949 54.1286 35.5777 53.0353 37.057 53.2604C38.1181 53.4212 39.2437 53.9679 40.1119 54.611C40.53 54.9326 40.9479 55.3185 41.1087 55.833C41.3016 56.4118 41.2052 57.1193 41.0122 57.666C40.5942 59.0487 39.5652 60.335 38.2789 60.9782C36.7996 61.7178 35.256 61.3641 33.7125 61.5892C32.4583 61.7821 30.7862 62.8433 31.1721 64.3547C31.4936 65.5445 32.9728 65.8982 34.034 66.0912C35.7705 66.3806 37.5393 66.4127 39.2758 66.3806C41.0444 66.3484 42.8131 66.1555 44.5496 65.8339C46.2217 65.5124 47.8618 64.9978 49.5661 64.7727C50.8846 64.6119 52.1709 64.6763 53.425 65.03C53.7466 65.1265 54.0682 65.2229 54.3897 65.3837C54.454 65.4159 54.4862 65.4159 54.5183 65.448C54.7113 65.3516 54.872 65.2872 55.0971 65.2229C57.2838 64.5476 59.1489 62.9398 60.2423 60.946C60.789 59.9491 61.1749 58.8558 61.3036 57.7303C61.5287 56.4761 61.1427 55.1898 61.2714 53.9035Z" fill="black"/>
<path d="M14.0659 81.9446L21.6549 85.6427C21.0761 86.4145 20.1758 86.9611 19.2111 87.1219C17.5711 87.347 15.8666 86.4788 14.9341 85.096C14.3231 84.1635 14.0338 83.038 14.0659 81.9446ZM34.4215 57.6658C33.8426 57.4729 33.296 57.9552 32.878 58.3733C30.2732 61.1067 27.8614 63.9687 25.5782 66.9914C25.128 66.8307 24.6456 66.702 24.1311 66.6699C22.073 66.4769 19.9507 67.3452 18.5036 68.8244C16.6063 70.7217 15.6095 73.5837 13.262 74.9021C11.8149 75.7382 9.72459 76.092 9.30654 77.6998L8.79199 77.539C10.9787 79.0826 13.4228 80.2403 15.8346 81.3658C19.9186 83.2952 24.0346 85.2568 28.1186 87.1862C28.6653 85.0639 27.7648 85.0639 27.2825 82.845C26.8644 80.8834 28.2472 78.4395 28.6331 76.4779C29.0512 74.3876 29.6299 72.1688 28.8903 70.1429C28.5366 69.2103 27.9256 68.4385 27.1539 67.8275C29.5978 65.3836 31.9453 62.8431 34.1963 60.2384C34.5179 59.8525 34.8717 59.4345 34.9682 58.92C35.0647 58.4054 34.9038 57.8588 34.4215 57.6658Z" fill="#FFE945"/>
<path d="M8.14805 71.3973C8.05158 71.6224 7.69797 71.6867 7.47287 71.5581C7.21561 71.4295 7.18346 71.1401 7.31208 70.8828C8.40543 68.3424 10.5277 66.3165 13.1324 65.3518C13.3897 65.2553 13.647 65.4482 13.7114 65.6733C13.7757 65.9306 13.6149 66.1878 13.3898 66.2522C11.0423 67.1847 9.14493 69.082 8.14805 71.3973ZM0.944837 70.4648C2.64918 66.3486 5.83285 62.9078 9.72389 60.7532C10.8494 60.1422 12.007 59.6599 13.229 59.274C13.8078 59.0811 13.5826 58.1485 12.9717 58.3414C8.46962 59.7564 4.5143 62.747 1.90956 66.6702C1.16994 67.7635 0.559012 68.9534 0.0444946 70.1754C-0.212764 70.7863 0.719736 71.0436 0.944837 70.4648ZM32.5556 76.2852C33.0701 78.5363 33.0057 80.8516 32.2982 83.0383C32.1053 83.6171 33.0378 83.8744 33.2308 83.2955C33.9704 80.9481 34.0348 78.4398 33.4881 76.028C33.3595 75.417 32.427 75.6743 32.5556 76.2852ZM38.7941 72.0083C40.9808 75.8993 41.431 80.6586 40.0804 84.9034C39.8874 85.4822 40.82 85.7395 41.0129 85.1607C42.46 80.6586 41.9455 75.6421 39.6302 71.5259C39.3408 70.9793 38.5047 71.4938 38.7941 72.0083Z" fill="black"/>
<path d="M94.716 3.48099C94.523 3.28805 94.5552 2.99864 94.716 2.8057C94.9089 2.61275 95.1984 2.64491 95.3913 2.8057L95.4235 2.83785C95.4557 2.87 95.4556 2.87001 95.3913 2.8057C95.4235 2.8057 95.4555 2.83785 95.4555 2.83785C95.4877 2.87 95.5199 2.87 95.5521 2.87C95.5843 2.90215 95.6164 2.87 95.5199 2.87C95.5842 2.87 95.6486 2.90216 95.7129 2.93432C95.745 2.93432 95.7771 2.93433 95.8093 2.96648C95.7128 2.93433 95.745 2.96648 95.8093 2.96648C95.8736 2.96648 95.9379 2.96648 95.9701 2.96648C96.0022 2.96648 96.0344 2.96648 96.0987 2.96648C95.9701 2.96648 96.0344 2.96648 96.0987 2.96648C96.163 2.96648 96.2273 2.93432 96.2595 2.93432C96.2916 2.93432 96.3239 2.90217 96.356 2.90217C96.2596 2.90217 96.2917 2.93432 96.3238 2.90217C96.3882 2.87001 96.4203 2.83785 96.4846 2.8057C96.5168 2.8057 96.549 2.77354 96.549 2.74138C96.549 2.74138 96.4525 2.80569 96.5168 2.77353C96.549 2.74137 96.6133 2.70923 96.6454 2.64491C96.6454 2.64491 96.7098 2.54843 96.6776 2.61274C96.6455 2.67706 96.6776 2.61275 96.6776 2.58059C96.7098 2.54843 96.7097 2.51628 96.7418 2.48412C96.7418 2.45197 96.774 2.45196 96.774 2.41981C96.774 2.45196 96.7418 2.45197 96.7418 2.48412C96.7418 2.45197 96.774 2.38765 96.774 2.32334C96.774 2.32334 96.774 2.22685 96.8062 2.22685C96.8062 2.29116 96.8062 2.32333 96.8062 2.25902V2.22685C96.8062 2.16254 96.8062 2.13038 96.8062 2.06606C96.8062 2.00175 96.8062 2.03392 96.8062 2.09823C96.8062 2.06607 96.8062 2.06607 96.8062 2.03391C96.8062 2.00176 96.8062 2.00175 96.8062 1.96959L96.7418 1.77666C96.7418 1.77666 96.8061 1.87313 96.7418 1.77666C96.7418 1.7445 96.7098 1.7445 96.7098 1.71234C96.6776 1.64803 96.6454 1.61587 96.6132 1.55155C96.5489 1.45508 96.6775 1.61587 96.6132 1.55155C96.5811 1.5194 96.5812 1.51939 96.549 1.48723C96.5169 1.45508 96.4203 1.35862 96.4203 1.35862C96.4203 1.35862 96.5168 1.42292 96.4524 1.39077C96.4203 1.35861 96.3882 1.35861 96.3882 1.32645C96.3561 1.32645 96.3238 1.2943 96.2917 1.2943C96.2595 1.2943 96.2596 1.26213 96.2274 1.26213H96.2595C96.2916 1.26213 96.2916 1.29429 96.2595 1.26213C96.2273 1.26213 96.2274 1.26214 96.1952 1.22998C96.1631 1.22998 96.1308 1.19783 96.0987 1.19783C96.0665 1.19783 96.0666 1.19783 96.0345 1.19783C96.0666 1.19783 96.0665 1.19783 96.0987 1.19783H96.0345C96.0023 1.19783 95.9701 1.19783 95.9379 1.19783C95.9057 1.19783 95.9058 1.19783 95.8737 1.19783C95.9058 1.19783 95.9057 1.19783 95.9379 1.19783C95.9057 1.22999 95.8414 1.22998 95.7771 1.22998C95.745 1.22998 95.745 1.22997 95.7129 1.26213C95.6807 1.29429 95.6808 1.26213 95.7451 1.26213C95.7451 1.29429 95.6807 1.2943 95.6485 1.2943C95.6164 1.32646 95.5521 1.35862 95.5199 1.35862C95.4234 1.42293 95.5199 1.39077 95.5199 1.35862L95.4555 1.42292C95.4234 1.45507 95.3913 1.48725 95.3591 1.5194L95.3269 1.55155C95.3591 1.48724 95.3913 1.48725 95.3591 1.5194C95.3591 1.55156 95.3269 1.55155 95.3269 1.5837C95.2948 1.64802 95.2627 1.68017 95.2305 1.74449C95.2305 1.77665 95.1983 1.77665 95.1983 1.80881C95.1983 1.77665 95.2305 1.77665 95.2305 1.74449L95.1983 1.80881C95.1662 1.87312 95.1661 1.93744 95.134 1.96959C95.134 2.00175 95.134 2.00176 95.134 2.03391C95.134 1.9696 95.134 1.93744 95.134 1.96959C95.134 2.00175 95.134 2.03391 95.134 2.03391C95.134 2.09823 95.134 2.16254 95.134 2.22685C95.134 2.32332 95.134 2.1947 95.134 2.1947C95.134 2.1947 95.134 2.25901 95.1661 2.29117C95.1661 2.32333 95.2627 2.51627 95.1983 2.38764C95.2948 2.6449 95.2627 2.90217 95.0376 3.06295C94.8446 3.19158 94.4908 3.12727 94.3622 2.90217C94.2014 2.51628 94.1372 2.13039 94.2658 1.71234C94.3623 1.35861 94.5552 1.00487 94.8446 0.779769C95.3913 0.265252 96.1631 0.168784 96.8384 0.522515C97.4494 0.844088 97.8674 1.58371 97.8031 2.25902C97.7388 2.99864 97.2563 3.54532 96.581 3.77042C95.9057 4.05983 95.1983 3.9312 94.716 3.48099ZM53.9405 10.3305C54.6158 10.9093 55.3233 11.5203 55.9986 12.0992C56.1915 12.2599 56.481 12.2921 56.6739 12.0992C56.8347 11.9062 56.8669 11.5846 56.6739 11.4239C55.9986 10.845 55.291 10.234 54.6157 9.65521C54.4228 9.49442 54.1335 9.46226 53.9405 9.65521C53.7798 9.81599 53.7476 10.1376 53.9405 10.3305ZM85.5833 36.5066C85.4869 38.5647 85.3904 40.6227 85.2939 42.713C85.2618 43.3239 86.2265 43.3239 86.2587 42.713C86.3551 40.6549 86.4516 38.5968 86.548 36.5066C86.5802 35.8956 85.6155 35.8956 85.5833 36.5066Z" fill="black"/>
</svg>
