<svg width="18" height="18" viewBox="0 0 18 18" fill="none" xmlns="http://www.w3.org/2000/svg">
<g clip-path="url(#clip0_2357_440)">
<path d="M17.2501 9.18563C17.2501 8.6425 17.2009 8.12688 17.1166 7.625H9.1792V10.7256H13.7239C13.5202 11.7431 12.9231 12.6025 12.0381 13.1869V15.2494H14.7494C16.3369 13.8125 17.2501 11.695 17.2501 9.18563Z" fill="#4285F4"/>
<path d="M9.1793 17.25C11.4552 17.25 13.3587 16.5075 14.7495 15.2494L12.0382 13.1869C11.2796 13.6819 10.3172 13.9844 9.1793 13.9844C6.9807 13.9844 5.11927 12.5338 4.45197 10.5744H1.65631V12.6988C3.04009 15.3938 5.88492 17.25 9.1793 17.25Z" fill="#34A853"/>
<path d="M4.45191 10.5745C4.2763 10.0795 4.18499 9.55008 4.18499 9.00008C4.18499 8.45008 4.28333 7.92071 4.45191 7.42571V5.30133H1.65625C1.08026 6.41508 0.750122 7.66633 0.750122 9.00008C0.750122 10.3338 1.08026 11.5851 1.65625 12.6988L4.45191 10.5745Z" fill="#FBBC05"/>
<path d="M9.1793 4.01562C10.4226 4.01562 11.5324 4.435 12.4105 5.25313L14.8128 2.90188C13.3587 1.56813 11.4552 0.75 9.1793 0.75C5.88492 0.75 3.04009 2.60625 1.65631 5.30125L4.45197 7.42563C5.11928 5.46625 6.98071 4.01562 9.1793 4.01562Z" fill="#EA4335"/>
</g>
<defs>
<clipPath id="clip0_2357_440">
<rect width="18" height="18" fill="white"/>
</clipPath>
</defs>
</svg>
