<svg width="22" height="16" viewBox="0 0 22 16" fill="none" xmlns="http://www.w3.org/2000/svg">
<path d="M20.3334 7.12499C20.8167 7.12499 21.2084 7.51675 21.2084 8C21.2084 8.48324 20.8167 8.875 20.3334 8.875H9.54175L9.54175 15C9.54175 15.3539 9.32856 15.673 9.0016 15.8084C8.67463 15.9438 8.29828 15.869 8.04803 15.6187L1.04803 8.61871C0.883935 8.45462 0.791748 8.23206 0.791748 8C0.791748 7.76793 0.883935 7.54537 1.04803 7.38128L8.04803 0.381277C8.29828 0.131028 8.67463 0.0561669 9.0016 0.191601C9.32856 0.327033 9.54175 0.64609 9.54175 0.999995L9.54175 7.12499H20.3334Z" fill="#071437"/>
</svg>
