<svg width="180" height="159" viewBox="0 0 180 159" fill="none" xmlns="http://www.w3.org/2000/svg">
<path d="M42.4284 103.747C37.9815 97.5872 33.4687 91.3615 30.57 84.3452C27.6712 77.329 26.4524 69.3245 28.7582 62.1106C31.3276 54.0402 38.4097 47.5839 46.6777 45.7393C50.4329 44.9158 54.8799 44.7181 57.1857 41.6217C58.0421 40.4688 58.4704 39.0524 58.8656 37.636C60.2821 32.4314 61.8962 26.4033 66.8372 24.1963C72.2065 21.7917 78.1687 25.3163 83.472 27.8856C89.533 30.8173 96.1211 32.5961 102.841 33.0902C105.838 33.3208 108.869 33.2878 111.735 34.1443C114.601 35.0007 117.335 37.0101 118.158 39.8759C119.08 43.2029 117.302 46.9251 118.455 50.1533C119.377 52.7226 121.979 54.3696 124.614 55.1931C127.217 56.0166 130.017 56.2801 132.619 57.2025C139.899 59.7718 144.51 67.381 145.334 75.0561C146.157 82.7312 143.786 90.4062 140.623 97.4225C138.91 101.211 136.967 104.9 134.332 108.128C124.549 120.217 106.629 123.643 91.7071 119.229C88.1496 118.175 84.6579 116.726 81.0015 116.166C76.9169 115.54 72.7664 116.034 68.616 115.935C59.3597 115.737 50.2024 112.476 42.8567 106.81" fill="#F4F6F9"/>
<path d="M155.017 119.525C154.556 118.076 153.865 116.725 153.074 115.474C152.218 114.123 151.196 112.772 150.801 111.191C150.34 109.478 150.867 107.733 151.295 106.053C151.723 104.373 151.954 102.759 151.69 101.046C151.13 97.5211 148.858 94.5236 146.618 91.8225C147.211 91.1966 147.54 90.406 147.606 89.5167C147.672 88.5285 147.441 87.5402 147.474 86.552C147.474 86.3873 147.408 86.2556 147.342 86.1568C147.771 84.4768 148.166 82.7968 148.594 81.1169C148.956 79.7005 149.385 78.2511 149.549 76.7688C150.01 77.1311 150.603 77.3617 151.196 77.3617C153.008 77.3617 154.194 75.1547 154.787 73.7053C155.545 71.8936 155.742 69.9172 155.709 67.9737C155.676 66.8538 155.577 65.7667 155.479 64.6468C155.38 63.7903 155.413 62.7692 154.853 62.0445C154.589 61.7151 154.227 61.4845 153.832 61.3527C153.7 60.9245 153.502 60.5292 153.206 60.1669C152.547 59.3763 151.328 58.9481 150.406 59.541C150.043 58.4211 149.352 57.4658 148.067 57.334C146.684 57.2023 145.597 58.1246 145.07 59.3104C144.147 57.927 142.731 56.9717 141.018 57.0046C139.239 57.0376 137.526 57.9599 136.274 59.1787C134.858 60.5622 133.903 62.4068 133.244 64.2515C132.585 66.0632 132.124 67.9737 131.893 69.9172C131.498 73.4418 131.828 77.2958 129.917 80.4252C129.719 80.7546 129.489 81.1169 129.258 81.4463C127.875 82.9615 127.051 84.9709 126.985 87.0132C126.952 88.0673 127.446 89.2861 126.59 90.1425C125.898 90.8343 124.976 91.1966 124.35 91.9542C122.802 93.7989 123.032 96.3024 123.065 98.5423C123.098 99.827 122.967 101.046 122.538 102.232C122.143 103.352 121.55 104.406 121.056 105.493C120.265 107.173 119.771 108.951 119.607 110.763C117.762 107.008 115.324 103.582 112.393 100.585C109.461 97.587 106.134 95.0177 102.642 92.7119C101.325 91.8225 99.9743 90.9331 98.5579 90.1425C98.5579 89.9449 98.459 89.7802 98.3272 89.6814C97.8331 87.0132 97.339 84.345 96.8449 81.6769C96.2849 78.6134 95.692 75.55 95.132 72.4866C95.0332 71.9924 94.9344 71.4983 94.8356 70.9713C97.7014 69.3572 100.567 67.7432 103.4 66.1291C103.795 65.8985 103.729 65.4373 103.4 65.2068C100.534 63.0986 97.7014 60.9575 94.8356 58.8163C93.3533 57.6964 91.8381 56.5435 90.3228 55.4235C88.8734 54.3365 87.457 53.1506 85.8759 52.2612C84.8547 51.6683 83.7677 51.2071 82.6477 50.9436C83.2406 50.6142 83.8335 50.2189 84.3935 49.659C85.9747 48.0449 86.6993 42.8403 83.4382 40.238C80.803 47.3202 75.8291 43.9932 70.4598 48.506C66.3752 51.9648 68.8128 60.5951 72.008 64.3832C70.5586 64.6797 69.241 65.5362 68.4834 66.8208C67.2317 68.9949 67.8246 71.9924 69.801 73.5406C70.6575 74.2324 71.7445 74.5618 72.8315 74.5947C72.1068 79.7993 71.0198 84.905 69.9986 90.0437C66.9352 91.0649 63.8718 92.1189 61.1377 93.8648C58.3049 95.6765 55.7026 97.7847 53.2321 100.058C52.0791 101.112 50.9592 102.166 49.8392 103.253C49.2792 100.585 47.731 98.0811 45.2935 96.8623C45.4582 96.5659 45.2605 96.2365 44.997 96.1047C45.2934 94.6224 45.1946 93.1071 44.6347 91.6578C44.0088 90.0108 42.9547 88.5943 42.0324 87.145C40.0559 84.0486 40.3524 80.1616 39.8912 76.67C39.6277 74.7594 39.1336 72.8489 38.4748 71.0372C37.7831 69.1925 36.8278 67.3479 35.3784 65.9973C34.0938 64.8115 32.3809 63.8891 30.6021 63.8891C28.8892 63.8891 27.4728 64.8444 26.5834 66.2608C26.0563 65.075 24.9693 64.1856 23.5858 64.3174C22.3012 64.4491 21.6423 65.4373 21.28 66.5573C20.3577 65.9644 19.1389 66.4255 18.4801 67.2161C18.1836 67.5785 17.986 67.9737 17.8871 68.4349C17.4919 68.5667 17.1295 68.7972 16.8989 69.1266C16.3719 69.8513 16.4049 70.8725 16.306 71.7289C16.2072 72.8489 16.1084 73.9359 16.1084 75.0559C16.1084 76.9994 16.339 78.9758 17.1295 80.7875C17.7554 82.2369 18.9742 84.4109 20.7859 84.4109C21.3788 84.4109 21.9717 84.1803 22.4329 83.818C22.5976 85.3003 23.0588 86.7497 23.4211 88.1661C23.8493 89.8461 24.3105 91.4931 24.7387 93.173C23.7176 94.3259 23.6188 96.1047 23.8823 97.587C24.047 98.5093 24.3764 99.4317 24.3764 100.354C24.3764 101.309 23.8494 102.166 23.3553 102.956C22.367 104.636 21.7412 106.514 22.2353 108.457C22.3341 108.918 22.5317 109.347 22.7623 109.742C22.8611 109.94 22.9929 110.137 23.0588 110.335C23.1576 110.631 22.9929 110.664 22.7952 110.796C22.0376 111.224 21.4118 111.85 20.9506 112.575C20.4894 113.3 20.2259 114.123 20.1271 114.947C20.0283 115.869 20.2259 116.758 20.4894 117.648C20.7859 118.636 21.1812 119.657 21.2471 120.678C21.313 121.765 21.1153 122.852 20.8518 123.939C20.4235 125.817 19.9953 127.661 19.9953 129.605C19.9953 131.318 20.2589 133.064 20.753 134.711L21.8729 134.645C21.9388 134.875 22.0047 135.073 22.1035 135.304C22.1035 135.304 58.9637 145.779 78.8596 139.289C98.7555 132.767 129.093 115.012 154.49 127.727C155.248 128.09 156.829 125.158 155.017 119.525Z" fill="white"/>
<path d="M62.1917 65.3712L57.8107 69.8182C54.5496 73.1451 49.2462 73.1781 45.9192 69.917L42.6911 66.7547C39.3641 63.4936 39.3312 58.1903 42.5922 54.8633L46.9733 50.3834" fill="#FFE945"/>
<path d="M62.2167 65.3646C63.4029 64.1582 60.9571 59.83 56.7539 55.6975C52.5506 51.565 48.1816 49.193 46.9954 50.3995C45.8092 51.6059 48.2551 55.9341 52.4583 60.0666C56.6616 64.1991 61.0306 66.5711 62.2167 65.3646Z" fill="white"/>
<path d="M16.4379 72.4538C17.0638 72.7174 16.8002 73.7715 16.1414 73.5079C14.5274 72.8491 12.9462 72.0586 11.4639 71.1033C6.25932 67.7763 2.20769 62.7694 0.0336325 56.9719C-0.196949 56.3131 0.824183 56.0496 1.0877 56.6755C1.68063 58.2237 2.40535 59.706 3.26179 61.1553C6.32524 66.1952 10.9698 70.2468 16.4379 72.4538ZM44.3053 68.3034C43.4818 68.9292 42.6583 69.5551 41.736 70.0492C40.6819 70.6421 39.562 70.9715 38.3432 71.1033C36.1362 71.3339 33.7644 71.1692 31.8539 72.4868C31.2939 72.8821 31.821 73.8373 32.4139 73.4091C34.3245 72.0586 36.8279 72.388 39.0349 72.0915C41.3737 71.7621 43.2512 70.4445 45.0629 69.0281L44.3053 68.3034ZM62.5872 65.734C63.3448 64.9435 63.1472 63.4282 61.9613 61.353C60.9072 59.4754 59.1943 57.3343 57.1191 55.292C53.1333 51.3721 48.2582 48.3086 46.5782 50.0215C44.8983 51.7015 48.0605 56.5437 52.0463 60.4636C55.2415 63.6259 59.0626 66.2281 61.2696 66.2281C61.8296 66.2281 62.2578 66.0634 62.5872 65.734ZM56.3615 56.0825C58.3708 58.059 60.0178 60.1012 61.006 61.88C61.9613 63.5929 62.0931 64.6799 61.7966 64.9764C61.0719 65.7011 57.2179 64.0211 52.8039 59.673C48.3899 55.3249 46.6441 51.5038 47.3688 50.7792C47.4676 50.6803 47.6653 50.6145 47.8958 50.6145C49.2793 50.6145 52.6063 52.3932 56.3615 56.0825ZM51.6181 57.2354C52.9357 58.5201 54.2204 59.8048 55.538 61.0895C56.0321 61.5836 56.7897 60.8259 56.2956 60.3318C54.978 59.0472 53.6933 57.7625 52.3757 56.4778C51.8816 55.9837 51.124 56.7413 51.6181 57.2354ZM52.8698 55.4237C54.1874 56.7084 55.4721 57.9931 56.7897 59.2777C57.2838 59.7718 58.0414 59.0142 57.5473 58.5201C56.2297 57.2354 54.945 55.9508 53.6274 54.6661C53.1333 54.172 52.3757 54.9296 52.8698 55.4237ZM45.3923 55.4896C47.3029 58.7836 49.5099 62.1765 52.9686 64.0211C53.5945 64.3505 54.1215 63.4282 53.5286 63.0988C50.2346 61.353 48.1593 58.0919 46.3476 54.9626C45.9853 54.3367 45.0629 54.8967 45.3923 55.4896Z" fill="black"/>
<path d="M123.197 44.7833L128.863 47.4185C133.079 49.362 134.924 54.3689 132.98 58.5853L131.07 62.7028C129.126 66.9192 124.119 68.7638 119.903 66.8204L114.237 64.1851" fill="#9ED5F0"/>
<path d="M123.197 44.7835C122.176 44.3224 120.364 45.8376 118.552 48.4728L114.237 46.4964C113.743 46.2658 113.15 46.4964 112.92 46.9905L112.524 47.847C112.294 48.3411 112.524 48.934 113.018 49.1646L117.037 50.9763C116.675 51.668 116.279 52.3927 115.95 53.1504C115.917 53.2162 115.884 53.3151 115.851 53.3809L111.404 51.3716C110.91 51.141 110.317 51.3716 110.087 51.8657L109.691 52.7221C109.461 53.2162 109.691 53.8092 110.186 54.0397L114.731 56.115C113.282 60.1996 113.018 63.5595 114.27 64.1195C115.818 64.8442 119.079 61.056 121.55 55.7197C123.987 50.4163 124.745 45.5082 123.197 44.7835Z" fill="white"/>
<path d="M123.428 44.2895C122.44 43.8284 121.056 44.5531 119.508 46.3648C119.146 46.793 118.75 47.2871 118.388 47.8141L114.468 46.0354C114.106 45.8707 113.677 45.8377 113.282 46.0024C112.887 46.1342 112.59 46.4307 112.426 46.793L112.03 47.6494C111.866 48.0118 111.833 48.44 111.997 48.8353C112.129 49.2306 112.426 49.527 112.788 49.6917L116.28 51.2729C116.016 51.734 115.786 52.2281 115.555 52.7222L111.602 50.9435C111.24 50.7788 110.812 50.7458 110.416 50.9105C110.021 51.0423 109.725 51.3388 109.56 51.7011L109.165 52.5575C109 52.9199 108.967 53.3481 109.132 53.7434C109.263 54.1387 109.56 54.4351 109.922 54.5998L114.04 56.4774C113.579 57.8609 113.216 59.1785 113.052 60.3644C112.689 62.7361 113.019 64.2184 114.007 64.6796C114.205 64.7784 114.435 64.8113 114.633 64.8113C116.807 64.8113 119.87 60.595 121.978 56.0163C124.35 50.9435 125.569 45.2777 123.428 44.2895ZM113.019 48.44C112.986 48.3412 112.986 48.2094 113.019 48.0777L113.414 47.2212C113.48 47.0565 113.645 46.9577 113.842 46.9577C113.908 46.9577 113.974 46.9577 114.04 46.9906L120.43 49.8894L119.673 51.5693L113.282 48.6706C113.15 48.6377 113.052 48.5388 113.019 48.44ZM110.153 53.3481C110.12 53.2493 110.12 53.1175 110.153 52.9858L110.548 52.1293C110.614 52.0305 110.68 51.9317 110.812 51.8987C110.878 51.8658 110.911 51.8658 110.976 51.8658C111.042 51.8658 111.108 51.8658 111.174 51.8987L117.564 54.7975L116.807 56.4774L110.416 53.5787C110.285 53.5457 110.186 53.4469 110.153 53.3481ZM121.023 55.5551C118.421 61.1549 115.423 64.1196 114.468 63.6913C114.073 63.5266 113.809 62.4726 114.106 60.5291C114.27 59.4421 114.6 58.2233 115.028 56.9386L117.301 57.9597L118.981 54.3034L116.543 53.1834C116.774 52.6893 117.037 52.1952 117.268 51.734L120.167 53.0516L121.847 49.3953L119.409 48.2753C119.706 47.8471 120.035 47.4518 120.331 47.0895C121.451 45.8048 122.341 45.2777 122.802 45.2777C122.868 45.2777 122.934 45.2777 123 45.3107C123.922 45.706 123.625 49.9223 121.023 55.5551ZM125.272 48.2753C125.272 47.5836 126.359 47.5836 126.359 48.2753C126.392 54.2046 123.988 60.0679 119.771 64.2513C119.277 64.7454 118.52 63.9878 119.014 63.4937C123.032 59.475 125.305 53.941 125.272 48.2753ZM132.19 61.682C131.498 61.682 131.498 60.595 132.19 60.595C133.903 60.595 135.187 61.7808 136.176 63.0325C137.131 64.2513 138.053 65.7666 139.7 66.096C140.392 66.2277 140.096 67.2818 139.404 67.1501C137.79 66.8536 136.703 65.5689 135.78 64.3172C134.891 63.1314 133.837 61.682 132.19 61.682ZM155.413 68.3359C154.721 68.3689 154.721 67.2818 155.413 67.2489C157.389 67.1171 159.333 66.7219 161.21 66.1289C168.095 63.9219 173.728 59.1456 179.064 54.4681C179.591 54.0069 180.349 54.7645 179.822 55.2257C178.207 56.6421 176.626 58.0256 174.946 59.3762C169.347 63.9219 162.824 67.8748 155.413 68.3359Z" fill="black"/>
<path d="M89.3017 77.0984C89.4993 77.2961 89.4993 77.6584 89.3017 77.856C89.0711 78.0537 88.8735 78.2843 88.6758 78.5148C88.6429 78.5478 88.6428 78.5807 88.6099 78.5807C88.6099 78.5807 88.6099 78.6137 88.577 78.6137C88.5441 78.6795 88.4781 78.7454 88.4452 78.7784C88.3464 78.9101 88.2805 79.0089 88.2146 79.1407C88.0499 79.4042 87.9182 79.6678 87.7864 79.9313C87.7535 79.9642 87.7535 79.9972 87.7535 80.0301C87.7535 80.0301 87.7535 80.0301 87.7535 80.063C87.7206 80.1289 87.6876 80.1948 87.6547 80.2936C87.5888 80.4254 87.5559 80.5571 87.5229 80.7218C87.4241 81.0183 87.1606 81.183 86.8641 81.1171C86.5677 81.0512 86.4029 80.7218 86.4688 80.4583C86.8641 79.1736 87.5558 78.0207 88.544 77.1314C88.7417 76.8678 89.0711 76.8678 89.3017 77.0984ZM22.1694 135.304C23.2894 138.466 25.3646 141.332 28.0657 143.275C28.6257 143.671 28.0987 144.626 27.5058 144.198C24.2776 141.859 21.9389 138.499 20.8189 134.678C20.3248 133.031 20.0613 131.285 20.0613 129.572C20.0613 127.629 20.4895 125.784 20.9177 123.907C21.1812 122.852 21.3789 121.765 21.313 120.645C21.2471 119.591 20.8518 118.603 20.5554 117.615C20.2919 116.726 20.0942 115.836 20.193 114.914C20.2918 114.057 20.5554 113.234 21.0165 112.542C21.4777 111.817 22.1036 111.192 22.8612 110.763C23.0918 110.632 23.2235 110.599 23.1247 110.302C23.0588 110.105 22.9271 109.907 22.8282 109.709C22.5976 109.314 22.433 108.886 22.3012 108.425C21.8071 106.481 22.4 104.604 23.4212 102.924C23.9153 102.133 24.4423 101.31 24.4423 100.321C24.4423 99.366 24.1129 98.4766 23.9482 97.5543C23.6847 96.072 23.7506 94.2932 24.8046 93.1403C24.3764 91.4604 23.9153 89.8134 23.487 88.1334C23.1247 86.717 22.6635 85.2676 22.4988 83.7853C22.0377 84.1476 21.4447 84.3782 20.8518 84.3782C19.0401 84.3782 17.8213 82.2042 17.1955 80.7548C16.4378 78.9431 16.1743 76.9667 16.1743 75.0232C16.1743 73.9032 16.2731 72.8162 16.3719 71.6962C16.4378 70.8398 16.4378 69.8186 16.9649 69.0939C17.2284 68.7645 17.5578 68.5339 17.9531 68.4022C18.0849 67.974 18.2495 67.5457 18.546 67.1834C19.2048 66.3928 20.4236 65.9317 21.3459 66.5246C21.7083 65.4046 22.3671 64.4164 23.6517 64.2846C25.0352 64.1529 26.1223 65.0423 26.6493 66.2281C27.5387 64.8117 28.9551 63.8564 30.668 63.8564C32.4468 63.8564 34.1597 64.7788 35.4444 65.9646C36.8937 67.3152 37.849 69.1598 38.5408 71.0045C39.2325 72.8162 39.7266 74.7267 39.9572 76.6372C40.4183 80.1619 40.1219 84.0159 42.0983 87.1123C43.0206 88.5946 44.0747 90.011 44.7006 91.6251C45.2606 93.0744 45.3264 94.5897 45.0629 96.072C45.3264 96.2038 45.5241 96.5332 45.3594 96.8296C47.8299 98.0484 49.3781 100.552 49.9051 103.22C51.0251 102.133 52.1451 101.046 53.298 100.025C55.7685 97.7849 58.3708 95.6438 61.2036 93.8321C63.9377 92.0862 67.0011 91.0321 70.0646 90.011C71.0528 84.8723 72.1727 79.7666 72.8974 74.562C71.8104 74.5291 70.7234 74.1997 69.8669 73.5079C67.8905 71.9597 67.2976 68.9622 68.5493 66.7881C69.3069 65.5034 70.6245 64.647 72.0739 64.3505C68.9116 60.5624 66.4411 51.9321 70.5257 48.4733C75.8621 43.9605 80.869 47.2875 83.5042 40.2053C86.7982 42.8076 86.0735 48.0122 84.4595 49.6262C83.8995 50.1862 83.3066 50.6144 82.7136 50.9109C83.8336 51.1744 84.9206 51.6356 85.9418 52.2285C87.5229 53.1179 88.9394 54.3038 90.3887 55.3908C91.904 56.5107 93.3863 57.6307 94.9015 58.7836C97.7344 60.9247 100.567 63.0659 103.466 65.174C103.795 65.4046 103.861 65.8987 103.466 66.0964C100.6 67.7104 97.7673 69.3574 94.9015 70.9386C95.0003 71.4327 95.0991 71.9268 95.198 72.4538C95.7579 75.5173 96.3509 78.5807 96.9109 81.6442C97.405 84.3123 97.8991 86.9805 98.3932 89.6487C98.525 89.7475 98.6567 89.9122 98.6238 90.1098C100.007 90.9004 101.358 91.7898 102.708 92.6792C106.2 94.985 109.527 97.5543 112.459 100.552C115.39 103.549 117.828 106.975 119.673 110.73C119.837 108.919 120.331 107.14 121.122 105.46C121.616 104.373 122.209 103.319 122.604 102.199C123.033 100.98 123.164 99.7943 123.131 98.5096C123.098 96.2696 122.868 93.7662 124.416 91.9215C125.042 91.1639 125.964 90.8016 126.656 90.1098C127.512 89.2863 127.018 88.0346 127.051 86.9805C127.084 84.9382 127.908 82.9288 129.324 81.4136C129.555 81.0842 129.752 80.7218 129.983 80.3924C131.893 77.2631 131.564 73.4091 131.959 69.8845C132.19 67.974 132.651 66.0305 133.31 64.2188C133.969 62.3741 134.924 60.5295 136.34 59.146C137.592 57.9272 139.305 57.0049 141.084 56.9719C142.797 56.939 144.213 57.8942 145.135 59.2777C145.662 58.0919 146.717 57.1696 148.133 57.3013C149.418 57.4001 150.109 58.3883 150.472 59.5083C151.394 58.9154 152.613 59.3436 153.272 60.1342C153.568 60.4965 153.766 60.8918 153.898 61.32C154.293 61.4188 154.655 61.6494 154.919 62.0118C155.446 62.7365 155.446 63.7576 155.545 64.6141C155.676 65.734 155.775 66.8211 155.775 67.941C155.808 69.8845 155.577 71.8609 154.853 73.6726C154.26 75.122 153.074 77.329 151.262 77.329C150.669 77.329 150.076 77.0984 149.615 76.7361C149.451 78.2184 149.022 79.6678 148.66 81.0842C148.232 82.7641 147.836 84.4441 147.408 86.124C147.507 86.2229 147.573 86.3217 147.54 86.5193C147.507 87.5075 147.738 88.4957 147.672 89.484C147.639 90.3733 147.309 91.1639 146.684 91.7898C148.924 94.4909 151.196 97.4884 151.756 101.013C152.02 102.726 151.789 104.34 151.361 106.02C150.933 107.7 150.406 109.446 150.867 111.159C151.295 112.74 152.283 114.09 153.14 115.441C153.963 116.726 154.622 118.043 155.083 119.493C156.928 125.158 155.676 131.68 151.822 136.226C151.361 136.753 150.603 135.996 151.065 135.469C153.14 133.031 154.392 129.935 154.754 126.772C155.05 123.939 154.688 121.041 153.535 118.438C152.316 115.639 149.78 113.3 149.615 110.105C149.516 108.392 150.076 106.745 150.472 105.098C150.834 103.484 150.933 101.902 150.505 100.321C149.747 97.3896 147.836 94.8862 145.926 92.6133C145.893 92.6133 145.86 92.6462 145.827 92.6462C144.213 93.2062 142.5 93.3709 140.82 93.3709C139.14 93.3709 137.427 93.2721 135.78 93.0415C132.98 92.6792 130.345 91.5262 128.171 89.7475C128.006 90.3404 127.644 90.8674 127.084 91.2957C126.294 91.9215 125.437 92.3168 124.91 93.2062C123.724 95.2485 124.383 97.752 124.218 99.959C124.054 102.364 122.802 104.373 121.88 106.547C120.957 108.655 120.595 110.928 120.727 113.201C120.76 113.3 120.793 113.432 120.76 113.497C120.76 113.662 120.793 113.827 120.793 114.024C120.858 114.716 119.804 114.716 119.706 114.024C119.673 113.827 119.673 113.629 119.64 113.432C119.409 112.872 119.178 112.312 118.915 111.785C116.939 107.535 114.106 103.78 110.746 100.519C107.979 97.8178 104.882 95.512 101.654 93.4038C100.765 92.8109 99.8425 92.2509 98.9202 91.6909C98.7555 91.9215 98.4591 91.9545 98.2285 91.8556C97.965 92.8768 97.7014 93.9309 97.2073 94.8532C96.1862 96.8626 94.111 98.2461 91.9369 98.6413C89.4664 99.1025 86.897 98.3449 84.8877 96.8626C84.69 96.7308 84.6242 96.5332 84.6571 96.3355C84.4924 96.3355 84.3277 96.3685 84.1301 96.3685L84.0971 96.4014C82.1866 98.4437 78.9255 98.6743 76.3232 98.0155C74.775 97.6202 73.7209 96.632 72.8974 95.3144C72.041 93.9638 71.3492 92.5145 70.6904 91.0651C68.9446 91.658 67.1658 92.218 65.4859 92.9427C62.4554 94.2273 59.7543 96.1379 57.2179 98.2131C54.7473 100.222 52.4415 102.429 50.1357 104.669C50.1687 105.361 50.1687 106.053 50.1028 106.745C50.0698 107.272 49.971 107.832 50.1357 108.326C50.2675 108.754 50.531 109.05 50.8274 109.347C51.4863 109.94 52.2439 110.434 52.9027 110.994C53.5615 111.554 54.2203 112.147 54.8133 112.773C55.6697 113.662 56.4602 114.65 57.0861 115.737C57.7449 115.079 58.4696 114.453 59.2602 113.893C59.8202 113.464 60.3801 114.42 59.8202 114.815C59.0296 115.375 58.3049 116.034 57.6461 116.726C58.4367 118.34 58.799 120.118 58.5025 121.996C58.239 123.544 57.2508 125.125 55.5709 125.323C54.8462 125.422 54.0227 125.224 53.4956 124.664C52.9027 124.071 52.7709 123.215 52.8698 122.424C53.0015 121.535 53.4297 120.678 53.8909 119.888C54.3191 119.097 54.8132 118.373 55.3732 117.681C55.6697 117.286 55.9991 116.89 56.3614 116.528C55.2744 114.551 53.5285 112.872 51.8157 111.488C51.1898 110.994 50.531 110.566 49.971 110.006C49.3451 109.413 49.0157 108.688 48.9828 107.865C48.9169 107.074 49.1146 106.316 49.1146 105.526C49.1146 105.229 49.1146 104.933 49.0816 104.636C49.0487 104.538 49.0158 104.439 49.0487 104.34C49.0158 104.044 48.9828 103.78 48.9169 103.484C48.4228 101.046 46.9735 98.7072 44.6018 97.719C43.7783 98.4766 42.8889 99.1354 41.9995 99.7943C39.7925 101.342 37.289 102.759 34.5879 103.088C31.4586 103.484 28.2305 102.957 25.3647 101.672C25.3317 101.738 25.3317 101.771 25.2988 101.837C24.9035 102.825 24.2447 103.681 23.7835 104.636C23.3882 105.46 23.2565 106.448 23.2894 107.371C23.3223 107.832 23.4212 108.293 23.5859 108.721C23.7506 109.149 24.047 109.512 24.2117 109.973C24.3435 110.401 24.3435 110.862 24.08 111.225C23.8494 111.554 23.4541 111.686 23.1247 111.916C22.4659 112.377 21.9389 113.036 21.6095 113.794C21.2801 114.519 21.1812 115.342 21.313 116.133C21.4777 117.121 21.873 118.043 22.1365 118.998C22.6965 121.074 22.3012 123.083 21.8071 125.125C21.3789 126.871 21.1483 128.584 21.2142 130.396C21.2471 132.076 21.5765 133.723 22.1694 135.304ZM21.9718 69.7198C22.0047 70.6751 22.1694 71.6303 22.433 72.5527C22.5647 72.4868 22.6965 72.4538 22.8612 72.4209C23.7506 72.1244 24.6729 72.0586 25.6282 72.0586C25.5952 71.2021 25.5952 70.3457 25.6941 69.4892C25.7599 68.9292 25.8258 68.3692 25.9576 67.8093C25.9576 67.7763 25.9246 67.7434 25.9246 67.7104C25.8258 66.9858 25.5623 66.2611 24.9693 65.8328C24.4423 65.4376 23.6188 65.3058 23.0918 65.7011C22.5647 66.0964 22.3671 66.8869 22.2353 67.4799C22.0377 68.2045 21.9718 68.9622 21.9718 69.7198ZM22.4659 81.3477C22.3671 81.3148 22.2683 81.2489 22.2024 81.183C20.1601 79.7666 18.8754 77.4608 18.2496 75.0891C17.8872 73.7385 17.7225 72.3221 17.7225 70.9056C17.7225 70.5762 17.7225 70.2468 17.7225 69.9174C17.4919 70.3457 17.4919 70.9715 17.459 71.3997C17.1625 74.4303 16.9319 77.6913 18.2166 80.5242C18.5131 81.1501 18.8754 81.7759 19.3036 82.303C19.6989 82.7641 20.1601 83.3241 20.8189 83.3241C21.9389 83.3241 22.433 82.3359 22.4659 81.3477ZM23.487 80.1289C23.5859 79.7007 23.52 79.2725 23.4541 78.8442C23.4212 78.449 23.3553 78.0537 23.2894 77.6584C22.433 77.3949 21.6753 76.9666 21.1483 76.242C20.6212 75.5502 20.3248 74.5291 20.8189 73.7385C20.9836 73.475 21.2142 73.2444 21.4777 73.0797C21.0165 71.5644 20.786 70.0163 20.9507 68.4351C20.9836 68.1387 21.0165 67.8422 21.0824 67.5128C20.3907 67.2163 19.8636 67.5128 19.666 67.6775C18.7766 68.3363 18.8095 69.6539 18.8095 70.6751C18.8425 72.8491 19.1389 75.0891 20.1271 77.0325C20.5554 77.889 21.0824 78.6795 21.7412 79.3713C22.0706 79.7336 22.4659 80.096 22.8941 80.3595C23.2235 80.5571 23.3882 80.5242 23.487 80.1289ZM25.7599 92.6792C25.9246 92.745 26.0893 92.8768 26.1223 93.0415C26.7152 93.2062 27.5058 93.0415 28.0657 92.9427C28.7245 92.8439 29.4163 92.7121 30.0751 92.5474C31.3598 92.218 32.6444 91.7898 33.8303 91.2298C36.2679 90.0769 38.4749 88.4957 40.3195 86.5193C40.3525 86.4864 40.3854 86.4534 40.4183 86.4205C39.8254 85.07 39.5619 83.5876 39.3972 82.1053C39.1996 80.3924 39.1007 78.6795 38.9031 76.9666C38.7055 75.2208 38.2443 73.5079 37.6513 71.8609C37.0584 70.148 36.202 68.4022 34.9173 67.0846C33.8303 65.9646 32.315 65.0423 30.701 65.0093C28.9551 64.9764 27.8022 66.1952 27.0775 67.6775C27.0446 67.7434 27.0117 67.8093 26.9787 67.8751C26.6164 69.2257 26.6164 70.6751 26.6493 72.0256C26.6493 72.0585 26.6493 72.0586 26.6493 72.0586C26.9787 72.0915 27.2752 72.0915 27.6046 72.1244C28.8234 72.2233 30.0751 72.4209 31.228 72.7832C31.6892 71.4656 31.8209 70.0492 31.5574 68.6986C31.4915 68.4022 31.6233 68.1057 31.9527 68.0398C32.2162 67.974 32.5786 68.1387 32.6115 68.4351C32.908 70.0163 32.7762 71.6633 32.2492 73.1785C32.5127 73.2773 32.7762 73.4091 33.0068 73.5079C34.9832 74.4961 36.4326 76.2749 37.5525 78.1196C37.9149 78.7125 36.9925 79.2725 36.6302 78.6795C35.5102 76.8678 34.0938 75.1549 32.0845 74.2655C30.6351 73.6397 29.0869 73.3432 27.5387 73.2115C26.2211 73.1126 24.9035 72.9809 23.5859 73.2773C22.96 73.4091 22.1365 73.6397 21.7083 74.1997C21.2801 74.7597 21.9059 75.6161 22.3341 75.9784C23.0918 76.6043 24.1129 76.769 25.0682 76.8349C26.1882 76.9337 27.3081 76.9667 28.461 76.9996C29.021 77.0325 29.1857 77.7243 28.7245 78.0207C27.6705 78.7454 27.2093 80.063 27.1764 81.3148C27.1764 82.9288 27.8352 84.477 28.461 85.9593C28.5599 86.2229 28.3293 86.5523 28.0657 86.6181C27.7693 86.684 27.5058 86.5193 27.4069 86.2229C26.7152 84.5429 25.9576 82.7641 26.0893 80.9195C26.0893 80.7218 26.1223 80.5571 26.1552 80.3595C25.5294 80.3924 24.9364 80.1619 24.5082 79.6677C24.5082 79.8654 24.5082 80.0301 24.4752 80.2277C24.4094 80.6889 24.1788 81.1501 23.7835 81.3806C23.7176 81.4136 23.6188 81.4465 23.5529 81.4795C23.5529 81.5453 23.52 81.6112 23.52 81.6771C23.52 81.8089 23.487 81.9406 23.4541 82.0395C23.3882 82.7312 23.4212 83.4229 23.5529 84.1147C23.8165 85.6299 24.2776 87.1123 24.6729 88.6275C25.0682 90.011 25.4305 91.3286 25.7599 92.6792ZM25.0023 78.3831C25.2658 78.9101 25.6611 79.503 26.3199 79.3054C26.4188 79.2725 26.4846 79.2395 26.5834 79.2066C26.7481 78.8113 26.9458 78.449 27.2093 78.1196V78.0866C26.3858 78.0537 25.5952 78.0207 24.7717 77.9219C24.8705 78.0866 24.9364 78.2513 25.0023 78.3831ZM43.4159 91.4933C42.7241 90.0769 41.7359 88.8251 40.9454 87.4746C39.0019 89.5498 36.6302 91.2298 33.995 92.3827C32.6444 92.9756 31.228 93.4368 29.8116 93.7662C29.0869 93.9309 28.3952 94.0297 27.6705 94.1285C26.9458 94.2273 26.2211 94.2603 25.5294 93.9968C24.4423 95.3473 25.0353 97.3567 25.3317 98.9378C25.4635 99.4978 25.5294 100.058 25.4964 100.618C27.0446 101.342 28.7575 101.837 30.4704 102.034C31.9527 102.199 33.5338 102.232 35.0161 101.968C36.2349 101.738 37.3878 101.244 38.4749 100.684C40.3524 99.6954 42.1642 98.4766 43.7453 97.0273C43.7453 96.9943 43.7453 96.9614 43.7453 96.9284C44.3053 95.0838 44.2394 93.2391 43.4159 91.4933ZM56.7897 117.582C56.4603 117.944 56.1638 118.34 55.9003 118.735C55.3732 119.46 54.8791 120.25 54.4509 121.074C54.0885 121.765 53.6603 122.655 53.9238 123.445C54.1215 124.071 54.7803 124.335 55.4062 124.269C56.0979 124.17 56.592 123.709 56.9214 123.116C57.6461 121.831 57.5802 120.151 57.2179 118.768C57.0861 118.34 56.9544 117.944 56.7897 117.582ZM82.5489 96.3026C82.1866 96.2696 81.8242 96.2038 81.4619 96.1049C79.5513 95.6438 77.7396 94.7215 75.9938 93.865C74.7091 93.2391 73.4574 92.5803 72.2386 91.8556C72.6668 92.7121 73.128 93.5685 73.5892 94.425C74.2809 95.6108 75.0715 96.5661 76.455 96.9614C78.3655 97.4884 80.836 97.4555 82.5489 96.3026ZM96.9768 92.2509C96.9438 92.2509 96.9438 92.2839 96.9109 92.2839C96.4827 92.5474 96.0215 92.8109 95.5603 93.0415C94.638 93.5027 93.6827 93.8979 92.7274 94.2273C90.9487 94.8532 89.104 95.4461 87.2923 95.9073C86.7982 96.0391 86.3041 96.1379 85.7771 96.2038C87.9841 97.6531 90.8499 98.2131 93.2875 97.0273C94.4404 96.5002 95.4286 95.6438 96.0544 94.5568C96.5156 93.865 96.7791 93.0744 96.9768 92.2509ZM97.372 90.538C97.3391 90.4722 97.3391 90.3733 97.3062 90.2745C97.2403 90.011 97.2074 89.7145 97.1415 89.451C97.0097 88.7593 96.878 88.0675 96.7462 87.3758C96.0874 83.8841 95.4615 80.3924 94.8027 76.8678C94.4403 74.8914 94.078 72.915 93.6827 70.9386C93.6498 70.708 93.7157 70.4445 93.9463 70.3127C96.6803 68.7975 99.4143 67.2493 102.148 65.7011C100.831 64.7458 99.5132 63.7576 98.2285 62.7694C95.3627 60.6283 92.4969 58.4213 89.6311 56.2802C86.9629 54.2708 84.2289 51.8991 80.7043 51.8662C78.7279 52.525 77.1138 53.0191 76.8502 56.4119C76.6526 58.8824 77.9702 61.7483 75.4009 64.4823L74.808 64.6141C74.9068 64.647 75.0056 64.6799 75.1044 64.7129C75.368 64.8117 75.4997 65.1411 75.4009 65.4376C75.3021 65.7011 74.9727 65.8328 74.6762 65.734C72.8645 64.9764 70.5257 65.767 69.5375 67.4799C68.5493 69.1598 69.0434 71.5974 70.5587 72.8162C72.1069 74.002 74.5774 73.8703 75.9609 72.4868C76.1585 72.2891 76.5209 72.2891 76.7185 72.4868C76.9162 72.6844 76.9162 73.0468 76.7185 73.2444C75.9938 73.9691 75.0056 74.4302 74.0174 74.595C74.0174 74.6279 74.0174 74.6938 74.0174 74.7267C73.3256 79.8654 72.2386 84.9053 71.2504 89.9781C71.2833 89.9781 71.2834 89.9781 71.3163 90.011C73.3586 91.2627 75.4997 92.4156 77.6738 93.4368C79.5184 94.2932 81.4948 95.2485 83.5701 95.3144C85.6782 95.3803 87.7205 94.7214 89.6969 94.1285C91.5416 93.5685 93.3534 92.9756 95.0992 92.1192C95.9227 91.6909 96.6474 91.1639 97.405 90.6698C97.3721 90.6039 97.372 90.571 97.372 90.538ZM149.714 74.1338C149.615 74.1997 149.549 74.2656 149.451 74.2985C149.516 75.2867 150.011 76.2749 151.163 76.2749C151.822 76.2749 152.283 75.7149 152.646 75.2538C153.074 74.6938 153.436 74.0679 153.7 73.442C154.952 70.5762 154.655 67.3152 154.326 64.2846C154.293 63.8564 154.26 63.2306 154.029 62.8023C154.029 63.1317 154.029 63.4611 154.029 63.7905C154.029 65.207 153.898 66.6234 153.535 67.974C152.975 70.3786 151.723 72.6844 149.714 74.1338ZM150.34 66.0305C150.604 66.1952 150.834 66.4258 150.999 66.6893C151.526 67.4799 151.229 68.501 150.735 69.2257C150.208 69.9504 149.451 70.4115 148.594 70.6751C148.528 71.0703 148.495 71.4656 148.462 71.8609C148.429 72.2891 148.364 72.7174 148.462 73.1456C148.561 73.5409 148.726 73.5738 149.055 73.3432C149.483 73.0797 149.846 72.7174 150.175 72.355C150.834 71.6633 151.361 70.8727 151.756 70.0163C152.712 68.0398 153.008 65.7999 153.008 63.6258C153.008 62.6047 153.008 61.2871 152.119 60.6612C151.888 60.4965 151.361 60.233 150.702 60.5295C150.768 60.8589 150.801 61.1553 150.834 61.4518L150.34 66.0305ZM145.794 60.8259C145.926 61.3859 146.025 61.9459 146.091 62.5059C146.189 63.3623 146.222 64.2188 146.189 65.0752C147.112 65.0423 148.034 65.1082 148.957 65.4046C149.088 65.4376 149.22 65.5034 149.385 65.5364C149.615 64.6141 149.78 63.6588 149.813 62.7035C149.813 61.9459 149.747 61.1883 149.582 60.4636C149.418 59.8707 149.22 59.0801 148.693 58.6848C148.133 58.2895 147.309 58.4213 146.815 58.8166C146.222 59.2777 145.992 60.0024 145.893 60.7271C145.794 60.76 145.794 60.793 145.794 60.8259ZM130.675 81.3477C131.597 82.27 132.552 83.1265 133.639 83.8512C135.715 85.3005 138.02 86.4205 140.458 87.1123C142.204 87.6064 144.773 87.9358 146.091 86.3217C146.124 86.2887 146.157 86.2558 146.189 86.2229C146.189 86.1899 146.189 86.157 146.189 86.157C146.552 84.6417 146.947 83.1265 147.309 81.6442C147.672 80.1619 148.133 78.6466 148.364 77.1314C148.462 76.4396 148.495 75.7479 148.429 75.0561C148.396 74.9244 148.397 74.7926 148.364 74.6938C148.364 74.6279 148.331 74.562 148.331 74.4961C148.265 74.4632 148.166 74.4302 148.1 74.3973C147.672 74.1667 147.474 73.7056 147.375 73.2444C147.342 73.0468 147.342 72.8821 147.342 72.6844C146.914 73.1785 146.321 73.442 145.695 73.4091C145.728 73.6067 145.761 73.7714 145.761 73.9691C145.926 75.8137 145.201 77.6255 144.542 79.3054C144.444 79.5689 144.18 79.7666 143.884 79.7007C143.62 79.6348 143.39 79.3054 143.488 79.0419C144.081 77.5596 144.74 76.0114 144.707 74.3973C144.674 73.1456 144.213 71.828 143.126 71.1362C142.665 70.8398 142.83 70.148 143.39 70.1151C144.51 70.0492 145.63 69.9833 146.782 69.8845C147.738 69.7857 148.759 69.621 149.484 68.9951C149.912 68.6328 150.538 67.7763 150.076 67.2163C149.648 66.6893 148.825 66.4587 148.199 66.3269C146.914 66.0305 145.564 66.1952 144.246 66.294C142.698 66.4587 141.15 66.7552 139.7 67.414C137.724 68.3034 136.307 70.0492 135.22 71.8939C134.858 72.4868 133.903 71.9597 134.265 71.3668C135.385 69.4892 136.802 67.7104 138.745 66.6893C139.009 66.5575 139.239 66.4587 139.503 66.3269C138.976 64.8117 138.811 63.1976 139.074 61.5835C139.107 61.2871 139.47 61.1224 139.733 61.1883C140.03 61.2541 140.161 61.5506 140.129 61.8471C139.898 63.2306 140.063 64.647 140.524 65.9317C141.71 65.5693 142.928 65.3387 144.147 65.207C144.477 65.174 144.773 65.1411 145.102 65.1082V65.0752C145.135 63.7247 145.102 62.2753 144.74 60.9247C144.707 60.8589 144.674 60.793 144.641 60.7271C143.917 59.2448 142.731 58.0589 140.985 58.0919C139.371 58.1248 137.856 59.0801 136.802 60.233C135.55 61.5835 134.726 63.3294 134.133 65.0423C133.573 66.6893 133.145 68.4351 132.948 70.181C132.75 71.8939 132.717 73.6067 132.519 75.3196C132.355 76.9008 132.091 78.5148 131.399 79.9642C131.202 80.4583 130.938 80.9195 130.675 81.3477ZM144.674 71.1362C144.938 71.4986 145.135 71.8609 145.3 72.2233C145.366 72.2562 145.465 72.2891 145.564 72.3221C146.255 72.4868 146.618 71.8938 146.881 71.3668C146.947 71.235 147.046 71.0703 147.112 70.9386C146.288 71.0374 145.465 71.1033 144.674 71.1362ZM146.486 89.1545C146.486 88.6275 146.42 88.1005 146.387 87.5734C145.63 88.2322 144.575 88.5287 143.587 88.5946C141.051 88.7922 138.481 87.7711 136.242 86.684C133.969 85.5641 131.861 84.1147 130.082 82.303C129.555 83.0935 129.061 83.8841 128.665 84.7405L128.534 84.7735C128.501 84.8394 128.501 84.9053 128.468 84.9711C128.105 86.124 128.105 87.1781 128.204 88.364C128.237 88.3969 128.27 88.3969 128.336 88.4628C130.444 90.4392 133.211 91.6251 136.077 91.9874C137.625 92.185 139.239 92.2509 140.82 92.2509C142.368 92.2509 143.917 92.0862 145.399 91.6251C145.432 91.5262 145.465 91.4274 145.531 91.3615C146.189 90.7686 146.519 90.0769 146.486 89.1545ZM81.7254 111.719C81.1325 111.785 80.5396 112.114 80.3749 112.74C80.309 113.003 80.4737 113.333 80.7701 113.399C80.8031 113.399 80.869 113.399 80.9019 113.399C80.9678 113.893 81.2313 114.321 81.6266 114.584C81.956 114.815 82.3842 114.881 82.7466 114.683C83.043 114.519 83.2077 114.189 83.2736 113.893C83.4383 113.399 83.3724 112.773 83.076 112.344C82.7795 111.949 82.2854 111.686 81.7254 111.719ZM82.2195 113.695C82.1536 113.827 82.1866 113.761 82.2195 113.695V113.695ZM82.2525 113.629C82.2525 113.662 82.2525 113.662 82.2195 113.695C82.2525 113.695 82.2525 113.695 82.2195 113.695C82.2195 113.695 82.2195 113.695 82.1866 113.695C82.1866 113.695 82.1537 113.695 82.1537 113.662C82.1537 113.662 82.1537 113.662 82.1866 113.662C82.1537 113.629 82.1207 113.596 82.1207 113.563V113.596C82.1207 113.596 82.1207 113.596 82.1207 113.563C82.0877 113.497 82.1207 113.53 82.1207 113.563L82.0878 113.53C82.0548 113.497 82.0548 113.464 82.0219 113.432V113.399C82.0219 113.366 82.0219 113.366 82.0219 113.333C82.0219 113.267 82.0219 113.168 82.0219 113.102C82.0219 113.003 81.9889 112.904 81.9231 112.806H81.956H81.9231H81.956H81.989C81.989 112.806 81.989 112.806 82.0219 112.839C82.0548 112.872 82.0878 112.904 82.0548 112.872C82.0878 112.904 82.0877 112.904 82.1207 112.937C82.1207 112.937 82.1207 112.937 82.1207 112.904C82.1207 112.904 82.1207 112.937 82.1537 112.937C82.1866 113.003 82.1866 113.003 82.1866 112.97C82.1866 113.003 82.2195 113.003 82.2195 113.036C82.2195 113.036 82.2195 113.069 82.2525 113.069C82.2525 113.102 82.2524 113.102 82.2854 113.135C82.2854 113.168 82.2854 113.201 82.3184 113.234C82.3184 113.3 82.3184 113.399 82.3184 113.464C82.2525 113.53 82.2525 113.596 82.2525 113.629ZM82.3184 113.761C82.2854 113.761 82.2854 113.728 82.2854 113.728C82.2854 113.728 82.2854 113.728 82.3184 113.761ZM85.9418 117.088C85.7441 116.199 85.81 115.342 85.8759 114.453C85.9418 113.596 85.9747 112.674 85.7441 111.85C85.6453 111.488 85.4806 111.126 85.25 110.829C85.0194 110.5 84.5583 110.203 84.4924 109.775C84.3936 109.347 84.4924 108.853 84.5253 108.425C84.5583 107.93 84.6242 107.469 84.723 106.975C84.9206 106.02 85.3818 105.328 85.9088 104.538C86.4359 103.714 86.5676 102.858 86.1724 101.968C85.843 101.277 85.1841 100.651 85.2171 99.8272C85.25 99.1354 84.163 99.1354 84.1301 99.8272C84.0971 100.585 84.4924 101.211 84.8877 101.837C85.3159 102.561 85.5465 103.088 85.0853 103.879C84.6241 104.636 84.0971 105.295 83.8336 106.185C83.5701 107.074 83.4712 108.029 83.4383 108.952C83.4054 109.38 83.3724 109.808 83.5042 110.203C83.6689 110.665 83.9983 110.961 84.2948 111.323C84.8218 111.982 84.8877 112.806 84.8877 113.596C84.8547 114.453 84.7559 115.309 84.7889 116.166C84.8218 117.154 85.1183 118.076 85.4806 118.998C86.2712 120.975 87.6217 123.149 86.93 125.356C86.6994 126.015 87.7535 126.311 87.9841 125.652C88.6099 123.709 87.8853 121.765 87.0947 119.987C86.6006 118.998 86.1394 118.076 85.9418 117.088ZM76.2903 68.5998C74.8409 67.5457 72.9304 67.2493 71.2175 67.7104C70.5587 67.9081 70.8222 68.9292 71.5139 68.7645C72.9633 68.3692 74.5115 68.6657 75.7303 69.5551C75.9609 69.7198 76.3232 69.588 76.4879 69.3575C76.6526 69.0939 76.5538 68.7975 76.2903 68.5998ZM82.1207 104.076C82.4501 103.945 82.7466 103.714 82.9442 103.418C83.1089 103.121 83.2077 102.792 83.2407 102.462C83.2736 102.133 83.2077 101.837 83.076 101.54C82.9113 101.178 82.5489 100.98 82.1537 100.947C81.7913 100.914 81.3631 101.079 81.1325 101.375C80.9348 101.573 80.836 101.837 80.7701 102.067C80.7372 102.1 80.7372 102.1 80.7043 102.133C80.5725 102.265 80.5066 102.397 80.4407 102.594C80.3419 102.858 80.3749 103.187 80.4737 103.451C80.7372 104.044 81.4948 104.307 82.1207 104.076ZM81.4619 102.957C81.4948 102.924 81.5607 102.891 81.5937 102.858C81.6266 102.792 81.6595 102.759 81.6925 102.693C81.6925 102.66 81.7254 102.66 81.7254 102.627C81.7913 102.528 81.8242 102.397 81.7913 102.298C81.7913 102.265 81.7913 102.265 81.8243 102.232C81.8243 102.199 81.8572 102.166 81.8572 102.133C81.8572 102.133 81.8572 102.1 81.8901 102.1L81.9231 102.067C81.956 102.067 81.956 102.034 81.989 102.034C82.0219 102.034 82.0219 102.034 82.0548 102.001H82.0878C82.1207 102.067 82.1207 102.1 82.1207 102.166C82.1207 102.265 82.1207 102.331 82.1207 102.429C82.0877 102.528 82.0878 102.594 82.0548 102.693C82.0219 102.726 82.0219 102.759 81.989 102.792C81.956 102.825 81.956 102.858 81.9231 102.891C81.9231 102.891 81.923 102.858 81.956 102.858C81.956 102.858 81.956 102.858 81.9231 102.891C81.8901 102.924 81.8901 102.924 81.8572 102.957C81.8242 102.989 81.7913 102.989 81.7584 102.989C81.7254 102.989 81.6925 103.022 81.6266 103.022C81.5936 103.022 81.5607 103.022 81.5278 103.022C81.4949 103.022 81.4948 103.022 81.4619 102.989H81.4289C81.4619 102.989 81.4619 102.989 81.4619 102.957ZM84.2289 54.4355C84.4924 54.3696 84.6901 54.0402 84.6242 53.7767C84.5254 53.4802 84.2618 53.3485 83.9654 53.3814C83.8666 53.4144 83.7677 53.4144 83.6689 53.4473C83.603 53.4473 83.5701 53.4802 83.5042 53.4802C83.5042 53.4802 83.4712 53.4802 83.4383 53.4802C83.2407 53.5132 83.043 53.5132 82.8454 53.5461C82.4501 53.5791 82.0219 53.5461 81.6266 53.5132C81.3301 53.4802 81.0666 53.7767 81.0995 54.0402C81.0995 54.3696 81.3301 54.5673 81.6266 54.5673C82.483 54.6661 83.3724 54.6002 84.2289 54.4355ZM82.2525 57.5648C82.0878 57.3343 81.7913 57.2025 81.4949 57.3672C81.2643 57.499 81.0995 57.8613 81.2972 58.1248C82.0219 59.0801 82.7466 60.0024 83.4383 60.9577C83.603 61.1883 83.8995 61.32 84.1959 61.1553C84.4265 61.0236 84.5912 60.6612 84.3936 60.3977C83.7018 59.4424 82.9771 58.5201 82.2525 57.5648ZM86.6665 58.4542C85.9418 57.6307 85.2171 56.8072 84.4595 56.0166C84.2618 55.819 83.8665 55.819 83.7018 56.0166C83.5042 56.2472 83.5042 56.5437 83.7018 56.7743C84.4265 57.5978 85.1512 58.4213 85.9088 59.2119C86.1065 59.4095 86.5018 59.4095 86.6665 59.2119C86.8641 58.9813 86.8641 58.6848 86.6665 58.4542ZM79.5514 54.5343C79.2549 54.6332 79.1231 54.8967 79.1561 55.1931C79.2549 55.8849 79.3867 56.6096 79.222 57.2684C79.0902 57.7954 78.8267 58.1907 78.3326 58.4213C78.069 58.553 78.0032 58.9154 78.1349 59.1789C78.2996 59.4424 78.5961 59.5083 78.8926 59.3766C79.5843 59.0471 80.0455 58.3554 80.2431 57.6307C80.4737 56.7413 80.3419 55.819 80.2102 54.9296C80.1443 54.6002 79.782 54.4355 79.5514 54.5343Z" fill="black"/>
<path d="M68.6151 28.7749C68.7798 29.0055 68.648 29.4008 68.4175 29.5325C68.1539 29.6973 67.8575 29.5655 67.6599 29.3349C66.2105 27.4573 67.4951 24.5586 69.0433 23.1421C69.8339 22.4175 70.9539 21.8245 72.0738 22.1869C72.6009 22.3516 72.9632 22.7469 73.3585 23.1092C73.8197 23.5374 74.215 23.6362 74.775 23.3068C75.6314 22.8127 76.2573 21.9563 77.1137 21.4292C78.0031 20.8693 78.9913 20.5399 80.0454 20.4081C82.0218 20.1446 84.0641 20.8034 85.4146 22.2857C86.6334 23.6692 87.2922 25.6127 86.8311 27.4573C86.337 29.4996 84.5911 31.0149 82.6806 31.7066C81.5606 32.1019 80.3089 32.2666 79.123 32.2007C78.5301 32.1678 77.9372 32.036 77.3772 32.069C76.7843 32.1019 76.4879 32.4642 76.2243 32.9254C75.6973 33.8148 75.2691 34.7371 74.5773 35.5277C73.8856 36.3182 72.9632 36.8782 71.9421 37.0429C70.8221 37.2076 69.7021 36.8782 68.7139 36.4171C68.121 36.1535 67.594 35.8241 67.034 35.4618C66.6058 35.1983 66.1775 34.9348 65.8152 34.5724C64.9917 33.7489 65.0576 32.7278 65.5517 31.7066C66.1117 30.5537 66.8363 29.4996 67.6269 28.4785C67.7916 28.2479 68.0881 28.1161 68.3845 28.2808C68.6151 28.4126 68.7469 28.7749 68.5822 29.0384C67.8245 30.0267 67.1328 31.0807 66.5399 32.2007C66.2764 32.6948 66.0787 33.1889 66.474 33.683C66.7704 34.0783 67.2316 34.3089 67.6599 34.5724C68.6481 35.1983 69.7351 35.8241 70.9209 35.9888C72.0079 36.1206 72.9632 35.6924 73.6879 34.9348C74.2808 34.3089 74.7091 33.5183 75.1373 32.7607C75.5655 31.9372 76.1255 31.1466 77.1137 31.0149C77.6407 30.949 78.1678 31.0478 78.7278 31.0807C79.2548 31.1137 79.7818 31.1137 80.3089 31.0807C81.2971 31.0149 82.3183 30.7843 83.2076 30.2902C84.7558 29.4667 85.9746 27.9844 85.9746 26.1726C85.9746 24.5586 85.0523 22.9774 83.7018 22.1539C82.1865 21.1987 80.276 21.2316 78.6619 21.8904C77.8384 22.2528 77.1466 22.7798 76.4878 23.3727C75.862 23.9656 75.1043 24.6245 74.182 24.5915C73.7208 24.5915 73.3256 24.3939 72.9632 24.1303C72.6338 23.8668 72.3703 23.4715 71.975 23.2739C71.2174 22.8786 70.328 23.4715 69.801 23.9986C68.5822 25.1186 67.4951 27.3256 68.6151 28.7749ZM102.148 38.657C103.367 37.8994 104.882 38.8546 105.08 40.1723C105.179 40.9628 104.915 41.6546 104.487 42.2804C104.092 42.8734 104.092 43.5651 104.685 43.9933C105.146 44.3227 105.904 44.3557 106.134 44.9815C106.365 45.5745 106.134 46.2662 105.772 46.7274C105.014 47.6826 103.598 48.1109 102.478 47.6497C101.061 47.0897 100.271 45.4098 100.468 43.9274C100.501 43.631 100.337 43.2028 99.9413 43.2357C99.2825 43.3016 98.5907 43.3016 97.9319 43.2028C97.5037 43.1369 96.5814 43.071 96.3508 42.6098C96.1531 42.2145 96.2849 41.4569 96.3508 41.0287C96.4496 40.5017 96.5814 39.9417 96.8449 39.4476C97.306 38.5582 98.0308 37.8335 99.019 37.6359C99.9084 37.4382 100.831 37.6688 101.424 38.3935C101.852 38.9205 102.642 38.1629 102.181 37.6359C101.391 36.6476 100.04 36.3512 98.8213 36.5818C97.4707 36.8453 96.3838 37.8335 95.8238 39.0523C95.5273 39.7111 95.3297 40.4028 95.2308 41.1275C95.165 41.7863 95.0662 42.6428 95.4285 43.2357C95.8238 43.8945 96.6144 44.0921 97.3061 44.2239C98.1625 44.3886 99.0519 44.4545 99.9083 44.3557C99.7436 44.1251 99.5461 43.8945 99.3813 43.6639C99.1508 45.4098 99.8096 47.1885 101.259 48.2426C102.642 49.2308 104.553 49.0991 105.871 48.1109C107.089 47.1885 107.979 44.9815 106.529 43.7957C106.233 43.5651 105.871 43.4333 105.541 43.2686C105.475 43.2357 105.245 43.1039 105.245 43.1039C105.212 42.9722 105.541 42.6098 105.607 42.511C106.068 41.7534 106.233 40.7981 106.101 39.9087C105.739 37.8994 103.4 36.6476 101.588 37.7347C100.995 38.097 101.555 39.0193 102.148 38.657ZM70.8551 32.036C70.7562 32.036 70.6903 32.036 70.5915 32.036C70.5256 32.036 70.4598 32.036 70.3939 32.069C70.328 32.1019 70.2621 32.1348 70.2292 32.1678C70.1633 32.2007 70.1304 32.2666 70.1304 32.3325C70.0974 32.3984 70.0645 32.4642 70.0974 32.5301C70.0974 32.5631 70.0974 32.6289 70.1304 32.6619C70.1633 32.7607 70.1962 32.8266 70.2621 32.8925C70.2951 32.9254 70.328 32.9583 70.361 32.9913C70.4598 33.0242 70.5257 33.0572 70.6245 33.0572C70.7233 33.0572 70.7892 33.0572 70.888 33.0572C70.9539 33.0572 71.0197 33.0572 71.0856 33.0242C71.1515 32.9913 71.2174 32.9583 71.2503 32.9254C71.3162 32.8925 71.3492 32.8266 71.3492 32.7607C71.3821 32.6948 71.415 32.6289 71.3821 32.5631C71.3821 32.5301 71.3821 32.4642 71.3492 32.4313C71.3162 32.3325 71.2833 32.2666 71.2174 32.2007C71.1844 32.1678 71.1515 32.1348 71.1186 32.1019C71.0527 32.0689 70.9539 32.036 70.8551 32.036ZM79.6831 24.7233C79.5842 24.8221 79.5183 24.888 79.4195 24.9868C79.3536 25.0197 79.3207 25.0856 79.3207 25.1515C79.2877 25.2174 79.2548 25.2833 79.2878 25.3491C79.2878 25.415 79.2877 25.4809 79.3207 25.5468C79.3536 25.6127 79.3866 25.6785 79.4195 25.7115C79.4525 25.7444 79.4854 25.7774 79.5184 25.8103C79.6172 25.8432 79.683 25.8762 79.7819 25.8762C79.8148 25.8762 79.8807 25.8762 79.9136 25.8432C80.0124 25.8103 80.0783 25.7774 80.1442 25.7115C80.243 25.6127 80.3089 25.5468 80.4077 25.448C80.4736 25.415 80.5066 25.3491 80.5066 25.2833C80.5395 25.2174 80.5724 25.1515 80.5395 25.0856C80.5395 25.0197 80.5395 24.9539 80.5066 24.888C80.4736 24.8221 80.4407 24.7562 80.4077 24.7233C80.3748 24.6903 80.3418 24.6574 80.3089 24.6245C80.2101 24.5915 80.1442 24.5586 80.0454 24.5586C80.0125 24.5586 79.9466 24.5586 79.9136 24.5915C79.8148 24.6245 79.7489 24.6574 79.6831 24.7233ZM74.709 27.4903C74.8079 27.3914 74.8738 27.3256 74.9726 27.2267C75.0385 27.1938 75.0714 27.1279 75.0714 27.062C75.1044 26.9961 75.1373 26.9303 75.1044 26.8644C75.1044 26.7985 75.1044 26.7326 75.0714 26.6667C75.0385 26.6009 75.0055 26.535 74.9726 26.502C74.9396 26.4691 74.9067 26.4362 74.8737 26.4032C74.7749 26.3703 74.7091 26.3373 74.6103 26.3373C74.5773 26.3373 74.5114 26.3373 74.4785 26.3703C74.3797 26.4032 74.3138 26.4362 74.2479 26.502C74.1491 26.6009 74.0832 26.6667 73.9844 26.7656C73.9185 26.7985 73.8855 26.8644 73.8855 26.9303C73.8526 26.9962 73.8197 27.062 73.8526 27.1279C73.8526 27.1938 73.8526 27.2597 73.8855 27.3256C73.9185 27.3914 73.9514 27.4573 73.9844 27.4903C74.0173 27.5232 74.0503 27.5561 74.0832 27.5891C74.182 27.622 74.2479 27.655 74.3467 27.655C74.3797 27.655 74.4455 27.655 74.4785 27.622C74.5773 27.622 74.6432 27.5561 74.709 27.4903ZM104.026 53.546C104.125 53.4472 104.191 53.3813 104.289 53.2825C104.355 53.2495 104.388 53.1837 104.388 53.1178C104.421 53.0519 104.454 52.986 104.421 52.9201C104.421 52.8543 104.421 52.7884 104.388 52.7225C104.355 52.6566 104.322 52.5907 104.289 52.5578C104.256 52.5249 104.224 52.4919 104.191 52.459C104.092 52.426 104.026 52.3931 103.927 52.3931C103.894 52.3931 103.828 52.3931 103.795 52.426C103.696 52.459 103.631 52.4919 103.565 52.5578C103.466 52.6566 103.4 52.7225 103.301 52.8213C103.235 52.8542 103.202 52.9201 103.202 52.986C103.169 53.0519 103.137 53.1178 103.169 53.1837C103.169 53.2495 103.169 53.3154 103.202 53.3813C103.235 53.4472 103.268 53.5131 103.301 53.546C103.334 53.5789 103.367 53.6119 103.4 53.6448C103.499 53.6778 103.565 53.7107 103.664 53.7107C103.697 53.7107 103.762 53.7107 103.795 53.6778C103.894 53.6778 103.96 53.6119 104.026 53.546ZM71.8433 16.6529C71.9421 16.5541 72.008 16.4882 72.1068 16.3894C72.1727 16.3564 72.2056 16.2906 72.2056 16.2247C72.2385 16.1588 72.2715 16.0929 72.2385 16.027C72.2385 15.9612 72.2385 15.8953 72.2056 15.8294C72.1727 15.7635 72.1397 15.6976 72.1068 15.6647C72.0739 15.6318 72.0409 15.5988 72.008 15.5659C71.9091 15.5329 71.8432 15.5 71.7444 15.5C71.7115 15.5 71.6456 15.5 71.6127 15.5329C71.5139 15.5659 71.448 15.5988 71.3821 15.6647C71.2833 15.7635 71.2174 15.8294 71.1186 15.9282C71.0527 15.9612 71.0198 16.027 71.0198 16.0929C70.9868 16.1588 70.9539 16.2247 70.9868 16.2906C70.9868 16.3564 70.9868 16.4223 71.0198 16.4882C71.0527 16.5541 71.0857 16.62 71.1186 16.6529C71.1515 16.6858 71.1844 16.7188 71.2174 16.7517C71.3162 16.7847 71.3821 16.8176 71.4809 16.8176C71.5139 16.8176 71.5798 16.8176 71.6127 16.7847C71.6786 16.7517 71.7774 16.7188 71.8433 16.6529ZM100.995 39.9087C100.995 39.8758 100.995 39.8758 100.995 39.8428C100.995 39.8758 100.995 39.9417 101.028 39.9746C100.995 39.9417 100.995 39.9417 100.995 39.9087C100.995 39.9417 100.995 39.9746 100.995 40.0405C100.995 40.0076 100.995 39.9746 100.995 39.9087C100.995 39.9746 100.962 40.0076 100.962 40.0734C100.962 40.0405 100.995 40.0075 101.028 39.9746C100.995 40.0075 100.962 40.0405 100.93 40.0734C100.962 40.0405 100.962 40.0405 100.995 40.0076C100.962 40.0405 100.929 40.0734 100.897 40.1064C100.929 40.0734 100.962 40.0734 100.962 40.0734C100.929 40.1064 100.864 40.1064 100.831 40.1393H100.864C100.93 40.1064 100.995 40.1064 101.061 40.0405C101.127 40.0076 101.16 39.9417 101.193 39.8758C101.226 39.8099 101.259 39.744 101.259 39.6781C101.259 39.6123 101.259 39.5464 101.259 39.4476C101.226 39.4146 101.226 39.3487 101.193 39.3158C101.16 39.2499 101.094 39.184 100.995 39.1182C100.962 39.0852 100.897 39.0852 100.864 39.0523C100.765 39.0193 100.666 39.0193 100.567 39.0523C100.501 39.0852 100.435 39.0852 100.37 39.1511C100.37 39.1511 100.337 39.1511 100.337 39.184C100.304 39.217 100.238 39.2499 100.205 39.2829C100.172 39.3158 100.172 39.3158 100.139 39.3487C100.106 39.4146 100.04 39.4476 100.007 39.5134C99.9742 39.5793 99.9743 39.6123 99.9413 39.6781V39.7111C99.9084 39.777 99.9083 39.8429 99.9083 39.9417C99.9083 39.9746 99.9083 40.0076 99.9083 40.0076C99.9083 40.0734 99.9084 40.1393 99.9413 40.1723V40.2052C99.9743 40.2711 99.9743 40.337 100.04 40.4028C100.073 40.4687 100.139 40.5017 100.205 40.5346C100.271 40.5675 100.337 40.6005 100.402 40.6005C100.468 40.6005 100.534 40.6005 100.633 40.6005C100.666 40.5675 100.732 40.5675 100.765 40.5346C100.831 40.5017 100.897 40.4358 100.962 40.337C100.995 40.304 100.995 40.2381 101.028 40.2052C101.028 40.1064 101.028 40.0076 100.995 39.9087ZM108.44 36.3512C108.539 36.3512 108.605 36.3512 108.703 36.3512C108.769 36.3512 108.835 36.3512 108.901 36.3182C108.967 36.2853 109.033 36.2524 109.066 36.2194C109.132 36.1865 109.165 36.1206 109.165 36.0547C109.198 35.9888 109.23 35.923 109.197 35.8571C109.197 35.8241 109.198 35.7583 109.165 35.7253C109.132 35.6265 109.099 35.5606 109.033 35.4947C109 35.4618 108.967 35.4289 108.934 35.3959C108.835 35.363 108.769 35.33 108.67 35.33C108.572 35.33 108.506 35.33 108.407 35.33C108.341 35.33 108.275 35.33 108.209 35.363C108.143 35.3959 108.078 35.4289 108.045 35.4618C107.979 35.4947 107.946 35.5606 107.946 35.6265C107.913 35.6924 107.88 35.7583 107.913 35.8241C107.913 35.8571 107.913 35.923 107.946 35.9559C107.979 36.0547 108.012 36.1206 108.078 36.1865C108.11 36.2194 108.143 36.2524 108.176 36.2853C108.242 36.3512 108.341 36.3512 108.44 36.3512Z" fill="black"/>
</svg>
