<svg width="188" height="193" viewBox="0 0 188 193" fill="none" xmlns="http://www.w3.org/2000/svg">
<path d="M39.6385 112.558C33.6987 107.862 28.0397 102.685 23.9862 96.3032C19.9326 89.9218 17.5246 82.2562 18.6082 74.7511C19.6918 67.2862 24.6283 60.1422 31.7321 57.6539C36.5482 55.9683 42.0867 56.3697 46.5818 53.8813C51.2373 51.3127 53.8059 46.1354 55.4915 41.1186C57.1772 36.0617 58.2608 30.7239 61.1505 26.269C64.0402 21.8141 69.4181 18.3625 74.5553 19.7672C78.2476 20.7706 80.9366 23.9412 84.3882 25.5867C90.7695 28.6369 98.2746 25.988 105.338 26.3492C112.001 26.6703 119.345 31.1654 119.225 37.8276C119.185 42.0819 116.174 45.6137 114.489 49.5067C112.803 53.3997 113.285 59.179 117.338 60.3429C120.509 61.266 123.519 58.6974 126.128 56.6506C133.713 50.6304 143.466 47.4599 153.138 47.8612C162.81 48.2625 172.282 52.276 179.306 58.9382C183.159 62.5905 186.45 67.4065 186.45 72.7042C186.45 77.9618 183.319 82.6977 180.309 86.9921C173.767 96.3835 166.222 106.457 155.105 109.146C149.285 110.551 142.984 109.708 137.365 111.795C125.807 116.049 120.589 131.059 108.71 134.35C103.452 135.795 97.9134 134.631 92.5755 133.427C81.2577 130.899 69.8997 128.37 58.5819 125.882C54.0868 124.879 49.5517 123.875 45.5784 121.507C41.6452 119.14 38.3542 115.206 38.0331 110.631" fill="#F4F6F9"/>
<path d="M169.472 69.6543L169.271 68.6109C171.88 63.273 172.321 56.7713 170.435 51.1525C170.234 50.5103 169.431 49.3866 168.388 48.2628C168.428 48.2227 168.428 48.2227 168.468 48.1825C168.87 48.8648 169.472 49.4267 170.194 49.7076C171.197 50.0689 172.441 49.7879 173.044 48.905C173.324 48.4635 173.445 47.9016 173.525 47.3798C173.806 44.9317 173.084 42.4433 171.88 40.2761C170.676 38.1089 169.07 36.2225 167.465 34.3362C167.064 33.8546 166.622 33.373 166.02 33.2125C165.619 33.0921 165.177 33.2125 164.816 33.4132C164.535 33.1322 164.214 32.8914 163.853 32.7308C163.01 32.2894 161.846 32.3295 161.204 33.0519C160.843 33.4533 160.803 34.0553 160.963 34.5369C160.602 34.1757 160.201 33.8145 159.799 33.5335C159.358 33.2125 158.876 32.9315 158.354 32.8513C157.311 32.6907 156.227 33.4533 155.826 34.4165C155.505 35.2593 155.585 36.1824 155.866 37.0252C150.889 33.6941 146.154 37.3061 144.428 42.8045C143.344 46.2561 143.585 49.9886 144.027 53.6006C144.468 57.2127 145.07 60.8248 144.669 64.4369L143.665 63.9954C138.568 64.6777 132.267 83.4204 127.933 86.2298C123.598 89.0793 120.508 94.6178 121.993 99.8754C122.434 101.521 123.317 103.126 123.157 104.812C122.956 106.778 121.391 108.143 120.187 109.628C118.742 111.434 117.779 113.641 117.337 115.969C115.852 113.481 114.809 110.591 113.565 107.902C109.31 98.9925 101.484 92.0091 92.5343 89.0392L92.3737 88.8385C89.9657 82.0157 82.9021 62.3098 82.9021 62.3098C87.4373 59.8616 96.5878 54.7645 96.5878 54.7645C89.0426 49.1458 80.7348 42.5637 72.2263 36.1824C69.4169 34.0553 65.9654 32.4098 62.4336 32.3696L52.6408 36.6239L52.3599 53.1993C49.39 52.4368 45.9385 53.7612 44.3732 56.41C42.6474 59.3398 43.41 63.5138 46.0588 65.6409C47.7445 66.9653 50.0722 67.3667 52.1592 66.9252V67.1259C50.7947 76.2765 49.39 83.9421 47.6642 92.0091L46.42 91.2466C19.0083 107.742 0.466332 139.327 1.38942 171.435C1.54996 177.254 3.51651 183.274 7.89115 187.087C13.3494 191.863 21.4565 192.385 28.48 190.699C31.6506 189.937 34.7811 188.773 38.032 188.853C41.0822 188.933 44.012 190.057 47.022 190.418C50.0722 190.779 53.5639 190.017 55.089 187.368L55.8917 186.927C63.5975 184.719 71.3835 182.512 78.2465 178.418C85.1094 174.324 91.0895 168.063 93.0561 160.318C93.2166 159.756 92.9356 158.913 92.5343 158.792C93.6982 158.431 94.5008 157.187 94.3002 155.983C94.3002 155.983 108.347 148.639 116.775 154.659C125.204 160.679 145.271 167.903 157.15 154.578C162.288 148.799 166.341 141.776 167.064 134.07C167.826 125.923 165.097 117.655 166.301 109.548C166.983 104.852 168.95 100.437 170.796 96.0225C172.642 91.6078 174.368 87.1127 174.569 82.3367C174.85 77.641 173.244 72.5841 169.472 69.6543Z" fill="white"/>
<path d="M133.112 1.58643C132.791 0.904145 133.835 0.261998 134.156 0.984414C136.644 6.4828 139.093 11.9411 141.581 17.4394C141.902 18.1217 140.858 18.7639 140.537 18.0415C138.049 12.5431 135.561 7.08482 133.112 1.58643ZM132.109 17.7605C134.397 19.7271 136.644 21.6937 138.932 23.6603C139.534 24.182 140.377 23.2991 139.775 22.8174C137.487 20.8509 135.24 18.8843 132.952 16.9177C132.39 16.4361 131.547 17.2789 132.109 17.7605ZM151.454 3.47272C151.454 7.40587 151.454 11.339 151.454 15.2722C151.454 16.0347 152.658 16.0347 152.658 15.2722C152.658 11.339 152.658 7.40587 152.658 3.47272C152.658 2.71017 151.454 2.71017 151.454 3.47272Z" fill="black"/>
<path d="M62.8005 156.505C71.1083 155.622 79.0549 151.729 84.8342 145.709C85.4764 145.066 86.0783 144.344 86.8008 143.782C84.0716 137.24 81.3826 130.658 78.6535 124.116C77.8909 122.23 76.8475 120.143 74.8407 119.702C73.5966 119.421 72.3123 119.942 71.1484 120.424C66.4527 122.35 61.7971 124.317 57.1014 126.243C55.2954 127.006 53.2887 127.969 52.8071 129.856C52.486 131.14 52.9676 132.464 53.4492 133.708C56.4592 141.374 59.5496 148.959 62.8005 156.505Z" fill="#9ED5F0"/>
<path d="M76.083 124.959C76.083 124.638 76.0027 124.317 75.8422 123.996C75.7619 123.474 75.481 122.953 74.9592 122.712C74.0763 122.27 73.0729 122.632 72.5512 123.434C72.4308 123.595 72.3505 123.796 72.2703 123.996C72.0295 124.478 71.9893 125.08 72.19 125.561C72.3506 125.963 72.6314 126.364 73.0328 126.565C73.3137 126.685 73.5947 126.765 73.8756 126.725C74.1164 126.765 74.3973 126.765 74.6381 126.725C75.4007 126.565 76.0027 125.802 76.083 124.959ZM73.9961 124.398C74.0362 124.398 74.0362 124.398 73.9961 124.398C73.9961 124.398 74.0362 124.438 73.9961 124.398ZM78.0496 131.18C78.0094 131.461 77.8489 131.742 77.6482 131.943C77.4074 132.184 77.0863 132.304 76.7251 132.344C76.4442 132.344 76.1232 132.264 75.8823 132.143C75.7619 132.063 75.6415 131.983 75.5613 131.862C75.4409 131.702 75.3606 131.582 75.2803 131.381C75.1599 131.1 75.1599 130.779 75.2803 130.498C75.4007 130.177 75.6013 129.896 75.9224 129.695C76.2034 129.495 76.6047 129.454 76.9258 129.535C76.9659 129.535 77.0061 129.575 77.0462 129.575C77.0863 129.575 77.1265 129.575 77.1666 129.575C77.4877 129.655 77.7686 129.856 77.9693 130.137C78.0496 130.498 78.0897 130.859 78.0496 131.18Z" fill="black"/>
<path d="M47.827 164.09C47.9073 163.327 49.1113 163.327 49.0311 164.09C48.8705 165.816 48.8706 167.582 48.991 169.307C49.4726 175.408 51.8405 181.388 55.6934 186.124C56.175 186.726 55.3321 187.568 54.8505 186.966C53.6866 185.562 52.6833 184.037 51.7602 182.471C48.6699 176.893 47.2651 170.431 47.827 164.09ZM66.6099 47.9414C66.8507 47.6604 66.8105 47.3394 66.6099 47.0985C65.8874 46.1755 65.1249 45.2524 64.4025 44.3293C64.2018 44.0885 63.7604 44.0885 63.5597 44.3293C63.3189 44.6102 63.359 44.9313 63.5597 45.1721C64.2821 46.0952 65.0447 47.0183 65.7671 47.9414C65.9678 48.1822 66.4092 48.1822 66.6099 47.9414ZM67.533 42.5634C68.5765 43.6068 69.4193 44.851 70.0213 46.1754C70.1417 46.4965 70.1015 46.8176 69.8206 47.0182C69.5798 47.1788 69.1384 47.0985 68.9778 46.8176C68.6969 46.1754 68.3758 45.5734 67.9745 44.9714C67.7738 44.6503 67.6132 44.4497 67.4125 44.2089C67.1717 43.9279 66.9309 43.6871 66.6901 43.4463C66.4493 43.2055 66.4894 42.8443 66.6901 42.6035C66.8908 42.3225 67.3323 42.3226 67.533 42.5634ZM60.5095 41.5199C60.5095 41.5199 60.5496 41.4797 60.5095 41.5199V41.5199ZM60.9108 40.1954C61.1516 40.4362 61.1115 40.8376 60.9108 41.0383C60.8306 41.1186 60.7502 41.2389 60.67 41.3192C60.6298 41.3593 60.5898 41.3995 60.5497 41.4396C60.5497 41.4798 60.5095 41.4797 60.5095 41.5199C60.3489 41.7206 60.2285 41.9212 60.1081 42.1219C60.0279 42.2423 59.9878 42.3226 59.9476 42.443C59.9075 42.4831 59.9074 42.5633 59.8673 42.6035C59.8673 42.6436 59.8272 42.6838 59.8272 42.7239C59.8272 42.6838 59.8272 42.7239 59.8272 42.7239C59.8272 42.764 59.787 42.764 59.787 42.8042C59.7469 42.8443 59.747 42.9246 59.747 42.9647C59.7068 43.0851 59.6667 43.2055 59.6265 43.3259C59.5463 43.647 59.2252 43.8075 58.9041 43.7273C58.583 43.647 58.3824 43.2858 58.5028 43.0048C58.8238 41.9212 59.3858 40.958 60.1483 40.1553C60.2687 39.9546 60.67 39.9948 60.9108 40.1954ZM64.242 38.6302C64.3223 38.5901 64.3623 38.5098 64.4025 38.4697H64.4427C64.5631 38.4296 64.6834 38.4295 64.8038 38.3894C64.8841 38.3894 65.0045 38.3493 65.0847 38.3493C65.1249 38.3493 65.1651 38.3493 65.1651 38.3493C65.2454 38.3493 65.2855 38.3493 65.3658 38.3091C65.8474 38.269 66.3289 38.2289 66.8105 38.2289C67.1316 38.2289 67.4125 37.948 67.4125 37.6269C67.4125 37.3058 67.1316 37.0249 66.8105 37.0249C66.1684 37.0249 65.4861 37.1051 64.844 37.1854C64.5631 37.2255 64.242 37.2656 63.9611 37.3459C63.7604 37.386 63.5597 37.5065 63.4393 37.667C63.2386 37.9078 63.2386 38.1888 63.359 38.4296C63.5597 38.7105 63.961 38.7908 64.242 38.6302ZM64.5229 38.1085C64.5229 38.0683 64.5229 38.1085 64.5229 38.1085C64.5229 38.0683 64.5229 38.0683 64.5229 38.1085ZM74.717 71.139C74.3156 72.3831 73.8742 73.6674 73.0313 74.7109C72.2287 75.7544 70.9845 76.557 69.6601 76.5169C67.6534 76.4768 66.1684 74.6306 65.5263 72.7443C64.9644 71.0988 64.844 69.2928 64.3222 67.6071C64.0012 67.0051 63.8004 66.2827 64.2821 65.8011C64.6031 65.48 65.165 65.48 65.6065 65.6405C66.048 65.8011 66.369 66.1623 66.6901 66.5235C67.9343 67.8078 69.4594 69.1724 71.2253 68.8513C72.3089 68.6506 73.5129 67.8078 74.436 68.4499C75.1986 69.0118 74.9979 70.2159 74.717 71.139ZM76.8441 104.731C76.6434 106.016 76.7237 107.38 77.9277 108.143C78.8508 108.745 79.9745 108.986 80.9378 109.588C81.9411 110.19 82.5833 111.113 82.6636 112.277C82.7438 113.44 82.3024 114.604 82.0215 115.728C81.7405 116.892 81.7807 117.935 82.8242 118.658C83.9078 119.42 84.9513 119.982 85.6335 121.146C86.9178 123.354 86.677 126.163 86.3559 128.611C86.3158 128.932 86.1151 129.213 85.7539 129.213C85.4729 129.213 85.1117 128.932 85.1519 128.611C85.4729 126.163 85.8743 122.912 83.988 120.986C83.1452 120.103 81.8609 119.742 81.1786 118.698C80.5365 117.775 80.5766 116.611 80.8174 115.568C81.0582 114.524 81.4997 113.481 81.4595 112.397C81.4194 111.353 80.6569 110.751 79.7739 110.35C78.8107 109.909 77.8073 109.628 76.9645 108.945C75.9612 108.143 75.5598 106.939 75.5598 105.695C75.5999 104.25 76.202 102.805 75.9612 101.36C75.8006 100.437 74.7973 99.1125 73.7538 99.7546C73.1116 100.156 72.5096 99.1125 73.1518 98.7112C74.3959 97.9486 75.9612 98.671 76.6836 99.7948C77.6468 101.24 77.0849 103.126 76.8441 104.731ZM78.891 105.133C79.0515 105.534 79.3725 105.855 79.7337 106.056C80.0949 106.256 80.5364 106.337 80.9378 106.256C81.3391 106.176 81.6602 105.935 81.901 105.574C82.3425 104.972 82.3023 104.129 81.9411 103.487C81.7806 103.166 81.4997 102.885 81.2188 102.725C80.8174 102.524 80.3759 102.484 79.9344 102.564C79.4929 102.644 79.0917 102.885 78.8107 103.206C78.6502 103.367 78.5298 103.527 78.4094 103.728C78.289 103.969 78.2087 104.21 78.2087 104.49C78.2087 104.651 78.2889 104.812 78.3692 104.932C78.4896 105.052 78.6502 105.133 78.8107 105.093C78.8509 105.133 78.8508 105.133 78.891 105.133ZM80.0148 104.731L80.0548 104.771L80.0148 104.731ZM80.6168 103.768C80.5766 103.768 80.6168 103.768 80.6168 103.768C80.5766 103.768 80.6168 103.768 80.6168 103.768ZM79.9746 103.848C80.0147 103.848 80.0147 103.808 80.0548 103.808C80.095 103.768 80.1752 103.768 80.2555 103.768H80.2957C80.2957 103.768 80.2956 103.768 80.3357 103.768C80.3759 103.768 80.4562 103.768 80.4963 103.768C80.5365 103.768 80.5365 103.768 80.5766 103.768C80.6167 103.768 80.6167 103.768 80.6568 103.808C80.697 103.848 80.7371 103.848 80.7773 103.888L80.8174 103.929L80.8575 103.969C80.8976 104.009 80.8976 104.049 80.9378 104.089C80.9378 104.089 80.9779 104.129 80.9779 104.169C80.9779 104.21 81.0181 104.25 81.0181 104.33V104.37C81.0181 104.41 81.0181 104.49 81.0181 104.531C81.0181 104.571 81.0181 104.571 81.0181 104.611V104.651C81.0181 104.691 81.0181 104.691 81.0181 104.731C81.0181 104.771 81.0181 104.771 80.9779 104.812C80.9779 104.852 80.9378 104.852 80.9378 104.892C80.9378 104.892 80.9378 104.892 80.8977 104.932C80.8977 104.932 80.8976 104.972 80.8575 104.972V104.932C80.8575 104.972 80.8174 104.972 80.8174 104.972C80.8174 104.972 80.7773 104.972 80.7773 105.012C80.7773 105.012 80.7371 105.012 80.7371 105.052C80.697 105.052 80.697 105.052 80.6568 105.093H80.6168H80.5766C80.5365 105.093 80.4562 105.052 80.4161 105.052C80.376 105.052 80.3759 105.012 80.3357 105.012C80.2956 105.012 80.2956 104.972 80.2555 104.972C80.2555 104.972 80.2556 104.972 80.2154 104.972L80.1752 104.932C80.1351 104.892 80.1351 104.892 80.095 104.852C80.095 104.852 80.095 104.852 80.0548 104.812L80.0148 104.771C80.0148 104.731 79.9746 104.731 79.9746 104.691C79.9746 104.651 79.9344 104.571 79.9344 104.571V104.531C79.9344 104.49 79.9344 104.45 79.9746 104.41C80.0147 104.25 79.9746 104.089 79.8943 103.929C79.9345 103.888 79.9746 103.848 79.9746 103.848ZM80.8977 104.932C80.8977 104.892 80.9378 104.892 80.9378 104.892C80.9378 104.892 80.9378 104.892 80.8977 104.932C80.9378 104.892 80.8977 104.892 80.8977 104.932ZM84.8309 117.133C84.8309 117.133 84.8308 117.133 84.8709 117.173C84.8709 117.133 84.871 117.133 84.8309 117.133C84.871 117.133 84.871 117.133 84.8309 117.133ZM84.8709 116.29C84.8709 116.29 84.8309 116.29 84.8309 116.33C84.8309 116.33 84.8709 116.33 84.8709 116.29ZM84.6703 116.571C84.6703 116.531 84.6703 116.531 84.7104 116.531C84.6703 116.491 84.6703 116.531 84.6703 116.571ZM84.5498 118.337C84.911 118.497 85.3525 118.578 85.7539 118.457C86.1151 118.377 86.4362 118.136 86.677 117.815C87.0783 117.253 87.1185 116.491 86.8376 115.889C86.5566 115.246 85.8342 114.885 85.192 114.966C84.7505 115.006 84.3893 115.166 84.0683 115.447C83.7873 115.688 83.5866 116.049 83.5465 116.41C83.5465 116.45 83.5465 116.491 83.5465 116.531V116.571C83.3859 117.333 83.8676 118.056 84.5498 118.337ZM85.5934 116.25C85.5131 116.21 85.5532 116.21 85.5934 116.25V116.25ZM85.5131 116.21C85.4329 116.17 85.473 116.17 85.5131 116.21V116.21ZM84.6703 116.571C84.6703 116.531 84.7104 116.491 84.7104 116.531L84.7505 116.491C84.7906 116.451 84.8308 116.41 84.8709 116.37C84.8709 116.37 84.8309 116.37 84.8309 116.41C84.8309 116.41 84.8709 116.41 84.8709 116.37C84.9111 116.33 84.9512 116.33 84.9111 116.33C84.9512 116.29 84.9913 116.29 85.0716 116.25C85.1117 116.25 85.1117 116.25 85.1519 116.21C85.192 116.21 85.1921 116.21 85.2322 116.21C85.3125 116.21 85.3927 116.21 85.4329 116.21H85.4729H85.5131C85.5533 116.21 85.5532 116.25 85.5934 116.25L85.6335 116.29C85.5934 116.25 85.6335 116.29 85.6335 116.29L85.6736 116.33C85.6335 116.29 85.6335 116.29 85.6335 116.29C85.6335 116.33 85.6736 116.33 85.6736 116.37C85.6736 116.41 85.7138 116.451 85.7138 116.491C85.7138 116.531 85.7138 116.531 85.7138 116.571C85.7138 116.651 85.7138 116.731 85.7138 116.772C85.7138 116.852 85.6736 116.892 85.6736 116.972C85.6736 117.012 85.6335 117.052 85.6335 117.052C85.6335 117.093 85.5934 117.093 85.5934 117.093C85.5532 117.133 85.5533 117.173 85.5131 117.173C85.5131 117.173 85.5532 117.173 85.5532 117.133C85.5532 117.133 85.5131 117.133 85.5131 117.173C85.473 117.213 85.4328 117.213 85.4729 117.173C85.4729 117.173 85.4329 117.173 85.4329 117.213C85.3927 117.213 85.3525 117.213 85.3525 117.253C85.3124 117.253 85.2723 117.253 85.192 117.253C85.1519 117.253 85.1117 117.253 85.0716 117.213H85.0315C84.9914 117.173 84.9111 117.133 84.8709 117.133C84.8709 117.133 84.871 117.133 84.9111 117.173L84.8709 117.133C84.8308 117.133 84.8309 117.093 84.8309 117.093C84.7907 117.053 84.7506 117.012 84.7104 116.972C84.7104 116.932 84.6703 116.932 84.6703 116.892C84.6703 116.892 84.6703 116.852 84.6302 116.852C84.6302 116.812 84.6301 116.772 84.59 116.731C84.59 116.691 84.59 116.651 84.59 116.611C84.6301 116.611 84.6301 116.611 84.6703 116.571C84.6703 116.571 84.6301 116.571 84.6703 116.571C84.6703 116.571 84.6301 116.571 84.6703 116.571ZM85.5131 117.253C85.5131 117.253 85.5533 117.253 85.5131 117.253C85.5533 117.213 85.5533 117.213 85.5131 117.253C85.5533 117.253 85.5131 117.253 85.5131 117.253ZM85.6736 116.33C85.6335 116.29 85.6736 116.33 85.6736 116.33C85.6335 116.29 85.6335 116.29 85.6736 116.33ZM94.1018 154.056C94.0215 154.016 93.9814 153.936 93.9011 153.896C94.744 152.932 95.1855 151.568 94.9447 150.284C94.6637 148.839 93.4195 147.715 91.9747 147.434C92.4563 146.471 92.8175 145.427 92.5767 144.384C92.3359 143.26 91.4129 142.457 90.3292 142.217C87.6001 141.615 85.794 143.862 84.0683 145.588C80.3358 149.361 75.7605 152.25 70.7839 154.016C68.0949 154.979 65.3256 155.581 62.5162 155.862C61.4727 153.173 60.4694 150.444 59.4259 147.755C59.2653 147.394 58.7436 147.113 58.4225 147.474C56.5763 149.802 57.4191 152.772 57.981 155.421C58.2619 156.745 58.5831 158.19 58.3423 159.595C58.0613 161.16 56.9777 162.324 55.5329 162.966C53.4459 163.889 51.078 163.568 48.9107 163.287C48.6699 163.247 48.4692 163.367 48.389 163.568C45.7 159.474 42.0076 155.983 37.4323 154.096C35.4657 153.294 33.2984 152.812 31.1713 152.732C31.372 150.966 31.2516 149.16 31.0108 147.434C30.5693 144.183 29.7265 140.892 30.0075 137.561C30.2483 134.993 31.2918 132.304 33.4591 130.778C34.1012 130.337 33.4992 129.293 32.857 129.735C28.8035 132.504 28.4021 137.802 28.9639 142.257C29.4054 145.508 30.3686 149.28 29.9673 152.732C27.5191 152.812 25.0709 153.374 22.8636 154.538C21.7398 155.1 20.6562 155.822 19.9337 156.866C19.2916 157.789 19.0509 159.033 19.8134 159.996C20.5358 160.919 21.9004 161.24 22.984 161.321C24.0676 161.361 25.1512 161.08 26.1145 160.638C28.2817 159.635 29.8068 157.668 30.5693 155.421C30.7298 154.939 30.8503 154.458 30.9306 153.976C32.4958 154.016 34.1011 154.297 35.5861 154.739C40.5627 156.304 44.6163 159.996 47.3856 164.29C47.6665 164.732 48.2284 164.612 48.429 164.29C48.5093 164.411 48.6698 164.491 48.8304 164.531C50.8772 164.772 53.0445 165.013 55.0512 164.411C56.6967 163.929 58.2218 162.886 58.9844 161.28C60.2687 158.511 59.0245 155.461 58.5028 152.692C58.3021 151.608 58.2218 150.404 58.6232 149.32C59.5463 151.769 60.4694 154.217 61.4326 156.665C61.5129 156.906 61.7536 157.147 61.9944 157.106C66.9711 156.665 71.7872 155.22 76.1618 152.852C78.3291 151.688 80.4161 150.284 82.3024 148.678C83.2656 147.876 84.1486 147.033 85.0315 146.15C85.8744 145.267 86.7171 144.264 87.8008 143.661C88.7238 143.18 90.0483 143.019 90.851 143.822C91.5333 144.504 91.3727 145.468 91.0115 146.35C90.8911 146.431 90.8108 146.511 90.7706 146.672C90.6502 146.952 90.5701 147.233 90.4497 147.474C90.4095 147.514 90.3694 147.595 90.3292 147.635C90.2891 147.675 90.2891 147.755 90.249 147.835C87.4396 153.615 80.8174 156.304 75.1585 158.551C74.4361 158.832 74.7571 159.996 75.4796 159.715C81.4997 157.347 88.2021 154.538 91.2523 148.558C92.3761 148.598 93.4597 149.401 93.6604 150.565C93.7407 151.006 93.7005 151.488 93.54 151.929C93.3393 151.889 93.0984 151.969 92.978 152.21C92.5767 152.812 92.1352 153.374 91.6938 153.976C91.6536 154.016 91.6135 154.056 91.6135 154.096C88.8041 157.628 85.3124 160.598 81.3793 162.805C80.697 163.167 81.299 164.21 81.9813 163.849C86.0349 161.602 89.5667 158.551 92.4564 154.939C92.7373 154.859 93.0182 154.779 93.259 155.02C93.54 155.3 93.7005 155.862 93.7005 156.224C93.7807 157.147 93.1788 157.949 92.3359 158.23C92.1754 158.23 92.0149 158.27 91.8543 158.391C91.5333 158.591 91.4931 158.912 91.6135 159.153C89.6469 162.324 86.8777 164.933 83.6268 166.739C82.9445 167.1 83.5466 168.143 84.2288 167.782C87.56 165.936 90.3693 163.287 92.4162 160.117C92.3761 160.317 92.336 160.518 92.2557 160.719C92.055 161.441 91.8142 162.123 91.5333 162.846C91.0115 164.21 90.3292 165.495 89.5666 166.739C88.0415 169.267 86.075 171.475 83.9078 173.481C79.0114 177.896 72.9912 180.786 66.8507 182.953C63.1584 184.277 59.3857 185.321 55.6131 186.404C55.3322 186.485 55.2118 186.685 55.2118 186.886C54.971 186.766 54.6498 186.806 54.4492 187.127C53.2451 189.174 50.7569 189.896 48.5094 189.976C45.4993 190.057 42.6096 188.893 39.6397 188.491C36.4691 188.05 33.4188 188.812 30.3686 189.655C27.6796 190.378 25.0308 190.94 22.2615 191.06C17.1244 191.261 11.7063 190.057 7.8534 186.485C3.96038 182.873 2.19445 177.455 1.91351 172.277C1.63257 167.18 2.03389 162.003 2.79644 156.986C3.55899 151.929 4.80319 146.912 6.4487 142.056C8.0942 137.2 10.1411 132.504 12.5893 127.969C15.0374 123.434 17.8468 119.059 20.9773 114.966C24.1077 110.872 27.5994 107.019 31.372 103.487C35.1045 99.9955 39.1179 96.7847 43.4123 93.9352C44.4558 93.2529 45.5394 92.5706 46.623 91.8883C47.3053 91.487 46.6631 90.4435 46.021 90.8449C41.4858 93.574 37.2317 96.7044 33.2584 100.156C29.245 103.608 25.5526 107.42 22.1813 111.514C18.81 115.608 15.7598 119.942 13.1109 124.517C10.4621 129.093 8.17445 133.869 6.32828 138.805C4.4821 143.742 3.03723 148.879 2.07401 154.056C1.11079 159.234 0.629176 164.491 0.66931 169.789C0.709444 175.167 1.71286 180.665 5.044 185.08C8.33501 189.455 13.3919 191.702 18.7297 192.184C21.4187 192.425 24.1479 192.264 26.7967 191.742C29.8871 191.18 32.857 189.976 35.9874 189.655C37.6329 189.455 39.2383 189.575 40.8437 189.896C42.4491 190.217 44.0143 190.659 45.6196 190.899C48.108 191.341 50.797 191.301 53.0846 190.097C54.1281 189.535 54.9709 188.732 55.5729 187.729C55.6131 187.649 55.6131 187.608 55.6532 187.528C55.7736 187.568 55.8941 187.568 56.0145 187.528C63.2788 185.441 70.6233 183.354 77.2454 179.662C82.9044 176.531 88.0416 172.077 91.2122 166.377C92.0951 164.812 92.8176 163.167 93.3393 161.441C93.5801 160.678 93.8209 159.916 93.54 159.113C93.54 159.073 93.4998 159.033 93.4998 158.993C94.5032 158.31 95.1052 157.106 94.9045 155.902C94.9045 155.26 94.6637 154.538 94.1018 154.056ZM28.4021 157.307C27.2382 158.953 25.2315 160.237 23.1847 160.197C22.3418 160.197 20.8167 159.916 20.5759 158.913C20.3753 157.869 21.5392 156.906 22.3017 156.384C24.5492 154.899 27.1579 154.137 29.8068 154.016C29.566 155.18 29.1245 156.264 28.4021 157.307ZM55.6131 59.8211C55.4526 60.0619 55.0512 60.2224 54.7703 60.0218C52.884 58.6171 50.4358 58.1355 48.1481 58.7375C47.3856 58.9381 47.0645 57.7742 47.827 57.5736C50.3956 56.8913 53.2452 57.413 55.3723 58.9783C55.6532 59.1789 55.7737 59.5 55.6131 59.8211ZM47.0243 94.7379C46.6631 94.0556 47.7067 93.4536 48.0679 94.1358C48.7903 95.5004 49.7133 96.7044 50.8371 97.7479C55.1716 101.721 61.6734 102.243 66.65 99.1125C67.2922 98.7112 67.8942 99.7546 67.2521 100.156C65.727 101.119 64.0011 101.801 62.1951 102.123C59.1449 102.684 55.9743 102.243 53.1649 100.798C50.5562 99.4737 48.3889 97.3466 47.0243 94.7379ZM95.7072 91.8883C94.9848 93.1325 94.0617 94.2964 93.0182 95.2596C89.2857 98.671 83.8274 100.076 78.9311 98.6309C78.1685 98.4302 78.4896 97.2663 79.2521 97.467C80.5364 97.8282 81.8207 98.0289 83.1451 97.9887C87.8007 97.8683 92.336 95.3399 94.6637 91.2863C95.025 90.604 96.0684 91.2061 95.7072 91.8883ZM175.173 79.7678C174.852 76.5571 173.768 73.3864 171.641 70.8981C171.119 70.2961 170.558 69.7342 169.915 69.2526C169.915 69.2526 169.915 69.2526 169.875 69.2526C170.036 69.052 169.996 68.8513 169.915 68.6506C172.323 63.4733 172.845 57.4933 171.32 51.9949C171.16 51.4732 170.999 50.9514 170.758 50.4698C171.16 50.51 171.561 50.5099 171.962 50.3895C174.21 49.8277 174.37 47.2189 174.17 45.3326C173.929 42.9647 172.966 40.7573 171.681 38.7907C171.039 37.8275 170.357 36.8643 169.594 35.9813C168.872 35.0984 168.19 34.1352 167.387 33.3726C166.705 32.7305 165.822 32.4495 164.939 32.7305C164.698 32.5298 164.497 32.3693 164.216 32.2489C163.052 31.6469 161.246 31.687 160.524 32.9713C160.484 33.0515 160.444 33.1318 160.404 33.2522C159.601 32.6101 158.678 32.1285 157.634 32.289C156.591 32.4495 155.708 33.2522 155.307 34.2155C155.066 34.7773 155.026 35.3392 155.066 35.9412C153.701 35.2991 152.216 34.978 150.611 35.3392C147.922 35.9412 145.915 38.2289 144.751 40.5968C143.146 43.8878 142.985 47.5801 143.266 51.1521C143.587 55.2458 144.47 59.3395 144.23 63.4332C144.189 63.4733 144.149 63.5134 144.109 63.5536C143.989 63.4332 143.788 63.3529 143.587 63.393C142.464 63.5536 141.5 64.3563 140.778 65.159C139.694 66.2827 138.811 67.567 138.009 68.8513C136.002 72.062 134.316 75.4734 132.51 78.8046C131.708 80.2896 130.905 81.7344 129.982 83.1391C129.38 84.0621 128.577 85.1458 127.774 85.7077C123.801 88.4368 120.751 93.0924 121.192 98.1091C121.313 99.5138 121.794 100.758 122.236 102.082C122.677 103.407 122.958 104.771 122.276 106.096C121.714 107.179 120.831 108.062 120.069 108.986C119.266 109.949 118.584 110.992 118.062 112.116C117.741 112.838 117.46 113.601 117.219 114.364C116.818 113.601 116.457 112.838 116.136 112.076C115.052 109.628 114.049 107.179 112.724 104.892C111.44 102.725 109.915 100.638 108.229 98.7513C104.858 95.0188 100.724 91.8884 96.1487 89.8014C95.2256 89.3599 94.2624 88.9987 93.259 88.6375C93.2189 88.3967 93.0583 88.196 92.8175 88.1157C91.4931 84.3431 90.1285 80.5705 88.7639 76.7979C87.3191 72.7845 85.8744 68.7309 84.4295 64.7175C84.1887 64.0352 83.9478 63.3128 83.6669 62.6305C87.6803 60.4231 91.6938 58.2157 95.7072 55.9682C96.1085 55.7274 96.5099 55.5267 96.9112 55.2859C97.3527 55.0451 97.2724 54.4832 96.9112 54.2424C92.5767 50.9915 88.2422 47.6604 83.9478 44.3694C81.6602 42.6035 79.4127 40.8777 77.125 39.152C74.9578 37.5064 72.8307 35.7004 70.4628 34.2957C68.8574 33.3325 67.0915 32.5699 65.2453 32.1686C66.2487 31.687 67.2922 31.0047 68.2554 30.0415C70.7036 27.5933 71.9076 19.6467 66.8908 15.6333C62.757 26.4294 55.2118 21.2521 46.9843 28.115C40.6029 33.4128 44.4157 46.8577 49.2719 52.5969C47.0645 52.9983 45.0578 54.2826 43.894 56.209C42.0076 59.4197 42.8103 63.9148 45.7401 66.2024C47.1046 67.2861 48.7903 67.8078 50.5161 67.8078C50.8372 67.8078 51.1984 67.7677 51.5195 67.7276C50.5964 74.0286 49.4725 80.3297 48.2284 86.5906C47.8672 88.3565 47.506 90.1224 47.1448 91.9285C47.0244 92.4101 47.506 92.7312 47.8672 92.6509C53.4057 94.9787 59.3456 96.263 65.3658 96.4235C71.5063 96.6242 77.687 95.7011 83.5064 93.6944C86.5566 92.6509 89.5265 91.2462 92.2958 89.6007C92.3359 89.6007 92.3359 89.6408 92.376 89.6408C101.607 92.7312 109.192 99.8751 113.286 108.664C114.37 110.992 115.253 113.44 116.497 115.688C116.577 115.808 116.657 115.969 116.738 116.089C116.095 119.701 116.577 123.554 118.383 126.725C119.547 128.772 121.835 130.778 124.323 129.815C126.811 128.892 126.811 125.922 125.768 123.875C124.564 121.467 121.915 120.384 120.069 118.537C119.226 117.735 118.544 116.812 117.942 115.808C118.102 115.086 118.303 114.323 118.544 113.641C118.945 112.557 119.467 111.554 120.149 110.631C120.831 109.628 121.714 108.785 122.437 107.822C123.159 106.899 123.681 105.815 123.761 104.651C123.841 103.246 123.279 101.882 122.838 100.557C122.035 98.2295 122.075 95.8616 122.878 93.5338C123.681 91.2863 125.126 89.2796 126.891 87.7545C127.534 87.2327 128.256 86.7913 128.858 86.2695C129.259 85.9083 129.621 85.4669 129.982 85.0254C130.905 83.8615 131.667 82.5772 132.39 81.333C134.196 78.2025 135.761 74.9918 137.567 71.8613C138.41 70.4165 139.253 68.9316 140.256 67.567C140.938 66.6038 141.781 65.6004 142.744 64.9984C143.146 64.7576 143.387 64.6372 143.868 64.5569C143.949 64.5569 144.029 64.5168 144.109 64.4766C144.109 64.7174 144.23 64.878 144.43 64.9583C145.955 68.2493 148.644 71.0185 151.935 72.5838C155.628 74.3497 159.962 74.5102 163.815 73.1055C165.701 72.4232 167.427 71.3797 168.952 70.0553L168.992 70.0954C171.521 72.062 173.006 74.9517 173.648 78.042C174.37 81.5738 173.889 85.2261 172.885 88.6776C170.718 96.1426 166.343 102.925 165.581 110.792C164.778 118.738 167.347 126.645 166.464 134.591C165.701 141.534 162.29 148.036 157.674 153.213C152.858 158.632 146.758 162.765 140.336 166.056C139.534 166.458 138.731 166.859 137.928 167.22C137.246 167.541 137.848 168.585 138.53 168.264C145.193 165.093 151.574 161.16 156.791 155.902C161.808 150.846 165.701 144.504 167.186 137.521C167.989 133.668 167.949 129.775 167.588 125.882C167.226 121.828 166.584 117.775 166.624 113.721C166.664 109.668 167.588 105.815 169.032 102.002C170.437 98.2697 172.163 94.6576 173.447 90.8449C174.731 87.313 175.534 83.5003 175.173 79.7678ZM75.6401 94.4971C69.7403 95.5406 63.6399 95.5004 57.7803 94.3766C54.5696 93.7746 51.4391 92.8114 48.429 91.5672C49.7133 85.4668 50.8773 79.3665 51.8806 73.2259C52.2017 71.2995 52.4826 69.373 52.7636 67.4867C53.9274 67.1656 55.0111 66.5637 55.894 65.7208C56.1348 65.48 56.1348 65.1188 55.894 64.878C55.6532 64.6372 55.292 64.6372 55.0512 64.878C52.8438 67.0051 48.9107 67.2058 46.4625 65.2793C44.0544 63.3529 43.3321 59.5 44.8973 56.8511C46.4625 54.2023 50.1949 52.9581 53.0445 54.1622C53.3655 54.2826 53.6866 54.1621 53.8472 53.8411C53.9676 53.52 53.8472 53.1989 53.5262 53.0384C53.2854 52.918 53.0044 52.8377 52.7636 52.7575L54.1282 52.4364C58.1015 48.3427 56.1348 43.8878 56.4559 40.1553C56.9375 34.6168 59.7469 34.1352 62.9978 33.0516C68.0948 33.3726 72.1083 36.8643 76.0013 39.8343C80.4161 43.2055 84.7906 46.5768 89.1653 49.9481C91.2523 51.5534 93.3393 53.1187 95.4664 54.7241C92.3761 56.4498 89.2455 58.1756 86.1552 59.9014C84.9512 60.5435 83.7873 61.2258 82.5833 61.8679C82.3826 61.9883 82.2221 62.3094 82.3024 62.5502C83.1452 64.9181 83.988 67.2459 84.8309 69.6138C86.4362 74.0687 88.0416 78.5638 89.647 83.0588C90.3292 84.9451 90.9714 86.7913 91.6537 88.6776C86.7573 91.5271 81.299 93.4937 75.6401 94.4971ZM118.584 118.658C119.427 119.661 120.43 120.464 121.473 121.226C123.32 122.591 125.487 124.237 125.326 126.805C125.246 127.889 124.524 128.732 123.44 128.852C122.276 128.972 121.233 128.37 120.47 127.568C118.865 125.842 118.062 123.193 117.781 120.905C117.661 119.822 117.661 118.738 117.741 117.654C118.022 117.976 118.303 118.337 118.584 118.658ZM167.106 34.8175C168.31 36.2222 169.514 37.6268 170.517 39.1921C171.521 40.677 172.323 42.2824 172.725 44.0484C172.925 44.8912 173.046 45.7741 173.006 46.6571C172.966 47.4196 172.925 48.423 172.283 48.9447C171.2 49.8277 169.956 49.1855 169.193 48.2223C169.434 47.7407 169.554 47.2189 169.675 46.7373C169.835 45.9748 169.955 45.132 169.955 44.3694C169.996 42.764 169.675 41.1587 169.153 39.6336C168.631 38.1888 167.909 36.784 167.106 35.4997C166.785 34.978 166.424 34.4562 166.062 33.9746C166.504 34.0549 166.825 34.4563 167.106 34.8175ZM162.049 33.2121C163.012 32.6904 164.056 33.4128 164.698 34.1352C165.501 35.0181 166.143 36.0616 166.705 37.1051C167.307 38.1887 167.828 39.3125 168.19 40.4764C168.551 41.6804 168.792 42.9246 168.751 44.2089C168.751 44.851 168.711 45.4932 168.551 46.0952C168.471 46.4163 168.39 46.7373 168.31 47.0584C168.23 47.2992 168.15 47.7808 167.909 47.9012C167.548 48.0216 167.106 47.3795 166.986 47.1387C166.624 46.5768 166.343 45.9748 166.062 45.3728C165.942 45.1721 165.862 44.9714 165.782 44.7707C165.621 43.6871 165.461 42.5634 165.18 41.4798C164.698 39.3526 163.895 37.2657 162.611 35.4997C162.21 34.9379 161.768 34.4562 161.287 33.9746C161.527 33.774 161.969 33.2522 162.049 33.2121ZM157.995 33.4529C158.758 33.3726 159.521 33.9747 160.042 34.4563C160.604 34.9379 161.126 35.4997 161.567 36.1419C163.654 39.0315 164.257 42.6035 164.698 46.0551C164.818 46.8578 165.22 48.2223 164.377 48.744C163.855 49.0651 163.293 48.9447 162.812 48.5835C162.852 48.5835 162.852 48.5434 162.892 48.5434C163.695 47.8611 164.417 46.6972 164.176 45.6136C163.976 44.7306 163.173 44.1286 162.37 43.7674C161.407 43.3259 160.444 43.1252 159.44 43.0048C159.2 40.8777 158.236 38.9513 156.711 37.5065C156.711 37.4262 156.671 37.3459 156.631 37.2657C156.069 35.9412 156.149 33.6536 157.995 33.4529ZM145.072 43.1654C145.795 40.7573 147.199 38.3092 149.487 37.065C150.49 36.5031 151.654 36.2623 152.778 36.4229C153.581 36.5433 154.303 36.8242 154.985 37.1854C154.985 37.386 155.106 37.6268 155.266 37.7473C156.872 38.9914 157.955 40.9179 158.236 42.9246C157.715 42.9246 157.193 42.9246 156.671 42.9647C155.226 43.045 153.822 43.1654 152.457 43.4865C151.614 42.6436 150.892 41.6804 150.41 40.5566C150.29 40.2757 149.848 40.1954 149.567 40.356C149.246 40.5165 149.206 40.8777 149.367 41.1988C149.808 42.162 150.41 43.0851 151.133 43.8477C150.892 43.928 150.651 44.0082 150.41 44.0885C147.801 45.0918 145.875 47.1387 144.31 49.4263C144.31 47.2992 144.47 45.2122 145.072 43.1654ZM168.751 68.3296C168.671 68.45 168.671 68.6105 168.711 68.7309C166.063 71.3396 162.41 72.8246 158.678 72.8647C154.945 72.9048 151.373 71.3797 148.684 68.8112C147.28 67.4867 146.156 65.8412 145.434 64.0753C145.835 59.5803 144.711 55.0451 144.43 50.51C144.671 50.6304 145.032 50.6304 145.233 50.3093C146.437 48.4631 147.882 46.7373 149.848 45.6938C151.534 44.7708 153.581 44.3694 155.507 44.2089C156.992 44.0884 158.598 43.9681 160.083 44.249C160.965 44.4096 161.969 44.6504 162.651 45.2524C163.293 45.7741 163.093 46.5367 162.611 47.1387C162.41 47.3795 162.21 47.54 162.009 47.7407C161.688 47.6604 161.327 47.8611 161.246 48.142C160.644 48.3828 159.962 48.5032 159.28 48.5434C157.835 48.6638 156.35 48.6237 154.905 48.6638C154.263 48.6638 154.143 49.4664 154.584 49.7875C155.828 50.6705 156.31 52.2357 156.31 53.6806C156.31 55.5669 155.467 57.3328 154.745 58.9783C154.424 59.6606 155.467 60.3027 155.788 59.5803C156.671 57.6137 157.594 55.5669 157.514 53.3595C157.474 52.0752 157.072 50.831 156.31 49.8276C157.353 49.8276 158.397 49.7875 159.44 49.7073C160.243 49.627 161.046 49.4664 161.808 49.1855C162.33 49.7073 163.012 50.0685 163.815 50.0685C164.738 50.0685 165.661 49.5066 165.982 48.6236C166.063 48.3828 166.103 48.142 166.143 47.8611C166.664 48.5835 167.507 49.2658 168.31 49.025C168.671 49.4263 169.032 49.8678 169.353 50.3494C169.755 50.9514 169.875 51.2725 170.076 51.9548C170.838 54.4832 171.119 57.1321 170.959 59.7408C170.798 62.7108 170.036 65.6406 168.751 68.3296Z" fill="black"/>
<path d="M140.858 40.0756C139.815 38.1492 138.049 36.7444 135.922 36.1424C131.587 34.8983 127.012 37.4669 125.768 41.8415C125.166 43.9686 125.407 46.176 126.49 48.1025C127.534 50.0289 129.3 51.4336 131.427 52.0356C132.149 52.2362 132.912 52.3567 133.634 52.3567C137.005 52.3567 140.096 50.2697 141.34 47.0188L146.036 47.1793C147.159 45.9753 148.323 45.1727 148.805 44.8516L141.862 44.6107C141.982 43.0856 141.621 41.4803 140.858 40.0756ZM132.069 49.7479C130.584 49.3065 129.34 48.3432 128.617 46.9787C127.855 45.6141 127.694 44.0489 128.096 42.5238C128.818 39.9552 131.186 38.2294 133.714 38.2294C134.236 38.2294 134.758 38.3097 135.28 38.4301C136.765 38.8716 138.009 39.8348 138.731 41.1993C139.373 42.3231 139.574 43.6074 139.413 44.8516C139.173 45.0523 139.012 45.3733 139.012 45.6944C139.012 45.8549 139.052 45.9753 139.092 46.1359C138.009 48.9854 134.999 50.5908 132.069 49.7479ZM187.334 47.3399C187.334 48.0222 186.812 48.5439 186.13 48.5439H181.314C181.113 48.5439 180.952 48.5038 180.792 48.4235L174.049 48.1827C174.049 48.1827 174.33 46.8181 174.25 45.7746L177.14 45.8951L177.099 41.079C177.099 40.3967 177.621 39.8749 178.304 39.8749C178.986 39.8749 179.508 40.3967 179.508 41.079L179.548 45.9753L181.273 46.0556L181.394 37.3465C181.394 36.7043 181.956 36.1424 182.598 36.1424C183.28 36.1424 183.802 36.7043 183.802 37.3465L183.681 46.0957H186.13C186.812 46.1359 187.334 46.6576 187.334 47.3399Z" fill="#FFE945"/>
</svg>
