<svg width="116" height="158" viewBox="0 0 116 158" fill="none" xmlns="http://www.w3.org/2000/svg">
<path d="M48.0333 84.8666C49.5361 79.6784 51.3278 75.3307 53.4375 71.7656C55.5471 68.2005 58.3214 64.1137 61.7315 59.5052C64.2169 56.085 66.182 53.2445 67.5981 51.0417C69.0141 48.8389 70.199 46.3752 71.1527 43.6507C72.0774 40.9261 72.5398 38.0277 72.5398 34.8974V34.8104C72.5398 29.3903 71.1526 25.1875 68.3783 22.1731C65.604 19.1877 61.7315 17.6805 56.7609 17.6805C51.7324 17.6805 47.831 19.5355 45.0567 23.2456C42.2824 26.9556 40.8664 32.2018 40.8086 39.0131V39.1001H21.5039V39.0131C21.764 30.7815 23.2956 23.7383 26.1567 17.9124C29.0177 12.0865 33.0347 7.6229 38.1787 4.57953C43.3517 1.53616 49.4783 0 56.5586 0C63.9568 0 70.3146 1.36226 75.5742 4.11579C80.8628 6.86931 84.8798 10.8402 87.6541 16.0574C90.4284 21.2746 91.8156 27.5353 91.8156 34.8974V34.9843C91.8156 39.4189 91.2376 43.3898 90.0816 46.9549C88.9257 50.52 87.5385 53.5924 85.8913 56.2299C84.244 58.8385 81.9899 62.0268 79.1288 65.7658C76.0077 69.7657 73.4935 73.3018 71.5862 76.3742C69.6499 79.4755 68.0316 83.1855 66.7311 87.5042C65.4306 91.8519 64.7659 96.8372 64.7659 102.518H45.7503C45.8081 95.9387 46.5306 90.0548 48.0333 84.8666ZM45.3168 117.445H65.2861V137.473H45.3168V117.445Z" fill="#F4F6F9"/>
<path d="M114.791 132.517C112.19 125.387 113.635 122.372 112.624 114.952C111.526 106.981 109.04 98.8078 105.746 91.6197C104.619 89.156 102.682 86.1996 100.833 84.0837C92.8856 75.0405 85.5741 66.9249 73.9566 61.6787V61.7366C73.8121 60.9251 73.6676 60.1135 73.4942 59.3309C74.5346 58.3165 75.8062 57.4179 77.0777 56.5484C79.2163 55.0702 81.3259 53.592 83.4644 52.1428C83.9846 51.795 84.5048 51.4181 84.7938 50.9544C85.0828 50.4906 85.1117 49.882 84.6782 49.5632C84.3603 49.3313 83.869 49.3023 83.4066 49.2443C82.713 49.1864 81.9906 49.1284 81.297 49.2733C80.6034 49.3893 79.9387 49.6791 79.3318 49.9979C76.8176 51.2153 74.5635 52.6645 72.3672 54.2007C71.6736 51.2443 70.8933 48.1429 70.0841 44.4329C70.0841 44.3749 70.0841 44.3459 70.113 44.288C71.5869 44.6648 73.2341 44.4329 74.4479 43.5054C76.3841 42.0562 77.0199 39.0997 75.8351 36.9839C74.8814 35.2738 72.8296 34.2593 70.8933 34.4332C71.0956 24.8973 69.0438 19.2454 63.524 19.5062C61.0387 19.4482 58.5533 20.5497 56.5015 21.9989C50.346 26.3466 44.3061 30.8681 38.8441 34.6941C38.8441 34.6941 45.2308 38.52 48.3809 40.3751C48.3809 40.3751 45.6932 50.3747 43.5258 57.2151C43.4391 57.2151 43.3813 57.1861 43.2946 57.1861C42.023 57.1281 40.607 57.7658 40.2602 58.8092C40.0001 59.6208 40.4047 60.5193 41.0116 61.1859C41.185 61.3888 41.3873 61.5627 41.5896 61.7366C29.423 70.7508 21.2157 75.3883 14.1065 87.272C11.5055 91.5907 5.8991 99.9962 4.28075 104.663C2.31561 110.373 0.177069 115.88 3.12478 122.053C2.14221 122.198 0.639434 122.72 0.466039 123.59C0.263745 124.546 0.552751 125.532 0.841742 126.459C1.15963 127.531 1.59312 128.72 2.72019 129.242C1.50642 129.908 0.812843 131.212 0.986238 132.459C1.15963 133.705 2.2289 134.807 3.58716 135.183C2.02661 136.111 2.3445 138.372 3.73166 139.473C5.14772 140.574 7.17066 140.806 9.04911 140.951C10.9276 141.096 12.9216 141.183 14.5111 142.111L14.7133 141.85C14.7422 143.27 15.956 144.458 17.2854 145.299C23.7588 149.444 34.6248 148.226 41.185 152.255L41.8497 152.98C43.9593 155.444 46.9648 157.733 50.4905 157.704C52.9469 157.675 55.201 156.545 57.224 155.328C60.5474 153.299 63.6107 150.835 65.9516 147.966C72.3961 149.792 77.8002 147.067 84.4759 148.661C95.1686 151.212 110.37 148.052 112.537 144.169C114.647 140.546 116.178 136.314 114.791 132.517Z" fill="white"/>
<path d="M23.7013 26.5787C23.9903 28.5787 24.0481 30.6365 24.1637 32.6655C24.1926 33.2162 23.3256 33.2162 23.2967 32.6655C23.1811 30.7815 23.1234 28.8685 22.8922 27.0135C22.7188 25.5932 22.3431 24.0571 21.4183 22.9267C20.638 21.9992 19.4532 21.3036 18.2105 21.2746C16.9967 21.2746 15.8408 22.0572 15.6674 23.3035C15.5807 23.8832 15.783 24.4918 16.2743 24.8396C16.7077 25.1585 17.3146 25.3034 17.8059 25.0135C18.2972 24.7527 18.7307 25.5063 18.2394 25.7672C16.6788 26.6077 14.7715 25.2744 14.7715 23.5643C14.7715 21.9702 16.072 20.6369 17.6325 20.405C19.1064 20.2021 20.638 20.8688 21.6784 21.8832C22.9211 23.1296 23.4701 24.8976 23.7013 26.5787ZM28.8165 38.8102C28.7876 38.8102 28.8165 38.8102 28.8165 38.8102C28.7876 38.8102 28.7876 38.8102 28.8165 38.8102C28.7876 38.7812 28.7876 38.7812 28.7876 38.7812C28.7876 38.8102 28.7876 38.8102 28.8165 38.8102ZM28.7009 39.187C28.7009 39.158 28.7009 39.158 28.7009 39.187V39.187ZM29.6835 38.8971C29.6546 39.4478 29.3078 39.8536 28.8743 40.1725C28.7876 40.2304 28.7009 40.2884 28.6142 40.3464C28.4986 40.4333 28.3541 40.4623 28.2096 40.4333C28.1518 40.4043 28.094 40.3753 28.0362 40.3464C27.8339 40.2014 27.6894 39.9986 27.6027 39.7377C27.4871 39.3899 27.5449 38.9261 27.805 38.6363C27.7761 38.5493 27.7761 38.4624 27.805 38.3754C27.8917 38.1146 28.094 37.9117 28.3541 37.8247C28.5853 37.7668 28.8165 37.7957 29.0188 37.8827C29.3945 38.0856 29.7124 38.4624 29.6835 38.8971ZM28.4119 39.5348C28.4119 39.5058 28.4119 39.5348 28.4119 39.5348C28.4119 39.5058 28.4119 39.5058 28.4119 39.5348ZM28.4408 39.187C28.4697 39.158 28.4986 39.129 28.4408 39.187V39.187ZM28.6142 38.6073C28.6142 38.6363 28.6142 38.6363 28.6142 38.6073C28.5853 38.6363 28.5853 38.6363 28.6142 38.6073C28.6142 38.6363 28.6142 38.6363 28.6142 38.6073ZM28.7587 39.1C28.7587 39.0711 28.7876 39.0421 28.7876 39.0421C28.7876 39.0131 28.8165 38.9841 28.8165 38.9261C28.8165 38.8971 28.8165 38.8682 28.8165 38.8392L28.7876 38.8102V38.8392C28.7587 38.8102 28.7587 38.8102 28.7298 38.7812C28.7298 38.7812 28.7298 38.7812 28.7009 38.7812C28.672 38.7812 28.6431 38.7522 28.6431 38.7522H28.6142C28.6142 38.7522 28.6142 38.7522 28.5853 38.7522C28.5853 38.8102 28.6142 38.8392 28.6142 38.8971C28.6142 38.9841 28.5564 39.129 28.4986 39.216C28.4697 39.2449 28.4408 39.2739 28.4119 39.2739L28.383 39.3029V39.3319C28.383 39.3609 28.383 39.3609 28.383 39.3899C28.383 39.4189 28.383 39.4768 28.383 39.5058C28.383 39.5058 28.383 39.5058 28.383 39.5348C28.4119 39.5058 28.4986 39.4479 28.383 39.5348C28.4119 39.5058 28.4119 39.5058 28.4408 39.4768C28.4986 39.4478 28.5275 39.3899 28.5853 39.3609C28.6142 39.3319 28.6142 39.3319 28.6431 39.3029L28.672 39.2739C28.672 39.2739 28.672 39.3029 28.6431 39.3029C28.7009 39.187 28.7298 39.129 28.7587 39.1ZM113.578 52.288C113.029 52.1431 112.797 52.9836 113.347 53.1285C114.791 53.5053 115.398 55.1864 114.994 56.5197C114.531 58.0559 113.058 59.1573 111.584 59.621C109.994 60.1138 108.231 59.9689 106.758 59.1573C105.37 58.4037 104.041 57.2153 102.365 57.1574C100.949 57.0994 99.3304 57.9399 99.2437 59.5051C99.2148 60.0558 100.082 60.0558 100.111 59.5051C100.197 58.1138 102.076 57.853 103.116 58.1718C103.983 58.4327 104.735 58.9834 105.486 59.4472C106.266 59.9109 107.047 60.3457 107.942 60.5776C109.619 61.0123 111.439 60.8094 112.971 59.9979C114.387 59.2733 115.658 57.9399 115.947 56.2878C116.236 54.6067 115.312 52.7228 113.578 52.288ZM94.7933 61.4471C94.7933 61.4181 94.7933 61.4471 94.7933 61.4471V61.4471ZM95.5736 60.8964C95.718 61.2152 95.7469 61.592 95.5446 61.9108C95.4001 62.1427 95.169 62.2876 94.88 62.3456C94.6199 62.4036 94.3309 62.3746 94.0997 62.2297L94.0708 62.2007C93.6951 62.3456 93.2038 62.2297 92.9726 61.8529C92.9437 61.7949 92.8859 61.7079 92.8859 61.65C92.857 61.534 92.8859 61.4181 92.9437 61.3022C93.0015 61.1572 93.0593 61.0123 93.1749 60.8964C93.3772 60.6065 93.6373 60.4037 93.9841 60.2587C94.5332 59.9979 95.2846 60.2877 95.5736 60.8964ZM94.3309 61.0123C94.302 61.0123 94.2731 61.0413 94.2442 61.0413H94.2153H94.1864C94.2153 61.0413 94.2442 61.0703 94.302 61.0703C94.4754 61.0993 94.591 61.2732 94.6199 61.4471H94.6488H94.6777H94.7066H94.7355C94.7355 61.4471 94.7644 61.4471 94.7933 61.4181C94.7933 61.4181 94.7933 61.4181 94.7933 61.3891V61.3601C94.7933 61.3601 94.7933 61.3601 94.7933 61.3311V61.3022V61.3311V61.3022C94.7933 61.3022 94.7933 61.3022 94.7933 61.2732V61.2442C94.7644 61.2152 94.7644 61.1862 94.7355 61.1572C94.7355 61.1572 94.7355 61.1572 94.7066 61.1283C94.6777 61.0993 94.6488 61.0703 94.6199 61.0703C94.6199 61.0703 94.6199 61.0703 94.591 61.0703C94.5621 61.0703 94.5332 61.0413 94.5043 61.0123C94.5332 61.0123 94.5621 61.0123 94.5043 61.0123H94.4754H94.4465C94.4176 61.0123 94.302 60.9833 94.3887 60.9833C94.4176 60.9833 94.4465 61.0123 94.3887 60.9833C94.3598 60.9833 94.3598 60.9833 94.3309 60.9833C94.3598 61.0123 94.3598 61.0123 94.3309 61.0123C94.3309 61.0123 94.302 61.0123 94.3309 61.0123C94.3309 61.0123 94.302 61.0123 94.3309 61.0123ZM94.8222 61.3891V61.3601C94.7933 61.3601 94.7933 61.3891 94.8222 61.3891ZM94.7933 61.3311C94.7933 61.3022 94.7933 61.3311 94.7933 61.3311V61.3022V61.3311ZM94.3598 61.0123H94.3309C94.3598 61.0413 94.3598 61.0123 94.3598 61.0123ZM107.913 19.2746C107.798 18.1732 107.393 17.0718 106.613 16.2602C105.919 15.5646 104.995 15.1009 104.041 14.927C103.001 14.7241 101.845 14.84 100.92 15.4197C100.111 15.9124 98.8391 17.4486 99.9951 18.2312C100.457 18.55 100.891 17.7964 100.429 17.4776C100.197 17.3327 100.804 16.608 100.949 16.4631C101.238 16.2023 101.585 15.9994 101.96 15.8545C102.769 15.5936 103.636 15.6226 104.417 15.8834C105.226 16.1443 105.948 16.6371 106.411 17.3617C106.989 18.2892 107.162 19.4196 107.018 20.463C106.7 22.8397 105.081 24.7237 103.116 25.9121C100.891 27.2744 98.3768 27.7671 95.9492 28.6366C94.6488 29.1004 93.3483 29.767 92.5102 30.8974C91.7299 31.9409 91.2965 33.2741 91.7011 34.5495C91.8745 35.0712 92.7125 34.8393 92.5391 34.3176C92.1346 33.0713 92.7414 31.7959 93.6373 30.9264C94.6488 29.9409 96.0648 29.4772 97.3653 29.1004C99.9951 28.2888 102.683 27.5062 104.85 25.7382C106.758 24.26 108.145 21.7963 107.913 19.2746ZM91.0653 39.187C90.8919 39.187 90.7185 39.187 90.5451 39.187C90.4873 39.187 90.4295 39.187 90.3717 39.216C90.3139 39.2449 90.285 39.2739 90.2272 39.3029C90.1983 39.3319 90.1694 39.3899 90.1405 39.4478C90.1116 39.5058 90.1116 39.5638 90.1116 39.6217C90.1116 39.7377 90.1405 39.8536 90.2272 39.9406C90.3139 40.0275 90.4295 40.0565 90.5451 40.0565C90.7185 40.0565 90.8919 40.0565 91.0653 40.0565C91.1231 40.0565 91.1809 40.0565 91.2387 40.0275C91.2965 39.9986 91.3254 39.9696 91.3832 39.9406C91.4121 39.9116 91.441 39.8536 91.4699 39.7956C91.4988 39.7377 91.4987 39.6797 91.4987 39.6217C91.4987 39.5058 91.4699 39.3899 91.3832 39.3029C91.2965 39.216 91.1809 39.187 91.0653 39.187Z" fill="black"/>
<path d="M48.9009 80.8955C48.4097 80.6347 48.8431 79.8811 49.3344 80.142C53.1491 82.1709 57.7152 82.7505 61.9345 81.91C62.4835 81.7941 62.7147 82.6346 62.1656 82.7506C57.7152 83.6491 52.9468 83.0114 48.9009 80.8955ZM115.716 137.386C115.6 139.241 115.08 141.038 114.126 142.633C113.202 144.14 111.93 145.386 110.485 146.343C107.017 148.661 102.711 149.502 98.6364 149.821C96.2089 150.024 93.7524 149.995 91.3249 149.85C90.0244 149.763 88.724 149.647 87.4235 149.473C86.0363 149.299 84.707 149.038 83.3487 148.806C80.3721 148.314 77.3955 148.632 74.4189 148.864C71.7024 149.067 69.0147 149.096 66.356 148.429C65.1133 150.024 63.6973 151.444 62.1078 152.69C61.3565 153.27 60.6051 153.821 59.7959 154.342C58.9 154.922 57.9753 155.415 57.1083 155.994C55.4899 157.096 53.5826 157.791 51.6174 157.965C47.7739 158.284 44.1037 156.371 41.7339 153.386C41.5605 153.154 41.3582 152.922 41.1848 152.661C41.1559 152.661 41.0982 152.632 41.0404 152.603C38.9596 151.328 36.5899 150.632 34.2202 150.14C29.7697 149.183 25.1458 148.864 20.8109 147.386C18.788 146.69 16.5339 145.705 15.1756 143.937C14.8288 143.502 14.5976 143.009 14.4531 142.488C14.4242 142.488 14.3953 142.459 14.3664 142.459C13.0949 141.734 11.621 141.56 10.1761 141.444C7.89304 141.27 5.1476 141.27 3.32695 139.618C2.11318 138.517 1.76642 136.546 2.80679 135.328C1.73752 134.807 0.812715 133.85 0.610421 132.633C0.379228 131.329 0.986131 130.082 1.9687 129.271C1.47742 128.894 1.13061 128.372 0.870521 127.792C0.494832 126.952 0.205861 125.995 0.0613652 125.097C-0.0831306 124.169 0.00354576 123.213 0.581529 122.43C1.04392 121.822 1.6797 121.416 2.43108 121.3C-0.140943 113.648 2.83568 105.445 6.41918 98.5761C7.51735 96.4892 8.70221 94.4313 9.91597 92.4024C11.0719 90.4894 12.2279 88.5764 13.4705 86.7214C15.7536 83.3592 18.3256 80.1709 21.1288 77.2725C27.0821 71.0988 33.5266 66.3453 40.7225 61.7658C40.0289 61.0122 39.5087 60.0557 39.8555 59.0122C40.2601 57.7659 41.6761 57.1283 42.8899 57.0703C42.9766 57.0703 43.0633 57.0703 43.1211 57.0703C43.1789 56.8964 43.2367 56.6935 43.2945 56.5196C44.3927 52.9835 45.433 49.4184 46.4156 45.8533C46.9069 44.1142 47.3982 42.3751 47.8605 40.6071C47.1381 40.1723 46.4156 39.7665 45.6931 39.3318C43.3234 37.9405 40.9537 36.5203 38.5839 35.1C38.2949 34.9261 38.3238 34.5203 38.5839 34.3464C40.3179 33.1291 42.0518 31.8827 43.7858 30.6364C47.0225 28.3176 50.2303 25.9409 53.467 23.6222C55.0275 22.4918 56.5881 21.2744 58.2932 20.4049C59.3046 19.8832 60.3739 19.5064 61.4721 19.2745C60.7785 18.8977 60.056 18.405 59.3913 17.7093C57.6863 15.9123 57.0216 10.2313 60.6629 7.47778C63.3505 15.2456 68.8414 11.7385 74.5345 16.7528C78.9272 20.6657 75.9794 30.1437 72.3959 34.1145C73.9276 34.4334 75.3726 35.3899 76.1239 36.7811C77.3955 39.0999 76.7308 42.2882 74.5923 43.8533C73.6675 44.549 72.5116 44.8968 71.3556 44.8968C71.0666 44.8968 70.8065 44.8678 70.5175 44.8388C70.7776 46.0851 71.0666 47.3025 71.3556 48.5488C71.7602 50.2589 72.1937 51.998 72.5983 53.7081C73.0606 53.3892 73.523 53.0704 74.0143 52.7516C75.3725 51.8821 76.7308 51.0415 78.1758 50.3169C78.8983 49.9401 79.6208 49.5633 80.401 49.3024C81.1813 49.0416 81.9905 49.0126 82.7996 49.0416C83.4932 49.0706 84.3313 49.0705 84.9093 49.5053C85.4295 49.9401 85.4873 50.6647 85.1983 51.2444C84.8804 51.911 84.1868 52.3458 83.6088 52.7806C82.8575 53.3023 82.1061 53.824 81.3547 54.3457C79.8808 55.3892 78.3781 56.4036 76.9042 57.4471C75.6615 58.3166 74.4189 59.1862 73.3785 60.3165C73.5519 60.6354 73.6675 60.9542 73.7253 61.302C73.8409 61.273 73.9565 61.273 74.0721 61.331C75.0836 61.8817 76.0662 62.4324 77.0776 63.0121C81.0368 65.3309 84.8804 67.9105 88.4639 70.8089C92.0474 73.6784 95.3708 76.8667 98.3185 80.4028C101.353 84.0259 103.983 87.9388 106.121 92.1415C108.433 96.6921 110.196 101.504 111.41 106.46C112.074 109.155 112.595 111.909 112.97 114.691C113.346 117.416 113.404 120.141 113.462 122.894C113.519 125.387 113.751 127.85 114.444 130.256C114.675 131.01 114.993 131.763 115.196 132.546C115.34 133.097 115.427 133.676 115.485 134.256C115.716 135.27 115.774 136.314 115.716 137.386ZM45.6064 52.056C45.1151 53.766 44.595 55.4761 44.0748 57.1572C46.6179 57.621 48.4096 60.1426 50.5482 61.4469C52.8601 62.8672 55.8367 63.9106 58.5532 63.3309C60.0849 63.0121 61.3854 62.0266 62.6569 61.1571C63.9574 60.2586 65.2289 59.3021 66.5005 58.3456C68.3212 56.9833 70.1129 55.5921 71.9625 54.2878C71.2111 51.0705 70.4019 47.8822 69.7083 44.6649C68.8703 44.4041 68.1189 43.9693 67.512 43.3316C67.3386 43.1577 67.3386 42.8969 67.512 42.723C67.6854 42.5491 67.9455 42.5491 68.1189 42.723C69.6505 44.2881 72.4249 44.52 74.1877 43.1867C75.9506 41.8824 76.5285 39.1579 75.4592 37.2159C74.39 35.3029 71.7891 34.3464 69.7372 35.158C69.506 35.2449 69.2748 35.129 69.1881 34.8972C69.1014 34.6653 69.217 34.4334 69.4482 34.3464C69.6216 34.2885 69.795 34.2305 69.9973 34.1725L69.0725 33.9117C66.356 30.8973 67.8299 27.7959 67.6565 25.1294C67.4253 21.1875 65.4601 20.7817 63.1482 19.9411C61.2409 19.9991 59.4491 20.7237 57.8308 21.6802C56.1835 22.6657 54.6518 23.883 53.0624 25.0134C51.4729 26.1728 49.8835 27.3032 48.294 28.4626C45.433 30.5495 42.572 32.6074 39.6821 34.6653C39.7688 34.7232 39.8555 34.7522 39.9133 34.8102C42.8032 36.5493 45.722 38.2883 48.6408 39.9984C48.8142 40.0854 48.9009 40.3172 48.8431 40.4911C48.6697 41.1578 48.4963 41.7955 48.294 42.4621C47.4271 45.6794 46.5312 48.8677 45.6064 52.056ZM41.3872 61.2151C41.9073 61.7658 42.5431 62.2005 43.15 62.6643C43.6991 63.0701 44.1904 63.5338 44.6816 64.0266C47.3693 66.896 48.3807 70.7799 50.2592 74.1421C52.1087 73.4465 54.2473 74.0262 56.0968 74.461C57.3973 74.7798 58.7267 75.0697 60.0271 75.3885C61.212 75.6783 62.4546 75.8812 63.6106 76.287C64.3331 76.5479 65.1134 76.9537 65.4313 77.6783C66.8184 76.4899 67.7143 74.7508 69.1304 73.5624C69.9973 72.8089 71.1533 72.2292 71.7891 71.2727C72.1937 70.693 72.2225 69.9104 71.6735 69.5626C71.5868 69.6206 71.529 69.6785 71.4423 69.7365C71.24 69.9104 71.0377 70.0843 70.8354 70.2582C70.4308 70.635 70.084 71.0118 69.7083 71.4176C69.5638 71.5915 69.2459 71.5625 69.1014 71.4176C68.928 71.2437 68.9569 70.9828 69.1014 70.8089C69.6794 70.1423 70.3152 69.5336 70.9799 68.9829C70.9799 68.838 71.0377 68.6641 71.1822 68.6061C71.818 68.3452 72.3671 67.8235 72.5116 67.1279C72.656 66.5192 72.4248 65.9395 72.1069 65.4178C71.3845 66.0845 70.6909 66.7511 69.9684 67.4178C69.795 67.5917 69.5349 67.5917 69.3615 67.4178C69.1881 67.2728 69.1881 66.954 69.3615 66.8091C70.1418 66.0845 70.9221 65.3599 71.7024 64.6063C71.7024 64.5193 71.7602 64.4034 71.818 64.3454C72.7716 63.5048 73.3207 62.2295 72.8583 61.0701C72.2225 61.7368 71.5579 62.3745 70.9221 63.0411C70.7487 63.215 70.4886 63.186 70.3152 63.0411C70.1418 62.8672 70.1418 62.5774 70.3152 62.4324C71.0666 61.6788 71.7891 60.9252 72.5404 60.1716C72.5693 60.1137 72.5982 60.0557 72.6271 59.9977C73.1184 59.418 73.6675 58.9253 74.2744 58.4326C75.5171 57.4181 76.8753 56.5196 78.2047 55.6211C79.6207 54.6356 81.0368 53.6501 82.4529 52.6646C83.0886 52.2299 83.8111 51.8241 84.3313 51.2444C84.5047 51.0415 84.707 50.7227 84.6203 50.4328C84.5336 50.172 84.1868 50.114 83.9267 50.056C83.1753 49.9401 82.3662 49.8821 81.6148 49.9981C80.8056 50.114 80.0831 50.4618 79.3606 50.8096C73.9276 53.5052 69.3037 57.4761 64.3909 61.0122C63.1482 61.9107 61.8767 62.8672 60.5184 63.5628C59.3046 64.1715 57.9464 64.4034 56.5881 64.3454C53.9872 64.2005 51.3574 63.157 49.2188 61.6208C48.0051 60.7513 46.9936 59.5629 45.722 58.7804C44.5661 58.0557 43.1211 57.65 41.8207 58.2297C41.3294 58.4616 40.8092 58.8384 40.6936 59.3891C40.5491 60.0557 40.9537 60.7513 41.3872 61.2151ZM16.7362 137.734C16.794 137.676 16.8518 137.647 16.9096 137.618C16.6206 137.241 16.3605 136.865 16.1004 136.488C15.4935 135.618 14.8577 134.778 14.0775 134.024C13.3261 133.3 12.4591 132.691 11.5921 132.111C9.85815 130.952 8.00862 129.879 6.62146 128.314C5.1187 126.633 3.84715 124.72 2.98017 122.633C2.89348 122.459 2.83566 122.285 2.77786 122.111H2.74897C2.08429 122.14 1.5063 122.546 1.1884 123.126C0.812715 123.822 0.870542 124.633 1.07284 125.358C1.39073 126.633 1.76639 128.227 3.03796 128.865C3.32695 129.01 3.29805 129.474 3.03796 129.618C2.05539 130.169 1.30402 131.3 1.53522 132.488C1.76641 133.618 2.74899 134.459 3.81826 134.749C4.16505 134.865 4.25172 135.357 3.93382 135.531C3.12465 136.024 2.95128 136.923 3.24027 137.792C3.87605 139.792 6.44806 140.227 8.23981 140.401C10.3205 140.604 12.5169 140.546 14.4242 141.473C14.4531 141.212 14.482 140.98 14.5687 140.72C14.9155 139.56 15.8403 138.604 16.7362 137.734ZM40 151.096C39.3931 150.255 38.7862 149.444 38.0927 148.661C37.1679 147.589 36.1853 146.574 35.0871 145.705C33.3243 144.314 31.3013 143.502 29.1628 142.922C26.3018 142.14 23.4119 141.444 20.6087 140.517C20.1174 140.343 19.5972 140.227 19.1637 139.908C18.7591 139.618 18.3834 139.299 18.0366 138.952C17.8343 138.749 17.632 138.517 17.4298 138.285C17.4009 138.314 17.4008 138.343 17.3719 138.372C16.4761 139.27 15.2623 140.372 15.2623 141.734C15.2334 142.98 16.2738 143.995 17.2274 144.661C18.9036 145.85 20.8687 146.574 22.8628 147.096C25.0013 147.676 27.1688 148.024 29.3362 148.4C32.8619 148.98 36.6766 149.502 40 151.096ZM65.4313 148.227C64.9111 148.053 65.1423 147.241 65.6625 147.386C65.7781 147.415 65.8647 147.444 65.9803 147.473C65.9803 147.473 65.9803 147.473 65.9803 147.444C67.9455 144.748 69.2459 141.647 69.8817 138.372C71.2111 131.387 69.4771 124.053 66.7028 117.648C65.9514 115.909 64.9688 114.257 64.3331 112.46C63.784 110.895 63.5239 109.242 63.5528 107.619C63.5817 104.518 64.5932 101.562 65.3156 98.5761C66.0381 95.5327 66.356 92.4604 65.2579 89.4749C64.94 88.6054 64.5065 87.7649 64.0152 86.9823C63.7262 86.5185 63.4372 86.0838 63.1193 85.678C62.8014 85.2432 62.3102 84.8374 62.079 84.3447C61.8767 83.9389 61.7033 83.4172 61.6166 82.8955H61.6744C61.7611 81.4173 63.3794 80.4898 64.2464 79.4463C64.5643 79.0695 64.9111 78.5478 64.6799 77.9971C64.362 77.2435 63.2927 76.9826 62.5991 76.8087C60.2005 76.2001 57.7441 75.6783 55.3454 75.0986C54.4207 74.8958 53.4959 74.6929 52.5422 74.6639C51.7331 74.6349 50.8661 74.6929 50.1436 75.1276C49.3055 75.6204 49.0743 76.4899 49.0743 77.3884C49.0743 78.3739 49.2477 79.3014 49.1032 80.2869C49.0165 80.8376 48.1784 80.6057 48.2651 80.055C48.4674 78.8956 48.0917 77.7073 48.2651 76.5189C48.3807 75.6783 48.8431 74.9827 49.5078 74.519C48.4963 72.7509 47.745 70.8379 46.878 68.9829C46.3289 67.7946 45.6931 66.6641 44.9128 65.5917C44.0459 64.4323 42.9477 63.5628 41.8207 62.6933C41.7051 62.6063 41.5605 62.4904 41.4449 62.3744C39.5954 63.5628 38.3238 64.4613 36.5032 65.7366C29.683 70.4321 23.2674 75.7363 18.0366 82.1419C15.349 85.4171 13.1238 88.9532 10.9274 92.5473C8.55771 96.4312 6.27466 100.431 4.62741 104.692C3.12466 108.518 2.11319 112.605 2.43108 116.749C2.77787 120.981 4.68521 125.097 7.66182 128.111C9.13568 129.618 11.0141 130.633 12.7481 131.821C13.5861 132.401 14.4242 133.068 15.1467 133.821C15.8403 134.546 16.4183 135.386 17.0252 136.227C17.632 137.068 18.2389 137.908 19.0192 138.604C19.4238 138.98 19.8573 139.299 20.4063 139.473C20.8398 139.618 21.2733 139.763 21.7068 139.908C23.2096 140.401 24.7412 140.835 26.2729 141.212C28.527 141.792 30.8389 142.285 32.9486 143.299C35.2316 144.372 37.1101 146.111 38.7573 148.024C40.0289 149.473 41.156 151.038 42.283 152.603C43.4101 154.197 44.9995 155.473 46.7913 156.284C48.4674 157.038 50.3459 157.299 52.1665 157.038C53.0913 156.893 53.9872 156.632 54.8542 156.284C55.8078 155.849 56.6459 155.212 57.5418 154.719C60.4895 153.067 63.2638 150.922 65.4313 148.227ZM114.647 133.763C114.415 132.372 113.837 131.068 113.491 129.705C113.173 128.488 112.97 127.242 112.855 125.995C112.624 123.648 112.71 121.271 112.595 118.894C112.335 113.387 111.179 107.851 109.56 102.605C108.115 97.9674 106.15 93.4748 103.694 89.2721C101.353 85.3302 98.5786 81.6491 95.4575 78.3159C92.3942 75.0407 88.9841 72.0843 85.3717 69.4177C81.7304 66.7221 77.8868 64.3454 73.9276 62.1716C73.8409 63.0991 73.4074 63.9976 72.7428 64.6932C73.2629 65.4758 73.6386 66.3743 73.4074 67.3308C73.2629 67.9684 72.8583 68.5191 72.3382 68.9249C72.7716 69.3017 73.0317 69.8814 72.9739 70.5191C72.8872 71.4756 72.2514 72.2002 71.529 72.7799C70.7198 73.4465 69.795 74.0262 69.0725 74.8088C67.8877 76.0841 66.9918 77.6203 65.6046 78.6637C65.5468 79.0985 65.3446 79.5043 65.0845 79.8811C64.6221 80.4898 64.0441 80.9825 63.495 81.5042C63.0904 81.91 62.5702 82.4027 62.5413 83.0114C62.5991 83.3592 62.6858 83.765 62.8592 84.0549C63.0904 84.4317 63.4661 84.7794 63.7551 85.1562C65.9225 87.9967 67.1074 91.3589 66.8184 94.982C66.5872 98.0544 65.5179 100.982 64.8822 103.967C64.1886 107.242 64.2753 110.547 65.7491 113.619C66.5872 115.387 67.4831 117.126 68.2056 118.952C68.8991 120.72 69.506 122.517 69.9973 124.343C71.7313 130.981 71.8758 138.227 68.8414 144.517C68.2923 145.647 67.6565 146.719 66.934 147.734C67.9744 147.995 69.0726 148.14 70.1418 148.169C73.0028 148.313 75.835 147.85 78.696 147.734C80.1698 147.676 81.6726 147.734 83.1175 147.937C84.5047 148.14 85.863 148.429 87.2501 148.603C92.0185 149.212 96.9024 149.386 101.671 148.603C105.37 147.995 109.271 146.777 111.959 144.053C114.618 141.299 115.253 137.473 114.647 133.763ZM88.0593 120.372C88.7529 121.01 88.435 121.909 87.8859 122.517C87.2501 123.242 86.2386 123.851 85.2561 123.677C84.4758 123.561 83.9845 122.923 83.8111 122.198C83.7822 122.083 83.7533 121.938 83.6955 121.822C83.1753 122.256 82.7418 122.778 82.2505 123.271C81.6148 123.909 80.9212 124.43 80.0831 124.807C78.4648 125.561 76.6152 125.85 74.8235 125.59C74.2744 125.503 74.5056 124.662 75.0547 124.749C75.5171 124.807 75.9505 124.836 76.4129 124.807C78.3203 124.72 80.1987 124.053 81.5859 122.691C82.1639 122.111 82.7129 121.503 83.3487 120.981C82.3662 118.836 80.4299 117.242 79.2451 115.213C78.5515 114.025 78.1758 112.721 78.4359 111.329C78.5804 110.489 79.0139 109.764 79.3896 109.039C79.7652 108.373 80.401 107.387 80.0831 106.576C79.7652 105.735 78.5515 105.59 77.829 105.243C77.0198 104.866 76.2973 104.315 75.6616 103.706C74.4189 102.46 73.5519 100.808 73.2918 99.0688C73.2051 98.5181 74.0432 98.2862 74.1299 98.837C74.39 100.721 75.3726 102.431 76.8464 103.619C77.5689 104.199 78.3781 104.576 79.2451 104.895C80.1698 105.243 80.9501 105.822 81.0079 106.895C81.0946 108.547 79.6208 109.851 79.274 111.416C78.985 112.634 79.3895 113.822 80.0253 114.894C81.2102 116.865 83.0597 118.43 84.0712 120.517C84.6781 120.199 85.3428 120.025 86.0074 119.938C86.701 119.851 87.5391 119.909 88.0593 120.372ZM86.3254 120.778C85.6896 120.807 84.996 120.981 84.418 121.3C84.4469 121.358 84.4469 121.387 84.4758 121.445C84.6492 121.967 84.707 122.72 85.3717 122.836C85.863 122.923 86.3832 122.633 86.7589 122.343C87.0767 122.112 87.4235 121.793 87.5391 121.416C87.7703 120.778 86.701 120.749 86.3254 120.778ZM61.0964 26.5786C60.4028 27.3612 59.8826 28.2597 59.5358 29.2452C59.4491 29.4481 59.6225 29.7379 59.8248 29.7669C60.056 29.8248 60.2872 29.6799 60.345 29.477C60.3739 29.3611 60.4317 29.2741 60.4606 29.1582C60.4606 29.1292 60.4895 29.1002 60.4895 29.0712V29.0423C60.5184 28.9843 60.5473 28.9263 60.5473 28.8973C60.634 28.6944 60.7496 28.4626 60.8652 28.2597C60.9808 28.0568 61.0964 27.8829 61.2409 27.68C61.2698 27.622 61.2987 27.593 61.3276 27.5351C61.3276 27.5351 61.3276 27.5351 61.3276 27.5061C61.3276 27.5061 61.3276 27.5061 61.3276 27.4771C61.3565 27.4481 61.3565 27.4191 61.3854 27.4191C61.4721 27.3322 61.5299 27.2452 61.6166 27.1293C61.7611 26.9554 61.79 26.6655 61.6166 26.5206C61.5299 26.4337 61.2409 26.4047 61.0964 26.5786ZM56.4436 29.4481C56.6748 29.564 56.906 29.477 57.0505 29.3031C57.5996 28.5205 58.1486 27.738 58.6977 26.9554C58.8422 26.7815 58.7266 26.4627 58.5532 26.3467C58.322 26.2308 58.0909 26.3177 57.9464 26.4916C57.3973 27.2742 56.8482 28.0568 56.2991 28.8394C56.1546 29.0423 56.2413 29.3611 56.4436 29.4481ZM56.906 24.3178C57.6285 24.4917 58.3798 24.6656 59.1023 24.8395C59.3335 24.8975 59.5936 24.7815 59.6225 24.5497C59.6803 24.3178 59.5647 24.0569 59.3335 24.028C58.6111 23.8541 57.8597 23.6801 57.1372 23.5062C56.906 23.4483 56.6459 23.5642 56.617 23.7961C56.5303 23.999 56.6748 24.2598 56.906 24.3178ZM60.7785 23.6511C60.9808 23.7671 61.2698 23.7091 61.3854 23.5062C61.5877 23.1004 61.8766 22.7816 62.2812 22.5787C62.628 22.4048 63.0037 22.3179 63.3794 22.4628C63.3794 22.4628 63.4661 22.4918 63.4661 22.5207C63.495 22.5497 63.5239 22.5498 63.5528 22.5787C63.5817 22.5787 63.5817 22.6077 63.6106 22.6077C63.6106 22.6077 63.6106 22.6077 63.6395 22.6367C63.6684 22.6657 63.7262 22.6947 63.7551 22.7526C63.7551 22.7526 63.8129 22.8396 63.8418 22.8396C63.8707 22.8686 63.8707 22.8976 63.8996 22.9265C63.9285 22.9845 63.9574 23.0135 63.9863 23.0715C63.9863 23.1004 64.0152 23.1294 64.0152 23.1294C64.0441 23.2164 64.073 23.3033 64.1019 23.3903C64.1019 23.3903 64.1019 23.3903 64.1019 23.4193C64.1019 23.4482 64.1019 23.4483 64.1019 23.4773C64.1019 23.5352 64.1019 23.5642 64.1019 23.6222C64.1019 23.6222 64.1019 23.6222 64.1019 23.6511C64.1019 23.7091 64.073 23.7381 64.073 23.7961C64.073 23.7961 64.073 23.7961 64.073 23.8251C64.073 23.854 64.0441 23.8541 64.0441 23.883C64.0441 23.912 63.9574 24.0279 64.0152 23.941C63.8707 24.1149 63.8418 24.3758 64.0152 24.5497C64.1597 24.6946 64.4776 24.7236 64.6221 24.5497C64.911 24.2018 65.0267 23.7671 64.9689 23.3034C64.9111 22.8686 64.7088 22.4628 64.4198 22.1729C63.7262 21.4483 62.6569 21.4483 61.8478 21.9411C61.3565 22.2309 60.9519 22.6657 60.7207 23.1584C60.4895 23.2744 60.5473 23.5352 60.7785 23.6511ZM50.5771 55.5341C50.7216 55.708 51.0395 55.679 51.184 55.5341C51.3573 55.3602 51.3284 55.0993 51.184 54.9254C50.606 54.2008 50.2014 53.3603 49.9702 52.4907C49.7968 51.8531 49.6234 50.9256 50.028 50.3169C50.4615 49.6792 51.2707 50.201 51.5885 50.6937C51.8486 51.0705 51.9353 51.5342 52.0509 51.969C52.1665 52.4328 52.311 52.8965 52.5133 53.3603C52.7734 53.853 53.4959 53.4182 53.2647 52.9255C52.8601 52.1139 52.8601 51.1864 52.4266 50.4039C52.0509 49.7372 51.3574 49.1285 50.5482 49.1575C49.7679 49.1865 49.2188 49.7952 49.0454 50.5198C48.8431 51.3024 48.9876 52.1429 49.2188 52.9255C49.4789 53.853 49.9413 54.7515 50.5771 55.5341ZM47.2248 80.6637C41.8206 82.8665 37.9481 88.0837 37.0234 93.8226C36.7922 95.2429 36.7344 96.7211 36.8789 98.1703C36.9656 98.8949 37.0812 99.6195 37.2546 100.315C37.4858 101.272 37.8037 102.228 37.9482 103.185C38.2082 104.837 37.7748 106.344 36.8211 107.677C35.9252 108.953 34.7114 110.025 33.5266 111.039C31.0123 113.271 27.8623 116.778 29.5963 120.401C29.8275 120.894 30.5789 120.459 30.3477 119.967C28.9027 116.923 31.7926 113.793 33.8734 111.909C36.0408 109.967 38.5839 107.851 38.8729 104.75C39.0463 102.924 38.295 101.156 37.9193 99.3877C37.6303 98.0254 37.5725 96.6341 37.6881 95.2429C37.9193 92.4604 38.8729 89.7358 40.4046 87.4171C42.1096 84.8085 44.5371 82.6636 47.4271 81.4752C47.9472 81.2723 47.745 80.4318 47.2248 80.6637ZM69.8239 39.7375C69.8528 39.7086 69.8817 39.6796 69.9106 39.6216C69.9684 39.5636 69.9973 39.5057 70.0551 39.4477C70.1707 39.3318 70.2574 39.2158 70.373 39.1289C70.6042 38.926 70.7776 38.7811 71.0377 38.6071C71.5579 38.2883 72.0203 38.0564 72.5983 37.9115C72.8295 37.8535 72.9739 37.5927 72.8872 37.3898C72.8295 37.1579 72.5693 37.042 72.3671 37.1C71.0377 37.4188 69.8817 38.2304 69.0725 39.3028C68.928 39.4767 69.0436 39.7955 69.217 39.9114C69.4482 40.0274 69.6794 39.9115 69.8239 39.7375Z" fill="black"/>
</svg>
