<svg width="173" height="196" viewBox="0 0 173 196" fill="none" xmlns="http://www.w3.org/2000/svg">
<path d="M93.8376 102.335L93.8355 102.337C87.7143 107.262 86.7446 116.217 91.6697 122.338L141.913 184.783C146.838 190.905 155.793 191.874 161.914 186.949L161.916 186.947C168.037 182.022 169.007 173.067 164.082 166.946L113.839 104.501C108.914 98.3795 99.9589 97.4098 93.8376 102.335Z" fill="#EBECEE"/>
<path d="M152.98 190.398C150.775 190.403 148.596 189.912 146.606 188.962C144.616 188.011 142.866 186.625 141.483 184.907L91.2326 122.465C90.0192 120.958 89.1147 119.226 88.5707 117.368C88.0267 115.511 87.8539 113.565 88.0621 111.641C88.2703 109.717 88.8553 107.853 89.784 106.155C90.7126 104.457 91.9667 102.958 93.4745 101.745C94.9822 100.531 96.7142 99.6269 98.5716 99.0829C100.429 98.5389 102.375 98.3661 104.299 98.5743C106.223 98.7825 108.087 99.3675 109.785 100.296C111.483 101.225 112.982 102.479 114.195 103.987L164.446 166.428C166.189 168.592 167.284 171.205 167.605 173.965C167.926 176.725 167.46 179.519 166.261 182.025C165.062 184.532 163.178 186.648 160.828 188.129C158.477 189.611 155.756 190.398 152.977 190.398H152.98ZM102.71 99.5251C100.124 99.5258 97.5904 100.258 95.4027 101.637C93.215 103.016 91.4619 104.986 90.346 107.318C89.2301 109.651 88.7968 112.253 89.0961 114.821C89.3955 117.39 90.4153 119.822 92.0378 121.835L142.289 184.277C144.569 187.111 147.883 188.924 151.5 189.316C155.117 189.708 158.742 188.647 161.577 186.366C164.411 184.085 166.224 180.772 166.616 177.154C167.008 173.537 165.947 169.913 163.666 167.078L113.415 104.639C112.128 103.039 110.498 101.748 108.645 100.863C106.792 99.9776 104.763 99.5205 102.71 99.5251Z" fill="#9EA3B5"/>
<path d="M110.654 107.906L95.8909 119.784C91.3155 123.466 90.5907 130.159 94.2721 134.734L102.287 144.695C105.968 149.271 112.661 149.996 117.237 146.314L132 134.436C136.575 130.755 137.3 124.061 133.618 119.486L125.604 109.525C121.923 104.95 115.229 104.225 110.654 107.906Z" fill="#EBECEE"/>
<path d="M110.554 148.973C108.885 148.976 107.238 148.602 105.733 147.881C104.228 147.16 102.905 146.111 101.861 144.809L93.846 134.85C91.9971 132.546 91.1375 129.602 91.4555 126.665C91.7735 123.728 93.2432 121.036 95.5424 119.181L110.304 107.304C112.608 105.454 115.552 104.593 118.489 104.911C121.427 105.229 124.118 106.7 125.973 109L133.988 118.959C135.837 121.263 136.697 124.207 136.379 127.144C136.061 130.081 134.591 132.773 132.292 134.628L117.53 146.505C115.556 148.103 113.093 148.974 110.554 148.973ZM117.281 105.877C114.977 105.871 112.741 106.655 110.945 108.098L96.1836 119.978C94.0947 121.662 92.7594 124.107 92.4706 126.775C92.1817 129.443 92.9629 132.116 94.6428 134.209L102.658 144.17C104.343 146.259 106.787 147.595 109.455 147.883C112.123 148.171 114.797 147.389 116.889 145.708L131.651 133.832C133.739 132.147 135.075 129.702 135.364 127.035C135.652 124.367 134.871 121.693 133.191 119.6L125.176 109.639C124.226 108.46 123.023 107.511 121.657 106.86C120.29 106.208 118.794 105.873 117.281 105.877Z" fill="#9EA3B5"/>
<path d="M67.135 132.867C103.647 132.867 133.247 103.268 133.247 66.7559C133.247 30.2434 103.647 0.644287 67.135 0.644287C30.6226 0.644287 1.02344 30.2434 1.02344 66.7559C1.02344 103.268 30.6226 132.867 67.135 132.867Z" fill="#FCFCFC"/>
<path d="M67.1376 133.395C30.4018 133.395 0.506836 103.509 0.506836 66.7646C0.506836 30.0205 30.3935 0.133789 67.1376 0.133789C103.882 0.133789 133.768 30.0205 133.768 66.7646C133.768 103.509 103.873 133.395 67.1376 133.395ZM67.1376 1.16947C30.9654 1.16947 1.53683 30.5978 1.53683 66.77C1.53683 102.942 30.9654 132.374 67.1376 132.374C103.31 132.374 132.741 102.945 132.741 66.77C132.741 30.595 103.31 1.15537 67.1376 1.15537V1.16947Z" fill="#9EA3B5"/>
<path d="M67.1355 109.336C90.6517 109.336 109.715 90.2721 109.715 66.7559C109.715 43.2397 90.6517 24.176 67.1355 24.176C43.6193 24.176 24.5557 43.2397 24.5557 66.7559C24.5557 90.2721 43.6193 109.336 67.1355 109.336Z" fill="#FCFCFC"/>
<path d="M67.1375 109.85C43.3781 109.85 24.0469 90.5182 24.0469 66.756C24.0469 42.9938 43.3781 23.6653 67.1375 23.6653C90.897 23.6653 110.231 42.9965 110.231 66.756C110.231 90.5154 90.897 109.85 67.1375 109.85ZM67.1375 24.6871C43.9417 24.6871 25.0685 43.5657 25.0685 66.756C25.0685 89.9462 43.9473 108.828 67.1375 108.828C90.3278 108.828 109.209 89.949 109.209 66.756C109.209 43.5629 90.3334 24.6871 67.1375 24.6871Z" fill="#9EA3B5"/>
<path d="M63.252 34.7674L58.8223 95.3784L59.8411 95.4529L64.2709 34.8419L63.252 34.7674Z" fill="#9EA3B5"/>
<path d="M72.5134 59.6402L70.1348 78.0298L71.1479 78.1608L73.5265 59.7712L72.5134 59.6402Z" fill="#9EA3B5"/>
<path d="M127.179 64.3213C126.726 64.3201 126.289 64.1548 125.948 63.8563C125.607 63.5578 125.385 63.146 125.324 62.697C122.862 44.3735 114.544 30.0203 100.599 20.0534C90.1434 12.5797 80.257 10.5029 80.1599 10.4807C79.6732 10.3824 79.2454 10.0948 78.9707 9.68112C78.6961 9.26747 78.597 8.76179 78.6953 8.27509C78.7936 7.78838 79.0811 7.3606 79.4948 7.08595C79.9085 6.81131 80.4144 6.71219 80.9011 6.81049C81.3314 6.89656 91.5508 9.03149 102.642 16.9106C112.887 24.1928 125.782 37.9604 129.036 62.1973C129.069 62.4409 129.054 62.6887 128.992 62.9264C128.929 63.1641 128.82 63.3873 128.671 63.5828C128.522 63.7783 128.335 63.9422 128.123 64.0656C127.91 64.189 127.675 64.2693 127.431 64.3018C127.348 64.315 127.263 64.3216 127.179 64.3213Z" fill="#FCFCFC"/>
<path d="M38.3083 120.505C38.0194 120.505 37.7344 120.439 37.4754 120.311C23.4496 113.389 15.5844 101.618 11.4589 92.9616C7.01683 83.6222 5.85076 75.9791 5.80356 75.657C5.73651 75.1686 5.86453 74.6732 6.16009 74.2786C6.45564 73.884 6.89499 73.6218 7.38257 73.5488C7.87016 73.4757 8.3668 73.5978 8.76502 73.8885C9.16324 74.1792 9.43076 74.6151 9.50979 75.1017C9.50979 75.1739 10.6508 82.5977 14.8902 91.4458C18.777 99.5275 26.112 110.513 39.1328 116.937C39.5119 117.125 39.8165 117.435 39.9968 117.818C40.1772 118.201 40.223 118.633 40.1264 119.045C40.0299 119.457 39.7968 119.824 39.4652 120.086C39.1336 120.349 38.7229 120.491 38.2999 120.491L38.3083 120.505Z" fill="#FCFCFC"/>
<path d="M55.7734 145.244C35.4372 145.244 21.7971 137.032 13.7209 129.778C4.14272 121.171 0.219907 112.287 0.0561059 111.921C-0.0156849 111.755 -0.0186822 111.568 0.0477011 111.4C0.114085 111.232 0.244519 111.097 0.41019 111.025C0.575861 110.954 0.763104 110.951 0.931014 111.017C1.09893 111.083 1.23364 111.214 1.30543 111.379C1.3443 111.468 5.29784 120.405 14.6733 128.806C23.3104 136.544 38.4605 145.397 61.5925 143.662C61.6818 143.655 61.7716 143.665 61.8569 143.692C61.9421 143.72 62.0212 143.764 62.0892 143.823C62.1572 143.881 62.2129 143.952 62.253 144.032C62.293 144.113 62.3167 144.2 62.3226 144.289C62.3295 144.379 62.3185 144.468 62.2906 144.553C62.2628 144.638 62.2185 144.717 62.1602 144.785C62.102 144.852 62.031 144.908 61.9512 144.948C61.8714 144.989 61.7844 145.013 61.6953 145.02C59.6575 145.173 57.6835 145.248 55.7734 145.244Z" fill="#9EA3B5"/>
</svg>
