<svg width="223" height="182" viewBox="0 0 223 182" fill="none" xmlns="http://www.w3.org/2000/svg">
<path d="M77.2436 165.477H168.854C170.651 165.477 172.402 164.903 173.85 163.838C175.298 162.773 176.368 161.274 176.904 159.558L195.446 100.132C195.667 99.4246 195.718 98.6752 195.595 97.9444C195.473 97.2135 195.18 96.5218 194.741 95.9249C194.302 95.3281 193.728 94.8429 193.067 94.5085C192.406 94.1741 191.675 93.9999 190.934 94H99.5468L77.2436 165.477Z" fill="#F0F0F0"/>
<path d="M99.5466 94.0001L77.2434 165.477H168.854C170.651 165.477 172.401 164.903 173.849 163.838C175.297 162.773 176.367 161.274 176.903 159.558L195.446 100.132C195.666 99.4246 195.717 98.6752 195.595 97.9444C195.472 97.2136 195.18 96.5218 194.741 95.925C194.301 95.3281 193.728 94.8429 193.067 94.5085C192.405 94.1742 191.675 94 190.934 94.0001H99.5466ZM99.5466 92.3201H190.934C191.938 92.3205 192.928 92.5571 193.825 93.0106C194.721 93.4642 195.498 94.122 196.093 94.9311C196.688 95.7402 197.085 96.6779 197.251 97.6684C197.417 98.659 197.348 99.6747 197.049 100.634L178.507 160.058C177.871 162.119 176.59 163.922 174.852 165.2C173.114 166.478 171.011 167.164 168.854 167.157H77.2434C76.9801 167.157 76.7205 167.095 76.4856 166.976C76.2507 166.857 76.0471 166.684 75.891 166.472C75.735 166.26 75.631 166.015 75.5875 165.755C75.5439 165.495 75.5619 165.229 75.6402 164.978L97.9434 93.4985C98.0502 93.1569 98.2634 92.8584 98.5518 92.6464C98.8401 92.4344 99.1887 92.3201 99.5466 92.3201Z" fill="#4C3133"/>
<path d="M76.0725 165.477H165.47C166.765 165.477 168.026 165.064 169.069 164.297C170.112 163.53 170.883 162.45 171.269 161.214L191.364 96.8512C191.466 96.5223 191.49 96.174 191.433 95.8343C191.375 95.4946 191.239 95.1731 191.035 94.8956C190.831 94.6182 190.565 94.3926 190.257 94.237C189.95 94.0814 189.611 94.0003 189.266 94H98.0829C97.0274 94.0003 95.9996 94.3378 95.1495 94.9634C94.2994 95.589 93.6715 96.4699 93.3573 97.4776L73.3101 161.723C73.175 162.156 73.1436 162.615 73.2185 163.063C73.2935 163.51 73.4727 163.934 73.7416 164.299C74.0105 164.664 74.3616 164.961 74.7665 165.166C75.1715 165.371 75.6189 165.477 76.0725 165.477Z" fill="white"/>
<path d="M98.0825 94C97.027 94.0002 95.9992 94.3378 95.1491 94.9634C94.299 95.589 93.671 96.4699 93.3569 97.4776L73.3097 161.723C73.1745 162.156 73.1432 162.615 73.2181 163.063C73.293 163.51 73.4722 163.934 73.7411 164.299C74.01 164.664 74.3612 164.961 74.7661 165.166C75.171 165.371 75.6184 165.477 76.0721 165.477H165.47C166.764 165.477 168.025 165.064 169.068 164.297C170.112 163.53 170.882 162.45 171.268 161.214L191.363 96.8512C191.466 96.5223 191.489 96.1739 191.432 95.8343C191.375 95.4946 191.239 95.1731 191.035 94.8956C190.831 94.6182 190.564 94.3926 190.257 94.237C189.95 94.0814 189.61 94.0002 189.266 94H98.0825ZM98.0825 92.32H189.266C189.875 92.3199 190.475 92.4632 191.018 92.7382C191.561 93.0132 192.032 93.4122 192.392 93.9029C192.753 94.3936 192.992 94.9623 193.092 95.5629C193.192 96.1635 193.149 96.7791 192.966 97.36L172.883 161.721C172.394 163.302 171.409 164.685 170.074 165.663C168.739 166.642 167.125 167.166 165.47 167.157H76.0721C75.3549 167.157 74.6476 166.989 74.0075 166.665C73.3675 166.341 72.8125 165.872 72.3876 165.294C71.9626 164.716 71.6795 164.046 71.5612 163.339C71.4429 162.632 71.4926 161.906 71.7065 161.222L91.7537 96.976C92.1707 95.6243 93.0107 94.4423 94.1501 93.6041C95.2895 92.7659 96.668 92.3157 98.0825 92.32Z" fill="#4C3133"/>
<path d="M139.813 134.858H169.813C170.802 134.858 171.851 134.056 172.153 133.065L173.704 127.991C174.006 127.002 173.449 126.201 172.461 126.201H142.461C141.472 126.201 140.425 127.002 140.123 127.991L138.57 133.065C138.268 134.056 138.829 134.858 139.813 134.858Z" fill="#F0F0F0"/>
<path d="M83.7158 158.258H165.949C168.251 158.258 170.601 156.467 171.299 154.178L186.743 103.646C187.105 102.446 186.949 101.282 186.311 100.42C185.988 100 185.57 99.6642 185.09 99.4396C184.611 99.2149 184.085 99.1084 183.556 99.1288H101.236C98.963 99.1288 96.6422 100.898 95.9558 103.156L80.507 153.69C80.1374 154.89 80.2958 156.09 80.9414 156.952C81.2671 157.374 81.6886 157.713 82.171 157.94C82.6534 158.167 83.1829 158.276 83.7158 158.258ZM183.556 100.809C183.822 100.792 184.088 100.838 184.333 100.944C184.577 101.05 184.793 101.213 184.962 101.418C185.284 101.853 185.344 102.47 185.135 103.156L169.686 153.69C169.206 155.255 167.493 156.57 165.942 156.57H83.7158C83.4433 156.588 83.1705 156.54 82.9201 156.431C82.6696 156.322 82.4488 156.155 82.2758 155.944C81.947 155.5 81.8846 154.871 82.0982 154.173L97.5494 103.646C98.0294 102.107 99.7094 100.809 101.229 100.809H183.556Z" fill="#4C3133"/>
<path d="M108.71 94H118.176C118.384 95.9485 118.726 97.8802 119.201 99.7816C121.725 109.607 128.861 117.899 137.541 123.374C146.105 128.771 154.169 131.171 164.162 132.753C163.507 135.581 162.339 138.265 160.718 140.673H108.71V94Z" fill="#E2E2E0"/>
<path d="M95.5534 108.16H184.742C184.922 108.16 185.097 108.103 185.242 107.996C185.387 107.889 185.493 107.739 185.546 107.567L186.89 103.173C187.057 102.696 187.108 102.187 187.04 101.686C186.973 101.186 186.788 100.708 186.501 100.293C186.213 99.9171 185.838 99.6161 185.41 99.4148C184.981 99.2136 184.51 99.1179 184.037 99.1359H100.757C98.7526 99.1359 96.7078 100.694 96.0982 102.681L94.7566 107.075C94.7184 107.201 94.71 107.333 94.7323 107.462C94.7545 107.592 94.8066 107.714 94.8845 107.819C94.9624 107.925 95.0639 108.01 95.1809 108.069C95.2979 108.129 95.4271 108.16 95.5582 108.16H95.5534ZM184.113 106.48H96.6814L97.6942 103.173C98.0854 101.894 99.4822 100.816 100.745 100.816H184.025C184.235 100.802 184.446 100.838 184.64 100.921C184.835 101.005 185.006 101.133 185.141 101.296C185.393 101.639 185.441 102.131 185.27 102.683L184.113 106.48Z" fill="#4C3133"/>
<path d="M173.434 104.674C173.091 104.274 173.252 103.574 173.793 103.11C174.334 102.645 175.05 102.592 175.393 102.991C175.736 103.391 175.575 104.091 175.034 104.555C174.493 105.02 173.777 105.073 173.434 104.674Z" fill="#4C3133"/>
<path d="M168.551 104.671C168.208 104.272 168.369 103.572 168.91 103.107C169.451 102.643 170.167 102.59 170.51 102.989C170.853 103.388 170.692 104.089 170.151 104.553C169.61 105.018 168.894 105.071 168.551 104.671Z" fill="#4C3133"/>
<path d="M141.413 97.175C141.07 96.7757 141.231 96.0755 141.772 95.6109C142.313 95.1464 143.03 95.0934 143.372 95.4927C143.715 95.8919 143.555 96.5922 143.014 97.0567C142.472 97.5213 141.756 97.5742 141.413 97.175Z" fill="#4C3133"/>
<path d="M178.761 104.675C178.418 104.276 178.579 103.575 179.12 103.111C179.661 102.646 180.377 102.593 180.72 102.993C181.063 103.392 180.902 104.092 180.361 104.557C179.82 105.021 179.104 105.074 178.761 104.675Z" fill="#4C3133"/>
<path d="M143.824 121.742H173.824C174.813 121.742 175.859 120.94 176.162 119.949L177.71 114.88C178.012 113.891 177.455 113.09 176.466 113.09H146.466C145.478 113.09 144.429 113.891 144.126 114.88L142.576 119.954C142.278 120.94 142.835 121.742 143.824 121.742Z" fill="#F0F0F0"/>
<path d="M135.804 147.974H165.804C166.792 147.974 167.841 147.172 168.144 146.181L169.694 141.107C169.996 140.118 169.44 139.317 168.451 139.317H138.451C137.462 139.317 136.416 140.118 136.113 141.107L134.56 146.181C134.258 147.172 134.815 147.974 135.804 147.974Z" fill="#F0F0F0"/>
<path d="M116.495 147.743C114.874 145.855 115.636 142.543 118.196 140.345C120.756 138.146 124.146 137.894 125.767 139.782C127.387 141.67 126.626 144.982 124.065 147.18C121.505 149.379 118.115 149.631 116.495 147.743Z" fill="#F0F0F0"/>
<path d="M168.876 165.477H4.69199C4.69167 166.041 4.80261 166.601 5.01848 167.122C5.23436 167.644 5.55092 168.118 5.9501 168.518C6.34927 168.917 6.82323 169.234 7.34489 169.45C7.86655 169.666 8.4257 169.778 8.99039 169.778H164.575C165.14 169.778 165.699 169.666 166.22 169.45C166.742 169.234 167.215 168.918 167.615 168.519C168.014 168.119 168.33 167.646 168.546 167.124C168.762 166.603 168.874 166.044 168.874 165.479L168.876 165.477Z" fill="#F0F0F0"/>
<path d="M4.69168 165.477C4.69136 166.041 4.80229 166.601 5.01817 167.122C5.23404 167.644 5.55061 168.118 5.94978 168.518C6.34895 168.917 6.82292 169.234 7.34457 169.45C7.86624 169.666 8.42538 169.778 8.99007 169.778H164.575C165.716 169.778 166.809 169.324 167.616 168.518C168.423 167.711 168.876 166.617 168.876 165.477H4.69168ZM4.69168 163.797H168.876C169.321 163.797 169.749 163.974 170.064 164.289C170.379 164.604 170.556 165.031 170.556 165.477C170.551 167.061 169.919 168.58 168.798 169.7C167.678 170.821 166.16 171.452 164.575 171.458H8.99007C7.40584 171.452 5.88814 170.82 4.76814 169.699C3.64813 168.579 3.01674 167.061 3.01167 165.477C3.01167 165.031 3.18867 164.604 3.50372 164.289C3.81879 163.974 4.24611 163.797 4.69168 163.797Z" fill="#4C3133"/>
<path d="M162.275 167.733C163.05 167.733 163.811 167.523 164.477 167.126C165.143 166.729 165.689 166.159 166.057 165.477H168.875C168.875 166.617 168.422 167.711 167.615 168.518C166.809 169.324 165.715 169.778 164.574 169.778H8.98941C8.20126 169.777 7.42844 169.56 6.75543 169.15C6.08241 168.74 5.53513 168.152 5.1734 167.452C5.65717 167.636 6.1702 167.731 6.68779 167.733H162.275Z" fill="#E2E2E0"/>
<path d="M91.6172 165.477C91.6172 165.477 91.262 168.472 95.0684 170.8L91.6172 165.477Z" fill="white"/>
<path d="M95.0686 171.64C95.252 171.641 95.4306 171.581 95.5771 171.47C95.7236 171.36 95.8298 171.205 95.8796 171.028C95.9294 170.851 95.92 170.663 95.8529 170.493C95.7857 170.322 95.6645 170.178 95.5078 170.082C92.251 168.093 92.443 165.671 92.4526 165.568C92.4777 165.345 92.4133 165.122 92.2736 164.946C92.1338 164.771 91.9301 164.658 91.7074 164.633C91.4846 164.608 91.2609 164.672 91.0856 164.812C90.9103 164.952 90.7977 165.156 90.7726 165.378C90.7558 165.522 90.4006 168.938 94.6126 171.518C94.75 171.6 94.9081 171.643 95.0686 171.64Z" fill="#4C3133"/>
<path d="M21.6883 130.18C20.3875 130.132 19.1443 129.666 17.9275 129.205C16.5907 128.699 15.2539 128.19 13.9579 127.583C12.8491 127.062 9.70267 125.217 9.34507 124.686C8.98747 124.156 8.94668 123.359 9.41708 122.925C10.1371 122.257 11.4355 122.848 12.2371 122.274C13.3171 121.501 12.3115 120.093 11.4139 119.699C10.0771 119.111 8.53387 119.44 7.20187 118.833C6.22027 118.381 5.47866 117.114 6.07387 116.214C6.54186 115.509 7.57388 115.386 8.09708 114.721C8.90348 113.694 7.96507 112.134 6.77947 111.585C5.59387 111.035 4.20906 111.03 3.04266 110.445C1.87626 109.859 1.04108 108.203 1.94588 107.265C3.12428 106.041 5.54587 107.536 6.77227 106.35C7.73227 105.409 6.97866 103.782 6.10266 102.75C5.22666 101.718 4.18267 100.413 4.74907 99.1887C5.28667 98.0247 6.97148 97.9047 8.10908 98.4687C9.24668 99.0327 10.1011 100.077 11.1715 100.782C12.2419 101.488 13.8115 101.783 14.7211 100.878C15.4795 100.122 15.4411 98.8695 16.0411 97.9791C17.1283 96.3495 19.8547 96.7791 21.0811 98.3199C22.3075 99.8607 22.4131 101.968 22.4251 103.926C22.4251 105.239 22.8811 107.027 24.1915 106.936C25.1035 106.876 25.6315 105.853 26.4523 105.457C28.0075 104.713 29.7187 106.657 29.5723 108.366C29.4259 110.075 28.2259 111.486 27.3043 112.95C25.4731 115.845 24.9043 119.37 24.9043 122.838C24.9067 126.021 26.5723 130.355 21.6883 130.18Z" fill="#FFD900"/>
<path d="M21.9688 131.025C23.368 131.025 24.3832 130.667 25.0696 129.935C26.2696 128.666 26.068 126.698 25.8784 124.794C25.8112 124.108 25.7464 123.458 25.7464 122.86C25.7464 118.919 26.4928 115.83 28.0192 113.418C28.1968 113.138 28.384 112.859 28.5736 112.581C29.4112 111.338 30.28 110.054 30.412 108.455C30.4456 107.784 30.3092 107.114 30.0156 106.509C29.7219 105.904 29.2805 105.383 28.732 104.994C28.3556 104.713 27.91 104.539 27.4426 104.491C26.9752 104.443 26.5035 104.522 26.0776 104.721C25.6668 104.938 25.292 105.217 24.9664 105.549C24.6448 105.844 24.3664 106.101 24.1216 106.118C24.0679 106.124 24.0136 106.118 23.9627 106.099C23.9119 106.081 23.8661 106.051 23.8288 106.012C23.4952 105.702 23.2576 104.85 23.2528 103.941C23.2408 101.896 23.1112 99.5679 21.7264 97.8183C21.2729 97.2713 20.7001 96.8354 20.0519 96.5442C19.4037 96.2529 18.6974 96.1141 17.9872 96.1383C17.4666 96.1425 16.9548 96.2723 16.4951 96.5167C16.0355 96.7612 15.6417 97.113 15.3472 97.5423C15.057 98.0177 14.8394 98.5338 14.7016 99.0735C14.5456 99.5895 14.4088 100.034 14.1328 100.312C13.5688 100.874 12.4264 100.626 11.6392 100.108C11.2242 99.821 10.8282 99.5075 10.4536 99.1695C9.86188 98.6142 9.20224 98.136 8.4904 97.7463C7.56384 97.2796 6.49157 97.1935 5.5024 97.5063C5.17044 97.6139 4.86412 97.7884 4.60238 98.0192C4.34065 98.25 4.12909 98.5321 3.98081 98.8479C3.16241 100.622 4.6552 102.366 5.4592 103.305C6.1792 104.138 6.6592 105.275 6.1792 105.748C5.8504 106.072 5.1568 106.014 4.4248 105.957C3.436 105.878 2.2048 105.779 1.336 106.677C1.08625 106.939 0.903147 107.258 0.80208 107.606C0.701014 107.953 0.684942 108.321 0.755205 108.676C0.865177 109.21 1.09314 109.713 1.42243 110.148C1.75171 110.582 2.17399 110.938 2.6584 111.189C3.33667 111.5 4.05092 111.726 4.7848 111.861C5.34557 111.964 5.89412 112.124 6.4216 112.341C6.68361 112.465 6.91702 112.642 7.10705 112.861C7.29708 113.08 7.43961 113.336 7.52561 113.613C7.55876 113.71 7.56755 113.814 7.55123 113.915C7.53491 114.016 7.49397 114.112 7.43201 114.194C7.22307 114.396 6.97911 114.558 6.71201 114.674C6.17885 114.906 5.71555 115.273 5.368 115.739C5.19159 116.011 5.07696 116.317 5.03217 116.638C4.98738 116.958 5.01354 117.285 5.10881 117.594C5.24259 118.029 5.46617 118.431 5.76509 118.773C6.064 119.116 6.43158 119.392 6.844 119.584C7.6456 119.951 8.4592 120.028 9.244 120.1C9.86605 120.122 10.4807 120.242 11.0656 120.455C11.4328 120.616 11.8216 121.074 11.8528 121.382C11.8528 121.439 11.8528 121.49 11.7376 121.581C11.5672 121.703 11.1952 121.708 10.8376 121.713C10.2208 121.713 9.4504 121.732 8.8384 122.296C8.092 122.985 8.008 124.216 8.6392 125.145C9.2032 125.982 12.8992 128.006 13.5928 128.33C14.968 128.985 16.3816 129.52 17.6296 130C18.8296 130.458 20.2048 130.977 21.6568 131.027L21.9688 131.025ZM27.1672 106.154C27.3924 106.162 27.6095 106.24 27.7888 106.377C28.0949 106.597 28.3424 106.889 28.5098 107.227C28.6771 107.565 28.7592 107.939 28.7488 108.316C28.6504 109.478 27.9424 110.529 27.1912 111.64C26.992 111.933 26.7952 112.226 26.608 112.521C24.9064 115.209 24.0784 118.59 24.076 122.858C24.076 123.539 24.148 124.262 24.2176 124.96C24.3688 126.491 24.5248 128.08 23.8552 128.786C23.476 129.191 22.7536 129.376 21.7264 129.34C20.5504 129.297 19.372 128.86 18.2344 128.421C17.0152 127.96 15.6328 127.437 14.3248 126.822C13.168 126.278 10.4368 124.634 10.0408 124.199C9.8896 123.959 9.88721 123.642 9.99761 123.544C10.108 123.446 10.5136 123.41 10.8808 123.405C11.44 123.405 12.136 123.386 12.7336 122.958C13.0156 122.771 13.2405 122.509 13.3836 122.202C13.5267 121.895 13.5825 121.555 13.5448 121.218C13.4368 120.194 12.5464 119.274 11.7616 118.931C11.0126 118.643 10.2211 118.481 9.4192 118.451C8.7829 118.431 8.15438 118.305 7.5592 118.079C7.36857 117.988 7.19816 117.859 7.05802 117.701C6.91788 117.543 6.81084 117.358 6.74321 117.158C6.71289 117.082 6.70077 117.001 6.70786 116.92C6.71495 116.839 6.74104 116.761 6.784 116.692C6.98466 116.473 7.23023 116.299 7.504 116.183C7.98163 115.961 8.40631 115.639 8.74961 115.24C8.96725 114.958 9.11723 114.631 9.18797 114.282C9.25872 113.933 9.24834 113.573 9.15761 113.229C9.01283 112.705 8.75606 112.22 8.40507 111.805C8.05408 111.391 7.61725 111.058 7.1248 110.829C6.49024 110.558 5.82788 110.357 5.1496 110.231C4.55117 110.124 3.9678 109.945 3.41201 109.698C3.16215 109.566 2.9434 109.382 2.77039 109.159C2.59738 108.935 2.47411 108.677 2.40881 108.402C2.38252 108.306 2.38106 108.205 2.40458 108.109C2.42809 108.012 2.4758 107.923 2.54321 107.85C2.83841 107.546 3.4 107.565 4.288 107.637C5.2624 107.714 6.4744 107.812 7.3504 106.958C8.644 105.695 7.972 103.667 6.7336 102.218C5.9608 101.315 5.1664 100.298 5.5048 99.5559C5.56008 99.4452 5.63765 99.3471 5.73264 99.2678C5.82763 99.1885 5.93801 99.1297 6.05681 99.0951C6.61547 98.9304 7.21581 98.9835 7.73681 99.2439C8.32339 99.5758 8.8667 99.9788 9.35441 100.444C9.78379 100.831 10.2384 101.19 10.7152 101.517C12.0472 102.395 14.056 102.765 15.3184 101.517C15.8944 100.943 16.1152 100.216 16.3096 99.5751C16.4035 99.1944 16.5497 98.8285 16.744 98.4879C16.8953 98.2807 17.0942 98.1128 17.3239 97.9983C17.5536 97.8839 17.8074 97.8263 18.064 97.8303C18.5099 97.8186 18.9528 97.9072 19.3599 98.0896C19.767 98.2719 20.1279 98.5434 20.416 98.8839C21.4696 100.216 21.568 102.129 21.58 103.974C21.58 104.507 21.6712 106.319 22.6912 107.267C22.8971 107.462 23.1413 107.611 23.4083 107.706C23.6752 107.801 23.959 107.84 24.2416 107.819C25.0792 107.762 25.6528 107.231 26.1136 106.804C26.3198 106.592 26.554 106.408 26.8096 106.259C26.9188 106.196 27.0413 106.16 27.1672 106.154Z" fill="#4C3133"/>
<path d="M40.1662 140.56L36.3862 163.658H17.6302L13.3438 140.598C13.1614 139.614 13.8046 138.678 14.6662 138.678H38.8366C39.6862 138.676 40.3246 139.576 40.1662 140.56Z" fill="white"/>
<path d="M14.6633 138.676C13.7993 138.676 13.1585 139.602 13.3409 140.596L17.6297 163.646H36.3857L40.1657 140.56C40.3241 139.588 39.6857 138.688 38.8361 138.688H14.6633V138.676ZM14.6633 137.008H38.8361C39.2642 137.011 39.6866 137.107 40.0738 137.29C40.461 137.472 40.8036 137.737 41.0777 138.066C41.3951 138.446 41.6263 138.889 41.7552 139.367C41.8841 139.844 41.9076 140.344 41.8241 140.831L38.0441 163.929C37.9798 164.322 37.7776 164.68 37.4738 164.938C37.17 165.196 36.7843 165.338 36.3857 165.338H17.6297C17.2368 165.338 16.8561 165.2 16.554 164.949C16.2519 164.698 16.0474 164.349 15.9761 163.962L11.6921 140.903C11.5975 140.411 11.6129 139.903 11.7374 139.417C11.8619 138.931 12.0923 138.479 12.4121 138.093C12.6859 137.756 13.0308 137.484 13.4221 137.297C13.8134 137.109 14.2414 137.011 14.6753 137.008H14.6633Z" fill="#4C3133"/>
<path d="M29.3758 160.286C30.5969 160.285 31.7779 159.85 32.7078 159.058C33.6377 158.267 34.2559 157.171 34.4518 155.966L37.2814 138.669H38.8366C39.6862 138.669 40.3246 139.569 40.1662 140.541L36.3862 163.638H17.6302L16.8958 159.695C17.6272 160.077 18.4397 160.277 19.2646 160.278L29.3758 160.286Z" fill="#F0F0F0"/>
<path d="M24.0933 138.05C24.1553 138.049 24.2172 138.043 24.2781 138.03C24.3857 138.006 24.4875 137.961 24.5777 137.897C24.6678 137.833 24.7445 137.752 24.8033 137.659C24.8622 137.566 24.902 137.461 24.9206 137.353C24.9392 137.244 24.9362 137.132 24.9117 137.025C23.7933 132.062 22.6365 126.928 20.7333 122.078C18.5733 116.586 15.7077 112.18 12.1965 108.978C12.0316 108.828 11.8138 108.75 11.591 108.76C11.3683 108.77 11.1587 108.869 11.0085 109.034C10.8583 109.198 10.7797 109.416 10.79 109.639C10.8004 109.862 10.8988 110.071 11.0637 110.222C14.3829 113.246 17.1093 117.441 19.1709 122.702C21.0261 127.432 22.1685 132.501 23.2725 137.404C23.3168 137.588 23.4218 137.752 23.5708 137.869C23.7197 137.986 23.9038 138.05 24.0933 138.05Z" fill="#4C3133"/>
<path d="M23.7187 122.63C25.4131 125.044 28.4851 128.824 31.7419 128.894C34.4035 128.951 36.7411 126.494 38.4931 124.737C41.2554 121.996 43.4444 118.732 44.9323 115.137C45.0475 114.854 45.158 114.515 44.9972 114.256C44.666 113.718 43.8716 114.191 43.2572 114.335C42.2732 114.575 41.3084 113.668 41.0972 112.679C40.886 111.69 41.1883 110.67 41.4955 109.706L44.8219 99.2464C45.1219 98.2864 45.4267 97.2832 45.1531 96.328C44.8795 95.3728 43.7731 94.5904 42.8827 95.0368C41.7691 95.5936 41.5195 97.66 40.2883 97.4632C39.3283 97.3096 39.2876 95.9392 39.4772 94.9744C40.5605 89.4541 40.4121 83.7627 39.0427 78.3064C38.8555 77.5648 38.5075 76.6984 37.7539 76.5784C36.8131 76.4248 36.1987 77.5696 36.1219 78.5176C36.0451 79.4656 36.1483 80.5576 35.4739 81.2296C34.7179 81.9856 33.3619 81.7096 32.5939 80.9704C31.8259 80.2312 31.4731 79.168 31.0747 78.1744C30.3187 76.2781 29.3104 74.4924 28.0772 72.8656C27.2348 71.7544 25.8835 70.6168 24.6043 71.1688C23.4427 71.6704 23.2243 73.204 23.2699 74.4664C23.3803 77.56 24.0667 80.5984 24.7483 83.6176L20.0011 79.7008C19.5211 79.3048 18.9595 78.8848 18.3451 78.9688C17.3851 79.1008 17.0227 80.2984 17.0083 81.2656C16.9937 82.837 17.3207 84.3929 17.9667 85.8254C18.6128 87.258 19.5624 88.5331 20.7499 89.5624C21.4699 90.1792 22.3003 90.7168 22.8211 91.516C23.3419 92.3152 23.4451 93.5008 22.7419 94.156L18.9019 91.8688C18.3379 91.5328 17.6659 91.1872 17.0587 91.4344C16.4515 91.6816 16.226 92.368 16.3004 92.98C16.3748 93.592 16.706 94.1368 17.0204 94.66L23.9323 105.76C24.0905 105.97 24.1891 106.219 24.2179 106.48C24.2347 107.231 23.1715 107.517 22.4779 107.231C21.7843 106.946 21.2179 106.355 20.4811 106.211C19.2571 105.971 18.1195 107.138 17.9131 108.371C17.7067 109.605 18.1531 110.834 18.6067 111.998C20.0299 115.677 21.4531 119.402 23.7187 122.63Z" fill="#FFD900"/>
<path d="M31.8331 129.734C34.6795 129.734 37.0747 127.334 38.8315 125.586L39.0859 125.332C41.9249 122.508 44.1762 119.15 45.7099 115.451C45.8203 115.182 46.1155 114.467 45.7099 113.812C45.1075 112.833 43.9867 113.214 43.4467 113.397C43.3051 113.445 43.1707 113.49 43.0627 113.514C42.9719 113.532 42.8784 113.531 42.788 113.511C42.6975 113.492 42.6122 113.453 42.5371 113.399C42.22 113.188 41.9944 112.865 41.9059 112.494C41.7283 111.7 42.0235 110.774 42.2827 109.958L45.6091 99.4984C45.9019 98.5816 46.3003 97.3264 45.9499 96.0952C45.8301 95.6942 45.6256 95.3237 45.3503 95.0086C45.075 94.6935 44.7352 94.4412 44.3539 94.2688C44.0627 94.1328 43.7449 94.0636 43.4235 94.0661C43.1021 94.0686 42.7854 94.1427 42.4963 94.2832C41.8003 94.6288 41.4019 95.2792 41.0563 95.8528C40.8499 96.1912 40.5763 96.6568 40.4155 96.6328C40.3867 96.6328 40.3819 96.6328 40.3603 96.5968C40.2235 96.4 40.1587 95.836 40.2955 95.1352C41.4012 89.4915 41.2496 83.6736 39.8515 78.0952C39.4963 76.6888 38.8339 75.8968 37.8835 75.7432C37.6227 75.7002 37.3558 75.7133 37.1004 75.7815C36.8451 75.8498 36.6072 75.9717 36.4027 76.1392C35.6635 76.72 35.3395 77.7112 35.2795 78.448C35.2651 78.6352 35.2579 78.8272 35.2483 79.0216C35.2195 79.6864 35.1931 80.3152 34.8763 80.632C34.4803 81.0256 33.6355 80.8096 33.1723 80.3632C32.6251 79.8328 32.3155 79.048 31.9915 78.2152L31.8499 77.8576C31.0619 75.8913 30.0125 74.0403 28.7299 72.3544C27.3379 70.516 25.6627 69.784 24.2539 70.3936C23.3611 70.78 22.3171 71.8048 22.4131 74.4928C22.5325 76.8226 22.8537 79.1377 23.3731 81.412L20.4931 79.048C20.0467 78.6808 19.2115 77.9944 18.1891 78.1336C16.9627 78.2992 16.1539 79.5232 16.1275 81.2536C16.1101 82.9506 16.4638 84.631 17.1641 86.1769C17.8643 87.7229 18.894 89.097 20.1811 90.2032C20.3635 90.3568 20.5483 90.5056 20.7331 90.6544C21.2526 91.021 21.711 91.4673 22.0915 91.9768C22.2823 92.2708 22.381 92.6151 22.3747 92.9656L19.3075 91.1368C18.8059 90.8392 17.7667 90.22 16.7179 90.6568C15.8371 91.0168 15.3115 92.0128 15.4411 93.0808C15.5395 93.8872 15.9571 94.5616 16.2931 95.104L23.1883 106.216C23.2384 106.293 23.2841 106.373 23.3251 106.456C23.1442 106.524 22.9445 106.524 22.7635 106.456C22.5268 106.349 22.3003 106.22 22.0867 106.072C21.6437 105.751 21.1423 105.52 20.6107 105.39C20.2538 105.326 19.8875 105.333 19.5337 105.413C19.1799 105.493 18.8458 105.644 18.5515 105.856C17.7597 106.419 17.2216 107.272 17.0539 108.23C16.8139 109.72 17.3515 111.148 17.7931 112.31C19.2019 115.989 20.6731 119.795 23.0011 123.126C26.0443 127.461 28.9675 129.688 31.6939 129.748L31.8331 129.734ZM44.0995 114.95C42.6521 118.388 40.5471 121.51 37.9027 124.142L37.6435 124.398C35.9923 126.047 33.9403 128.104 31.7611 128.054C29.6299 128.008 27.0883 125.966 24.4075 122.147C22.1875 118.986 20.7667 115.278 19.3915 111.693C19.0051 110.685 18.5683 109.533 18.7435 108.506C18.8356 107.996 19.1211 107.541 19.5403 107.236C19.6506 107.153 19.7763 107.092 19.9103 107.058C20.0442 107.024 20.1836 107.016 20.3203 107.037C20.6414 107.131 20.943 107.282 21.2107 107.483C21.5143 107.687 21.8356 107.863 22.1707 108.009C22.5263 108.152 22.911 108.208 23.2926 108.172C23.6743 108.136 24.0418 108.009 24.3643 107.802C24.5858 107.657 24.7667 107.458 24.8901 107.224C25.0136 106.99 25.0754 106.728 25.0699 106.463C25.0415 106.051 24.8994 105.655 24.6595 105.318L17.7643 94.2064C17.4907 93.7624 17.2051 93.3064 17.1523 92.8648C17.1187 92.584 17.2339 92.2672 17.3923 92.2C17.6683 92.0896 18.2635 92.44 18.4891 92.5792L22.3291 94.8664C22.4846 94.9585 22.6656 94.9983 22.8454 94.9797C23.0252 94.9611 23.1942 94.8852 23.3275 94.7632C24.3931 93.784 24.2347 92.1232 23.5411 91.06C23.0671 90.3955 22.4865 89.8141 21.8227 89.3392C21.6499 89.2032 21.4795 89.064 21.3115 88.9216C20.2105 87.9781 19.3292 86.8052 18.7293 85.4852C18.1294 84.1651 17.8254 82.7299 17.8387 81.28C17.8387 80.608 18.0787 79.852 18.4483 79.8016C18.7435 79.7632 19.2067 80.1448 19.4563 80.3488L24.2059 84.2632C24.3408 84.3695 24.505 84.4319 24.6764 84.4421C24.8479 84.4522 25.0183 84.4095 25.1648 84.3198C25.3112 84.2301 25.4266 84.0977 25.4955 83.9404C25.5644 83.7831 25.5834 83.6084 25.5499 83.44C24.8851 80.5024 24.1987 77.4664 24.0907 74.4424C24.0667 73.8112 24.0907 72.2992 24.9187 71.9488C25.6867 71.6152 26.7307 72.5104 27.3883 73.3888C28.5741 74.9562 29.5428 76.6765 30.2683 78.5032L30.4051 78.8464C30.7627 79.768 31.1707 80.8096 31.9819 81.592C33.0403 82.6144 34.9243 82.9576 36.0427 81.832C36.8203 81.0544 36.8683 79.9744 36.9043 79.108C36.9043 78.9328 36.9211 78.76 36.9331 78.592C36.9533 78.1735 37.1237 77.7764 37.4131 77.4736C37.5067 77.3992 37.5547 77.4088 37.5883 77.4136C37.7539 77.44 38.0011 77.7448 38.1955 78.5176C39.5326 83.8548 39.6785 89.4209 38.6227 94.8208C38.5171 95.3512 38.3395 96.6832 38.9563 97.5664C39.09 97.7627 39.2628 97.9293 39.464 98.0557C39.6651 98.1821 39.8902 98.2655 40.1251 98.3008C41.3827 98.5024 42.0307 97.4416 42.4627 96.7408C42.7027 96.34 42.9619 95.9272 43.2283 95.7952C43.2967 95.7651 43.3711 95.7514 43.4457 95.7551C43.5203 95.7589 43.5929 95.78 43.6579 95.8168C43.8131 95.8894 43.9514 95.9934 44.0642 96.1223C44.177 96.2512 44.2618 96.4022 44.3131 96.5656C44.5099 97.2544 44.2843 98.0752 43.9891 98.9992L40.6627 109.458C40.3555 110.418 39.9715 111.633 40.2475 112.869C40.4319 113.678 40.9266 114.383 41.6251 114.832C41.8887 115.004 42.1839 115.121 42.4933 115.177C42.8027 115.234 43.1203 115.228 43.4275 115.161C43.6147 115.115 43.7947 115.055 43.9675 114.998L44.0995 114.95Z" fill="#4C3133"/>
<path d="M30.0046 137.838C30.1817 137.838 30.3541 137.781 30.4972 137.677C30.6403 137.573 30.7467 137.426 30.8014 137.258C35.3025 123.324 35.1898 108.311 30.4798 94.4463C30.4473 94.3381 30.3933 94.2376 30.3211 94.1508C30.2489 94.064 30.1599 93.9926 30.0595 93.9409C29.959 93.8893 29.8492 93.8584 29.7366 93.8501C29.6239 93.8419 29.5108 93.8565 29.4039 93.8929C29.297 93.9294 29.1986 93.9871 29.1145 94.0625C29.0304 94.1379 28.9624 94.2295 28.9145 94.3318C28.8666 94.4341 28.8398 94.545 28.8358 94.6579C28.8318 94.7707 28.8505 94.8833 28.891 94.9887C33.486 108.512 33.5963 123.157 29.2054 136.749C29.1651 136.875 29.1551 137.009 29.1761 137.14C29.1971 137.27 29.2486 137.394 29.3264 137.502C29.4042 137.609 29.5061 137.696 29.6239 137.757C29.7417 137.817 29.8721 137.849 30.0046 137.85V137.838Z" fill="#4C3133"/>
<path d="M25.9096 144.16H40.5496C40.7724 144.16 40.9861 144.071 41.1436 143.914C41.3011 143.756 41.3896 143.543 41.3896 143.32C41.3896 143.097 41.3011 142.884 41.1436 142.726C40.9861 142.568 40.7724 142.48 40.5496 142.48H25.9096C25.6869 142.48 25.4732 142.568 25.3157 142.726C25.1582 142.884 25.0696 143.097 25.0696 143.32C25.0696 143.543 25.1582 143.756 25.3157 143.914C25.4732 144.071 25.6869 144.16 25.9096 144.16Z" fill="#4C3133"/>
<path d="M17.7497 144.16H20.6297C20.8525 144.16 21.0662 144.071 21.2237 143.914C21.3812 143.756 21.4697 143.543 21.4697 143.32C21.4697 143.097 21.3812 142.884 21.2237 142.726C21.0662 142.568 20.8525 142.48 20.6297 142.48H17.7497C17.5269 142.48 17.3133 142.568 17.1558 142.726C16.9982 142.884 16.9097 143.097 16.9097 143.32C16.9097 143.543 16.9982 143.756 17.1558 143.914C17.3133 144.071 17.5269 144.16 17.7497 144.16Z" fill="#4C3133"/>
<path d="M68.688 11.6801H122.573C123.037 11.6797 123.497 11.7709 123.926 11.9482C124.355 12.1256 124.745 12.3857 125.073 12.7138C125.402 13.0418 125.662 13.4314 125.84 13.8602C126.018 14.289 126.11 14.7486 126.11 15.2129V30.9089C126.111 31.3732 126.019 31.833 125.842 32.2621C125.664 32.6911 125.404 33.081 125.076 33.4093C124.747 33.7377 124.357 33.998 123.928 34.1756C123.499 34.3531 123.039 34.4444 122.575 34.4441H121.056C120.95 34.4441 120.848 34.4863 120.773 34.5614C120.697 34.6366 120.655 34.7386 120.655 34.8449V38.9609C120.656 39.0316 120.638 39.1011 120.602 39.1625C120.567 39.2238 120.516 39.2746 120.455 39.3098C120.394 39.345 120.324 39.3632 120.253 39.3626C120.183 39.3621 120.113 39.3427 120.053 39.3065L111.934 34.5065C111.872 34.4686 111.802 34.4487 111.73 34.4489H68.688C68.2231 34.4492 67.7627 34.3578 67.3332 34.18C66.9037 34.0022 66.5135 33.7414 66.1849 33.4126C65.8564 33.0838 65.5958 32.6934 65.4183 32.2637C65.2408 31.8341 65.1497 31.3737 65.1504 30.9089V15.2129C65.1516 14.2755 65.5249 13.3769 66.1882 12.7145C66.8515 12.0521 67.7506 11.6801 68.688 11.6801Z" fill="white"/>
<path d="M68.6876 11.68C67.7502 11.68 66.8512 12.052 66.1879 12.7144C65.5246 13.3768 65.1513 14.2754 65.15 15.2128V30.9088C65.15 31.3732 65.2416 31.8331 65.4194 32.2622C65.5972 32.6913 65.8578 33.0811 66.1863 33.4094C66.5149 33.7377 66.9048 33.9981 67.334 34.1756C67.7632 34.3531 68.2232 34.4443 68.6876 34.444H111.727C111.799 34.4438 111.87 34.4638 111.931 34.5016L120.05 39.3016C120.111 39.3378 120.181 39.3569 120.252 39.3568C120.358 39.3568 120.46 39.3146 120.535 39.2394C120.61 39.1642 120.652 39.0623 120.652 38.956V34.8448C120.652 34.7385 120.695 34.6366 120.77 34.5614C120.845 34.4862 120.947 34.444 121.053 34.444H122.572C123.037 34.4446 123.497 34.3536 123.926 34.1762C124.356 33.9988 124.746 33.7385 125.074 33.4101C125.403 33.0818 125.664 32.6918 125.841 32.2626C126.019 31.8334 126.11 31.3733 126.11 30.9088V15.2128C126.11 14.7486 126.018 14.2889 125.84 13.8601C125.662 13.4313 125.401 13.0418 125.073 12.7137C124.744 12.3857 124.355 12.1256 123.925 11.9482C123.496 11.7708 123.037 11.6797 122.572 11.68H68.6876ZM68.6876 10H122.572C123.955 10.0013 125.281 10.5507 126.259 11.5279C127.237 12.5051 127.787 13.8302 127.79 15.2128V30.9088C127.788 32.2914 127.238 33.6168 126.26 34.5944C125.283 35.572 123.957 36.1221 122.575 36.124H122.335V38.9608C122.335 39.328 122.239 39.6888 122.054 40.0065C121.87 40.3242 121.605 40.5874 121.286 40.7693C120.967 40.9512 120.606 41.0454 120.238 41.0422C119.871 41.039 119.511 40.9386 119.196 40.7512L111.379 36.124H68.6876C67.3046 36.1227 65.9786 35.5729 65.0005 34.5952C64.0224 33.6175 63.4719 32.2918 63.47 30.9088V15.2128C63.4726 13.8302 64.0233 12.5051 65.0013 11.5279C65.9794 10.5507 67.3051 10.0013 68.6876 10Z" fill="#4C3133"/>
<path d="M91.9343 26.2624H120.398C120.621 26.2624 120.835 26.1739 120.992 26.0164C121.15 25.8588 121.238 25.6452 121.238 25.4224C121.238 25.1996 121.15 24.986 120.992 24.8284C120.835 24.6709 120.621 24.5824 120.398 24.5824H91.9343C91.7115 24.5824 91.4978 24.6709 91.3403 24.8284C91.1828 24.986 91.0943 25.1996 91.0943 25.4224C91.0943 25.6452 91.1828 25.8588 91.3403 26.0164C91.4978 26.1739 91.7115 26.2624 91.9343 26.2624Z" fill="#4C3133"/>
<path d="M120.398 21.7601C120.621 21.7616 120.835 21.6747 120.994 21.5183C121.152 21.3619 121.243 21.1488 121.244 20.9261C121.246 20.7033 121.159 20.489 121.002 20.3303C120.846 20.1717 120.633 20.0816 120.41 20.0801L104.99 19.8401C104.88 19.8385 104.77 19.8586 104.668 19.8994C104.565 19.9402 104.472 20.0007 104.393 20.0776C104.314 20.1545 104.25 20.2462 104.207 20.3475C104.163 20.4488 104.14 20.5577 104.138 20.6681C104.137 20.7784 104.157 20.8879 104.197 20.9904C104.238 21.0929 104.299 21.1864 104.376 21.2655C104.453 21.3447 104.544 21.4078 104.646 21.4515C104.747 21.4952 104.856 21.5185 104.966 21.5201L120.384 21.7601H120.398Z" fill="#4C3133"/>
<path d="M79.9986 24.0857C81.333 24.0353 85.1874 24.2345 86.0922 28.1489C86.1161 28.2594 86.1756 28.359 86.2615 28.4324C86.3475 28.5058 86.4551 28.5489 86.568 28.5552C86.6809 28.5615 86.7927 28.5305 86.8862 28.4671C86.9798 28.4036 87.0499 28.3112 87.0858 28.2041C87.9258 25.6961 88.1514 21.3137 79.9698 20.5601C79.8483 20.5512 79.7337 20.5 79.646 20.4154C79.5582 20.3308 79.503 20.218 79.4898 20.0969L79.1826 16.9601C79.1737 16.8681 79.1403 16.7803 79.0859 16.7056C79.0314 16.631 78.958 16.5724 78.8731 16.5359C78.7883 16.4993 78.6952 16.4862 78.6036 16.4979C78.512 16.5097 78.4252 16.5458 78.3522 16.6025L71.4882 21.9401C71.4282 21.9865 71.3791 22.0456 71.3446 22.1132C71.31 22.1808 71.2908 22.2552 71.2883 22.3311C71.2857 22.4069 71.3 22.4824 71.33 22.5522C71.36 22.6219 71.405 22.6841 71.4618 22.7345L78.3162 28.8281C78.3878 28.8924 78.476 28.9354 78.5708 28.9522C78.6655 28.9691 78.7631 28.9591 78.8525 28.9234C78.9418 28.8877 79.0194 28.8277 79.0765 28.7502C79.1336 28.6727 79.1679 28.5808 79.1754 28.4849L79.5042 24.5609C79.5146 24.435 79.5706 24.3173 79.6616 24.2298C79.7527 24.1424 79.8725 24.0911 79.9986 24.0857Z" fill="#C5E6F1"/>
<path d="M78.6596 29.8C79.0002 29.7995 79.3282 29.6712 79.5788 29.4406C79.8294 29.21 79.9844 28.8938 80.0132 28.5544L80.3156 24.9208C81.7556 24.9208 84.5756 25.3168 85.274 28.3384C85.3391 28.6273 85.497 28.8869 85.7235 29.0776C85.9499 29.2683 86.2326 29.3796 86.5283 29.3946C86.824 29.4096 87.1165 29.3273 87.3611 29.1604C87.6057 28.9936 87.7889 28.7512 87.8828 28.4704C88.5788 26.392 88.442 24.52 87.4892 23.0584C86.2892 21.232 83.8892 20.1184 80.306 19.7488L80.0204 16.8688C79.9967 16.6272 79.9085 16.3964 79.765 16.2006C79.6216 16.0047 79.4282 15.8509 79.2051 15.7553C78.982 15.6596 78.7372 15.6257 78.4965 15.6569C78.2557 15.6881 78.0278 15.7834 77.8364 15.9328L70.9724 21.28C70.8151 21.4023 70.6867 21.5577 70.5963 21.7352C70.5058 21.9127 70.4556 22.108 70.4492 22.3071C70.4428 22.5062 70.4803 22.7043 70.5591 22.8872C70.638 23.0702 70.7561 23.2335 70.9052 23.3656L77.7596 29.4592C78.0076 29.6794 78.328 29.8007 78.6596 29.8ZM79.9652 23.248C79.6343 23.261 79.3196 23.3946 79.0804 23.6236C78.8412 23.8526 78.6941 24.1612 78.6668 24.4912L78.3932 27.772L72.3092 22.3648L78.4052 17.6248L78.662 20.1784C78.6942 20.4926 78.8346 20.7858 79.0592 21.0078C79.2838 21.2298 79.5787 21.3668 79.8932 21.3952C83.0732 21.688 85.154 22.5568 86.0804 23.9776C86.6732 24.8824 86.7164 25.936 86.5604 26.8576C85.0892 23.3416 81.2084 23.1928 79.9652 23.2408V23.248Z" fill="#4C3133"/>
<path d="M99.5871 21.52H101.987C102.21 21.52 102.424 21.4315 102.581 21.2739C102.739 21.1164 102.827 20.9027 102.827 20.68C102.827 20.4572 102.739 20.2435 102.581 20.086C102.424 19.9285 102.21 19.84 101.987 19.84H99.5871C99.3644 19.84 99.1507 19.9285 98.9932 20.086C98.8357 20.2435 98.7471 20.4572 98.7471 20.68C98.7471 20.9027 98.8357 21.1164 98.9932 21.2739C99.1507 21.4315 99.3644 21.52 99.5871 21.52Z" fill="#4C3133"/>
<path d="M75.2757 77.3632C80.9949 70.3864 92.3829 66.58 100.221 71.0416C105.866 74.2552 108.904 80.668 110.51 86.9608C112.116 93.2536 112.651 99.8416 114.993 105.899C118.716 115.518 126.825 123.03 136.113 127.499C145.286 131.92 153.59 133.36 163.706 133.746C162.746 143.565 155.568 151.986 146.695 156.546H94.9101C92.5205 155.598 90.2401 154.395 88.1085 152.958C80.7549 147.947 75.8349 140.03 72.5085 131.774C68.7371 122.392 66.7691 112.384 66.7077 102.273C66.6525 93.2656 69.5565 84.3376 75.2757 77.3632Z" fill="#C5E6F1"/>
<path d="M92.5385 69.1217C86.1185 69.1217 79.2953 72.46 75.2753 77.3632C69.5561 84.3376 66.6521 93.2657 66.7025 102.285C66.7639 112.396 68.7319 122.404 72.5033 131.786C75.8273 140.042 80.7473 147.959 88.1033 152.97C90.2365 154.408 92.5185 155.611 94.9097 156.558H146.695C155.575 151.998 162.751 143.565 163.706 133.758C153.59 133.374 145.286 131.932 136.12 127.518C126.825 123.042 118.715 115.518 115 105.918C112.658 99.8608 112.12 93.2729 110.517 86.9801C108.914 80.6873 105.873 74.2745 100.228 71.0609C97.8789 69.7632 95.2316 69.1014 92.5481 69.1409L92.5385 69.1217ZM92.5481 67.4609C95.7017 67.4609 98.5649 68.1809 101.061 69.6017C106.307 72.5873 110.037 78.2944 112.147 86.5648C112.754 88.9504 113.215 91.3912 113.661 93.7504C114.429 97.8112 115.151 101.644 116.57 105.311C119.875 113.848 127.269 121.391 136.859 126.011C144.952 129.909 152.75 131.668 163.778 132.088C164.006 132.097 164.231 132.152 164.437 132.251C164.644 132.349 164.828 132.489 164.979 132.662C165.129 132.834 165.243 133.035 165.313 133.253C165.383 133.471 165.408 133.701 165.386 133.929C164.906 138.904 162.871 143.826 159.508 148.17C156.259 152.298 152.151 155.669 147.47 158.051C147.232 158.174 146.967 158.238 146.699 158.238H94.9097C94.695 158.239 94.4822 158.197 94.2833 158.116C91.7817 157.122 89.3943 155.862 87.1625 154.358C80.4185 149.764 74.9657 142.382 70.9505 132.414C67.1138 122.832 65.1056 112.616 65.0297 102.294C64.9769 92.6369 68.1497 83.4064 73.9841 76.2976C78.3929 70.9168 85.6793 67.4417 92.5457 67.4417L92.5481 67.4609Z" fill="#4C3133"/>
<path d="M89.8699 151.12H132.83C143.26 151.12 152.812 144.983 156.868 135.374C157.149 134.711 157.396 134.034 157.619 133.353C159.592 133.54 161.618 133.667 163.723 133.746C162.763 143.565 155.584 151.986 146.711 156.546H94.9099C88.9072 154.2 83.6888 150.207 79.8547 145.026C80.8727 145.926 81.946 146.761 83.0683 147.527C85.1997 148.966 87.4801 150.17 89.8699 151.12Z" fill="#81C4D4"/>
<path d="M88.31 82.84C101.51 81.64 101.51 94.12 96.95 98.92C92.39 103.72 83.63 99.04 76.19 99.76C72.1316 100.154 66.8588 97.84 67.2044 95.6416C67.9597 90.7928 69.6241 86.1303 72.11 81.8992C77.3468 81.628 78.4892 83.7328 88.31 82.84Z" fill="#81C4D4"/>
<path d="M72.9886 90.8512C72.025 90.8512 71.2438 90.07 71.2438 89.1064C71.2438 88.1427 72.025 87.3616 72.9886 87.3616C73.9522 87.3616 74.7334 88.1427 74.7334 89.1064C74.7334 90.07 73.9522 90.8512 72.9886 90.8512Z" fill="#4C3133"/>
<path d="M87.8851 91.7152C86.9215 91.7152 86.1403 90.934 86.1403 89.9704C86.1403 89.0068 86.9215 88.2256 87.8851 88.2256C88.8487 88.2256 89.6299 89.0068 89.6299 89.9704C89.6299 90.934 88.8487 91.7152 87.8851 91.7152Z" fill="#4C3133"/>
<path d="M72.9861 79.4992H73.1085L75.1005 79.2976C75.4188 79.2658 75.7114 79.1088 75.9139 78.8613C76.1164 78.6137 76.2124 78.2958 76.1805 77.9776C76.1487 77.6593 75.9918 77.3668 75.7442 77.1642C75.4967 76.9617 75.1788 76.8658 74.8605 76.8976L72.8709 77.0992C72.7133 77.1069 72.5588 77.1456 72.4162 77.213C72.2735 77.2805 72.1456 77.3754 72.0396 77.4922C71.9337 77.6091 71.8517 77.7458 71.7986 77.8943C71.7454 78.0428 71.722 78.2004 71.7297 78.358C71.7374 78.5156 71.7761 78.6701 71.8436 78.8127C71.911 78.9554 72.0059 79.0833 72.1228 79.1893C72.2397 79.2953 72.3763 79.3772 72.5248 79.4303C72.6734 79.4835 72.8309 79.5069 72.9885 79.4992H72.9861Z" fill="#4C3133"/>
<path d="M90.5729 82.24C90.8483 82.2396 91.1153 82.1446 91.3289 81.9707C91.5425 81.7969 91.6899 81.5548 91.7462 81.2852C91.8024 81.0156 91.7643 80.7348 91.638 80.49C91.5118 80.2452 91.3052 80.0513 91.0529 79.9408L89.2193 79.144C88.9274 79.0167 88.597 79.0105 88.3006 79.1268C88.0042 79.2432 87.7662 79.4725 87.6389 79.7644C87.5116 80.0562 87.5054 80.3867 87.6218 80.683C87.7381 80.9794 87.9674 81.2174 88.2593 81.3448L90.0953 82.1416C90.2461 82.2067 90.4086 82.2402 90.5729 82.24Z" fill="#4C3133"/>
<path d="M85.7587 63.532C91.4419 61.852 98.6756 63.0808 103.872 65.932C106.144 67.18 108.247 68.8384 110.757 69.4864C113.268 70.1344 116.436 69.3544 117.408 66.952C117.981 65.5384 117.648 63.8728 116.822 62.5912C115.996 61.3096 114.736 60.3664 113.414 59.6104C110.072 57.7135 106.234 56.871 102.405 57.1936C101.373 57.2824 99.9763 57.2104 99.7651 56.1976C99.6067 55.4128 100.392 54.7576 101.152 54.5176C101.913 54.2776 102.77 54.2104 103.38 53.6968C104.16 53.0392 104.248 51.7984 103.78 50.8936C103.312 49.9888 102.408 49.3792 101.464 48.9976C97.6459 47.452 93.0907 49.2208 90.3619 52.3072C87.6331 55.3936 86.4164 59.5192 85.6916 63.5728L85.7587 63.532Z" fill="#C5E6F1"/>
<path d="M112.485 70.54C114.863 70.54 117.285 69.4864 118.187 67.2664C118.825 65.6896 118.578 63.772 117.527 62.1376C116.742 60.9184 115.533 59.8528 113.829 58.8808C110.337 56.9025 106.33 56.0227 102.33 56.356C101.253 56.4496 100.65 56.2624 100.593 56.0296C100.554 55.8352 100.912 55.4704 101.416 55.3096C101.605 55.2472 101.814 55.1968 102.033 55.1416C102.647 54.9928 103.341 54.8224 103.924 54.3304C104.951 53.4664 105.213 51.82 104.531 50.4904C104.029 49.5184 103.079 48.7264 101.783 48.2032C97.9119 46.6336 92.9607 48.088 89.7375 51.7336C86.6175 55.2688 85.4631 60.088 84.8703 63.4072C84.8415 63.5607 84.8562 63.7191 84.9127 63.8647C84.9692 64.0102 85.0653 64.1371 85.1901 64.2309C85.3149 64.3248 85.4634 64.3819 85.619 64.3958C85.7745 64.4097 85.9308 64.3798 86.0703 64.3096C91.2087 62.8192 98.1903 63.7624 103.473 66.6616C104.113 67.012 104.761 67.4104 105.393 67.7944C106.998 68.7808 108.657 69.8008 110.56 70.2928C111.189 70.4544 111.835 70.5375 112.485 70.54ZM103.998 57.964C107.152 57.9666 110.252 58.7851 112.996 60.34C114.46 61.1752 115.48 62.0608 116.116 63.0472C116.862 64.204 117.059 65.5792 116.632 66.6472C115.84 68.6032 113.077 69.2272 110.97 68.6848C109.309 68.2552 107.831 67.3456 106.264 66.3832C105.621 65.9872 104.956 65.5792 104.277 65.2072C98.9343 62.2744 92.2167 61.228 86.7759 62.416C87.3975 59.4304 88.5303 55.6576 90.9999 52.864C93.2559 50.3104 97.3959 48.256 101.154 49.7776C101.795 50.0368 102.642 50.5096 103.041 51.28C103.36 51.8992 103.281 52.696 102.846 53.056C102.563 53.296 102.126 53.3992 101.646 53.5192C101.406 53.5792 101.166 53.6392 100.907 53.7208C99.7479 54.0976 98.7063 55.132 98.9583 56.3752C99.1047 57.0952 99.7599 58.2784 102.489 58.0432C102.983 57.9856 103.492 57.964 103.998 57.964Z" fill="#4C3133"/>
<path d="M45.7743 68.0416C53.3727 70.3576 59.855 63.256 61.3046 56.7616C61.5734 55.5616 61.8399 54.292 61.4967 53.1064C61.1535 51.9208 59.9726 50.8792 58.7678 51.1432C57.563 51.4072 56.9631 52.72 56.4399 53.8384C55.9167 54.9568 54.9999 56.1904 53.7855 56.044C52.4655 55.888 51.9231 54.2968 51.6687 52.9912L50.1014 44.932C49.8735 43.7584 49.5303 42.424 48.4599 41.8888C47.2599 41.2912 45.7431 42.112 45.1143 43.2928C44.4855 44.4736 44.5143 45.8848 44.5743 47.2216C44.6343 48.5584 44.7087 49.9576 44.1519 51.1768C43.5973 48.5661 42.5682 46.0793 41.1159 43.84C40.5063 42.904 39.4959 41.9032 38.4471 42.2824C37.5111 42.6208 37.2687 43.8136 37.2327 44.8072C37.1315 47.6138 37.5164 50.4167 38.3703 53.092C37.8902 51.784 37.3694 50.4232 36.3278 49.492C35.2862 48.5608 33.5511 48.2608 32.5287 49.2064C31.2231 50.4064 31.8759 52.5664 32.7087 54.1432C34.438 57.4046 36.5628 60.4403 39.0351 63.1816C40.9095 65.26 43.0911 67.2232 45.7743 68.0416Z" fill="#C5E6F1"/>
<path d="M48.7187 69.3281C50.7328 69.3135 52.7061 68.7591 54.4331 67.7225C58.1243 65.5625 61.1531 61.3384 62.1131 56.9344C62.3747 55.7536 62.7035 54.2824 62.2907 52.8544C61.8515 51.3328 60.3035 49.9264 58.5755 50.3056C56.9771 50.656 56.2595 52.192 55.6955 53.4256L55.6787 53.4641C55.4771 53.8961 54.7475 55.2952 53.8859 55.192C53.0987 55.0984 52.6859 53.8457 52.4939 52.8137L50.9267 44.752C50.7299 43.7512 50.3675 41.884 48.8339 41.1184C47.1659 40.288 45.1811 41.3584 44.3723 42.88C43.7027 44.1424 43.6667 45.52 43.7243 46.96C43.1981 45.7054 42.5604 44.5006 41.8187 43.36C40.7603 41.7328 39.3923 41.0273 38.1611 41.4713C37.3979 41.7473 36.4811 42.5392 36.3923 44.7544C36.3452 46.0316 36.3958 47.3106 36.5435 48.58C35.2331 47.6536 33.2387 47.392 31.9595 48.58C30.6179 49.8208 30.6203 51.988 31.9595 54.5272C33.721 57.8498 35.8862 60.942 38.4059 63.7337C40.1099 65.6201 42.4571 67.9024 45.5243 68.8384C46.559 69.1589 47.6355 69.3239 48.7187 69.3281ZM59.1491 51.9328C59.8139 51.9328 60.4883 52.6193 60.6947 53.3297C60.9875 54.3377 60.7235 55.5232 60.4883 56.5696C59.6051 60.5368 56.8883 64.3456 53.5931 66.2704C51.1787 67.6768 48.5531 68.0128 46.0235 67.2304C43.3499 66.4168 41.2235 64.3337 39.6635 62.6081C37.2347 59.9161 35.1492 56.9333 33.4547 53.7281C33.0995 53.0585 32.0267 50.7976 33.1043 49.8016C33.7787 49.1776 35.0531 49.4584 35.7731 50.0992C36.6827 50.9056 37.1627 52.2065 37.5875 53.3537C37.66 53.5643 37.8133 53.7376 38.0136 53.8352C38.2139 53.9329 38.4448 53.947 38.6555 53.8744C38.8661 53.8019 39.0394 53.6486 39.1371 53.4483C39.2347 53.248 39.2488 53.0171 39.1763 52.8064C38.3474 50.2242 37.9746 47.5174 38.0747 44.8072C38.0939 44.344 38.1899 43.24 38.7371 43.0432C39.2315 42.8656 39.9371 43.5233 40.4171 44.2697C41.8168 46.42 42.807 48.8106 43.3379 51.3209C43.3743 51.494 43.4645 51.6512 43.5955 51.77C43.7266 51.8889 43.8918 51.9633 44.0676 51.9827C44.2435 52.0022 44.421 51.9656 44.5748 51.8782C44.7286 51.7908 44.8509 51.657 44.9243 51.496C45.5579 50.1064 45.4859 48.5585 45.4235 47.1953V47.1544C45.3635 45.8632 45.3515 44.6248 45.8651 43.66C46.2947 42.8536 47.3387 42.2369 48.0923 42.6137C48.7907 42.9617 49.0787 43.9961 49.2923 45.0641L50.8595 53.1232C51.3059 55.4248 52.2635 56.68 53.7011 56.8504C55.0787 57.016 56.3411 56.0608 57.2147 54.1648L57.2339 54.1264C57.6755 53.1808 58.1747 52.1057 58.9619 51.9353C59.024 51.928 59.0867 51.9272 59.1491 51.9328Z" fill="#4C3133"/>
<path d="M53.9492 56.4448C52.8075 56.4819 51.6911 56.7911 50.693 57.3468C49.6949 57.9024 48.8439 58.6883 48.2108 59.6392" fill="#C5E6F1"/>
<path d="M48.208 60.4793C48.3482 60.4798 48.4862 60.4451 48.6095 60.3784C48.7328 60.3118 48.8373 60.2152 48.9136 60.0977C49.474 59.2625 50.2241 58.5717 51.1025 58.082C51.981 57.5923 52.963 57.3175 53.968 57.2801C54.1908 57.275 54.4025 57.1816 54.5564 57.0205C54.7103 56.8593 54.7939 56.6437 54.7888 56.4209C54.7838 56.1981 54.6904 55.9865 54.5292 55.8325C54.3681 55.6786 54.1524 55.595 53.9296 55.6001C52.6513 55.6373 51.4007 55.9812 50.2831 56.6027C49.1654 57.2242 48.2134 58.1051 47.5072 59.1713C47.4465 59.2634 47.4046 59.3667 47.3837 59.4751C47.3629 59.5835 47.3637 59.6949 47.386 59.803C47.4083 59.9111 47.4517 60.0138 47.5137 60.1051C47.5756 60.1964 47.655 60.2746 47.7472 60.3353C47.8837 60.4268 48.0437 60.4768 48.208 60.4793Z" fill="#4C3133"/>
<path d="M67.4296 45.6401C67.4296 45.6401 69.8296 55.0001 61.6696 66.5201L67.4296 45.6401Z" fill="white"/>
<path d="M61.6694 67.3601C61.8039 67.3602 61.9364 67.3279 62.0558 67.2661C62.1753 67.2043 62.2781 67.1147 62.3558 67.0049C70.6454 55.3025 68.3558 45.8297 68.243 45.4313C68.183 45.221 68.0433 45.0424 67.8537 44.9334C67.6641 44.8245 67.4394 44.7938 67.2275 44.8479C67.0156 44.9019 66.8332 45.0365 66.7189 45.223C66.6047 45.4095 66.5677 45.6332 66.6158 45.8465C66.6446 45.9665 68.7758 55.0217 60.983 66.0353C60.8941 66.1611 60.8415 66.3089 60.8309 66.4625C60.8204 66.6162 60.8523 66.7698 60.9231 66.9065C60.994 67.0433 61.1011 67.1579 61.2327 67.2379C61.3643 67.3179 61.5154 67.3602 61.6694 67.3601Z" fill="#4C3133"/>
<path d="M209.798 50.3945H142.526C141.355 50.3945 140.231 50.8598 139.403 51.688C138.575 52.5161 138.11 53.6393 138.11 54.8105V74.4065C138.11 75.5777 138.575 76.701 139.403 77.5291C140.231 78.3573 141.355 78.8225 142.526 78.8225H144.422C144.554 78.8232 144.681 78.8763 144.775 78.9703C144.869 79.0643 144.921 79.1915 144.921 79.3241V84.4625C144.921 84.5506 144.944 84.6372 144.989 84.7134C145.033 84.7896 145.096 84.8527 145.173 84.8963C145.25 84.9399 145.336 84.9625 145.424 84.9618C145.513 84.9611 145.599 84.937 145.675 84.8921L155.81 78.8921C155.887 78.8466 155.975 78.8226 156.064 78.8225H209.798C210.969 78.8225 212.092 78.3573 212.92 77.5291C213.749 76.701 214.214 75.5777 214.214 74.4065V54.8105C214.214 53.6393 213.749 52.5161 212.92 51.688C212.092 50.8598 210.969 50.3945 209.798 50.3945Z" fill="white"/>
<path d="M142.526 50.3945C141.354 50.3945 140.231 50.8597 139.403 51.6879C138.575 52.5161 138.11 53.6393 138.11 54.8105V74.4065C138.11 75.5777 138.575 76.7009 139.403 77.5291C140.231 78.3572 141.354 78.8225 142.526 78.8225H144.422C144.554 78.8231 144.681 78.8762 144.775 78.9702C144.868 79.0642 144.921 79.1915 144.921 79.3241V84.4625C144.921 84.5506 144.944 84.6371 144.988 84.7133C145.033 84.7895 145.096 84.8526 145.173 84.8962C145.249 84.9399 145.336 84.9625 145.424 84.9618C145.512 84.961 145.599 84.937 145.674 84.8921L155.81 78.8921C155.887 78.8466 155.974 78.8226 156.064 78.8225H209.798C210.969 78.8225 212.092 78.3572 212.92 77.5291C213.748 76.7009 214.214 75.5777 214.214 74.4065V54.8105C214.214 53.6393 213.748 52.5161 212.92 51.6879C212.092 50.8597 210.969 50.3945 209.798 50.3945H142.526ZM142.526 48.7145H209.798C211.414 48.7164 212.963 49.3593 214.106 50.5021C215.249 51.6449 215.892 53.1943 215.894 54.8105V74.4065C215.892 76.0228 215.25 77.5727 214.107 78.7156C212.964 79.8585 211.414 80.5012 209.798 80.5025H156.388L146.531 86.3369C146.2 86.533 145.823 86.6381 145.439 86.6414C145.054 86.6447 144.676 86.5462 144.341 86.3558C144.007 86.1654 143.729 85.89 143.536 85.5574C143.343 85.2249 143.241 84.8471 143.241 84.4625V80.5025H142.521C140.904 80.5012 139.355 79.8585 138.212 78.7156C137.069 77.5727 136.426 76.0228 136.425 74.4065V54.8105C136.427 53.1943 137.07 51.6449 138.212 50.5021C139.355 49.3593 140.905 48.7164 142.521 48.7145H142.526Z" fill="#4C3133"/>
<path d="M214.214 57.7985C210.289 57.7985 207.108 54.6168 207.108 50.6921C207.108 46.7673 210.289 43.5857 214.214 43.5857C218.139 43.5857 221.32 46.7673 221.32 50.6921C221.32 54.6168 218.139 57.7985 214.214 57.7985Z" fill="white"/>
<path d="M214.214 43.5856C212.808 43.5856 211.434 44.0024 210.265 44.7833C209.097 45.5641 208.186 46.674 207.648 47.9725C207.11 49.2711 206.97 50.6999 207.244 52.0784C207.518 53.4569 208.195 54.7232 209.189 55.717C210.182 56.7109 211.449 57.3877 212.827 57.6619C214.206 57.9361 215.635 57.7954 216.933 57.2575C218.232 56.7196 219.341 55.8088 220.122 54.6401C220.903 53.4715 221.32 52.0975 221.32 50.692C221.32 48.8073 220.571 46.9998 219.239 45.6671C217.906 44.3343 216.098 43.5856 214.214 43.5856ZM214.214 41.9056C215.951 41.9056 217.65 42.421 219.095 43.3864C220.54 44.3519 221.666 45.7241 222.331 47.3296C222.996 48.9351 223.17 50.7018 222.831 52.4062C222.492 54.1106 221.655 55.6762 220.427 56.905C219.198 58.1338 217.632 58.9706 215.928 59.3096C214.223 59.6486 212.457 59.4746 210.851 58.8096C209.246 58.1446 207.873 57.0184 206.908 55.5735C205.943 54.1286 205.427 52.4298 205.427 50.692C205.43 48.3625 206.356 46.1291 208.003 44.4819C209.651 42.8347 211.884 41.9082 214.214 41.9056Z" fill="#4C3133"/>
<path d="M160.613 70.533H149.071C147.925 70.533 146.995 69.6035 146.995 68.457V61.653C146.995 60.5064 147.925 59.577 149.071 59.577H160.613C161.759 59.577 162.689 60.5064 162.689 61.653V68.457C162.689 69.6035 161.759 70.533 160.613 70.533Z" fill="#C5E6F1"/>
<path d="M149.071 71.3729H160.612C161.386 71.3716 162.127 71.0637 162.674 70.5166C163.22 69.9695 163.528 69.2279 163.528 68.4545V61.6529C163.528 60.8795 163.22 60.1379 162.674 59.5908C162.127 59.0437 161.386 58.7358 160.612 58.7345H149.071C148.297 58.7358 147.556 59.0437 147.009 59.5908C146.463 60.1379 146.155 60.8795 146.155 61.6529V68.4545C146.155 69.2279 146.463 69.9695 147.009 70.5166C147.556 71.0637 148.297 71.3716 149.071 71.3729ZM160.612 60.4145C160.94 60.4151 161.255 60.5459 161.486 60.7781C161.718 61.0102 161.848 61.3249 161.848 61.6529V68.4545C161.848 68.7825 161.718 69.0972 161.486 69.3293C161.255 69.5615 160.94 69.6923 160.612 69.6929H149.071C148.743 69.6923 148.428 69.5615 148.197 69.3293C147.965 69.0972 147.835 68.7825 147.835 68.4545V61.6529C147.835 61.3249 147.965 61.0102 148.197 60.7781C148.428 60.5459 148.743 60.4151 149.071 60.4145H160.612Z" fill="#4C3133"/>
<path d="M162.338 70.4512C162.508 70.4512 162.675 70.3993 162.815 70.3025C162.955 70.2056 163.063 70.0684 163.123 69.909C163.184 69.7496 163.194 69.5756 163.153 69.4101C163.112 69.2446 163.022 69.0955 162.895 68.9824L155.251 62.2048C155.098 62.0719 154.902 61.9988 154.699 61.9988C154.496 61.9988 154.3 62.0719 154.147 62.2048L146.611 68.6344C146.441 68.7789 146.336 68.9849 146.318 69.207C146.3 69.4291 146.371 69.6492 146.516 69.8188C146.66 69.9885 146.866 70.0938 147.088 70.1115C147.311 70.1293 147.531 70.0581 147.7 69.9136L154.67 63.9448L161.779 70.24C161.933 70.3764 162.132 70.4516 162.338 70.4512Z" fill="#4C3133"/>
<path d="M147.662 60.1288L154.694 66.0904L162.019 60.1288" fill="#C5E6F1"/>
<path d="M154.693 66.9304C154.886 66.9308 155.073 66.8637 155.221 66.7408L162.549 60.7792C162.721 60.6385 162.831 60.435 162.854 60.2133C162.877 59.9916 162.81 59.77 162.67 59.5972C162.529 59.4244 162.326 59.3145 162.104 59.2918C161.882 59.2691 161.661 59.3353 161.488 59.476L154.703 64.996L148.206 59.476C148.036 59.3318 147.816 59.2611 147.594 59.2793C147.372 59.2975 147.166 59.4033 147.022 59.5732C146.878 59.7432 146.807 59.9634 146.825 60.1855C146.843 60.4077 146.949 60.6134 147.119 60.7576L154.149 66.7192C154.299 66.8523 154.492 66.9273 154.693 66.9304Z" fill="#4C3133"/>
<path d="M168.611 69.2993H204.145C204.368 69.2993 204.582 69.2108 204.739 69.0532C204.897 68.8957 204.985 68.682 204.985 68.4593C204.985 68.2365 204.897 68.0228 204.739 67.8653C204.582 67.7078 204.368 67.6193 204.145 67.6193H168.611C168.388 67.6193 168.175 67.7078 168.017 67.8653C167.859 68.0228 167.771 68.2365 167.771 68.4593C167.771 68.682 167.859 68.8957 168.017 69.0532C168.175 69.2108 168.388 69.2993 168.611 69.2993Z" fill="#4C3133"/>
<path d="M168.611 63.6736H168.623L187.871 63.376C187.982 63.3743 188.091 63.3508 188.192 63.307C188.293 63.2632 188.385 63.1999 188.461 63.1207C188.538 63.0414 188.599 62.9479 188.639 62.8453C188.68 62.7427 188.7 62.6331 188.698 62.5228C188.696 62.4125 188.673 62.3036 188.629 62.2024C188.585 62.1011 188.522 62.0095 188.443 61.9327C188.364 61.8559 188.27 61.7955 188.167 61.7549C188.065 61.7143 187.955 61.6943 187.845 61.696L168.597 61.9936C168.374 61.9955 168.161 62.0859 168.005 62.2447C167.849 62.4036 167.762 62.618 167.764 62.8408C167.766 63.0636 167.856 63.2765 168.015 63.4327C168.174 63.5889 168.389 63.6755 168.611 63.6736Z" fill="#4C3133"/>
<path d="M214.789 53.9201H214.816C214.952 53.9155 215.085 53.878 215.203 53.8107C215.321 53.7434 215.422 53.6483 215.495 53.5337L217.655 50.1737C217.722 50.0812 217.769 49.976 217.794 49.8647C217.818 49.7533 217.82 49.6381 217.799 49.5261C217.777 49.414 217.734 49.3075 217.67 49.2129C217.606 49.1184 217.524 49.0378 217.428 48.9761C217.332 48.9144 217.224 48.873 217.112 48.8542C216.999 48.8354 216.884 48.8397 216.773 48.8669C216.663 48.8941 216.559 48.9435 216.467 49.0122C216.376 49.0809 216.3 49.1674 216.244 49.2665L214.741 51.6017L211.381 47.0609C211.318 46.9664 211.236 46.8858 211.141 46.8238C211.046 46.7619 210.939 46.7199 210.827 46.7005C210.715 46.6811 210.6 46.6845 210.49 46.7107C210.379 46.7369 210.275 46.7853 210.184 46.853C210.092 46.9206 210.016 47.006 209.958 47.1042C209.901 47.2023 209.864 47.311 209.85 47.4238C209.836 47.5366 209.845 47.6511 209.876 47.7603C209.908 47.8695 209.961 47.9712 210.033 48.0593L214.113 53.5793C214.19 53.6856 214.292 53.7719 214.41 53.8311C214.528 53.8904 214.658 53.9209 214.789 53.9201Z" fill="#4C3133"/>
<path d="M190.55 63.2801H193.91C194.133 63.2801 194.346 63.1916 194.504 63.0341C194.661 62.8765 194.75 62.6629 194.75 62.4401C194.75 62.2173 194.661 62.0037 194.504 61.8461C194.346 61.6886 194.133 61.6001 193.91 61.6001H190.55C190.327 61.6001 190.114 61.6886 189.956 61.8461C189.799 62.0037 189.71 62.2173 189.71 62.4401C189.71 62.6629 189.799 62.8765 189.956 63.0341C190.114 63.1916 190.327 63.2801 190.55 63.2801Z" fill="#4C3133"/>
<path d="M50.1016 124.542H107.39C108.387 124.542 109.344 124.939 110.049 125.644C110.754 126.349 111.15 127.306 111.15 128.303V144.993C111.151 145.487 111.054 145.976 110.865 146.433C110.676 146.889 110.399 147.304 110.05 147.654C109.7 148.003 109.286 148.28 108.829 148.47C108.373 148.659 107.884 148.756 107.39 148.756H105.777C105.664 148.756 105.556 148.801 105.476 148.88C105.396 148.96 105.35 149.068 105.35 149.181V153.558C105.349 153.633 105.329 153.707 105.292 153.771C105.254 153.836 105.2 153.89 105.135 153.927C105.07 153.964 104.996 153.983 104.921 153.982C104.847 153.982 104.773 153.961 104.709 153.923L96.0688 148.814C96.0023 148.776 95.927 148.756 95.8504 148.756H50.1016C49.1039 148.755 48.1474 148.359 47.4422 147.653C46.7369 146.947 46.3408 145.991 46.3408 144.993V128.303C46.3414 127.306 46.7378 126.35 47.443 125.645C48.1481 124.94 49.1044 124.543 50.1016 124.542Z" fill="white"/>
<path d="M50.1013 124.542C49.104 124.543 48.1478 124.939 47.4427 125.645C46.7375 126.35 46.3411 127.306 46.3405 128.303V144.993C46.3405 145.99 46.7366 146.947 47.4418 147.653C48.1471 148.359 49.1036 148.755 50.1013 148.756H95.8693C95.9459 148.756 96.0212 148.776 96.0877 148.814L104.728 153.923C104.792 153.962 104.865 153.983 104.941 153.984C105.016 153.985 105.09 153.966 105.155 153.929C105.22 153.892 105.275 153.838 105.312 153.773C105.35 153.707 105.369 153.634 105.368 153.558V149.181C105.369 149.068 105.414 148.96 105.494 148.88C105.574 148.801 105.683 148.756 105.796 148.756H107.389C107.883 148.756 108.373 148.659 108.829 148.47C109.285 148.28 109.7 148.003 110.049 147.654C110.399 147.304 110.676 146.889 110.864 146.433C111.053 145.976 111.15 145.487 111.15 144.993V128.303C111.15 127.306 110.754 126.349 110.049 125.644C109.343 124.939 108.387 124.542 107.389 124.542H50.1013ZM50.1013 122.862H107.389C108.832 122.864 110.214 123.438 111.234 124.458C112.254 125.478 112.828 126.861 112.83 128.303V144.993C112.829 146.436 112.255 147.819 111.235 148.839C110.215 149.86 108.832 150.434 107.389 150.436H107.029V153.556C107.029 153.927 106.93 154.292 106.743 154.613C106.557 154.934 106.288 155.2 105.966 155.383C105.643 155.567 105.278 155.663 104.907 155.66C104.535 155.657 104.171 155.557 103.852 155.368L95.5141 150.434H50.1013C48.6585 150.432 47.2753 149.858 46.2553 148.837C45.2353 147.817 44.6618 146.433 44.6605 144.99V128.303C44.6624 126.861 45.2362 125.478 46.2562 124.458C47.2761 123.438 48.6589 122.864 50.1013 122.862Z" fill="#4C3133"/>
<path d="M70.3019 140.69C67.5157 140.69 65.2571 138.431 65.2571 135.645C65.2571 132.859 67.5157 130.6 70.3019 130.6C73.088 130.6 75.3467 132.859 75.3467 135.645C75.3467 138.431 73.088 140.69 70.3019 140.69Z" fill="#F0F0F0"/>
<path d="M70.3017 141.52C71.4656 141.52 72.6034 141.175 73.5711 140.528C74.5389 139.882 75.2932 138.962 75.7386 137.887C76.184 136.812 76.3005 135.629 76.0734 134.487C75.8464 133.346 75.2859 132.297 74.4629 131.474C73.6399 130.651 72.5913 130.091 71.4498 129.863C70.3082 129.636 69.125 129.753 68.0497 130.198C66.9744 130.644 66.0553 131.398 65.4087 132.366C64.7621 133.333 64.4169 134.471 64.4169 135.635C64.4188 137.195 65.0394 138.691 66.1426 139.794C67.2458 140.897 68.7416 141.518 70.3017 141.52ZM70.3017 131.44C71.1333 131.44 71.9463 131.687 72.6378 132.149C73.3293 132.611 73.8682 133.267 74.1864 134.036C74.5047 134.804 74.588 135.649 74.4257 136.465C74.2635 137.281 73.863 138.03 73.275 138.618C72.6869 139.206 71.9377 139.607 71.122 139.769C70.3064 139.931 69.4609 139.848 68.6926 139.529C67.9243 139.211 67.2676 138.672 66.8056 137.981C66.3435 137.289 66.0969 136.476 66.0969 135.645C66.0982 134.53 66.5416 133.461 67.3299 132.673C68.1182 131.885 69.1869 131.441 70.3017 131.44Z" fill="#4C3133"/>
<path d="M52.7728 134.632H55.9384C55.0264 133.948 54.124 133.192 54.2584 131.858C54.4984 129.335 56.2744 130.595 56.2744 131.858C56.2744 133.622 58.9864 132.866 59.0176 135.64C59.039 135.73 59.0495 135.823 59.0488 135.916V138.796C59.0487 139.108 58.9353 139.41 58.7297 139.645C58.524 139.881 58.24 140.033 57.9304 140.075L54.1096 140.586C53.7823 140.63 53.4494 140.603 53.1333 140.508C52.8172 140.413 52.5252 140.251 52.2767 140.033C52.0283 139.816 51.8293 139.548 51.693 139.247C51.5566 138.946 51.4862 138.62 51.4864 138.29V135.921C51.4861 135.752 51.5191 135.584 51.5836 135.428C51.6481 135.271 51.7428 135.129 51.8623 135.01C51.9818 134.89 52.1237 134.795 52.28 134.73C52.4362 134.665 52.6037 134.632 52.7728 134.632Z" fill="#C5E6F1"/>
<path d="M55.1414 130.401C54.7406 130.401 54.3638 130.792 54.2582 131.858C54.1238 133.197 55.0262 133.948 55.9382 134.632H52.7726C52.6032 134.632 52.4355 134.665 52.279 134.729C52.1225 134.794 51.9803 134.889 51.8606 135.009C51.7408 135.128 51.6459 135.271 51.5812 135.427C51.5166 135.584 51.4835 135.751 51.4838 135.921V138.29C51.4824 138.62 51.5521 138.948 51.6881 139.249C51.8242 139.551 52.0235 139.819 52.2724 140.037C52.5214 140.255 52.8143 140.417 53.1312 140.511C53.4481 140.606 53.7817 140.632 54.1094 140.586L57.9302 140.08C58.2398 140.038 58.5238 139.885 58.7295 139.65C58.9351 139.415 59.0485 139.113 59.0486 138.801V135.921C59.0493 135.828 59.0388 135.735 59.0174 135.645C58.9862 132.87 56.2742 133.626 56.2742 131.862C56.2742 131.142 55.6862 130.406 55.1414 130.406V130.401ZM55.1414 128.726C55.55 128.738 55.9505 128.843 56.3126 129.032C56.6747 129.222 56.989 129.491 57.2318 129.82C57.647 130.339 57.8977 130.97 57.9518 131.632L58.2062 131.771C58.991 132.191 60.6062 133.055 60.6998 135.477C60.7227 135.625 60.7339 135.775 60.7334 135.926V138.806C60.7319 139.525 60.4704 140.219 59.997 140.76C59.5237 141.301 58.8706 141.653 58.1582 141.75L54.3326 142.259C54.156 142.283 53.978 142.295 53.7998 142.295C52.7406 142.293 51.7254 141.871 50.9771 141.122C50.2289 140.372 49.8086 139.356 49.8086 138.297V135.928C49.8091 135.162 50.1052 134.426 50.635 133.874C51.1649 133.321 51.8877 132.994 52.6526 132.962C52.5663 132.546 52.5453 132.119 52.5902 131.697C52.8734 128.872 54.7694 128.728 55.1462 128.728L55.1414 128.726Z" fill="#4C3133"/>
<path d="M80.8096 142.017H105.275C105.498 142.017 105.712 141.928 105.869 141.771C106.027 141.613 106.115 141.4 106.115 141.177C106.115 140.954 106.027 140.74 105.869 140.583C105.712 140.425 105.498 140.337 105.275 140.337H80.8096C80.5869 140.337 80.3732 140.425 80.2157 140.583C80.0581 140.74 79.9696 140.954 79.9696 141.177C79.9696 141.4 80.0581 141.613 80.2157 141.771C80.3732 141.928 80.5869 142.017 80.8096 142.017Z" fill="#4C3133"/>
<path d="M94.4291 136.72C94.6519 136.722 94.8663 136.635 95.0252 136.479C95.1841 136.323 95.2744 136.11 95.2763 135.887C95.2782 135.664 95.1916 135.45 95.0354 135.291C94.8792 135.132 94.6663 135.042 94.4435 135.04L80.8235 134.8C80.6007 134.796 80.3854 134.88 80.225 135.035C80.0645 135.19 79.9721 135.402 79.9679 135.624C79.9638 135.847 80.0483 136.063 80.2029 136.223C80.3575 136.383 80.5695 136.476 80.7923 136.48L94.4123 136.72H94.4291Z" fill="#4C3133"/>
<path d="M98.3896 136.48H100.55C100.772 136.48 100.986 136.392 101.144 136.234C101.301 136.076 101.39 135.863 101.39 135.64C101.39 135.417 101.301 135.204 101.144 135.046C100.986 134.889 100.772 134.8 100.55 134.8H98.3896C98.1669 134.8 97.9532 134.889 97.7957 135.046C97.6382 135.204 97.5496 135.417 97.5496 135.64C97.5496 135.863 97.6382 136.076 97.7957 136.234C97.9532 136.392 98.1669 136.48 98.3896 136.48Z" fill="#4C3133"/>
</svg>
